<svg width="64" height="64" viewBox="0 0 64 64" fill="none" xmlns="http://www.w3.org/2000/svg">
<path fill-rule="evenodd" clip-rule="evenodd" d="M2 13C3.10457 13 4 13.8954 4 15V49C4 50.1046 3.10457 51 2 51C0.89543 51 0 50.1046 0 49V15C0 13.8954 0.89543 13 2 13Z"/>
<path fill-rule="evenodd" clip-rule="evenodd" d="M62 23C63.1046 23 64 23.8954 64 25V49C64 50.1046 63.1046 51 62 51C60.8954 51 60 50.1046 60 49V25C60 23.8954 60.8954 23 62 23Z"/>
<path fill-rule="evenodd" clip-rule="evenodd" d="M0 39C0 37.8954 0.89543 37 2 37H62C63.1046 37 64 37.8954 64 39C64 40.1046 63.1046 41 62 41H2C0.89543 41 0 40.1046 0 39Z"/>
<path fill-rule="evenodd" clip-rule="evenodd" d="M10.3431 19.3431C11.8434 17.8429 13.8783 17 16 17C18.1217 17 20.1566 17.8429 21.6569 19.3431C23.1571 20.8434 24 22.8783 24 25C24 27.1217 23.1571 29.1566 21.6569 30.6569C20.1566 32.1571 18.1217 33 16 33C13.8783 33 11.8434 32.1571 10.3431 30.6569C8.84286 29.1566 8 27.1217 8 25C8 22.8783 8.84286 20.8434 10.3431 19.3431ZM16 21C14.9391 21 13.9217 21.4214 13.1716 22.1716C12.4214 22.9217 12 23.9391 12 25C12 26.0609 12.4214 27.0783 13.1716 27.8284C13.9217 28.5786 14.9391 29 16 29C17.0609 29 18.0783 28.5786 18.8284 27.8284C19.5786 27.0783 20 26.0609 20 25C20 23.9391 19.5786 22.9217 18.8284 22.1716C18.0783 21.4214 17.0609 21 16 21Z"/>
<path fill-rule="evenodd" clip-rule="evenodd" d="M32.9703 17.681C32.3805 17.5335 31.7648 17.5224 31.1701 17.6486C30.5752 17.7747 30.0169 18.0349 29.5377 18.4092C29.0584 18.7836 28.6709 19.2622 28.4044 19.8089C28.1381 20.3551 27.9998 20.9549 28 21.5626C28 21.5624 28 21.5628 28 21.5626V31C28 32.1042 28.8949 32.9995 29.9991 33L53.9991 33.0106C55.1031 33.0111 55.9987 32.1169 56 31.0129C56.0025 28.8509 55.2817 26.7502 53.9523 25.0452C52.623 23.3401 50.7616 22.1288 48.6643 21.6038L32.9703 17.681C32.9702 17.681 32.9704 17.681 32.9703 17.681ZM47.6931 25.4841L32.0003 21.5616L32 29.0009L51.6397 29.0096C51.4385 28.4717 51.1557 27.9637 50.7978 27.5046C50.0174 26.5037 48.9242 25.7924 47.6931 25.4841C47.6933 25.4842 47.6929 25.4841 47.6931 25.4841Z"/>
</svg>
