<?xml version="1.0" encoding="UTF-8"?>
<svg xmlns="http://www.w3.org/2000/svg" xmlns:xlink="http://www.w3.org/1999/xlink" width="166.12pt" height="185.92pt" viewBox="0 0 166.12 185.92" version="1.1">
<g id="surface1">
<g clip-rule="nonzero">
<path style=" stroke:none;fill-rule:nonzero;" d="M 134.207031 136.625 C 123.648438 136.625 115.089844 128.066406 115.089844 117.507813 C 115.089844 106.949219 123.648438 98.390625 134.207031 98.390625 C 144.765625 98.390625 153.324219 106.949219 153.324219 117.507813 C 153.324219 128.066406 144.765625 136.625 134.207031 136.625 M 162.558594 103.117188 C 156.429688 91.722656 146.621094 86.089844 133.820313 86.058594 C 92.261719 85.953125 50.703125 86.007813 9.148438 86.058594 C 7.601563 86.0625 5.914063 86.367188 4.539063 87.039063 C 0.675781 88.933594 -0.265625 92.355469 0.0585938 96.40625 C 1.105469 109.363281 3.230469 122.125 6.414063 134.734375 C 8.800781 144.179688 12.40625 153.007813 18.679688 160.574219 C 20.597656 162.890625 22.707031 165.046875 24.90625 167.472656 C 24.25 167.503906 23.828125 167.542969 23.410156 167.546875 C 20.058594 167.605469 16.703125 167.527344 13.363281 167.734375 C 8.597656 168.03125 4.789063 172.75 5.3125 177.472656 C 5.890625 182.648438 9.585938 185.914063 14.945313 185.914063 C 49 185.921875 83.054688 185.917969 117.109375 185.917969 C 117.480469 185.917969 117.851563 185.914063 118.222656 185.886719 C 122.960938 185.535156 126.765625 181.445313 126.734375 176.738281 C 126.699219 172.035156 123.046875 168 118.335938 167.707031 C 115.15625 167.511719 111.957031 167.597656 108.765625 167.546875 C 108.230469 167.539063 107.699219 167.484375 107.039063 167.441406 C 107.238281 167.121094 107.273438 167.015625 107.347656 166.949219 C 112.625 161.980469 116.933594 156.292969 120.195313 149.804688 C 120.421875 149.355469 121.257813 148.980469 121.816406 148.972656 C 125.804688 148.898438 129.796875 148.902344 133.789063 148.941406 C 140.167969 148.996094 146.078125 147.425781 151.511719 144.042969 C 165.160156 135.542969 170.167969 117.265625 162.558594 103.117188 "/>
</g>
<path style=" stroke:none;fill-rule:nonzero;" d="M 58.03125 66.160156 C 60.566406 66.570313 61.828125 65.3125 61.722656 62.746094 C 61.648438 60.886719 61.671875 59.023438 61.660156 57.164063 C 61.640625 54.105469 62.691406 51.589844 65.253906 49.753906 C 67.625 48.046875 69.992188 46.320313 72.257813 44.476563 C 79.050781 38.945313 83.132813 31.949219 83.625 22.488281 C 83.304688 13.296875 79.242188 5.8125 70.609375 0.988281 C 67.28125 -0.871094 64.402344 -0.351563 64.605469 4.628906 C 64.722656 7.570313 64.203125 10.5625 63.726563 13.492188 C 62.917969 18.492188 59.632813 21.886719 55.878906 24.914063 C 50.527344 29.234375 46.066406 34.226563 44.257813 41.070313 C 42.292969 48.511719 43.5 55.328125 48.835938 61.097656 C 51.308594 63.773438 54.382813 65.566406 58.03125 66.160156 "/>
<path style=" stroke:none;fill-rule:nonzero;" d="M 73.46875 65.628906 C 73.46875 66.265625 73.398438 66.910156 73.480469 67.539063 C 74.167969 72.824219 76.929688 76.605469 81.839844 78.691406 C 84.148438 79.675781 85.839844 78.441406 85.9375 75.949219 C 85.980469 74.835938 86.085938 73.71875 86.257813 72.621094 C 86.546875 70.75 87.328125 69.230469 89.171875 68.351563 C 90.992188 67.480469 92.746094 66.476563 94.5 65.480469 C 102.003906 61.210938 106.472656 53.035156 104.789063 44.773438 C 103.808594 39.957031 101.375 36.105469 97.167969 33.484375 C 95.042969 32.164063 93.109375 33.050781 92.664063 35.480469 C 92.53125 36.207031 92.441406 36.949219 92.265625 37.667969 C 91.417969 41.128906 90.757813 44.726563 87.628906 47.015625 C 85.832031 48.328125 83.84375 49.371094 82.019531 50.644531 C 76.816406 54.285156 73.542969 59.0625 73.46875 65.628906 "/>
</g>
</svg>
