<svg width="181" height="160" viewBox="0 0 181 160" fill="none" xmlns="http://www.w3.org/2000/svg">
<path d="M21.5974 135.922V127.522H26.4934V128.938H23.3014V130.93H26.0134V132.346H23.3014V134.506H26.4934V135.922H21.5974ZM28.246 135.922V129.874H29.77V130.354C30.19 129.946 30.754 129.634 31.558 129.634C32.866 129.634 33.91 130.534 33.91 132.322V135.922H32.374V132.382C32.374 131.578 31.918 131.074 31.174 131.074C30.406 131.074 29.998 131.59 29.77 131.974V135.922H28.246ZM36.0246 133.714V131.242H34.8966V129.874H36.0246V128.362H37.5606V129.874H39.4086V131.242H37.5606V133.714C37.5606 134.386 37.9206 134.65 38.5206 134.65C38.9406 134.65 39.2166 134.602 39.4206 134.518V135.85C39.1206 135.982 38.7606 136.042 38.2566 136.042C36.7446 136.042 36.0246 135.19 36.0246 133.714ZM40.7734 135.922V129.874H42.2974V130.474C42.6934 130.066 43.2094 129.754 43.8934 129.754C44.0974 129.754 44.2774 129.79 44.4214 129.838V131.338C44.2294 131.29 44.0254 131.254 43.7494 131.254C43.0054 131.254 42.5254 131.662 42.2974 132.046V135.922H40.7734ZM50.9586 134.938C50.3946 135.694 49.4586 136.162 48.3186 136.162C46.1706 136.162 44.9586 134.662 44.9586 132.898C44.9586 131.11 46.0866 129.634 48.0666 129.634C49.7466 129.634 50.8506 130.774 50.8506 132.358C50.8506 132.694 50.8026 133.006 50.7546 133.21H46.5186C46.6626 134.338 47.3586 134.794 48.3066 134.794C48.9666 134.794 49.5426 134.506 49.8666 134.074L50.9586 134.938ZM48.0306 130.882C47.2506 130.882 46.7346 131.314 46.5666 132.106H49.3506C49.3266 131.494 48.8826 130.882 48.0306 130.882ZM52.3398 138.874V129.874H53.8638V130.366C54.3318 129.898 54.9198 129.634 55.7478 129.634C57.6678 129.634 58.8198 131.134 58.8198 132.898C58.8198 134.662 57.6678 136.162 55.7478 136.162C54.9198 136.162 54.3318 135.898 53.8638 135.43V138.874H52.3398ZM55.5318 131.074C54.8238 131.074 54.2478 131.386 53.8638 131.95V133.846C54.2718 134.422 54.8358 134.722 55.5318 134.722C56.5638 134.722 57.2358 133.954 57.2358 132.898C57.2358 131.842 56.5638 131.074 55.5318 131.074ZM60.2148 135.922V129.874H61.7388V130.474C62.1348 130.066 62.6508 129.754 63.3348 129.754C63.5388 129.754 63.7188 129.79 63.8628 129.838V131.338C63.6708 131.29 63.4668 131.254 63.1908 131.254C62.4468 131.254 61.9668 131.662 61.7388 132.046V135.922H60.2148ZM65.8578 128.818C65.3178 128.818 64.8618 128.362 64.8618 127.822C64.8618 127.282 65.3178 126.826 65.8578 126.826C66.3978 126.826 66.8418 127.282 66.8418 127.822C66.8418 128.362 66.3978 128.818 65.8578 128.818ZM65.0898 135.922V129.874H66.6138V135.922H65.0898ZM67.8313 135.046L68.8393 134.134C69.2113 134.602 69.6553 134.938 70.2313 134.938C70.7233 134.938 70.9753 134.65 70.9753 134.29C70.9753 133.234 68.0833 133.63 68.0833 131.506C68.0833 130.438 68.9833 129.634 70.2433 129.634C71.1673 129.634 72.0073 130.078 72.4393 130.666L71.4313 131.554C71.1193 131.17 70.7233 130.858 70.2553 130.858C69.7753 130.858 69.5473 131.122 69.5473 131.434C69.5473 132.466 72.4393 132.106 72.4393 134.194C72.4153 135.466 71.3953 136.162 70.2553 136.162C69.1753 136.162 68.4073 135.73 67.8313 135.046ZM79.3882 134.938C78.8242 135.694 77.8882 136.162 76.7482 136.162C74.6002 136.162 73.3882 134.662 73.3882 132.898C73.3882 131.11 74.5162 129.634 76.4962 129.634C78.1762 129.634 79.2802 130.774 79.2802 132.358C79.2802 132.694 79.2322 133.006 79.1842 133.21H74.9482C75.0922 134.338 75.7882 134.794 76.7362 134.794C77.3962 134.794 77.9722 134.506 78.2962 134.074L79.3882 134.938ZM76.4602 130.882C75.6802 130.882 75.1642 131.314 74.9962 132.106H77.7802C77.7562 131.494 77.3122 130.882 76.4602 130.882ZM84.0038 135.922V129.874H85.5278V130.474C85.9238 130.066 86.4398 129.754 87.1238 129.754C87.3278 129.754 87.5078 129.79 87.6518 129.838V131.338C87.4598 131.29 87.2558 131.254 86.9798 131.254C86.2358 131.254 85.7558 131.662 85.5278 132.046V135.922H84.0038ZM94.189 134.938C93.625 135.694 92.689 136.162 91.549 136.162C89.401 136.162 88.189 134.662 88.189 132.898C88.189 131.11 89.317 129.634 91.297 129.634C92.977 129.634 94.081 130.774 94.081 132.358C94.081 132.694 94.033 133.006 93.985 133.21H89.749C89.893 134.338 90.589 134.794 91.537 134.794C92.197 134.794 92.773 134.506 93.097 134.074L94.189 134.938ZM91.261 130.882C90.481 130.882 89.965 131.314 89.797 132.106H92.581C92.557 131.494 92.113 130.882 91.261 130.882ZM94.9602 135.046L95.9682 134.134C96.3402 134.602 96.7842 134.938 97.3602 134.938C97.8522 134.938 98.1042 134.65 98.1042 134.29C98.1042 133.234 95.2122 133.63 95.2122 131.506C95.2122 130.438 96.1122 129.634 97.3722 129.634C98.2962 129.634 99.1362 130.078 99.5682 130.666L98.5602 131.554C98.2482 131.17 97.8522 130.858 97.3842 130.858C96.9042 130.858 96.6762 131.122 96.6762 131.434C96.6762 132.466 99.5682 132.106 99.5682 134.194C99.5442 135.466 98.5242 136.162 97.3842 136.162C96.3042 136.162 95.5362 135.73 94.9602 135.046ZM100.973 138.874V129.874H102.497V130.366C102.965 129.898 103.553 129.634 104.381 129.634C106.301 129.634 107.453 131.134 107.453 132.898C107.453 134.662 106.301 136.162 104.381 136.162C103.553 136.162 102.965 135.898 102.497 135.43V138.874H100.973ZM104.165 131.074C103.457 131.074 102.881 131.386 102.497 131.95V133.846C102.905 134.422 103.469 134.722 104.165 134.722C105.197 134.722 105.869 133.954 105.869 132.898C105.869 131.842 105.197 131.074 104.165 131.074ZM114.474 134.938C113.91 135.694 112.974 136.162 111.834 136.162C109.686 136.162 108.474 134.662 108.474 132.898C108.474 131.11 109.602 129.634 111.582 129.634C113.262 129.634 114.366 130.774 114.366 132.358C114.366 132.694 114.318 133.006 114.27 133.21H110.034C110.178 134.338 110.874 134.794 111.822 134.794C112.482 134.794 113.058 134.506 113.382 134.074L114.474 134.938ZM111.546 130.882C110.766 130.882 110.25 131.314 110.082 132.106H112.866C112.842 131.494 112.398 130.882 111.546 130.882ZM118.713 134.722C119.313 134.722 119.793 134.446 120.081 134.026L121.269 134.938C120.705 135.682 119.817 136.162 118.713 136.162C116.625 136.162 115.377 134.662 115.377 132.898C115.377 131.134 116.625 129.634 118.713 129.634C119.817 129.634 120.705 130.114 121.269 130.858L120.081 131.77C119.793 131.35 119.313 131.074 118.689 131.074C117.693 131.074 116.961 131.842 116.961 132.898C116.961 133.966 117.693 134.722 118.713 134.722ZM122.849 133.714V131.242H121.721V129.874H122.849V128.362H124.385V129.874H126.233V131.242H124.385V133.714C124.385 134.386 124.745 134.65 125.345 134.65C125.765 134.65 126.041 134.602 126.245 134.518V135.85C125.945 135.982 125.585 136.042 125.081 136.042C123.569 136.042 122.849 135.19 122.849 133.714ZM131.57 133.306V129.874H133.106V133.234C133.106 135.046 132.05 136.162 130.274 136.162C128.498 136.162 127.454 135.046 127.454 133.234V129.874H128.99V133.306C128.99 134.182 129.446 134.722 130.286 134.722C131.114 134.722 131.57 134.182 131.57 133.306ZM140.361 134.938C139.797 135.694 138.861 136.162 137.721 136.162C135.573 136.162 134.361 134.662 134.361 132.898C134.361 131.11 135.489 129.634 137.469 129.634C139.149 129.634 140.253 130.774 140.253 132.358C140.253 132.694 140.205 133.006 140.157 133.21H135.921C136.065 134.338 136.761 134.794 137.709 134.794C138.369 134.794 138.945 134.506 139.269 134.074L140.361 134.938ZM137.433 130.882C136.653 130.882 136.137 131.314 135.969 132.106H138.753C138.729 131.494 138.285 130.882 137.433 130.882ZM145.656 133.306V129.874H147.192V133.234C147.192 135.046 146.136 136.162 144.36 136.162C142.584 136.162 141.54 135.046 141.54 133.234V129.874H143.076V133.306C143.076 134.182 143.532 134.722 144.372 134.722C145.2 134.722 145.656 134.182 145.656 133.306ZM148.304 135.046L149.312 134.134C149.684 134.602 150.128 134.938 150.704 134.938C151.196 134.938 151.448 134.65 151.448 134.29C151.448 133.234 148.556 133.63 148.556 131.506C148.556 130.438 149.456 129.634 150.716 129.634C151.64 129.634 152.48 130.078 152.912 130.666L151.904 131.554C151.592 131.17 151.196 130.858 150.728 130.858C150.248 130.858 150.02 131.122 150.02 131.434C150.02 132.466 152.912 132.106 152.912 134.194C152.888 135.466 151.868 136.162 150.728 136.162C149.648 136.162 148.88 135.73 148.304 135.046ZM159.861 134.938C159.297 135.694 158.361 136.162 157.221 136.162C155.073 136.162 153.861 134.662 153.861 132.898C153.861 131.11 154.989 129.634 156.969 129.634C158.649 129.634 159.753 130.774 159.753 132.358C159.753 132.694 159.705 133.006 159.657 133.21H155.421C155.565 134.338 156.261 134.794 157.209 134.794C157.869 134.794 158.445 134.506 158.769 134.074L159.861 134.938ZM156.933 130.882C156.153 130.882 155.637 131.314 155.469 132.106H158.253C158.229 131.494 157.785 130.882 156.933 130.882ZM11.0621 149.898C11.0621 148.134 12.2261 146.634 14.1341 146.634C14.9501 146.634 15.5381 146.886 16.0061 147.354V143.922H17.5421V152.922H16.0061V152.442C15.5381 152.91 14.9501 153.162 14.1341 153.162C12.2261 153.162 11.0621 151.662 11.0621 149.898ZM12.6581 149.898C12.6581 150.954 13.3181 151.722 14.3501 151.722C15.0341 151.722 15.5981 151.434 16.0061 150.882V148.914C15.5981 148.362 15.0341 148.074 14.3501 148.074C13.3181 148.074 12.6581 148.842 12.6581 149.898ZM23.3531 150.306V146.874H24.8891V150.234C24.8891 152.046 23.8331 153.162 22.0571 153.162C20.2811 153.162 19.2371 152.046 19.2371 150.234V146.874H20.7731V150.306C20.7731 151.182 21.2291 151.722 22.0691 151.722C22.8971 151.722 23.3531 151.182 23.3531 150.306ZM29.2825 152.046L30.2905 151.134C30.6625 151.602 31.1065 151.938 31.6825 151.938C32.1745 151.938 32.4265 151.65 32.4265 151.29C32.4265 150.234 29.5345 150.63 29.5345 148.506C29.5345 147.438 30.4345 146.634 31.6945 146.634C32.6185 146.634 33.4585 147.078 33.8905 147.666L32.8825 148.554C32.5705 148.17 32.1745 147.858 31.7065 147.858C31.2265 147.858 30.9985 148.122 30.9985 148.434C30.9985 149.466 33.8905 149.106 33.8905 151.194C33.8665 152.466 32.8465 153.162 31.7065 153.162C30.6265 153.162 29.8585 152.73 29.2825 152.046ZM39.2789 150.306V146.874H40.8149V150.234C40.8149 152.046 39.7589 153.162 37.9829 153.162C36.2069 153.162 35.1629 152.046 35.1629 150.234V146.874H36.6989V150.306C36.6989 151.182 37.1549 151.722 37.9949 151.722C38.8229 151.722 39.2789 151.182 39.2789 150.306ZM43.2699 145.818C42.7299 145.818 42.2739 145.362 42.2739 144.822C42.2739 144.282 42.7299 143.826 43.2699 143.826C43.8099 143.826 44.2539 144.282 44.2539 144.822C44.2539 145.362 43.8099 145.818 43.2699 145.818ZM42.5019 152.922V146.874H44.0259V152.922H42.5019ZM44.9894 146.874H46.6214L48.1934 151.194L49.7534 146.874H51.3974L49.1894 152.922H47.1854L44.9894 146.874ZM53.1254 145.818C52.5854 145.818 52.1294 145.362 52.1294 144.822C52.1294 144.282 52.5854 143.826 53.1254 143.826C53.6654 143.826 54.1094 144.282 54.1094 144.822C54.1094 145.362 53.6654 145.818 53.1254 145.818ZM52.3574 152.922V146.874H53.8814V152.922H52.3574ZM58.5113 149.898C58.5113 148.134 59.6753 146.634 61.5833 146.634C62.3993 146.634 62.9873 146.886 63.4553 147.354V143.922H64.9913V152.922H63.4553V152.442C62.9873 152.91 62.3993 153.162 61.5833 153.162C59.6753 153.162 58.5113 151.662 58.5113 149.898ZM60.1073 149.898C60.1073 150.954 60.7673 151.722 61.7993 151.722C62.4833 151.722 63.0473 151.434 63.4553 150.882V148.914C63.0473 148.362 62.4833 148.074 61.7993 148.074C60.7673 148.074 60.1073 148.842 60.1073 149.898ZM70.8023 150.306V146.874H72.3383V150.234C72.3383 152.046 71.2823 153.162 69.5063 153.162C67.7303 153.162 66.6863 152.046 66.6863 150.234V146.874H68.2223V150.306C68.2223 151.182 68.6783 151.722 69.5183 151.722C70.3463 151.722 70.8023 151.182 70.8023 150.306ZM77.6437 150.714V148.242H76.5157V146.874H77.6437V145.362H79.1797V146.874H81.0277V148.242H79.1797V150.714C79.1797 151.386 79.5397 151.65 80.1397 151.65C80.5597 151.65 80.8357 151.602 81.0397 151.518V152.85C80.7397 152.982 80.3797 153.042 79.8757 153.042C78.3637 153.042 77.6437 152.19 77.6437 150.714ZM87.8433 151.938C87.2793 152.694 86.3433 153.162 85.2033 153.162C83.0553 153.162 81.8433 151.662 81.8433 149.898C81.8433 148.11 82.9713 146.634 84.9513 146.634C86.6313 146.634 87.7353 147.774 87.7353 149.358C87.7353 149.694 87.6873 150.006 87.6393 150.21H83.4033C83.5473 151.338 84.2433 151.794 85.1913 151.794C85.8513 151.794 86.4273 151.506 86.7513 151.074L87.8433 151.938ZM84.9153 147.882C84.1353 147.882 83.6193 148.314 83.4513 149.106H86.2353C86.2113 148.494 85.7673 147.882 84.9153 147.882ZM89.2245 152.922V146.874H90.7485V147.33C91.1565 146.934 91.6725 146.634 92.4165 146.634C93.1845 146.634 93.8565 146.97 94.2525 147.618C94.6845 147.09 95.2605 146.634 96.2805 146.634C97.5285 146.634 98.5125 147.498 98.5125 149.202V152.922H96.9765V149.262C96.9765 148.53 96.5805 148.074 95.8965 148.074C95.2365 148.074 94.8765 148.53 94.6365 148.938C94.6485 149.022 94.6485 149.106 94.6485 149.202V152.922H93.1125V149.262C93.1125 148.53 92.7165 148.074 92.0325 148.074C91.3365 148.074 90.9765 148.59 90.7485 148.974V152.922H89.2245ZM100.252 155.874V146.874H101.776V147.366C102.244 146.898 102.832 146.634 103.66 146.634C105.58 146.634 106.732 148.134 106.732 149.898C106.732 151.662 105.58 153.162 103.66 153.162C102.832 153.162 102.244 152.898 101.776 152.43V155.874H100.252ZM103.444 148.074C102.736 148.074 102.16 148.386 101.776 148.95V150.846C102.184 151.422 102.748 151.722 103.444 151.722C104.476 151.722 105.148 150.954 105.148 149.898C105.148 148.842 104.476 148.074 103.444 148.074ZM107.4 152.046L108.408 151.134C108.78 151.602 109.224 151.938 109.8 151.938C110.292 151.938 110.544 151.65 110.544 151.29C110.544 150.234 107.652 150.63 107.652 148.506C107.652 147.438 108.552 146.634 109.812 146.634C110.736 146.634 111.576 147.078 112.008 147.666L111 148.554C110.688 148.17 110.292 147.858 109.824 147.858C109.344 147.858 109.116 148.122 109.116 148.434C109.116 149.466 112.008 149.106 112.008 151.194C111.984 152.466 110.964 153.162 109.824 153.162C108.744 153.162 107.976 152.73 107.4 152.046ZM116.214 149.898C116.214 148.134 117.378 146.634 119.286 146.634C120.102 146.634 120.69 146.886 121.158 147.354V143.922H122.694V152.922H121.158V152.442C120.69 152.91 120.102 153.162 119.286 153.162C117.378 153.162 116.214 151.662 116.214 149.898ZM117.81 149.898C117.81 150.954 118.47 151.722 119.502 151.722C120.186 151.722 120.75 151.434 121.158 150.882V148.914C120.75 148.362 120.186 148.074 119.502 148.074C118.47 148.074 117.81 148.842 117.81 149.898ZM130.089 151.938C129.525 152.694 128.589 153.162 127.449 153.162C125.301 153.162 124.089 151.662 124.089 149.898C124.089 148.11 125.217 146.634 127.197 146.634C128.877 146.634 129.981 147.774 129.981 149.358C129.981 149.694 129.933 150.006 129.885 150.21H125.649C125.793 151.338 126.489 151.794 127.437 151.794C128.097 151.794 128.673 151.506 128.997 151.074L130.089 151.938ZM127.161 147.882C126.381 147.882 125.865 148.314 125.697 149.106H128.481C128.457 148.494 128.013 147.882 127.161 147.882ZM135.089 150.714V148.242H133.961V146.874H135.089V145.362H136.625V146.874H138.473V148.242H136.625V150.714C136.625 151.386 136.985 151.65 137.585 151.65C138.005 151.65 138.281 151.602 138.485 151.518V152.85C138.185 152.982 137.825 153.042 137.321 153.042C135.809 153.042 135.089 152.19 135.089 150.714ZM139.838 152.922V146.874H141.362V147.474C141.758 147.066 142.274 146.754 142.958 146.754C143.162 146.754 143.342 146.79 143.486 146.838V148.338C143.294 148.29 143.09 148.254 142.814 148.254C142.07 148.254 141.59 148.662 141.362 149.046V152.922H139.838ZM146.124 153.102C144.912 153.102 144.084 152.406 144.084 151.29C144.084 150.378 144.792 149.694 146.088 149.478L147.936 149.166V149.01C147.936 148.374 147.456 147.966 146.76 147.966C146.172 147.966 145.716 148.242 145.392 148.686L144.276 147.834C144.816 147.09 145.704 146.634 146.808 146.634C148.56 146.634 149.46 147.678 149.46 149.01V152.922H147.936V152.334C147.552 152.802 146.832 153.102 146.124 153.102ZM145.596 151.218C145.596 151.626 145.92 151.89 146.436 151.89C147.132 151.89 147.636 151.566 147.936 151.086V150.234L146.496 150.474C145.86 150.582 145.596 150.846 145.596 151.218ZM150.282 146.874H151.914L153.486 151.194L155.046 146.874H156.69L154.482 152.922H152.478L150.282 146.874ZM159.237 153.102C158.025 153.102 157.197 152.406 157.197 151.29C157.197 150.378 157.905 149.694 159.201 149.478L161.049 149.166V149.01C161.049 148.374 160.569 147.966 159.873 147.966C159.285 147.966 158.829 148.242 158.505 148.686L157.389 147.834C157.929 147.09 158.817 146.634 159.921 146.634C161.673 146.634 162.573 147.678 162.573 149.01V152.922H161.049V152.334C160.665 152.802 159.945 153.102 159.237 153.102ZM158.709 151.218C158.709 151.626 159.033 151.89 159.549 151.89C160.245 151.89 160.749 151.566 161.049 151.086V150.234L159.609 150.474C158.973 150.582 158.709 150.846 158.709 151.218ZM165.086 145.818C164.546 145.818 164.09 145.362 164.09 144.822C164.09 144.282 164.546 143.826 165.086 143.826C165.626 143.826 166.07 144.282 166.07 144.822C166.07 145.362 165.626 145.818 165.086 145.818ZM164.318 152.922V146.874H165.842V152.922H164.318ZM167.67 152.922V143.922H169.194V152.922H167.67Z" fill="#3184FF"/>
<path d="M126.796 32.3631L128.978 29.8477L129.736 30.5049C131.48 32.0188 134.151 31.8311 135.664 30.0825C137.177 28.3378 136.989 25.6659 135.246 24.152L126.976 16.9737C125.232 15.4598 122.562 15.6476 121.049 17.3923C119.536 19.1409 119.723 21.8088 121.471 23.3227L122.405 24.1325L120.341 26.5109C113.675 21.4606 105.702 18.0573 97.0184 16.8798V12.389H97.7417C101.147 12.389 103.931 9.59979 103.931 6.19644C103.927 2.78918 101.143 0 97.7378 0H81.6055C78.2 0 75.4161 2.78918 75.4161 6.19253C75.4161 9.59979 78.2 12.3851 81.6055 12.3851H81.7111V17.1537C75.3066 18.2568 69.3206 20.5766 64.0031 23.8743L62.4235 21.6523L62.5994 21.2025C64.4136 19.7707 64.7264 17.1106 63.2915 15.2994C61.8605 13.4843 59.2017 13.1753 57.3914 14.607L48.7975 21.3941C46.9833 22.8259 46.6705 25.486 48.1054 27.2972C49.5364 29.1123 52.1952 29.4213 54.0055 27.9896L54.6662 27.4654L56.2928 29.7539C46.4867 38.8764 40.3403 51.8873 40.3403 66.3418C40.3403 93.9167 62.6815 116.273 90.2464 116.273C117.807 116.273 140.149 93.9206 140.149 66.3418C140.149 53.2135 135.077 41.2744 126.796 32.3631Z" fill="#3184FF"/>
<g clip-path="url(#clip0_3014_29366)">
<path d="M88.6468 37.0039H78.5022V42.094H88.6468V37.0039Z" fill="white"/>
<path d="M81.7738 41.5035C81.8296 41.4475 81.8854 41.3915 81.9361 41.3304C82.0376 41.2134 82.139 41.1065 82.2557 41.0047C82.2912 40.9741 82.3267 40.9436 82.3622 40.9232C82.3724 40.9131 82.3724 40.8927 82.3825 40.8825C82.3369 40.9029 82.3064 40.9385 82.2557 40.9589C82.2456 40.9589 82.2354 40.9487 82.2456 40.9385C82.2811 40.9131 82.3166 40.8876 82.347 40.8622H82.3419C82.3318 40.8622 82.3318 40.852 82.3318 40.8418C82.205 40.8214 82.1137 40.908 82.0274 40.9843C82.0072 40.9945 81.9869 40.9741 81.9818 40.9741C81.8398 41.02 81.7333 41.1472 81.5912 41.2032V41.1828C81.5354 41.2032 81.4796 41.2388 81.4188 41.249C81.3325 41.2694 81.2565 41.2592 81.1804 41.2592C81.0637 41.2694 80.9471 41.2948 80.8304 41.3203C80.8253 41.3203 80.8253 41.3203 80.8202 41.3254C80.7594 41.3406 80.6985 41.3661 80.6427 41.3966L80.6224 41.417C80.6021 41.4373 80.5818 41.4628 80.5565 41.473C80.4956 41.5035 80.45 41.5544 80.3992 41.6002C80.3942 41.6053 80.3891 41.6053 80.384 41.6053C80.3333 41.6562 80.2826 41.7071 80.2319 41.7529C80.2268 41.758 80.2116 41.758 80.2014 41.758C80.2014 41.7529 80.2065 41.7529 80.2065 41.7478C80.2166 41.7326 80.2217 41.7224 80.2319 41.7071L80.2623 41.6613C80.2775 41.6409 80.2877 41.6206 80.3029 41.6053C80.3079 41.6002 80.3079 41.5951 80.3029 41.5951C80.2978 41.59 80.2927 41.59 80.2877 41.59C80.3333 41.5442 80.3942 41.5035 80.45 41.4679C80.4449 41.4679 80.4347 41.4628 80.4398 41.4577C80.4449 41.4475 80.45 41.4424 80.455 41.4322C80.455 41.4272 80.455 41.4272 80.4601 41.4221C80.4601 41.417 80.455 41.417 80.455 41.4119L80.4094 41.4424C80.384 41.4628 80.3688 41.5035 80.3333 41.5035H80.3181C80.313 41.5035 80.3079 41.5035 80.3079 41.4984V41.4933C80.3079 41.4882 80.313 41.4882 80.313 41.4831C80.313 41.4781 80.3181 41.4781 80.3181 41.473C80.3181 41.473 80.3181 41.4679 80.3232 41.4679C80.3232 41.4628 80.3282 41.4577 80.3282 41.4577C80.3282 41.4526 80.3333 41.4526 80.3333 41.4475C80.3384 41.4424 80.3434 41.4322 80.3434 41.4272C80.3434 41.4221 80.3485 41.4221 80.3485 41.417C80.3536 41.4119 80.3536 41.4068 80.3587 41.4017C80.3637 41.3915 80.3587 41.3864 80.3536 41.3864C80.3688 41.361 80.3942 41.3457 80.4195 41.3304H80.4145C80.45 41.3101 80.4905 41.2897 80.5261 41.2694L80.5413 41.2541C80.4855 41.2745 80.4398 41.2999 80.3891 41.3304C80.3891 41.3304 80.379 41.3355 80.3739 41.3406C80.3739 41.3406 80.3637 41.3457 80.3485 41.3304V41.3254C80.3587 41.305 80.3891 41.2948 80.4043 41.2795C80.4145 41.2795 80.4246 41.2795 80.4246 41.2897C80.734 41.0505 81.155 41.1065 81.5101 40.9843C81.5405 40.964 81.5659 40.9436 81.5963 40.9283C81.642 40.908 81.6825 40.8622 81.7383 40.8316C81.8144 40.7756 81.8702 40.7044 81.9006 40.6127C81.9006 40.6026 81.8905 40.5924 81.8905 40.5924C81.7637 40.7247 81.6217 40.8316 81.4695 40.908C81.2666 41.0149 81.0485 40.9945 80.8355 41.025C80.8456 41.0047 80.8659 41.0047 80.8811 41.0047C80.8811 40.9741 80.9014 40.964 80.9217 40.9487H80.9521C80.9623 40.9487 80.9623 40.9283 80.9724 40.9283C80.9927 40.9283 81.0231 40.9181 81.013 40.9181C80.9826 40.8774 80.9268 40.9487 80.8811 40.9181C80.9014 40.8978 80.8913 40.8723 80.9115 40.8622H80.9521C80.9521 40.8418 80.9724 40.8214 80.9724 40.8214C81.1144 40.7349 81.2514 40.6687 81.3833 40.5924C81.3528 40.5924 81.3376 40.6229 81.3072 40.6026C81.3275 40.6026 81.3072 40.572 81.3275 40.572C81.434 40.5415 81.5202 40.4855 81.6267 40.4448C81.5862 40.4448 81.5608 40.4753 81.5202 40.4448C81.5405 40.4346 81.5507 40.4142 81.576 40.4142V40.3837C81.576 40.3735 81.5862 40.3735 81.5963 40.3735C81.5862 40.3735 81.576 40.3633 81.576 40.3633C81.5862 40.343 81.6166 40.3532 81.6318 40.3328C81.6217 40.3328 81.6014 40.3328 81.6014 40.3226C81.6318 40.2819 81.6775 40.2768 81.7282 40.2666C81.718 40.2463 81.6876 40.2666 81.6876 40.2463C81.6876 40.2361 81.6977 40.2361 81.7079 40.2361H81.6876C81.6673 40.2259 81.6775 40.2055 81.6775 40.1954C81.7333 40.1292 81.7333 40.0427 81.7637 39.9663C81.7535 39.9663 81.7434 39.9663 81.7434 39.9561C81.647 40.063 81.4949 40.0987 81.3528 40.1394H81.2869C81.2412 40.1597 81.1702 40.1597 81.1246 40.1292C81.084 40.1088 81.0688 40.0834 81.0282 40.0528C80.9521 40.007 80.876 39.9663 80.7898 39.9358C80.5514 39.8594 80.3029 39.8187 80.0543 39.8289C80.1608 39.7729 80.2775 39.7678 80.3891 39.7322C80.5514 39.6864 80.7036 39.6253 80.876 39.6355C80.8456 39.6253 80.8101 39.6355 80.7797 39.6355C80.6478 39.6253 80.5108 39.666 80.3688 39.6914C80.2724 39.7118 80.1862 39.7474 80.0898 39.7678C80.034 39.7882 80.0036 39.8442 79.9377 39.834V39.8034C80.034 39.6864 80.1507 39.5744 80.3029 39.5642C80.4753 39.5337 80.6376 39.5642 80.8101 39.5846C80.9369 39.5947 81.0485 39.6253 81.1753 39.6507C81.221 39.6507 81.2311 39.7271 81.2717 39.7373C81.3275 39.7576 81.3883 39.7373 81.4441 39.778C81.4441 39.7576 81.434 39.7373 81.4441 39.722C81.4847 39.6813 81.5304 39.7322 81.5709 39.7118C81.647 39.666 81.505 39.5795 81.4644 39.5082C81.4644 39.498 81.4746 39.4878 81.4746 39.4878C81.5507 39.554 81.6064 39.6304 81.7028 39.6813C81.7485 39.7016 81.8651 39.7271 81.8448 39.6711C81.7992 39.5642 81.7028 39.4777 81.6217 39.381V39.3402C81.6014 39.3402 81.6014 39.3301 81.5912 39.3199V39.2792C81.5507 39.2588 81.5608 39.2232 81.5456 39.1926C81.5151 39.1468 81.5354 39.0756 81.5151 39.0196C81.4949 38.9636 81.4847 38.9127 81.4746 38.8567C81.4441 38.6938 81.4086 38.5513 81.3883 38.3935C81.3681 38.2102 81.4949 38.0677 81.5811 37.9048C81.647 37.7878 81.7231 37.6758 81.8499 37.5994C81.8804 37.4824 81.9564 37.3857 82.0325 37.294C82.1086 37.2024 82.2354 37.1413 82.3267 37.1006C82.4586 37.0395 82.5803 37.0039 82.5803 37.0039H75.9661V42.094H80.6681C80.8507 41.9616 81.0333 41.9005 81.2869 41.7733C81.4086 41.7224 81.6825 41.5951 81.7738 41.5035ZM80.3029 40.8113C80.2826 40.8113 80.2471 40.8214 80.2572 40.8011C80.2674 40.7553 80.3333 40.7553 80.3739 40.7349C80.3942 40.7247 80.4195 40.7044 80.4398 40.7145C80.4601 40.7451 80.4855 40.7349 80.5058 40.7553C80.4449 40.8113 80.3688 40.7858 80.3029 40.8113ZM78.8319 40.6026C78.8319 40.6026 78.8218 40.5924 78.8218 40.5822C78.9486 40.4193 79.0399 40.2666 79.1312 40.0936C79.258 40.0274 79.3594 39.9307 79.4558 39.8238C79.6181 39.6507 79.7906 39.498 79.9935 39.4013C80.0695 39.3708 80.1659 39.381 80.242 39.4115C80.2116 39.4522 80.1659 39.442 80.1253 39.4675C80.1152 39.4675 80.1051 39.4675 80.0949 39.4573C80.1051 39.4471 80.1051 39.4369 80.1051 39.4268C80.0087 39.5337 79.8768 39.5795 79.8007 39.7067C79.7449 39.8034 79.7043 39.9256 79.5826 39.9561C79.542 39.9663 79.5928 39.9256 79.5725 39.9358C79.2732 40.119 79.0652 40.343 78.8319 40.6026ZM79.6283 39.9663C79.6181 39.9867 79.608 39.9867 79.5978 40.007C79.5877 40.0274 79.5775 40.0376 79.5572 40.0478C79.5471 40.0478 79.537 40.0478 79.537 40.0376C79.5471 39.9969 79.5775 39.9612 79.613 39.951C79.6283 39.946 79.6283 39.9561 79.6283 39.9663ZM80.0746 41.4068C80.0695 41.417 80.0594 41.4272 80.0493 41.4373C80.0594 41.4373 80.0695 41.4475 80.0594 41.4526C80.0391 41.473 80.0138 41.4933 79.9884 41.5035H79.9732C79.963 41.5137 79.9478 41.5239 79.9377 41.5391C79.9275 41.5493 79.8717 41.5442 79.8869 41.529C79.9123 41.5086 79.9326 41.4831 79.958 41.4628C79.9732 41.4526 79.9884 41.4373 79.9985 41.4221C80.0036 41.4119 80.0087 41.4068 80.0188 41.4017C80.034 41.3915 80.0848 41.3864 80.0746 41.4068ZM79.9022 41.3304C79.8616 41.3559 79.8261 41.3813 79.7906 41.4068C79.75 41.4322 79.7043 41.4475 79.6638 41.4679C79.6587 41.4628 79.6536 41.4628 79.6485 41.4628C79.613 41.4831 79.5826 41.5086 79.5522 41.5391L79.537 41.5544L79.5217 41.5697L79.5014 41.59C79.4964 41.5951 79.4964 41.6002 79.4862 41.6053C79.4812 41.6104 79.4659 41.6104 79.4659 41.6002C79.4609 41.6053 79.4558 41.6053 79.4507 41.6104C79.4457 41.6155 79.4406 41.6155 79.4355 41.6206H79.4254C79.4152 41.6308 79.4 41.6409 79.3899 41.6511C79.3696 41.6715 79.3493 41.6867 79.3341 41.7122V41.7173L79.329 41.7224C79.329 41.7224 79.329 41.7275 79.3239 41.7275C79.3239 41.7326 79.3188 41.7326 79.3188 41.7376C79.3188 41.7376 79.3138 41.7427 79.3087 41.7427L79.3036 41.7376C79.3036 41.7376 79.3036 41.7326 79.2986 41.7326C79.2935 41.7275 79.2935 41.7224 79.2884 41.7173V41.7122C79.2986 41.702 79.3087 41.6918 79.3188 41.6766C79.3239 41.6715 79.3239 41.6664 79.329 41.6664C79.3341 41.6613 79.3391 41.6511 79.3442 41.646C79.3442 41.6409 79.3493 41.6409 79.3493 41.6358C79.3594 41.6206 79.3696 41.6104 79.3797 41.5951L79.3848 41.59C79.3899 41.5849 79.3949 41.5748 79.4 41.5697C79.4051 41.5646 79.4051 41.5595 79.4101 41.5493V41.5442C79.4152 41.534 79.4152 41.529 79.4203 41.5239V41.5188C79.4203 41.5137 79.4203 41.5137 79.4254 41.5086C79.4254 41.5035 79.4254 41.4984 79.4304 41.4933V41.4882C79.4406 41.4679 79.4558 41.4526 79.471 41.4373H79.4659C79.4507 41.4475 79.4406 41.4577 79.4304 41.4679C79.4203 41.4781 79.4 41.4628 79.4152 41.4526C79.4254 41.4475 79.4304 41.4373 79.4355 41.4322C79.4507 41.417 79.4659 41.3966 79.4862 41.3813C79.4964 41.3712 79.5065 41.3661 79.5167 41.361L79.5217 41.3559C79.5268 41.3457 79.537 41.3406 79.542 41.3304C79.6333 41.2439 79.7906 41.2439 79.9072 41.1879C79.9529 41.1676 80.0138 41.1981 80.0594 41.1879C80.0898 41.1879 80.1152 41.1879 80.1456 41.2083C80.0594 41.2236 79.9833 41.2795 79.9022 41.3304ZM80.1 40.6586C80.0898 40.6484 80.1304 40.6586 80.1406 40.6382H80.0645C80.0543 40.6382 80.0543 40.628 80.0543 40.6178C80.0087 40.628 79.9478 40.6484 79.9022 40.6586C79.8362 40.6789 79.7754 40.7247 79.6993 40.7451C79.5928 40.7858 79.5065 40.8723 79.3949 40.908C79.3848 40.908 79.3848 40.8978 79.3848 40.8876C79.3949 40.8571 79.4304 40.8469 79.4507 40.8214C79.4507 40.8113 79.4507 40.8011 79.4406 40.8011C79.5167 40.6942 79.6232 40.6382 79.7196 40.5517V40.5211C79.75 40.4804 79.7956 40.4651 79.8159 40.4142C79.8261 40.3837 79.8667 40.3481 79.9123 40.3277C79.9022 40.3175 79.8819 40.3175 79.8819 40.2972C79.8413 40.2972 79.8058 40.3175 79.7652 40.287C79.7855 40.2717 79.8058 40.2615 79.8261 40.2514C79.8159 40.2514 79.8109 40.2463 79.8058 40.2361C79.7956 40.2157 79.8261 40.1954 79.8514 40.1903C79.892 40.1801 79.9377 40.1801 79.9681 40.1496C79.9022 40.1394 79.8261 40.1699 79.7551 40.1292C79.8007 40.0019 79.8819 39.9001 79.9935 39.8391C80.0036 39.8391 80.0239 39.8391 80.0239 39.8492C80.0239 39.8951 79.9935 39.9358 79.9478 39.946C80.0239 39.9663 80.1 39.9663 80.1761 40.0019C80.1659 40.0223 80.1456 40.0121 80.1355 40.0121C80.1811 40.0427 80.242 40.0223 80.2877 40.0579C80.2572 40.0885 80.2319 40.0579 80.2014 40.0579C80.5007 40.1445 80.8152 40.2106 81.0637 40.4041C80.8507 40.5109 80.6326 40.5568 80.4043 40.6077C80.3739 40.6077 80.3587 40.6077 80.3282 40.5975C80.3282 40.6077 80.3282 40.628 80.3181 40.628C80.2775 40.628 80.2521 40.628 80.2217 40.6484C80.1862 40.6789 80.1304 40.6891 80.1 40.6586Z" fill="#000091"/>
<path d="M89.9402 37.0039H84.4926C84.4926 37.0039 84.5028 37.0039 84.5433 37.0294C84.589 37.0548 84.6448 37.0853 84.6803 37.1006C84.7513 37.1362 84.8172 37.1821 84.8629 37.2533C84.8832 37.2839 84.9085 37.3398 84.8933 37.3806C84.873 37.4264 84.8629 37.5078 84.8172 37.5231C84.7614 37.5536 84.6854 37.5536 84.6143 37.5435C84.5738 37.5435 84.5383 37.5333 84.4977 37.5231C84.6397 37.5791 84.7767 37.6503 84.873 37.7827C84.8832 37.803 84.9187 37.8132 84.9593 37.8132C84.9694 37.8132 84.9694 37.8336 84.9694 37.8438C84.9491 37.8641 84.9288 37.8743 84.939 37.8998H84.9694C85.0151 37.8794 85.01 37.7827 85.0759 37.8132C85.1216 37.8438 85.1419 37.9099 85.1165 37.9557C85.0759 37.9965 85.0404 38.0219 84.9998 38.0525C84.9897 38.0728 84.9897 38.0983 84.9998 38.1186C85.0303 38.1593 85.0404 38.195 85.0455 38.2357C85.0759 38.3019 85.0861 38.3782 85.1114 38.4495C85.152 38.592 85.1875 38.7396 85.1774 38.8821C85.1774 38.9585 85.1368 39.0247 85.1672 39.101C85.1875 39.1774 85.2332 39.2333 85.2737 39.3046C85.3143 39.3606 85.3498 39.4013 85.3803 39.4573C85.4361 39.554 85.5426 39.6507 85.4969 39.7627C85.4665 39.8289 85.365 39.8187 85.294 39.8594C85.2382 39.9052 85.2839 39.9867 85.3143 40.0325C85.36 40.119 85.2585 40.175 85.1875 40.2005C85.2078 40.231 85.2433 40.2208 85.2535 40.2412C85.2636 40.287 85.3092 40.3175 85.2839 40.3684C85.2433 40.4244 85.1317 40.455 85.1875 40.5415C85.2281 40.6077 85.2027 40.684 85.1774 40.7553C85.1469 40.8316 85.081 40.8825 85.0049 40.8978C84.9491 40.9181 84.8781 40.9181 84.8223 40.908C84.802 40.8978 84.7817 40.8876 84.7665 40.8876C84.6042 40.8672 84.4419 40.8214 84.2796 40.8214C84.2339 40.8316 84.1832 40.8418 84.1477 40.8571C84.1071 40.8876 84.0665 40.9232 84.031 40.9589C84.026 40.9691 84.0158 40.9741 84.0107 40.9843C84.0057 40.9894 84.0006 40.9945 84.0006 40.9996L83.9905 41.0098C83.96 41.0454 83.9397 41.081 83.9144 41.1218C83.9144 41.1268 83.9093 41.1268 83.9093 41.1268C83.9093 41.1319 83.9042 41.137 83.8992 41.1421C83.8687 41.1981 83.8434 41.2592 83.8281 41.3203C83.7622 41.5391 83.7926 41.7275 83.8383 41.7733C83.8484 41.7835 84.1528 41.8802 84.3658 41.9769C84.4672 42.0227 84.5332 42.0532 84.5941 42.094H89.9453V37.0039H89.9402Z" fill="#E1000F"/>
<path d="M84.8173 38.8675C84.8579 38.8777 84.9137 38.8777 84.9137 38.898C84.8934 38.9744 84.7818 38.9947 84.7209 39.0711H84.6905C84.6601 39.0915 84.6702 39.1373 84.6448 39.1373C84.6144 39.1271 84.589 39.1373 84.5586 39.1474C84.5992 39.1882 84.6448 39.2136 84.7006 39.2034C84.7108 39.2034 84.7311 39.2238 84.7311 39.2442C84.7311 39.2442 84.7412 39.2442 84.7514 39.234C84.7615 39.234 84.7716 39.234 84.7716 39.2442V39.2849C84.7412 39.3256 84.6956 39.3052 84.655 39.3154C84.7311 39.3358 84.8072 39.3358 84.8782 39.3154C84.934 39.2951 84.8782 39.1983 84.9187 39.1525C84.8985 39.1525 84.9187 39.122 84.8985 39.122C84.9187 39.1016 84.939 39.0762 84.9543 39.066C84.9745 39.066 84.9999 39.0558 85.01 39.0355C85.01 39.0151 84.9695 39.0049 84.9796 38.9897C85.0354 38.9489 85.0861 38.8929 85.0658 38.837C85.0557 38.8064 84.9796 38.8064 84.934 38.7861C84.8883 38.7657 84.8274 38.7861 84.7716 38.7962C84.726 38.7962 84.6753 38.8268 84.6296 38.837C84.5637 38.8573 84.5028 38.8929 84.447 38.9337C84.513 38.9031 84.5789 38.8929 84.655 38.8777C84.7108 38.8675 84.7564 38.8573 84.8173 38.8675Z" fill="#808080"/>
<path d="M75.9661 48.4556V44.638H77.1225C77.5419 44.638 77.8699 44.7398 78.1066 44.9434C78.3467 45.147 78.4684 45.4253 78.4718 45.7782C78.4718 46.0056 78.4194 46.2024 78.3145 46.3687C78.2097 46.5383 78.0609 46.6707 77.8682 46.7657L79.0551 48.4556H78.137L77.1276 46.9133H76.7371V48.4556H75.9661ZM76.7371 46.2567H77.1682C77.3305 46.2567 77.4556 46.2143 77.5435 46.1294C77.6348 46.0446 77.6805 45.9241 77.6805 45.768C77.6805 45.6221 77.6348 45.5067 77.5435 45.4219C77.4522 45.3371 77.3271 45.2964 77.1682 45.2997H76.7371V46.2567ZM79.5928 48.4556V44.638H81.7992V45.2997H80.3587V46.1803H81.5811V46.842H80.3587V47.7939H81.7992V48.4556H79.5928ZM80.3384 44.3123L80.9471 43.5742H81.7383L81.0384 44.3123H80.3384ZM82.7376 48.4556V44.638H83.9904C84.4064 44.638 84.7327 44.7398 84.9694 44.9434C85.2095 45.147 85.3295 45.4253 85.3295 45.7782C85.3295 46.1311 85.2095 46.4077 84.9694 46.6079C84.7293 46.8115 84.403 46.9133 83.9904 46.9133H83.5086V48.4556H82.7376ZM83.5086 46.2567H84.0209C84.1866 46.2567 84.3151 46.2126 84.4064 46.1243C84.4977 46.0395 84.5433 45.9207 84.5433 45.768C84.5433 45.6221 84.496 45.5067 84.4013 45.4219C84.31 45.3371 84.1832 45.2964 84.0209 45.2997H83.5086V46.2567ZM85.9483 46.9642V44.638H86.7193V47.0253C86.7193 47.2798 86.7869 47.48 86.9222 47.6259C87.0575 47.7684 87.2451 47.8397 87.4852 47.8397C87.7219 47.8397 87.9079 47.7684 88.0432 47.6259C88.1784 47.4834 88.2461 47.2832 88.2461 47.0253V44.638H89.0171V46.9642C89.0171 47.4664 88.8801 47.8583 88.6062 48.14C88.3323 48.4216 87.957 48.5625 87.4802 48.5625C87.0067 48.5625 86.6331 48.4216 86.3592 48.14C86.0853 47.8549 85.9483 47.463 85.9483 46.9642ZM90.0214 48.4556V44.638H91.0967C91.4923 44.638 91.8017 44.7297 92.0249 44.9129C92.2515 45.0961 92.3648 45.3506 92.3648 45.6764C92.3648 45.992 92.2312 46.2431 91.9641 46.4297C92.1636 46.5214 92.3174 46.6435 92.4256 46.7962C92.5339 46.9523 92.588 47.1305 92.588 47.3307C92.588 47.6802 92.4611 47.9551 92.2075 48.1553C91.9573 48.3555 91.6141 48.4556 91.1779 48.4556H90.0214ZM90.7873 47.7939H91.2235C91.4027 47.7939 91.5431 47.7498 91.6445 47.6615C91.746 47.5699 91.7967 47.446 91.7967 47.29C91.7967 47.1339 91.746 47.0117 91.6445 46.9235C91.5431 46.8386 91.4027 46.7962 91.2235 46.7962H90.7873V47.7939ZM90.7873 46.1345H91.1119C91.2573 46.1345 91.3706 46.0972 91.4518 46.0225C91.5329 45.9513 91.5735 45.8478 91.5735 45.712C91.5735 45.5831 91.5329 45.483 91.4518 45.4117C91.374 45.3371 91.2607 45.2997 91.1119 45.2997H90.7873V46.1345ZM93.4249 48.4556V44.638H94.1908V47.7531H95.6313V48.4556H93.4249ZM96.3617 48.4556V44.638H97.1277V48.4556H96.3617ZM98.066 47.3256C97.968 47.0779 97.9189 46.8183 97.9189 46.5468C97.9189 46.2753 97.968 46.0174 98.066 45.7731C98.1641 45.5254 98.2994 45.3099 98.4718 45.1267C98.6476 44.9434 98.8607 44.7975 99.1109 44.6889C99.3645 44.5804 99.6367 44.5261 99.9276 44.5261C100.218 44.5261 100.491 44.5804 100.744 44.6889C100.998 44.7975 101.211 44.9434 101.383 45.1267C101.556 45.3099 101.691 45.5254 101.789 45.7731C101.887 46.0174 101.936 46.2753 101.936 46.5468C101.936 46.8658 101.87 47.1644 101.738 47.4427C101.606 47.7209 101.424 47.9534 101.191 48.14L101.419 48.3589C101.686 48.6032 101.95 48.7236 102.21 48.7203C102.318 48.7203 102.41 48.7067 102.484 48.6795V49.3361C102.366 49.3837 102.232 49.4057 102.083 49.4023C101.674 49.4023 101.28 49.236 100.901 48.9035L100.45 48.4963C100.284 48.5404 100.11 48.5625 99.9276 48.5625C99.6367 48.5625 99.3645 48.5082 99.1109 48.3996C98.8607 48.291 98.6476 48.1468 98.4718 47.9669C98.2994 47.7837 98.1641 47.5699 98.066 47.3256ZM99.0551 45.6255C98.8252 45.8732 98.7085 46.1803 98.7051 46.5468C98.7051 46.9133 98.8218 47.2204 99.0551 47.4681C99.2851 47.7158 99.5776 47.8397 99.9326 47.8397C100.166 47.8397 100.374 47.7837 100.557 47.6717C100.743 47.5597 100.888 47.4036 100.993 47.2034C101.098 47.0066 101.15 46.7877 101.15 46.5468C101.15 46.1803 101.033 45.8732 100.8 45.6255C100.57 45.3778 100.279 45.2539 99.9276 45.2539C99.5725 45.2539 99.28 45.3778 99.0501 45.6255H99.0551ZM102.656 46.9642V44.638H103.427V47.0253C103.427 47.2798 103.495 47.48 103.63 47.6259C103.766 47.7684 103.953 47.8397 104.193 47.8397C104.43 47.8397 104.616 47.7684 104.751 47.6259C104.887 47.4834 104.954 47.2832 104.954 47.0253V44.638H105.725V46.9642C105.725 47.4664 105.588 47.8583 105.314 48.14C105.04 48.425 104.665 48.5659 104.188 48.5625C103.715 48.5625 103.341 48.4216 103.067 48.14C102.793 47.8549 102.656 47.463 102.656 46.9642ZM106.729 48.4556V44.638H108.936V45.2997H107.495V46.1803H108.718V46.842H107.495V47.7939H108.936V48.4556H106.729ZM75.9661 53.9783V50.1607H78.1725V50.8224H76.7371V51.703H77.9595V52.3647H76.7371V53.9783H75.9661ZM78.9029 53.9783V50.1607H80.0594C80.4753 50.1607 80.805 50.2625 81.0485 50.4661C81.2886 50.6697 81.4086 50.948 81.4086 51.3009C81.4086 51.5283 81.3562 51.7268 81.2514 51.8964C81.1466 52.0661 80.9978 52.1968 80.805 52.2884L81.9919 53.9783H81.0739L80.0645 52.436H79.6739V53.9783H78.9029ZM79.6739 51.7794H80.1051C80.2674 51.7794 80.3942 51.737 80.4855 51.6521C80.5768 51.5673 80.6207 51.4468 80.6174 51.2907C80.6174 51.1448 80.5734 51.0294 80.4855 50.9446C80.3976 50.8598 80.2707 50.819 80.1051 50.8224H79.6739V51.7794ZM82.2101 53.9783L83.6455 50.1607H84.6498L86.0853 53.9783H85.2686L84.9034 52.9857H83.3868L83.0267 53.9783H82.2101ZM83.6252 52.324H84.6701L84.1477 50.8937L83.6252 52.324ZM86.7244 53.9783V50.1607H87.7084L89.4026 52.8941V50.1607H90.1685V53.9783H89.1844L87.4903 51.2347V53.9783H86.7244ZM90.9648 52.0695C90.9648 51.798 91.0139 51.5401 91.1119 51.2958C91.21 51.0481 91.3452 50.8326 91.5177 50.6494C91.6935 50.4661 91.9066 50.3219 92.1568 50.2167C92.4104 50.1081 92.6843 50.0538 92.9785 50.0538C93.3133 50.0538 93.6176 50.1217 93.8915 50.2574C94.1688 50.3966 94.3954 50.5866 94.5712 50.8275L93.9676 51.3009C93.856 51.1414 93.7157 51.0142 93.5466 50.9192C93.3775 50.8241 93.1882 50.7766 92.9785 50.7766C92.6235 50.7766 92.331 50.9005 92.101 51.1482C91.8711 51.3959 91.7544 51.703 91.751 52.0695C91.751 52.436 91.8677 52.7448 92.101 52.9959C92.331 53.2436 92.6235 53.3658 92.9785 53.3624C93.1882 53.3624 93.3775 53.3166 93.5466 53.2249C93.7157 53.1299 93.856 53.001 93.9676 52.8381L94.5712 53.3064C94.4224 53.5134 94.2364 53.683 94.0133 53.8154C93.7901 53.9477 93.5432 54.0309 93.2727 54.0648L92.801 54.8588H92.1213L92.5981 54.0546C92.2769 53.9969 91.9911 53.8731 91.7409 53.683C91.4906 53.493 91.2979 53.2572 91.1626 52.9755C91.0274 52.6939 90.9614 52.3919 90.9648 52.0695ZM94.7944 53.9783L96.2299 50.1607H97.2342L98.6696 53.9783H97.853L97.4929 52.9857H95.9762L95.611 53.9783H94.7944ZM96.2146 52.324H97.2545L96.732 50.8937L96.2146 52.324ZM99.3087 53.9783V50.1607H100.08V53.9783H99.3087ZM100.851 53.4489L101.409 52.9348C101.524 53.0841 101.652 53.1995 101.794 53.2809C101.94 53.3624 102.09 53.4031 102.246 53.4031C102.398 53.4031 102.516 53.3641 102.601 53.286C102.689 53.208 102.733 53.0994 102.733 52.9603C102.733 52.8788 102.709 52.8042 102.662 52.7363C102.611 52.6684 102.545 52.6124 102.464 52.5683C102.383 52.5208 102.29 52.4733 102.185 52.4258C102.08 52.3749 101.973 52.3257 101.865 52.2782C101.757 52.2307 101.652 52.173 101.551 52.1051C101.446 52.0373 101.353 51.9626 101.272 51.8812C101.191 51.7997 101.125 51.6962 101.074 51.5707C101.023 51.4451 100.998 51.3077 100.998 51.1584C100.998 50.8496 101.113 50.5883 101.343 50.3745C101.573 50.1607 101.863 50.0538 102.215 50.0538C102.743 50.0538 103.184 50.2676 103.539 50.6952L102.976 51.2042C102.733 50.8852 102.481 50.7257 102.22 50.7257C102.092 50.7257 101.985 50.7648 101.901 50.8428C101.816 50.9209 101.776 51.0159 101.779 51.1278C101.779 51.1991 101.799 51.2653 101.84 51.3264C101.88 51.384 101.933 51.4366 101.997 51.4841C102.065 51.5283 102.142 51.5724 102.23 51.6165L102.499 51.7437C102.597 51.7879 102.694 51.832 102.788 51.8761C102.886 51.9236 102.978 51.9813 103.062 52.0491C103.15 52.1136 103.228 52.1883 103.296 52.2731C103.363 52.3545 103.416 52.4513 103.453 52.5632C103.493 52.6786 103.514 52.8059 103.514 52.945C103.507 53.2911 103.383 53.5677 103.143 53.7747C102.907 53.9817 102.611 54.0852 102.256 54.0852C101.945 54.0852 101.676 54.0326 101.449 53.9274C101.223 53.8188 101.023 53.6593 100.851 53.4489ZM104.371 53.9783V50.1607H106.577V50.8224H105.142V51.703H106.364V52.3647H105.142V53.3166H106.577V53.9783H104.371Z" fill="white"/>
<path d="M88.5656 64.4435C88.6772 64.4435 88.7736 64.5301 88.7229 64.7286L88.2106 64.866C88.2917 64.6217 88.4439 64.4435 88.5656 64.4435ZM88.8497 65.2783H88.7482C88.6214 65.431 88.4794 65.5532 88.3424 65.5532C88.2004 65.5532 88.1294 65.4666 88.1294 65.2783C88.1294 65.202 88.1396 65.1205 88.1548 65.0493L88.9866 64.7744C89.1489 64.3876 88.9511 64.2196 88.7229 64.2196C88.3272 64.2196 87.8809 64.9118 87.8809 65.4565C87.8809 65.7161 88.0026 65.8586 88.1954 65.8586C88.4236 65.8586 88.6569 65.6397 88.8497 65.2783ZM88.7178 64.0363L89.1895 63.6037V63.5426H88.875L88.5961 64.0414H88.7178V64.0363ZM86.9476 64.4537H87.2215L86.7853 65.655C86.7447 65.7568 86.8005 65.8586 86.907 65.8586C87.2164 65.8586 87.5867 65.5939 87.7287 65.2172H87.6526C87.541 65.375 87.2976 65.5481 87.115 65.5837L87.5157 64.4537H87.9265L87.9772 64.2807H87.5765L87.7287 63.848H87.5715L87.2874 64.2807L86.9476 64.3265V64.4537ZM86.6635 64.3926C86.699 64.2807 86.6229 64.2196 86.5671 64.2196C86.3287 64.2196 86.0396 64.4385 85.928 64.7388H86.0041C86.0802 64.6268 86.2121 64.5046 86.3389 64.4843L85.8773 65.6855C85.8367 65.7975 85.9179 65.8586 85.9788 65.8586C86.207 65.8586 86.4758 65.6397 86.5874 65.3394H86.5114C86.4353 65.4514 86.3034 65.5735 86.1766 65.5939L86.6635 64.3926ZM86.7092 63.9142C86.8106 63.9142 86.8968 63.8277 86.8968 63.7259C86.8968 63.6241 86.8106 63.5375 86.7092 63.5375C86.6584 63.5375 86.6128 63.5579 86.5773 63.5935C86.5418 63.6291 86.5215 63.675 86.5215 63.7259C86.5215 63.8327 86.6027 63.9142 86.7092 63.9142ZM84.4824 64.5555C84.5534 64.5555 84.594 64.6675 84.4824 64.9169L84.1578 65.6397C84.0969 65.7771 84.1629 65.8637 84.2948 65.8637C84.3759 65.8637 84.4114 65.8433 84.4469 65.7568L84.7665 64.9118C84.9136 64.7286 85.1875 64.5352 85.3092 64.5352C85.3954 64.5352 85.3853 64.6064 85.3295 64.7184L84.8375 65.6601C84.7918 65.7517 84.8527 65.8637 84.9592 65.8637C85.1976 65.8637 85.4867 65.6448 85.5983 65.3445H85.5121C85.436 65.4565 85.3041 65.5786 85.1773 65.599L85.5983 64.7439C85.6541 64.637 85.6795 64.5352 85.6795 64.4537C85.6795 64.3163 85.6034 64.2247 85.4563 64.2247C85.2484 64.2247 85.0708 64.4588 84.8172 64.749V64.525C84.8172 64.3672 84.7665 64.2247 84.6245 64.2247C84.4571 64.2247 84.3049 64.4894 84.1832 64.7439H84.2593C84.3455 64.6217 84.4216 64.5555 84.4824 64.5555ZM84.1527 64.5861C84.2085 64.3876 84.1781 64.2196 84.031 64.2196C83.8433 64.2196 83.7825 64.3468 83.5999 64.7439V64.5199C83.5999 64.3621 83.5491 64.2196 83.4071 64.2196C83.2397 64.2196 83.0876 64.4843 82.9658 64.7388H83.0419C83.1231 64.6217 83.1991 64.5504 83.26 64.5504C83.331 64.5504 83.3716 64.6624 83.26 64.9118L82.9354 65.6346C82.8745 65.772 82.9405 65.8586 83.0723 65.8586C83.1535 65.8586 83.189 65.8382 83.2245 65.7517L83.5339 64.9067C83.6252 64.7948 83.7064 64.6981 83.8078 64.5912H84.1527V64.5861ZM82.3825 64.4435C82.4941 64.4435 82.5905 64.5301 82.5397 64.7286L82.0274 64.866C82.1137 64.6217 82.2608 64.4435 82.3825 64.4435ZM82.6666 65.2783H82.5651C82.4383 65.431 82.2963 65.5532 82.1593 65.5532C82.0173 65.5532 81.9463 65.4666 81.9463 65.2783C81.9463 65.202 81.9564 65.1205 81.9717 65.0493L82.8035 64.7744C82.9658 64.3876 82.7731 64.2196 82.5397 64.2196C82.1441 64.2196 81.6978 64.9118 81.6978 65.4565C81.6978 65.7161 81.8195 65.8586 82.0122 65.8586C82.2405 65.8586 82.4738 65.6397 82.6666 65.2783ZM80.7644 64.4537H81.0384L80.6021 65.655C80.5616 65.7568 80.6174 65.8586 80.7239 65.8586C81.0333 65.8586 81.4086 65.5939 81.5456 65.2172H81.4695C81.3579 65.375 81.1144 65.5481 80.9318 65.5837L81.3325 64.4537H81.7434L81.7941 64.2807H81.3934L81.5456 63.848H81.3883L81.1043 64.2807L80.7644 64.3265V64.4537ZM79.3087 65.3903C79.3087 65.0187 79.7196 64.5148 79.9529 64.5148C80.0036 64.5148 80.0543 64.5199 80.0949 64.5352L79.8565 65.1765C79.7196 65.3445 79.5065 65.5481 79.4051 65.5481C79.3442 65.5481 79.3087 65.5023 79.3087 65.3903ZM80.5717 64.1483L80.4449 64.1381L80.3029 64.2807H80.2775C79.6739 64.2807 79.0247 65.034 79.0247 65.6295C79.0247 65.767 79.1007 65.8586 79.2478 65.8586C79.4254 65.8586 79.5978 65.6041 79.7956 65.3343L79.7855 65.431C79.7601 65.7059 79.8464 65.8586 79.9884 65.8586C80.1558 65.8586 80.3079 65.5939 80.4246 65.3394H80.3485C80.2674 65.4565 80.1913 65.5277 80.1304 65.5277C80.0695 65.5277 80.0239 65.4107 80.1304 65.1663L80.5717 64.1483ZM79.2783 64.5861C79.3341 64.3876 79.3036 64.2196 79.1565 64.2196C78.9689 64.2196 78.908 64.3468 78.7254 64.7439V64.5199C78.7254 64.3621 78.6747 64.2196 78.5276 64.2196C78.3602 64.2196 78.208 64.4843 78.0914 64.7388H78.1674C78.2486 64.6217 78.3247 64.5504 78.3855 64.5504C78.4566 64.5504 78.4971 64.6624 78.3855 64.9118L78.0558 65.6397C77.995 65.7771 78.0609 65.8637 78.1928 65.8637C78.274 65.8637 78.3095 65.8433 78.345 65.7568L78.6645 64.9067C78.7558 64.7948 78.837 64.6981 78.9384 64.5912H79.2783V64.5861ZM77.153 65.8026L77.1834 65.711C76.7827 65.6346 76.732 65.6346 76.8943 65.1969L77.0465 64.7846H77.366C77.5638 64.7846 77.5689 64.8711 77.5385 65.09H77.6551L77.9189 64.3621H77.8022C77.7008 64.5352 77.6247 64.6675 77.4066 64.6675H77.087L77.3051 64.072C77.3812 63.8582 77.4167 63.8175 77.6906 63.8175H77.7617C78.0406 63.8175 78.0761 63.8938 78.0761 64.189H78.1877L78.279 63.6953H76.732L76.7015 63.7869C77.0211 63.8531 77.0515 63.8836 76.9044 64.301L76.5747 65.202C76.4226 65.6143 76.3617 65.6499 75.9914 65.7161L75.9661 65.8077H77.153V65.8026ZM84.8274 60.9365C84.9389 60.9365 85.0353 61.023 84.9846 61.2215L84.4723 61.359C84.5534 61.1147 84.7056 60.9365 84.8274 60.9365ZM85.1114 61.7713H85.01C84.8831 61.924 84.7411 62.0461 84.6042 62.0461C84.4621 62.0461 84.3911 61.9596 84.3911 61.7713C84.3911 61.6949 84.4013 61.6135 84.4165 61.5422L85.2484 61.2674C85.4107 60.8805 85.2128 60.7125 84.9846 60.7125C84.589 60.7125 84.1426 61.4048 84.1426 61.9494C84.1426 62.209 84.2643 62.3515 84.4571 62.3515C84.6853 62.3566 84.9187 62.1327 85.1114 61.7713ZM84.9795 60.5293L85.4512 60.0966V60.0356H85.1368L84.8578 60.5344H84.9795V60.5293ZM83.2093 60.9467H83.4832L83.047 62.1479C83.0064 62.2497 83.0622 62.3515 83.1687 62.3515C83.4781 62.3515 83.8484 62.0869 83.9904 61.7102H83.9143C83.8027 61.868 83.5593 62.041 83.3767 62.0767L83.7774 60.9467H84.1882L84.239 60.7736H83.8383L83.9904 60.341H83.8332L83.5491 60.7736L83.2093 60.8245V60.9467ZM82.9252 60.8907C82.9607 60.7787 82.8847 60.7176 82.8238 60.7176C82.5854 60.7176 82.2963 60.9365 82.1847 61.2368H82.2608C82.3369 61.1248 82.4687 61.0027 82.5955 60.9823L82.134 62.1836C82.0934 62.2955 82.1745 62.3566 82.2354 62.3566C82.4637 62.3566 82.7325 62.1378 82.8441 61.8374H82.768C82.6919 61.9494 82.56 62.0716 82.4332 62.0919L82.9252 60.8907ZM82.9709 60.4122C83.0723 60.4122 83.1586 60.3257 83.1586 60.2239C83.1586 60.1221 83.0723 60.0356 82.9709 60.0356C82.905 60.0356 82.8441 60.0712 82.8086 60.1272C82.7731 60.1832 82.7731 60.2595 82.8086 60.3206C82.8441 60.3766 82.905 60.4173 82.9709 60.4122ZM81.4999 62.0919L82.2608 60.0661L82.2354 60.0305L81.7079 60.0916V60.1526L81.8093 60.229C81.9006 60.3003 81.8702 60.3664 81.7891 60.5955L81.2108 62.1428C81.1601 62.2345 81.226 62.3464 81.3325 62.3464C81.5709 62.3464 81.8296 62.1276 81.9412 61.8273H81.8651C81.784 61.9443 81.6217 62.0665 81.4999 62.0919ZM79.9478 61.8833C79.9478 61.5117 80.3587 61.0078 80.592 61.0078C80.6427 61.0078 80.6884 61.0129 80.734 61.0281L80.4905 61.6695C80.3536 61.8374 80.1406 62.041 80.0391 62.041C79.9833 62.0461 79.9478 61.9952 79.9478 61.8833ZM81.2108 60.6464L81.084 60.6362L80.942 60.7787H80.9166C80.313 60.7787 79.6638 61.532 79.6638 62.1276C79.6638 62.265 79.7398 62.3566 79.8869 62.3566C80.0645 62.3566 80.2369 62.1021 80.4348 61.8324L80.4246 61.9291C80.3992 62.2039 80.4855 62.3566 80.6275 62.3566C80.7949 62.3566 80.9471 62.0919 81.0637 61.8374H80.9876C80.9065 61.9545 80.8304 62.0258 80.7695 62.0258C80.7087 62.0258 80.663 61.9087 80.7695 61.6695L81.2108 60.6464ZM78.274 62.6468C78.274 62.489 78.4261 62.3872 78.6442 62.3006C78.7152 62.3363 78.8268 62.377 78.9689 62.4228C79.1971 62.4992 79.2833 62.5297 79.2833 62.5959C79.2833 62.7435 79.0754 62.8555 78.695 62.8555C78.4109 62.8605 78.274 62.7995 78.274 62.6468ZM78.8978 61.6746C78.7964 61.6746 78.7609 61.588 78.7609 61.4913C78.7609 61.191 78.9029 60.8296 79.1312 60.8296C79.2326 60.8296 79.2681 60.9161 79.2681 61.0129C79.2681 61.3081 79.121 61.6746 78.8978 61.6746ZM79.5471 62.4992C79.5471 62.3057 79.3746 62.2345 79.0957 62.153C78.8573 62.0818 78.7457 62.0614 78.7457 61.98C78.7457 61.9189 78.7964 61.8425 78.8978 61.7865C79.2935 61.7662 79.542 61.4099 79.542 61.0943C79.542 61.0383 79.5319 60.9874 79.5167 60.9416H79.7855L79.8362 60.7685H79.3797C79.3188 60.7278 79.2428 60.7075 79.1565 60.7075C78.7406 60.7075 78.4718 61.0739 78.4718 61.3997C78.4718 61.6084 78.5935 61.7509 78.7863 61.7764C78.5935 61.868 78.4819 61.9647 78.4819 62.0869C78.4819 62.1581 78.5073 62.209 78.5681 62.2548C78.1218 62.3872 77.9392 62.5551 77.9392 62.7486C77.9392 62.9573 78.2131 63.0438 78.5377 63.0438C79.0855 63.0489 79.5471 62.7486 79.5471 62.4992ZM77.4776 61.2775C77.6754 61.2775 77.6805 61.3641 77.6501 61.5829H77.7667L78.0305 60.8551H77.9138C77.8124 61.0281 77.7363 61.1605 77.5182 61.1605H77.0769L77.295 60.5649C77.3711 60.3512 77.4117 60.3104 77.6805 60.3104H77.8732C78.1522 60.3104 78.1877 60.3868 78.1877 60.682H78.2993L78.3906 60.1883H76.732L76.7015 60.2799C77.0211 60.3461 77.0515 60.3766 76.9044 60.794L76.5747 61.6949C76.4226 62.1072 76.3617 62.1428 75.9914 62.209L75.9661 62.3006H77.8124L78.1421 61.7764H78.0153C77.8022 61.9901 77.5841 62.1785 77.1733 62.1785C76.6813 62.1785 76.7269 62.153 76.8892 61.6949L77.0414 61.2826H77.4776V61.2775ZM77.716 60.0356L78.1877 59.6894V59.6284H77.8732L77.5943 60.0356H77.716ZM84.7665 57.4346C84.8781 57.4346 84.9744 57.5211 84.9237 57.7196L84.4114 57.857C84.4926 57.6076 84.6447 57.4346 84.7665 57.4346ZM85.0505 58.2693H84.9491C84.8223 58.422 84.6803 58.5442 84.5433 58.5442C84.4013 58.5442 84.3303 58.4577 84.3303 58.2693C84.3303 58.193 84.3404 58.1115 84.3556 58.0403L85.1875 57.7654C85.3498 57.3786 85.152 57.2106 84.9237 57.2106C84.5281 57.2106 84.0817 57.9028 84.0817 58.4475C84.0817 58.7071 84.2035 58.8496 84.3962 58.8496C84.6245 58.8496 84.8578 58.6307 85.0505 58.2693ZM84.9187 57.0274L85.3904 56.5947V56.5336H85.0759L84.7969 57.0324H84.9187V57.0274ZM83.1484 57.4396H83.4274L82.9912 58.6409C82.9506 58.7427 83.0064 58.8445 83.1129 58.8445C83.4223 58.8445 83.7977 58.5798 83.9346 58.2032H83.8585C83.747 58.3609 83.5035 58.534 83.3209 58.5696L83.7216 57.4396H84.1324L84.1832 57.2666H83.7825L83.9346 56.8339H83.7774L83.4933 57.2666L83.1535 57.3124V57.4396H83.1484ZM83.0064 57.5771C83.0622 57.3786 83.0318 57.2106 82.8847 57.2106C82.697 57.2106 82.6361 57.3378 82.4535 57.7349V57.5109C82.4535 57.3531 82.4028 57.2106 82.2608 57.2106C82.0934 57.2106 81.9412 57.4753 81.8195 57.7298H81.8956C81.9767 57.6127 82.0528 57.5414 82.1137 57.5414C82.1847 57.5414 82.2253 57.6534 82.1137 57.9028L81.7891 58.6256C81.7282 58.7631 81.7941 58.8496 81.926 58.8496C82.0072 58.8496 82.0427 58.8292 82.0782 58.7427L82.3977 57.8977C82.489 57.7858 82.5702 57.6891 82.6716 57.5822H83.0064V57.5771ZM81.2362 57.4346C81.3478 57.4346 81.4441 57.5211 81.3934 57.7196L80.8811 57.857C80.9623 57.6076 81.1144 57.4346 81.2362 57.4346ZM81.5202 58.2693H81.4188C81.292 58.422 81.1499 58.5442 81.013 58.5442C80.871 58.5442 80.8 58.4577 80.8 58.2693C80.8 58.193 80.8101 58.1115 80.8253 58.0403L81.6572 57.7654C81.8195 57.3786 81.6267 57.2106 81.3934 57.2106C80.9978 57.2106 80.5514 57.9028 80.5514 58.4475C80.5514 58.7071 80.6731 58.8496 80.8659 58.8496C81.0941 58.8496 81.3275 58.6307 81.5202 58.2693ZM79.5826 58.6053C79.5014 58.6053 79.3848 58.5289 79.3848 58.4627C79.3848 58.4424 79.4203 58.3457 79.4659 58.2286L79.5978 57.8723C79.7398 57.6992 79.963 57.5109 80.0898 57.5109C80.1659 57.5109 80.2217 57.5618 80.2217 57.6687C80.2166 58.0046 79.9123 58.6053 79.5826 58.6053ZM80.5058 57.5414C80.5058 57.2971 80.4449 57.2055 80.2724 57.2055C80.0594 57.2055 79.8616 57.4346 79.6587 57.7094L80.0848 56.5591L80.0594 56.5234L79.5319 56.5845V56.6456L79.6333 56.7219C79.7246 56.7932 79.6942 56.8645 79.613 57.0884L79.1515 58.305C79.1109 58.4068 79.0652 58.5289 79.0652 58.5595C79.0652 58.702 79.258 58.8394 79.4355 58.8394C79.8362 58.8496 80.5058 58.1115 80.5058 57.5414ZM78.9486 57.3837C78.979 57.2717 78.908 57.2106 78.8471 57.2106C78.6087 57.2106 78.3196 57.4295 78.208 57.7298H78.2841C78.3602 57.6178 78.4921 57.4956 78.6189 57.4753L78.1573 58.6765C78.1167 58.7885 78.1979 58.8496 78.2587 58.8496C78.487 58.8496 78.7558 58.6307 78.8674 58.3304H78.7913C78.7152 58.4424 78.5834 58.5645 78.4566 58.5849L78.9486 57.3837ZM78.9993 56.9052C79.1007 56.9052 79.187 56.8187 79.187 56.7169C79.187 56.6151 79.1007 56.5285 78.9993 56.5285C78.9334 56.5285 78.8725 56.5642 78.837 56.6201C78.8015 56.6761 78.8015 56.7525 78.837 56.8136C78.8725 56.8696 78.9334 56.9103 78.9993 56.9052ZM77.8276 56.6761H76.732L76.7015 56.7678C77.0211 56.8339 77.0515 56.8645 76.9044 57.2819L76.5747 58.1828C76.4226 58.5951 76.3617 58.6307 75.9914 58.6969L75.9661 58.7885H77.6298L77.9899 58.1421H77.8631C77.6551 58.3711 77.4167 58.6613 77.0465 58.6613C76.7675 58.6613 76.7269 58.6104 76.8841 58.1777L77.2138 57.2768C77.366 56.8645 77.4269 56.8288 77.7972 56.7627L77.8276 56.6761Z" fill="white"/>
</g>
<path d="M76.4822 79.3819L76.8672 78.9383L77.0003 79.0539C77.3092 79.3217 77.7798 79.2884 78.0476 78.9795C78.3153 78.6705 78.282 78.2 77.9731 77.9322L76.5123 76.6647C76.2034 76.397 75.7328 76.4302 75.4651 76.7392C75.1973 77.0481 75.2306 77.5187 75.5395 77.7865L75.7043 77.929L75.3399 78.3489C74.1627 77.4585 72.7558 76.8564 71.2221 76.6489V75.8583H71.3505C71.9509 75.8583 72.4437 75.3671 72.4437 74.7651C72.4437 74.1646 71.9525 73.6719 71.3505 73.6719H68.5018C67.9013 73.6719 67.4086 74.163 67.4086 74.7651C67.4086 75.3656 67.8997 75.8583 68.5018 75.8583H68.5208V76.6996C67.3896 76.8945 66.3328 77.3032 65.3949 77.8863L65.116 77.4949L65.1477 77.4157C65.4678 77.1622 65.5232 76.6932 65.2697 76.3732C65.0162 76.0532 64.5472 75.9977 64.2272 76.2512L62.7094 77.449C62.3893 77.7025 62.3339 78.1715 62.5874 78.4915C62.8409 78.8115 63.3099 78.867 63.6299 78.6135L63.7471 78.5216L64.0339 78.9256C62.3022 80.5321 61.2185 82.8279 61.2185 85.3787C61.2185 90.2443 65.1636 94.1893 70.0291 94.1893C74.8947 94.1893 78.8397 90.2443 78.8397 85.3787C78.8397 83.0624 77.943 80.9552 76.4822 79.3819Z" fill="white"/>
<path d="M67.5051 85.1062C67.2865 85.1062 67.109 84.9288 67.109 84.7101C67.109 84.2427 66.7288 83.8625 66.2614 83.8625C65.794 83.8625 65.4138 84.2427 65.4138 84.7101C65.4138 84.9288 65.2363 85.1062 65.0177 85.1062C64.799 85.1062 64.6216 84.9288 64.6216 84.7101C64.6216 83.8055 65.3583 83.0703 66.263 83.0703C67.1676 83.0703 67.9044 83.807 67.9044 84.7101C67.9012 84.9288 67.7238 85.1062 67.5051 85.1062Z" fill="#1B1464"/>
<path d="M74.8994 85.1062C74.6808 85.1062 74.5033 84.9288 74.5033 84.7101C74.5033 84.2427 74.1231 83.8625 73.6557 83.8625C73.1883 83.8625 72.808 84.2427 72.808 84.7101C72.808 84.9288 72.6306 85.1062 72.412 85.1062C72.1933 85.1062 72.0159 84.9288 72.0159 84.7101C72.0159 83.8055 72.7526 83.0703 73.6573 83.0703C74.5619 83.0703 75.2987 83.807 75.2987 84.7101C75.2955 84.9288 75.118 85.1062 74.8994 85.1062Z" fill="#1B1464"/>
<path d="M71.6467 87.761L70.2667 84.7998C70.2699 84.7792 70.2731 84.757 70.2731 84.7348V82.3409C70.2731 82.1112 70.0877 81.9258 69.858 81.9258C69.6282 81.9258 69.4429 82.1112 69.4429 82.3409V84.7348C69.4429 84.7649 69.446 84.7951 69.4524 84.8236C69.435 84.9075 69.4429 84.9979 69.4809 85.0818L70.8941 88.1127C70.9908 88.3203 71.238 88.4106 71.4471 88.3139C71.6531 88.2157 71.7434 87.9685 71.6467 87.761Z" fill="#1B1464"/>
<path d="M90.8429 87.7127C90.2408 87.7127 89.672 87.7127 89.07 87.7127C89.07 87.5955 89.07 87.4909 89.07 87.3879C89.0684 86.4342 89.0779 85.4788 89.0605 84.525C89.051 83.9467 88.5123 83.6362 87.9895 83.8833C87.6821 84.0291 87.606 84.3032 87.606 84.6106C87.6045 85.4503 87.6045 86.29 87.6045 87.1297C87.6045 87.3135 87.6045 87.4988 87.6045 87.7048C87.0167 87.7048 86.4463 87.7048 85.8411 87.7048C85.8363 87.6145 85.8268 87.5131 85.8268 87.4117C85.8252 86.4753 85.8316 85.539 85.8221 84.601C85.8173 84.1083 85.5971 83.8501 85.1804 83.8105C84.7162 83.7661 84.3803 84.0323 84.3692 84.5044C84.3502 85.352 84.3597 86.2013 84.3565 87.0489C84.3565 87.2675 84.3565 87.4862 84.3565 87.7143C83.7497 87.7143 83.1793 87.7143 82.5916 87.7143C82.5916 85.8812 82.5916 84.0576 82.5916 82.2198C83.1762 82.2198 83.7465 82.2198 84.3296 82.2198C84.3454 82.3322 84.3597 82.4352 84.3787 82.5762C84.8207 82.1833 85.323 82.0391 85.8807 82.0772C86.4352 82.1152 86.9121 82.3085 87.2543 82.7854C87.3034 82.7505 87.3415 82.7331 87.37 82.703C87.9483 82.1025 88.6581 81.9678 89.4423 82.139C90.1996 82.3053 90.7051 82.8678 90.7969 83.652C90.8381 84.0022 90.8365 84.3571 90.8381 84.7104C90.8429 85.6119 90.8397 86.5134 90.8397 87.4149C90.8429 87.5099 90.8429 87.605 90.8429 87.7127Z" fill="white"/>
<path d="M99.4205 80.1172C99.8784 80.1172 100.251 80.4895 100.251 80.9474V82.6601C100.251 82.6918 100.289 82.706 100.311 82.6838C100.648 82.3622 100.984 82.1769 101.382 82.1151C102.67 81.9138 103.797 82.5492 104.242 83.7786C104.673 84.9701 104.544 86.1092 103.681 87.0725C102.984 87.8504 102.073 88.0279 101.087 87.7443C100.802 87.6619 100.552 87.4559 100.276 87.3007L100.243 87.6825C100.241 87.7015 100.225 87.7158 100.208 87.7158H98.5523C98.5333 87.7158 98.5159 87.6999 98.5159 87.6793V81.0234C98.5159 80.5228 98.9215 80.1172 99.4205 80.1172ZM100.373 84.6405C100.172 85.4866 100.949 86.2978 101.799 86.114C102.328 85.9999 102.675 85.5705 102.68 84.9843C102.686 84.2745 102.215 83.7977 101.509 83.7945C100.919 83.7945 100.498 84.1193 100.373 84.6405Z" fill="white"/>
<path d="M94.6945 87.8691C93.0008 87.8691 91.7349 86.6206 91.7412 84.9554C91.7476 83.3061 93.0166 82.0671 94.6992 82.0703C96.3992 82.0735 97.6762 83.3204 97.6715 84.9713C97.6667 86.6317 96.3945 87.8691 94.6945 87.8691ZM94.7198 83.7909C94.0449 83.7846 93.5426 84.2742 93.5331 84.9491C93.5221 85.6256 94.0116 86.1326 94.685 86.1421C95.371 86.1532 95.8875 85.6494 95.8891 84.9713C95.8891 84.3011 95.3884 83.7973 94.7198 83.7909Z" fill="white"/>
<path d="M119.393 83.4057C118.887 83.7068 118.396 83.9999 117.907 84.2914C117.328 83.6117 116.473 83.6798 116.031 84.1504C115.605 84.6019 115.617 85.3798 116.053 85.8124C116.547 86.3035 117.262 86.2481 117.904 85.6524C118.352 85.9201 118.805 86.1895 119.258 86.462C119.301 86.4873 119.339 86.5238 119.377 86.5539C118.862 87.5473 117.423 88.0859 116.126 87.7817C114.846 87.4823 113.96 86.3875 113.928 85.0693C113.897 83.6862 114.716 82.5565 116.017 82.1921C117.319 81.8261 118.767 82.3347 119.393 83.4057Z" fill="white"/>
<path d="M107.17 80.9746C107.176 81.4895 106.772 81.9078 106.262 81.9142C105.75 81.9205 105.337 81.5181 105.326 81.0031C105.315 80.4962 105.723 80.0715 106.233 80.0589C106.734 80.0462 107.164 80.4676 107.17 80.9746Z" fill="white"/>
<path d="M112.181 81.8507C111.673 81.8459 111.264 81.4261 111.269 80.9143C111.273 80.4057 111.696 79.9875 112.202 79.9922C112.706 79.997 113.121 80.4248 113.114 80.9333C113.106 81.4467 112.691 81.8554 112.181 81.8507Z" fill="white"/>
<path d="M112.558 87.8005H111.823C111.519 87.8005 111.269 87.5518 111.269 87.246V83.3358C111.269 83.0316 111.517 82.7812 111.823 82.7812H112.558C112.862 82.7812 113.113 83.03 113.113 83.3358V87.246C113.113 87.5502 112.864 87.8005 112.558 87.8005Z" fill="white"/>
<path d="M106.617 87.8692H105.881C105.577 87.8692 105.327 87.6205 105.327 87.3147V83.4061C105.327 83.1019 105.576 82.8516 105.881 82.8516H106.617C106.921 82.8516 107.171 83.1003 107.171 83.4061V87.3163C107.17 87.6205 106.921 87.8692 106.617 87.8692Z" fill="white"/>
<path d="M109.587 87.8696H108.852C108.548 87.8696 108.298 87.6208 108.298 87.315V80.6639C108.298 80.3597 108.546 80.1094 108.852 80.1094H109.587C109.891 80.1094 110.142 80.3581 110.142 80.6639V87.315C110.142 87.6208 109.891 87.8696 109.587 87.8696Z" fill="white"/>
<defs>
<clipPath id="clip0_3014_29366">
<rect width="43.1144" height="39.0406" fill="white" transform="translate(70.8938 31.9141)"/>
</clipPath>
</defs>
</svg>
