<svg width="14" height="14" viewBox="0 0 14 14" fill="none" xmlns="http://www.w3.org/2000/svg">
<path fill-rule="evenodd" clip-rule="evenodd" d="M6.66667 13.3333C2.98467 13.3333 0 10.3487 0 6.66667C0 2.98467 2.98467 0 6.66667 0C10.3487 0 13.3333 2.98467 13.3333 6.66667C13.3333 10.3487 10.3487 13.3333 6.66667 13.3333ZM6.66667 12C9.61218 12 12 9.61218 12 6.66667C12 3.72115 9.61218 1.33333 6.66667 1.33333C3.72115 1.33333 1.33333 3.72115 1.33333 6.66667C1.33333 9.61218 3.72115 12 6.66667 12ZM6.002 9.33333L3.17333 6.50467L4.116 5.562L6.002 7.448L9.77267 3.67667L10.716 4.61933L6.002 9.33333Z" fill="currentColor"/>
</svg>
