<svg width="64" height="64" viewBox="0 0 64 64" fill="none" xmlns="http://www.w3.org/2000/svg">
<g clip-path="url(#clip0)">
<path fill-rule="evenodd" clip-rule="evenodd" d="M23.4142 0.585786C24.1953 1.36683 24.1953 2.63317 23.4142 3.41421C22.7814 4.04706 22.8385 4.31947 22.8504 4.37637C22.851 4.37926 22.8515 4.38159 22.8517 4.38339C22.8967 4.67558 23.1009 5.04577 23.6641 5.8906C23.6874 5.9256 23.7118 5.96196 23.737 5.99963C24.1842 6.66708 24.9077 7.74679 25.1017 9.00839C25.346 10.5962 24.7493 12.0792 23.4142 13.4142C22.6332 14.1953 21.3668 14.1953 20.5858 13.4142C19.8047 12.6332 19.8047 11.3668 20.5858 10.5858C21.2186 9.95294 21.1616 9.68053 21.1496 9.62363C21.149 9.62074 21.1485 9.61841 21.1483 9.61662C21.1033 9.32442 20.8991 8.95423 20.3359 8.1094C20.3126 8.0744 20.2882 8.03804 20.263 8.00036C19.8158 7.33292 19.0923 6.25321 18.8983 4.99161C18.654 3.40381 19.2508 1.92082 20.5858 0.585786C21.3668 -0.195262 22.6332 -0.195262 23.4142 0.585786Z" />
<path fill-rule="evenodd" clip-rule="evenodd" d="M33.4142 0.585786C34.1953 1.36683 34.1953 2.63317 33.4142 3.41421C32.7814 4.04706 32.8385 4.31947 32.8504 4.37637C32.851 4.37926 32.8515 4.38159 32.8517 4.38339C32.8967 4.67558 33.1009 5.04577 33.6641 5.8906C33.6874 5.9256 33.7118 5.96196 33.737 5.99963C34.1842 6.66708 34.9077 7.74679 35.1017 9.00839C35.346 10.5962 34.7493 12.0792 33.4142 13.4142C32.6332 14.1953 31.3668 14.1953 30.5858 13.4142C29.8047 12.6332 29.8047 11.3668 30.5858 10.5858C31.2186 9.95294 31.1616 9.68053 31.1496 9.62363C31.149 9.62074 31.1485 9.61841 31.1483 9.61662C31.1033 9.32442 30.8991 8.95423 30.3359 8.1094C30.3126 8.0744 30.2882 8.03804 30.263 8.00036C29.8158 7.33292 29.0923 6.25321 28.8983 4.99161C28.654 3.40381 29.2508 1.92082 30.5858 0.585786C31.3668 -0.195262 32.6332 -0.195262 33.4142 0.585786Z" />
<path fill-rule="evenodd" clip-rule="evenodd" d="M43.4142 0.585786C44.1953 1.36683 44.1953 2.63317 43.4142 3.41421C42.7814 4.04706 42.8385 4.31947 42.8504 4.37637C42.851 4.37926 42.8515 4.38159 42.8517 4.38339C42.8967 4.67558 43.1009 5.04577 43.6641 5.8906C43.6874 5.9256 43.7118 5.96196 43.737 5.99963C44.1842 6.66708 44.9077 7.74679 45.1017 9.00839C45.346 10.5962 44.7493 12.0792 43.4142 13.4142C42.6332 14.1953 41.3668 14.1953 40.5858 13.4142C39.8047 12.6332 39.8047 11.3668 40.5858 10.5858C41.2186 9.95294 41.1616 9.68053 41.1496 9.62363C41.149 9.62074 41.1485 9.61841 41.1483 9.61662C41.1033 9.32442 40.8991 8.95423 40.3359 8.1094C40.3126 8.0744 40.2882 8.03804 40.263 8.00036C39.8158 7.33292 39.0923 6.25321 38.8983 4.99161C38.654 3.40381 39.2508 1.92082 40.5858 0.585786C41.3668 -0.195262 42.6332 -0.195262 43.4142 0.585786Z" />
<path fill-rule="evenodd" clip-rule="evenodd" d="M17.0254 43.5002C17.3163 44.5658 16.6882 45.6654 15.6226 45.9563C12.3724 46.8434 9.84076 47.9455 8.16943 49.1192C6.45117 50.3259 6 51.3356 6 52.0002C6 52.564 6.31429 53.3713 7.49041 54.3646C8.6573 55.35 10.4644 56.3276 12.8727 57.1877C17.6719 58.9019 24.4338 60.0002 32 60.0002C39.5662 60.0002 46.3281 58.9019 51.1273 57.1877C53.5356 56.3276 55.3427 55.35 56.5096 54.3646C57.6857 53.3713 58 52.564 58 52.0002C58 51.3343 57.5473 50.3214 55.8294 49.1137C54.1587 47.9391 51.6276 46.8374 48.3785 45.9573C47.3123 45.6685 46.6821 44.5701 46.9709 43.504C47.2597 42.4378 48.3581 41.8077 49.4242 42.0964C52.9191 43.043 55.9373 44.3 58.1299 45.8414C60.2754 47.3497 62 49.4101 62 52.0002C62 54.1977 60.7476 56.0211 59.0904 57.4206C57.424 58.8279 55.1311 60.0052 52.4727 60.9547C47.1385 62.8599 39.9005 64.0002 32 64.0002C24.0995 64.0002 16.8615 62.8599 11.5273 60.9547C8.86889 60.0052 6.57604 58.8279 4.90959 57.4206C3.25238 56.0211 2 54.1977 2 52.0002C2 49.4089 3.72616 47.3518 5.87057 45.8458C8.0619 44.3069 11.0783 43.0503 14.5694 42.0974C15.635 41.8066 16.7346 42.4347 17.0254 43.5002Z" />
<path fill-rule="evenodd" clip-rule="evenodd" d="M14.2828 26.0199C15.3763 26.1761 16.1361 27.1891 15.9799 28.2826C15.0211 34.9941 15.7917 39.6882 16.7373 42.6395C17.2116 44.1199 17.7346 45.1762 18.1197 45.8403C18.3124 46.1727 18.471 46.4075 18.5723 46.5487C18.6229 46.6193 18.6593 46.6664 18.6784 46.6907C18.6855 46.6997 18.6902 46.7056 18.6924 46.7082C18.8247 46.8646 18.9321 47.0404 19.0111 47.2295L19.0111 47.2296C19.0133 47.2342 19.0639 47.34 19.2327 47.5394C19.3975 47.734 19.6372 47.9733 19.9615 48.2427C20.6104 48.7819 21.5301 49.3852 22.6956 49.9498C25.0235 51.0776 28.2269 51.9998 32 51.9998C35.7731 51.9998 38.9765 51.0776 41.3044 49.9498C42.4699 49.3852 43.3896 48.7819 44.0385 48.2427C44.3628 47.9733 44.6025 47.734 44.7673 47.5394C44.9407 47.3346 44.9893 47.2286 44.989 47.2295C45.0679 47.0404 45.1753 46.8646 45.3076 46.7082C45.3098 46.7056 45.3145 46.6997 45.3216 46.6907C45.3407 46.6664 45.3771 46.6193 45.4277 46.5487C45.529 46.4075 45.6876 46.1727 45.8803 45.8403C46.2654 45.1762 46.7884 44.1199 47.2627 42.6395C48.2084 39.6882 48.9789 34.9941 48.0201 28.2826C47.8639 27.1891 48.6237 26.1761 49.7172 26.0199C50.8106 25.8637 51.8237 26.6235 51.9799 27.7169C53.0211 35.0054 52.209 40.3114 51.072 43.86C50.505 45.6296 49.8616 46.9484 49.3407 47.8467C49.0804 48.2956 48.8511 48.6389 48.6777 48.8805C48.6289 48.9486 48.5845 49.0085 48.5451 49.0605C48.118 49.8927 47.3836 50.664 46.5947 51.3194C45.6639 52.0927 44.4631 52.8643 43.0483 53.5497C40.2155 54.922 36.4189 55.9998 32 55.9998C27.5811 55.9998 23.7845 54.922 20.9517 53.5497C19.5369 52.8643 18.3361 52.0927 17.4053 51.3194C16.6164 50.664 15.882 49.8927 15.4548 49.0605C15.4155 49.0085 15.3711 48.9486 15.3223 48.8805C15.1489 48.6389 14.9196 48.2956 14.6593 47.8467C14.1384 46.9484 13.4951 45.6296 12.9281 43.86C11.791 40.3114 10.9789 35.0054 12.0201 27.7169C12.1763 26.6235 13.1894 25.8637 14.2828 26.0199ZM45.3173 46.6968C45.3173 46.6968 45.3173 46.6968 45.3173 46.6968L45.3164 46.6979L45.3158 46.6986L45.3156 46.6988C45.3159 46.6985 45.3161 46.6982 45.3164 46.6979C45.3167 46.6976 45.317 46.6972 45.3173 46.6968Z" />
<path fill-rule="evenodd" clip-rule="evenodd" d="M18.4598 20.5155C22.1543 18.8735 27.0247 18 32 18C36.9753 18 41.8457 18.8735 45.5402 20.5155C49.0677 22.0833 52 24.6114 52 28C52 31.3886 49.0677 33.9167 45.5402 35.4845C41.8457 37.1265 36.9753 38 32 38C27.0247 38 22.1543 37.1265 18.4598 35.4845C14.9323 33.9167 12 31.3886 12 28C12 24.6114 14.9323 22.0833 18.4598 20.5155ZM32 22C27.4275 22 23.1412 22.8122 20.0844 24.1708C16.8606 25.6036 16 27.1452 16 28C16 28.8548 16.8606 30.3964 20.0844 31.8292C23.1412 33.1878 27.4275 34 32 34C36.5725 34 40.8588 33.1878 43.9156 31.8292C47.1394 30.3964 48 28.8548 48 28C48 27.1452 47.1394 25.6036 43.9156 24.1708C40.8588 22.8122 36.5725 22 32 22Z" />
<path fill-rule="evenodd" clip-rule="evenodd" d="M21.3455 33.4828L20.0542 34.774C19.2732 35.5551 18.0068 35.5551 17.2258 34.774C16.4448 33.993 16.4448 32.7267 17.2258 31.9456L18.5858 30.5856C18.6303 30.5411 18.6768 30.4988 18.7253 30.4587C22.447 27.3803 27.1768 25.7917 32 25.9978C36.8232 25.7917 41.5531 27.3803 45.2748 30.4587C45.3232 30.4988 45.3698 30.5411 45.4142 30.5856L46.7742 31.9456C47.5553 32.7267 47.5553 33.993 46.7742 34.774C45.9932 35.5551 44.7269 35.5551 43.9458 34.774L42.6546 33.4828C39.6869 31.0574 35.9256 29.8152 32.0951 29.9976C32.0318 30.0006 31.9683 30.0006 31.9049 29.9976C28.0744 29.8152 24.3131 31.0574 21.3455 33.4828Z" />
</g>
<defs>
<clipPath id="clip0">
<path d="M0 0H64V64H0V0Z" fill="white"/>
</clipPath>
</defs>
</svg>
