<svg width="406" height="303" viewBox="0 0 406 303" fill="none" xmlns="http://www.w3.org/2000/svg">
<path d="M4.29295 163.948C42.1458 154.678 76.5704 136.714 108.501 116.518C141.348 95.7399 173.512 71.7794 212.804 63.4745C226.447 60.591 244.081 61.2862 250.272 72.3104C252.983 77.1356 252.685 82.8434 251.67 88.166C247.915 107.855 235.263 126.001 234.403 145.936C233.975 155.856 237.072 166.551 245.82 172.78C260.115 182.953 281.167 177.047 298.613 171.702C316.058 166.357 338.985 163.397 349.753 176.502C360.483 189.561 350.585 209.161 358.973 223.488C364.775 233.397 371.294 238.573 384 238.5C396.71 238.428 395 241.5 409 232.5" stroke="white" stroke-opacity="0.22" stroke-width="7.5401" stroke-miterlimit="10" stroke-linecap="round" stroke-linejoin="round" stroke-dasharray="7.54 20"/>
<path d="M80.347 144.768C86.8342 147.129 94.0072 143.784 96.3684 137.297C98.7295 130.809 95.3847 123.636 88.8975 121.275C82.4102 118.914 75.2372 122.259 72.8761 128.746C70.5149 135.233 73.8597 142.406 80.347 144.768Z" fill="#F3A817"/>
<path d="M345.355 186.745C351.843 189.106 359.014 185.766 361.373 179.285C363.731 172.804 360.385 165.636 353.898 163.275C347.41 160.914 340.239 164.254 337.88 170.735C335.521 177.216 338.868 184.384 345.355 186.745Z" fill="#AB7AF9"/>
<path d="M87.5005 103L87.5034 111.42C92.5697 112.033 97.2791 114.24 100.89 117.695C104.501 121.149 106.807 125.654 107.447 130.5H116.25V136L107.447 136.003C106.807 140.848 104.5 145.353 100.889 148.806C97.2783 152.26 92.5693 154.467 87.5034 155.079L87.5005 163.5H81.7505V155.079C76.684 154.468 71.9743 152.261 68.3631 148.807C64.7519 145.353 62.4443 140.849 61.8037 136.003L53.0005 136V130.5H61.8037C62.4437 125.653 64.751 121.148 68.3623 117.694C71.9736 114.24 76.6836 112.033 81.7505 111.42V103H87.5005ZM84.6255 116.75C80.0505 116.75 75.6629 118.488 72.4279 121.583C69.1929 124.677 67.3755 128.874 67.3755 133.25C67.3755 137.626 69.1929 141.823 72.4279 144.917C75.6629 148.012 80.0505 149.75 84.6255 149.75C89.2005 149.75 93.5881 148.012 96.8231 144.917C100.058 141.823 101.875 137.626 101.875 133.25C101.875 128.874 100.058 124.677 96.8231 121.583C93.5881 118.488 89.2005 116.75 84.6255 116.75ZM84.6255 127.75C86.1505 127.75 87.613 128.329 88.6914 129.361C89.7697 130.392 90.3755 131.791 90.3755 133.25C90.3755 134.709 89.7697 136.108 88.6914 137.139C87.613 138.171 86.1505 138.75 84.6255 138.75C83.1005 138.75 81.638 138.171 80.5596 137.139C79.4813 136.108 78.8755 134.709 78.8755 133.25C78.8755 131.791 79.4813 130.392 80.5596 129.361C81.638 128.329 83.1005 127.75 84.6255 127.75V127.75Z" fill="white"/>
</svg>
