<svg width="64" height="64" viewBox="0 0 64 64" fill="none" xmlns="http://www.w3.org/2000/svg">
<path d="M5.56386 14.0857C7.06308 15.6203 9.2989 16.2391 11.4002 15.6874C13.5014 15.1357 15.1442 13.4984 15.7021 11.3999C16.26 9.30142 15.6471 7.06513 14.097 5.54374L12.6543 4.10586C15.7569 3.65078 18.9661 4.65689 21.2673 6.95118C24.3002 9.97484 25.0983 14.5801 23.2596 18.447C22.8959 19.2121 23.0539 20.1232 23.6541 20.7212L26.2415 23.2991C27.0239 24.0787 28.2906 24.0767 29.0706 23.2947C29.8507 22.5127 29.8487 21.2467 29.0662 20.4671L27.4253 18.8321C29.2383 13.7391 27.9824 7.9977 24.093 4.1201C19.8604 -0.0996245 13.4271 -1.19689 8.03382 1.38104C6.78756 1.97674 6.50615 3.62562 7.48436 4.60054L11.2827 8.38606C11.8167 8.91023 12.0235 9.66488 11.8352 10.373C11.647 11.0812 11.0926 11.6337 10.3835 11.8199C9.67443 12.006 8.91994 11.7972 8.40772 11.273L4.58805 7.46594C3.61022 6.4914 1.96193 6.77662 1.36884 8.023C-1.20048 13.4224 -0.0860047 19.8541 4.15042 24.0756C8.04365 27.9551 13.7967 29.1939 18.8903 27.3637L20.7392 29.2045C21.5219 29.9838 22.7886 29.9814 23.5684 29.1991C24.3481 28.4168 24.3457 27.1508 23.5629 26.3715L20.7676 23.5883C20.1672 22.9906 19.2553 22.8358 18.4911 23.2018C14.6252 25.0534 10.0112 24.2689 6.97538 21.2438C4.75014 19.0264 3.72689 15.9581 4.06418 12.9538L4.10553 12.6322L5.56386 14.0857Z"/>
<path d="M58.439 49.7195C56.0665 47.3909 52.2773 47.4055 49.9331 49.7418C47.5889 52.0781 47.5638 55.8651 49.8768 58.2323L51.3487 59.6993C48.2469 60.1536 45.0389 59.1477 42.7382 56.8543C39.7057 53.8315 38.9069 49.2275 40.744 45.3607C41.1073 44.5959 40.9493 43.6852 40.3494 43.0873L36.5564 39.3072C35.7741 38.5274 34.5074 38.5292 33.7273 39.3111C32.9471 40.093 32.9489 41.359 33.7312 42.1387L36.5784 44.9763C34.7671 50.069 36.0238 55.809 39.9128 59.6856C44.1449 63.9041 50.5766 65.0014 55.9692 62.4248C57.2157 61.8292 57.4973 60.1801 56.519 59.2051L52.7206 55.4196C51.9588 54.6397 51.9673 53.3617 52.7583 52.5733C53.5494 51.7849 54.8281 51.78 55.6252 52.5623L59.4158 56.3376C60.3941 57.3119 62.0426 57.0258 62.635 55.7789C65.1999 50.38 64.0834 43.9518 59.848 39.7327C55.9559 35.8556 50.2059 34.617 45.114 36.4447L42.2672 33.6075C41.4849 32.8278 40.2182 32.8296 39.4381 33.6115C38.6579 34.3934 38.6597 35.6594 39.4421 36.4391L43.2351 40.2193C43.8352 40.8174 44.7473 40.9726 45.5117 40.6068C49.3766 38.7571 53.9884 39.5415 57.0235 42.5649C59.2476 44.7805 60.2716 47.8462 59.9367 50.8488L59.8956 51.1702L58.439 49.7195Z"/>
<path d="M2.22667 61.4533C0.856386 59.9841 0.0904541 58.0473 0.0904541 56.0313C0.0904541 53.9143 0.935041 51.8847 2.43441 50.3948L14.9585 37.9017C16.52 36.3459 19.0465 36.3459 20.6079 37.9015L26.2583 43.5302C27.0083 44.2783 27.4298 45.2939 27.4298 46.3529C27.4298 47.4119 27.0083 48.4274 26.2582 49.1757L13.7305 61.6697C10.674 64.7103 5.77371 64.7751 2.63865 61.8642L2.43673 61.6701L2.22667 61.4533ZM17.7833 40.7337L5.25814 53.2277C4.51138 53.9698 4.0915 54.9788 4.0915 56.0313C4.0915 57.0837 4.51138 58.0928 5.25814 58.8348L5.41827 58.9858C6.98821 60.3878 9.39786 60.3378 10.9061 58.8374L23.4243 46.3529L17.7833 40.7337Z"/>
<path d="M45.6452 1.75402L62.2389 18.2824C63.3653 19.4026 63.9986 20.9253 63.9986 22.5135C63.9986 24.1017 63.3653 25.6244 62.2411 26.7424L56.5934 32.3763C54.2512 34.7099 50.4614 34.7099 48.1194 32.3764L31.5268 15.8492C30.4004 14.729 29.7671 13.2063 29.7671 11.6181C29.7671 10.0299 30.4004 8.50722 31.5253 7.38851L37.171 1.76201C39.511 -0.573797 43.3008 -0.577373 45.6452 1.75402ZM42.822 4.58752L42.6959 4.47243C41.91 3.81382 40.7373 3.85377 39.9973 4.59247L34.349 10.2216C33.9772 10.5913 33.7681 11.0939 33.7681 11.6181C33.7681 12.1423 33.9772 12.6449 34.3501 13.0158L50.9439 29.5443C51.7247 30.3221 52.9879 30.3221 53.7678 29.5451L59.4168 23.91C59.7886 23.5403 59.9976 23.0377 59.9976 22.5135C59.9976 21.9893 59.7886 21.4867 59.4156 21.1158L42.822 4.58752Z"/>
<path d="M40.0188 21.4322L20.363 40.4291C19.5688 41.1968 19.5476 42.4625 20.3156 43.2563C21.0836 44.0501 22.3501 44.0713 23.1444 43.3037L42.8002 24.3068C43.5944 23.5392 43.6156 22.2734 42.8476 21.4796C42.0795 20.6858 40.8131 20.6646 40.0188 21.4322Z"/>
</svg>
