<svg xmlns="http://www.w3.org/2000/svg" width="4111.54" height="1992.25" viewBox="0 0 4111.54 1992.25">
    <g id="Layer_2" data-name="Layer 2">
        <g id="Слой_1" data-name="Слой 1">
            <g id="GROUND">
                <line x1="1597.27" y1="1989.75" x2="3009.3" y2="1989.75" fill="none" stroke="#59221d" stroke-linecap="round" stroke-miterlimit="10" stroke-width="5"/><line x1="88.35" y1="1720.28" x2="1481.96" y2="1720.28" fill="none" stroke="#59221d" stroke-linecap="round" stroke-miterlimit="10" stroke-width="5"/><line x1="3224.69" y1="1989.75" x2="3934.69" y2="1989.75" fill="none" stroke="#59221d" stroke-linecap="round" stroke-miterlimit="10" stroke-width="5"/></g><g id="LAMP"><path d="M1220.51,1602.53V137.28A134.78,134.78,0,0,1,1355.3,2.5H1671" fill="none" stroke="#59221d" stroke-linecap="round" stroke-miterlimit="10" stroke-width="5"/><path d="M1219.7,137.28A134.78,134.78,0,0,0,1084.92,2.5H769.18" fill="none" stroke="#59221d" stroke-linecap="round" stroke-miterlimit="10" stroke-width="5"/><rect x="1502.47" y="18.15" width="168.56" height="36.76" rx="13.72" fill="#b4e1fa"/><rect x="769.18" y="18.15" width="168.56" height="36.76" rx="13.72" fill="#b4e1fa"/></g><g id="STORAGE"><polygon points="1437 1171.8 1437 570.56 2313.27 304.07 3182.48 570.56 3182.48 1171.8 1437 1171.8" fill="#fff" stroke="#59221d" stroke-linecap="round" stroke-miterlimit="10" stroke-width="5"/><rect x="3181.62" y="570.56" width="605.06" height="601.24" fill="#fff" stroke="#59221d" stroke-linecap="round" stroke-miterlimit="10" stroke-width="5"/><polygon points="3785.66 570.56 2916.44 304.07 2312.4 304.07 3181.62 570.56 3785.66 570.56" fill="#fff" stroke="#59221d" stroke-linecap="round" stroke-linejoin="round" stroke-width="5"/><rect x="3291.35" y="711.14" width="419.31" height="37.11" fill="#98c8db"/><rect x="3280.67" y="702.77" width="419.31" height="37.11" fill="none" stroke="#59221d" stroke-linecap="round" stroke-miterlimit="10" stroke-width="5"/><line x1="3490.95" y1="739.88" x2="3490.95" y2="702.77" fill="none" stroke="#59221d" stroke-linecap="round" stroke-miterlimit="10" stroke-width="5"/><polygon points="3079.88 593.13 3079.88 1171.8 1538.67 733.04 1538.67 593.13 3079.88 593.13" fill="#98c8db"/><rect x="1538.67" y="593.13" width="1541.21" height="578.67" fill="none" stroke="#59221d" stroke-linecap="round" stroke-miterlimit="10" stroke-width="5"/><rect x="1538.67" y="593.13" width="1542.14" height="94.26" fill="#fff" stroke="#59221d" stroke-linecap="round" stroke-miterlimit="10" stroke-width="5"/><line x1="3080.3" y1="616.47" x2="1538.67" y2="616.47" fill="none" stroke="#59221d" stroke-linecap="round" stroke-miterlimit="10" stroke-width="5"/><line x1="3080.3" y1="640.08" x2="1538.67" y2="640.08" fill="none" stroke="#59221d" stroke-linecap="round" stroke-miterlimit="10" stroke-width="5"/><line x1="3080.3" y1="663.68" x2="1538.67" y2="663.68" fill="none" stroke="#59221d" stroke-linecap="round" stroke-miterlimit="10" stroke-width="5"/><line x1="2604.87" y1="687.38" x2="2604.87" y2="1171.8" fill="none" stroke="#59221d" stroke-linecap="round" stroke-miterlimit="10" stroke-width="5"/><rect x="2917.87" y="1074.27" width="156.5" height="92.25" fill="#59221d" stroke="#59221d" stroke-linecap="round" stroke-miterlimit="10" stroke-width="5"/><rect x="2917.87" y="982.01" width="156.5" height="92.25" fill="#59221d" stroke="#59221d" stroke-linecap="round" stroke-miterlimit="10" stroke-width="5"/><rect x="2761.37" y="1074.27" width="156.5" height="92.25" fill="#fff" stroke="#b4e1fa" stroke-miterlimit="10" stroke-width="5"/><rect x="2761.12" y="982.01" width="159" height="92.25" fill="#b4e1fa"/><rect x="2761.37" y="797.51" width="156.5" height="92.25" fill="#fff" stroke="#b4e1fa" stroke-miterlimit="10" stroke-width="5"/><rect x="2917.87" y="889.76" width="156.5" height="92.25" fill="#fff" stroke="#b4e1fa" stroke-miterlimit="10" stroke-width="5"/><rect x="2448.38" y="1074.27" width="156.5" height="92.25" fill="#59221d" stroke="#59221d" stroke-linecap="round" stroke-miterlimit="10" stroke-width="5"/><rect x="2604.87" y="1074.27" width="156.5" height="92.25" fill="#fff" stroke="#b4e1fa" stroke-miterlimit="10" stroke-width="5"/><rect x="2604.87" y="982.01" width="156.5" height="92.25" fill="#fff" stroke="#b4e1fa" stroke-miterlimit="10" stroke-width="5"/><rect x="2761.37" y="889.76" width="156.5" height="92.25" fill="#fff" stroke="#b4e1fa" stroke-miterlimit="10" stroke-width="5"/><circle cx="2839.38" cy="902.87" r="4.98" fill="#b4e1fa"/><circle cx="2807.99" cy="902.87" r="4.98" fill="#b4e1fa"/><circle cx="2870.77" cy="902.87" r="4.98" fill="#b4e1fa"/><circle cx="2902.16" cy="902.87" r="4.98" fill="#b4e1fa"/><circle cx="2776.6" cy="902.87" r="4.98" fill="#b4e1fa"/><circle cx="2823.69" cy="919.23" r="4.98" fill="#b4e1fa"/><circle cx="2792.3" cy="919.23" r="4.98" fill="#b4e1fa"/><circle cx="2855.08" cy="919.23" r="4.98" fill="#b4e1fa"/><circle cx="2886.47" cy="919.23" r="4.98" fill="#b4e1fa"/><circle cx="2839.38" cy="935.58" r="4.98" fill="#b4e1fa"/><circle cx="2807.99" cy="935.58" r="4.98" fill="#b4e1fa"/><circle cx="2870.77" cy="935.58" r="4.98" fill="#b4e1fa"/><circle cx="2902.16" cy="935.58" r="4.98" fill="#b4e1fa"/><circle cx="2776.6" cy="935.58" r="4.98" fill="#b4e1fa"/><circle cx="2823.69" cy="951.94" r="4.98" fill="#b4e1fa"/><circle cx="2792.3" cy="951.94" r="4.98" fill="#b4e1fa"/><circle cx="2855.08" cy="951.94" r="4.98" fill="#b4e1fa"/><circle cx="2886.47" cy="951.94" r="4.98" fill="#b4e1fa"/><circle cx="2839.38" cy="968.29" r="4.98" fill="#b4e1fa"/><circle cx="2807.99" cy="968.29" r="4.98" fill="#b4e1fa"/><circle cx="2870.77" cy="968.29" r="4.98" fill="#b4e1fa"/><circle cx="2902.16" cy="968.29" r="4.98" fill="#b4e1fa"/><circle cx="2776.6" cy="968.29" r="4.98" fill="#b4e1fa"/><circle cx="2706.04" cy="323.89" r="5.29" fill="#98c8db"/><circle cx="2739.35" cy="323.89" r="5.29" fill="#98c8db"/><circle cx="2772.66" cy="323.89" r="5.29" fill="#98c8db"/><circle cx="2805.97" cy="323.89" r="5.29" fill="#98c8db"/><circle cx="2839.28" cy="323.89" r="5.29" fill="#98c8db"/><circle cx="2872.59" cy="323.89" r="5.29" fill="#98c8db"/><circle cx="2905.9" cy="323.89" r="5.29" fill="#98c8db"/><circle cx="2472.88" cy="323.89" r="5.29" fill="#98c8db"/><circle cx="2439.58" cy="323.89" r="5.29" fill="#98c8db"/><circle cx="2506.19" cy="323.89" r="5.29" fill="#98c8db"/><circle cx="2539.5" cy="323.89" r="5.29" fill="#98c8db"/><circle cx="2572.81" cy="323.89" r="5.29" fill="#98c8db"/><circle cx="2606.12" cy="323.89" r="5.29" fill="#98c8db"/><circle cx="2639.43" cy="323.89" r="5.29" fill="#98c8db"/><circle cx="2672.74" cy="323.89" r="5.29" fill="#98c8db"/><circle cx="2788.35" cy="341.16" r="5.29" fill="#98c8db"/><circle cx="2821.65" cy="341.16" r="5.29" fill="#98c8db"/><circle cx="2854.96" cy="341.16" r="5.29" fill="#98c8db"/><circle cx="2888.27" cy="341.16" r="5.29" fill="#98c8db"/><circle cx="2921.58" cy="341.16" r="5.29" fill="#98c8db"/><circle cx="2954.89" cy="341.16" r="5.29" fill="#98c8db"/><circle cx="2988.2" cy="341.16" r="5.29" fill="#98c8db"/><circle cx="2555.19" cy="341.16" r="5.29" fill="#98c8db"/><circle cx="2521.88" cy="341.16" r="5.29" fill="#98c8db"/><circle cx="2588.49" cy="341.16" r="5.29" fill="#98c8db"/><circle cx="2621.8" cy="341.16" r="5.29" fill="#98c8db"/><circle cx="2655.11" cy="341.16" r="5.29" fill="#98c8db"/><circle cx="2688.42" cy="341.16" r="5.29" fill="#98c8db"/><circle cx="2721.73" cy="341.16" r="5.29" fill="#98c8db"/><circle cx="2755.04" cy="341.16" r="5.29" fill="#98c8db"/><circle cx="2488.57" cy="341.16" r="5.29" fill="#98c8db"/><circle cx="2805.54" cy="358.43" r="5.29" fill="#98c8db"/><circle cx="2838.85" cy="358.43" r="5.29" fill="#98c8db"/><circle cx="2872.16" cy="358.43" r="5.29" fill="#98c8db"/><circle cx="2905.47" cy="358.43" r="5.29" fill="#98c8db"/><circle cx="2938.78" cy="358.43" r="5.29" fill="#98c8db"/><circle cx="2972.08" cy="358.43" r="5.29" fill="#98c8db"/><circle cx="3005.39" cy="358.43" r="5.29" fill="#98c8db"/><circle cx="2572.38" cy="358.43" r="5.29" fill="#98c8db"/><circle cx="2539.07" cy="358.43" r="5.29" fill="#98c8db"/><circle cx="2605.69" cy="358.43" r="5.29" fill="#98c8db"/><circle cx="2639" cy="358.43" r="5.29" fill="#98c8db"/><circle cx="2672.31" cy="358.43" r="5.29" fill="#98c8db"/><circle cx="2705.62" cy="358.43" r="5.29" fill="#98c8db"/><circle cx="2738.92" cy="358.43" r="5.29" fill="#98c8db"/><circle cx="2772.23" cy="358.43" r="5.29" fill="#98c8db"/><circle cx="2888.87" cy="373.97" r="5.29" fill="#98c8db"/><circle cx="2922.18" cy="373.97" r="5.29" fill="#98c8db"/><circle cx="2955.49" cy="373.97" r="5.29" fill="#98c8db"/><circle cx="2988.8" cy="373.97" r="5.29" fill="#98c8db"/><circle cx="3022.1" cy="373.97" r="5.29" fill="#98c8db"/><circle cx="3055.41" cy="373.97" r="5.29" fill="#98c8db"/><circle cx="3088.72" cy="373.97" r="5.29" fill="#98c8db"/><circle cx="2655.71" cy="373.97" r="5.29" fill="#98c8db"/><circle cx="2622.4" cy="373.97" r="5.29" fill="#98c8db"/><circle cx="2689.02" cy="373.97" r="5.29" fill="#98c8db"/><circle cx="2722.33" cy="373.97" r="5.29" fill="#98c8db"/><circle cx="2755.64" cy="373.97" r="5.29" fill="#98c8db"/><circle cx="2788.94" cy="373.97" r="5.29" fill="#98c8db"/><circle cx="2822.25" cy="373.97" r="5.29" fill="#98c8db"/><circle cx="2855.56" cy="373.97" r="5.29" fill="#98c8db"/><circle cx="2589.09" cy="373.97" r="5.29" fill="#98c8db"/><circle cx="2939.92" cy="391.59" r="5.29" fill="#98c8db"/><circle cx="2973.22" cy="391.59" r="5.29" fill="#98c8db"/><circle cx="3006.53" cy="391.59" r="5.29" fill="#98c8db"/><circle cx="3039.84" cy="391.59" r="5.29" fill="#98c8db"/><circle cx="3073.15" cy="391.59" r="5.29" fill="#98c8db"/><circle cx="3106.46" cy="391.59" r="5.29" fill="#98c8db"/><circle cx="3139.77" cy="391.59" r="5.29" fill="#98c8db"/><circle cx="2706.76" cy="391.59" r="5.29" fill="#98c8db"/><circle cx="2673.45" cy="391.59" r="5.29" fill="#98c8db"/><circle cx="2740.06" cy="391.59" r="5.29" fill="#98c8db"/><circle cx="2773.37" cy="391.59" r="5.29" fill="#98c8db"/><circle cx="2806.68" cy="391.59" r="5.29" fill="#98c8db"/><circle cx="2839.99" cy="391.59" r="5.29" fill="#98c8db"/><circle cx="2873.3" cy="391.59" r="5.29" fill="#98c8db"/><circle cx="2906.61" cy="391.59" r="5.29" fill="#98c8db"/><circle cx="3023.24" cy="409.2" r="5.29" fill="#98c8db"/><circle cx="3056.55" cy="409.2" r="5.29" fill="#98c8db"/><circle cx="3089.86" cy="409.2" r="5.29" fill="#98c8db"/><circle cx="3123.17" cy="409.2" r="5.29" fill="#98c8db"/><circle cx="3156.48" cy="409.2" r="5.29" fill="#98c8db"/><circle cx="3189.79" cy="409.2" r="5.29" fill="#98c8db"/><circle cx="3223.09" cy="409.2" r="5.29" fill="#98c8db"/><circle cx="2790.08" cy="409.2" r="5.29" fill="#98c8db"/><circle cx="2756.77" cy="409.2" r="5.29" fill="#98c8db"/><circle cx="2823.39" cy="409.2" r="5.29" fill="#98c8db"/><circle cx="2856.7" cy="409.2" r="5.29" fill="#98c8db"/><circle cx="2890.01" cy="409.2" r="5.29" fill="#98c8db"/><circle cx="2923.32" cy="409.2" r="5.29" fill="#98c8db"/><circle cx="2956.63" cy="409.2" r="5.29" fill="#98c8db"/><circle cx="2989.93" cy="409.2" r="5.29" fill="#98c8db"/><circle cx="2723.47" cy="409.2" r="5.29" fill="#98c8db"/><circle cx="3073.26" cy="426.81" r="5.29" fill="#98c8db"/><circle cx="3106.57" cy="426.81" r="5.29" fill="#98c8db"/><circle cx="3139.88" cy="426.81" r="5.29" fill="#98c8db"/><circle cx="3173.19" cy="426.81" r="5.29" fill="#98c8db"/><circle cx="3206.5" cy="426.81" r="5.29" fill="#98c8db"/><circle cx="3239.81" cy="426.81" r="5.29" fill="#98c8db"/><circle cx="3273.11" cy="426.81" r="5.29" fill="#98c8db"/><circle cx="2840.1" cy="426.81" r="5.29" fill="#98c8db"/><circle cx="2806.79" cy="426.81" r="5.29" fill="#98c8db"/><circle cx="2873.41" cy="426.81" r="5.29" fill="#98c8db"/><circle cx="2906.72" cy="426.81" r="5.29" fill="#98c8db"/><circle cx="2940.03" cy="426.81" r="5.29" fill="#98c8db"/><circle cx="2973.34" cy="426.81" r="5.29" fill="#98c8db"/><circle cx="3006.65" cy="426.81" r="5.29" fill="#98c8db"/><circle cx="3039.95" cy="426.81" r="5.29" fill="#98c8db"/><circle cx="3123.77" cy="444.43" r="5.29" fill="#98c8db"/><circle cx="3157.08" cy="444.43" r="5.29" fill="#98c8db"/><circle cx="3190.38" cy="444.43" r="5.29" fill="#98c8db"/><circle cx="3223.69" cy="444.43" r="5.29" fill="#98c8db"/><circle cx="3257" cy="444.43" r="5.29" fill="#98c8db"/><circle cx="3290.31" cy="444.43" r="5.29" fill="#98c8db"/><circle cx="3323.62" cy="444.43" r="5.29" fill="#98c8db"/><circle cx="2890.61" cy="444.43" r="5.29" fill="#98c8db"/><circle cx="2857.3" cy="444.43" r="5.29" fill="#98c8db"/><circle cx="2923.92" cy="444.43" r="5.29" fill="#98c8db"/><circle cx="2957.22" cy="444.43" r="5.29" fill="#98c8db"/><circle cx="2990.53" cy="444.43" r="5.29" fill="#98c8db"/><circle cx="3023.84" cy="444.43" r="5.29" fill="#98c8db"/><circle cx="3057.15" cy="444.43" r="5.29" fill="#98c8db"/><circle cx="3090.46" cy="444.43" r="5.29" fill="#98c8db"/><circle cx="2823.99" cy="444.43" r="5.29" fill="#98c8db"/><circle cx="3175.84" cy="462.04" r="5.29" fill="#98c8db"/><circle cx="3209.15" cy="462.04" r="5.29" fill="#98c8db"/><circle cx="3242.46" cy="462.04" r="5.29" fill="#98c8db"/><circle cx="3275.76" cy="462.04" r="5.29" fill="#98c8db"/><circle cx="3309.07" cy="462.04" r="5.29" fill="#98c8db"/><circle cx="3342.38" cy="462.04" r="5.29" fill="#98c8db"/><circle cx="3375.69" cy="462.04" r="5.29" fill="#98c8db"/><circle cx="2942.68" cy="462.04" r="5.29" fill="#98c8db"/><circle cx="2909.37" cy="462.04" r="5.29" fill="#98c8db"/><circle cx="2975.99" cy="462.04" r="5.29" fill="#98c8db"/><circle cx="3009.3" cy="462.04" r="5.29" fill="#98c8db"/><circle cx="3042.6" cy="462.04" r="5.29" fill="#98c8db"/><circle cx="3075.91" cy="462.04" r="5.29" fill="#98c8db"/><circle cx="3109.22" cy="462.04" r="5.29" fill="#98c8db"/><circle cx="3142.53" cy="462.04" r="5.29" fill="#98c8db"/><circle cx="3259.17" cy="480.17" r="5.29" fill="#98c8db"/><circle cx="3292.47" cy="480.17" r="5.29" fill="#98c8db"/><circle cx="3325.78" cy="480.17" r="5.29" fill="#98c8db"/><circle cx="3359.09" cy="480.17" r="5.29" fill="#98c8db"/><circle cx="3392.4" cy="480.17" r="5.29" fill="#98c8db"/><circle cx="3425.71" cy="480.17" r="5.29" fill="#98c8db"/><circle cx="3459.02" cy="480.17" r="5.29" fill="#98c8db"/><circle cx="3026.01" cy="480.17" r="5.29" fill="#98c8db"/><circle cx="2992.7" cy="480.17" r="5.29" fill="#98c8db"/><circle cx="3059.31" cy="480.17" r="5.29" fill="#98c8db"/><circle cx="3092.62" cy="480.17" r="5.29" fill="#98c8db"/><circle cx="3125.93" cy="480.17" r="5.29" fill="#98c8db"/><circle cx="3159.24" cy="480.17" r="5.29" fill="#98c8db"/><circle cx="3192.55" cy="480.17" r="5.29" fill="#98c8db"/><circle cx="3225.86" cy="480.17" r="5.29" fill="#98c8db"/><circle cx="2959.39" cy="480.17" r="5.29" fill="#98c8db"/><circle cx="3311.24" cy="498.3" r="5.29" fill="#98c8db"/><circle cx="3344.55" cy="498.3" r="5.29" fill="#98c8db"/><circle cx="3377.85" cy="498.3" r="5.29" fill="#98c8db"/><circle cx="3411.16" cy="498.3" r="5.29" fill="#98c8db"/><circle cx="3444.47" cy="498.3" r="5.29" fill="#98c8db"/><circle cx="3477.78" cy="498.3" r="5.29" fill="#98c8db"/><circle cx="3511.09" cy="498.3" r="5.29" fill="#98c8db"/><circle cx="3078.08" cy="498.3" r="5.29" fill="#98c8db"/><circle cx="3044.77" cy="498.3" r="5.29" fill="#98c8db"/><circle cx="3111.39" cy="498.3" r="5.29" fill="#98c8db"/><circle cx="3144.69" cy="498.3" r="5.29" fill="#98c8db"/><circle cx="3178" cy="498.3" r="5.29" fill="#98c8db"/><circle cx="3211.31" cy="498.3" r="5.29" fill="#98c8db"/><circle cx="3244.62" cy="498.3" r="5.29" fill="#98c8db"/><circle cx="3277.93" cy="498.3" r="5.29" fill="#98c8db"/><circle cx="3395.59" cy="516.43" r="5.29" fill="#98c8db"/><circle cx="3428.9" cy="516.43" r="5.29" fill="#98c8db"/><circle cx="3462.21" cy="516.43" r="5.29" fill="#98c8db"/><circle cx="3495.52" cy="516.43" r="5.29" fill="#98c8db"/><circle cx="3528.83" cy="516.43" r="5.29" fill="#98c8db"/><circle cx="3562.13" cy="516.43" r="5.29" fill="#98c8db"/><circle cx="3162.43" cy="516.43" r="5.29" fill="#98c8db"/><circle cx="3129.12" cy="516.43" r="5.29" fill="#98c8db"/><circle cx="3195.74" cy="516.43" r="5.29" fill="#98c8db"/><circle cx="3229.05" cy="516.43" r="5.29" fill="#98c8db"/><circle cx="3262.36" cy="516.43" r="5.29" fill="#98c8db"/><circle cx="3295.67" cy="516.43" r="5.29" fill="#98c8db"/><circle cx="3328.97" cy="516.43" r="5.29" fill="#98c8db"/><circle cx="3362.28" cy="516.43" r="5.29" fill="#98c8db"/><circle cx="3095.81" cy="516.43" r="5.29" fill="#98c8db"/><circle cx="3497.14" cy="552.7" r="5.29" fill="#98c8db"/><circle cx="3530.45" cy="552.7" r="5.29" fill="#98c8db"/><circle cx="3563.76" cy="552.7" r="5.29" fill="#98c8db"/><circle cx="3597.07" cy="552.7" r="5.29" fill="#98c8db"/><circle cx="3630.37" cy="552.7" r="5.29" fill="#98c8db"/><circle cx="3663.68" cy="552.7" r="5.29" fill="#98c8db"/><circle cx="3696.99" cy="552.7" r="5.29" fill="#98c8db"/><circle cx="3263.98" cy="552.7" r="5.29" fill="#98c8db"/><circle cx="3230.67" cy="552.7" r="5.29" fill="#98c8db"/><circle cx="3297.29" cy="552.7" r="5.29" fill="#98c8db"/><circle cx="3330.6" cy="552.7" r="5.29" fill="#98c8db"/><circle cx="3363.91" cy="552.7" r="5.29" fill="#98c8db"/><circle cx="3397.21" cy="552.7" r="5.29" fill="#98c8db"/><circle cx="3430.52" cy="552.7" r="5.29" fill="#98c8db"/><circle cx="3463.83" cy="552.7" r="5.29" fill="#98c8db"/><circle cx="3197.36" cy="552.7" r="5.29" fill="#98c8db"/><circle cx="3413.81" cy="534.57" r="5.29" fill="#98c8db"/><circle cx="3447.12" cy="534.57" r="5.29" fill="#98c8db"/><circle cx="3480.43" cy="534.57" r="5.29" fill="#98c8db"/><circle cx="3513.74" cy="534.57" r="5.29" fill="#98c8db"/><circle cx="3547.05" cy="534.57" r="5.29" fill="#98c8db"/><circle cx="3580.36" cy="534.57" r="5.29" fill="#98c8db"/><circle cx="3613.66" cy="534.57" r="5.29" fill="#98c8db"/><circle cx="3180.65" cy="534.57" r="5.29" fill="#98c8db"/><circle cx="3147.34" cy="534.57" r="5.29" fill="#98c8db"/><circle cx="3213.96" cy="534.57" r="5.29" fill="#98c8db"/><circle cx="3247.27" cy="534.57" r="5.29" fill="#98c8db"/><circle cx="3280.58" cy="534.57" r="5.29" fill="#98c8db"/><circle cx="3313.89" cy="534.57" r="5.29" fill="#98c8db"/><circle cx="3347.2" cy="534.57" r="5.29" fill="#98c8db"/><circle cx="3380.5" cy="534.57" r="5.29" fill="#98c8db"/></g><g id="SMALL_CAR" data-name="SMALL CAR"><g id="CAR"><circle cx="3385.34" cy="1202.47" r="23.81" fill="#59221d" stroke="#59221d" stroke-linecap="round" stroke-miterlimit="10" stroke-width="5"/><path d="M3587.62,1170V958.34h-103a70.49,70.49,0,0,0-61.2,35.5l-76.27,133.36L3415.7,1170Z" fill="#fff" stroke="#59221d" stroke-linecap="round" stroke-miterlimit="10" stroke-width="5"/><path d="M3587.62,1170V958.34h-19.35a70.49,70.49,0,0,0-61.2,35.5L3430.8,1127.2l68.52,42.77Z" fill="#fff" stroke="#59221d" stroke-linecap="round" stroke-miterlimit="10" stroke-width="5"/><path d="M3590.62,1167v23.88a11.74,11.74,0,0,1-11.74,11.73H3349.71a11.73,11.73,0,0,1-11.51-9.43c-2.82-14-5.7-43.29,7-68h88.62l68.52,41.81Z" fill="#b4e1fa"/><path d="M3412.05,1202.62a33.35,33.35,0,0,1,66.69,0Z" fill="#59221d" stroke="#59221d" stroke-linecap="round" stroke-miterlimit="10" stroke-width="5"/><circle cx="3445.4" cy="1202.47" r="23.81" fill="#fff" stroke="#59221d" stroke-linecap="round" stroke-miterlimit="10" stroke-width="5"/><circle cx="3547.5" cy="1202.47" r="23.81" fill="#fff" stroke="#59221d" stroke-linecap="round" stroke-miterlimit="10" stroke-width="5"/><polyline points="3249.64 1141.41 3347.7 1202.62 3410.99 1202.62 3312.93 1141.41 3160.81 1141.41" fill="none" stroke="#59221d" stroke-linecap="round" stroke-miterlimit="10" stroke-width="5"/></g><g id="BOXES"><rect x="3140.19" y="1060.93" width="174.92" height="77.86" fill="#b4e1fa"/><rect x="3160.79" y="973.01" width="151.59" height="85.41" fill="#fff" stroke="#b4e1fa" stroke-miterlimit="10" stroke-width="5"/><rect x="3160.79" y="887.71" width="151.59" height="85.41" fill="#fff" stroke="#b4e1fa" stroke-miterlimit="10" stroke-width="5"/><polygon points="3163.14 1060.92 3315.12 1060.92 3315.12 1082.41 3163.14 1060.92" fill="#a74602"/><polygon points="3310.03 975.42 3310.03 1055.13 3270.52 1055.13 3270.52 991.86 3163.8 977.79 3163.8 975.42 3310.03 975.42" fill="#98c8db"/></g></g><g id="TRUCK"><g id="TRUCK-2" data-name="TRUCK"><g id="TRAILER"><rect x="985.69" y="1483.08" width="1511.08" height="26.04" fill="#59221d" stroke="#59221d" stroke-linecap="round" stroke-miterlimit="10" stroke-width="5"/><rect x="985.69" y="842.01" width="149.58" height="641.07" fill="#59221d" stroke="#59221d" stroke-linecap="round" stroke-miterlimit="10" stroke-width="5"/><rect x="1135.27" y="842.01" width="1361.5" height="641.07" fill="#fff" stroke="#59221d" stroke-linecap="round" stroke-miterlimit="10" stroke-width="5"/><rect x="1140.61" y="908.15" width="1353.52" height="26.32" fill="#f5bbbb"/><rect x="1140.61" y="1370.76" width="1353.52" height="26.32" fill="#f5bbbb"/></g><g id="CABIN"><path d="M18.39,1559.72H67.76a0,0,0,0,1,0,0v56.12a0,0,0,0,1,0,0H3.18a0,0,0,0,1,0,0v-40.91A15.21,15.21,0,0,1,18.39,1559.72Z" fill="#fff" stroke="#59221d" stroke-linecap="round" stroke-miterlimit="10" stroke-width="5"/><path d="M282.8,1720.28c-50.6,0-91.62-50.22-91.62-112.18s41-112.17,91.62-112.17H218.09c-50.6,0-91.62,50.22-91.62,112.17s41,112.18,91.62,112.18Z" fill="#a74602"/><ellipse cx="282.8" cy="1608.1" rx="91.62" ry="112.18" fill="#59221d" stroke="#59221d" stroke-linecap="round" stroke-miterlimit="10" stroke-width="5"/><path d="M485.08,1030.89l13.58-16.75h192.7L727.66,972c66.41-73.33,154.05-117.79,249-133.27h9.09v646.55h234.84v142.4H794.12v-47.23c0-66.59-52.81-120.55-117.94-120.55s-117.95,54-117.95,120.55v45.06H268.08V1439.41c0-44.28,26.3-84.11,66.46-100.67L599,1220.91a15.47,15.47,0,0,0,12.06-8.94l65.32-143.68a26.85,26.85,0,0,0-24.44-38Z" fill="#b4e1fa"/><path d="M978.66,840.81c-94.9,15.49-182.54,59.94-248.95,133.27l-36.3,42.11H500.71l22.72-26.35c84.17-92.94,202.45-149,326.38-149Z" fill="#fff" stroke="#b4e1fa" stroke-miterlimit="10" stroke-width="5"/><path d="M613.15,1217.91,337.53,1337.5c-42,17.32-69.45,58.94-69.45,105.2v182.84H67.58V1432.37c0-40.91,21.56-78.66,56.42-98.78l215.43-115.68Z" fill="#fff" stroke="#b4e1fa" stroke-miterlimit="10" stroke-width="5"/><path d="M268.08,1559.72h89.07a15.21,15.21,0,0,1,15.21,15.21v40.91a0,0,0,0,1,0,0H268.08a0,0,0,0,1,0,0v-56.12A0,0,0,0,1,268.08,1559.72Z" fill="#fff" stroke="#59221d" stroke-linecap="round" stroke-miterlimit="10" stroke-width="5"/><path d="M267,1559.72H334.9a15.21,15.21,0,0,1,15.21,15.21v40.91a0,0,0,0,1,0,0H267a0,0,0,0,1,0,0v-56.12A0,0,0,0,1,267,1559.72Z" fill="#fff" stroke="#59221d" stroke-linecap="round" stroke-miterlimit="10" stroke-width="5"/><rect x="1011.34" y="1502.08" width="149.58" height="71.81" rx="14.52" fill="none" stroke="#fff" stroke-linecap="round" stroke-miterlimit="10" stroke-width="5"/><line x1="372.36" y1="1591.54" x2="1186.49" y2="1591.54" fill="none" stroke="#59221d" stroke-linecap="round" stroke-miterlimit="10" stroke-width="5"/><path d="M2278.9,1720.28c-50.6,0-91.62-50.22-91.62-112.18s41-112.17,91.62-112.17h-64.71c-50.6,0-91.62,50.22-91.62,112.17s41,112.18,91.62,112.18Z" fill="#a74602"/><ellipse cx="2278.9" cy="1608.1" rx="91.62" ry="112.18" fill="#fff" stroke="#59221d" stroke-linecap="round" stroke-miterlimit="10" stroke-width="5"/><ellipse cx="2278.9" cy="1608.1" rx="58.98" ry="71.8" fill="#98c8db"/><path d="M1482.59,1580.48v45.06H1246.7v-45.06c0-66.59,52.81-120.55,117.94-120.55S1482.59,1513.89,1482.59,1580.48Z" fill="#59221d" stroke="#59221d" stroke-linecap="round" stroke-miterlimit="10" stroke-width="5"/><path d="M1376.16,1720.28c-50.6,0-91.62-50.22-91.62-112.18s41-112.17,91.62-112.17h-64.71c-50.6,0-91.62,50.22-91.62,112.17s41,112.18,91.62,112.18Z" fill="#a74602"/><ellipse cx="1376.16" cy="1608.1" rx="91.62" ry="112.18" fill="#fff" stroke="#59221d" stroke-linecap="round" stroke-miterlimit="10" stroke-width="5"/><ellipse cx="1376.16" cy="1608.1" rx="58.98" ry="71.8" fill="#98c8db"/><path d="M1507.66,1585.85v39.69h-25.07v-45.06c0-66.59-52.81-120.55-117.95-120.55s-117.94,54-117.94,120.55v45.06h-60.21v-39.69c0-90.65,71.9-164.13,160.58-164.13S1507.66,1495.2,1507.66,1585.85Z" fill="#b4e1fa" stroke="#59221d" stroke-miterlimit="10" stroke-width="5"/><path d="M794.12,1580.48v45.06H558.23v-45.06c0-66.59,52.81-120.55,117.94-120.55S794.12,1513.89,794.12,1580.48Z" fill="#59221d" stroke="#59221d" stroke-linecap="round" stroke-miterlimit="10" stroke-width="5"/><path d="M687.69,1720.28c-50.6,0-91.62-50.22-91.62-112.18s41-112.17,91.62-112.17H623c-50.6,0-91.62,50.22-91.62,112.17s41,112.18,91.62,112.18Z" fill="#a74602"/><ellipse cx="687.69" cy="1608.1" rx="91.62" ry="112.18" fill="#fff" stroke="#59221d" stroke-linecap="round" stroke-miterlimit="10" stroke-width="5"/><ellipse cx="687.69" cy="1607.57" rx="58.98" ry="71.8" fill="#98c8db"/><path d="M819.18,1585.85v39.69H794.12v-45.06c0-66.59-52.81-120.55-118-120.55s-117.94,54-117.94,120.55v45.06H498v-39.69c0-90.65,71.9-164.13,160.58-164.13S819.18,1495.2,819.18,1585.85Z" fill="#b4e1fa" stroke="#59221d" stroke-miterlimit="10" stroke-width="5"/><rect y="1612.59" width="560.93" height="44.61" fill="#59221d"/><path d="M644.94,1220.75H903.63a25.49,25.49,0,0,0,25.49-25.49V1030.32H775.8a68.4,68.4,0,0,0-62.23,40Z" fill="#59221d"/><path d="M927.07,1017l-157.75,0a77.47,77.47,0,0,0-70.48,45.31l-66.2,145.12" fill="none" stroke="#fff" stroke-linecap="round" stroke-linejoin="round" stroke-width="5"/><path d="M929.12,1272.65v210.43h-96.3c-24.52-68.28-103.39-106.89-198-106.89V1250.08" fill="none" stroke="#fff" stroke-linecap="round" stroke-linejoin="round" stroke-width="5"/><path d="M597,1221.05H328.26l158.33-190.73H652a26.85,26.85,0,0,1,24.44,38L611.08,1212A15.5,15.5,0,0,1,597,1221.05Z" fill="#fff"/><path d="M525.44,1221.05H327l158.54-190.73H618.11a26.85,26.85,0,0,1,24.44,38l-49.72,109.37A74,74,0,0,1,525.44,1221.05Z" fill="#98c8db"/><path d="M329,1221.05H590.26a22.74,22.74,0,0,0,20.7-13.33l63.39-139.43a26.85,26.85,0,0,0-24.44-38H488.59" fill="none" stroke="#59221d" stroke-linecap="round" stroke-miterlimit="10" stroke-width="5"/><polyline points="452.91 1220.75 502.91 1202.03 584.28 1202.03" fill="none" stroke="#59221d" stroke-linecap="round" stroke-miterlimit="10" stroke-width="5"/><path d="M83,1578.87V1414.74a17.61,17.61,0,0,1,17.42-17.8h134.9a17.61,17.61,0,0,1,17.42,17.8v164.13a17.61,17.61,0,0,1-17.42,17.8H100.38A17.61,17.61,0,0,1,83,1578.87Z" fill="#59221d"/><circle cx="231.83" cy="1414.8" r="5.08" fill="#b4e1fa"/><circle cx="103.78" cy="1414.8" r="5.08" fill="#b4e1fa"/><circle cx="135.79" cy="1414.8" r="5.08" fill="#b4e1fa"/><circle cx="167.81" cy="1414.8" r="5.08" fill="#b4e1fa"/><circle cx="199.82" cy="1414.8" r="5.08" fill="#b4e1fa"/><circle cx="215.83" cy="1431.32" r="5.08" fill="#b4e1fa"/><circle cx="119.79" cy="1431.32" r="5.08" fill="#b4e1fa"/><circle cx="151.8" cy="1431.32" r="5.08" fill="#b4e1fa"/><circle cx="183.81" cy="1431.32" r="5.08" fill="#b4e1fa"/><circle cx="231.83" cy="1447.84" r="5.08" fill="#b4e1fa"/><circle cx="103.78" cy="1447.84" r="5.08" fill="#b4e1fa"/><circle cx="135.79" cy="1447.84" r="5.08" fill="#b4e1fa"/><circle cx="167.81" cy="1447.84" r="5.08" fill="#b4e1fa"/><circle cx="199.82" cy="1447.84" r="5.08" fill="#b4e1fa"/><circle cx="215.83" cy="1464.37" r="5.08" fill="#b4e1fa"/><circle cx="119.79" cy="1464.37" r="5.08" fill="#b4e1fa"/><circle cx="151.8" cy="1464.37" r="5.08" fill="#b4e1fa"/><circle cx="183.81" cy="1464.37" r="5.08" fill="#b4e1fa"/><circle cx="231.83" cy="1480.89" r="5.08" fill="#b4e1fa"/><circle cx="103.78" cy="1480.89" r="5.08" fill="#b4e1fa"/><circle cx="135.79" cy="1480.89" r="5.08" fill="#b4e1fa"/><circle cx="167.81" cy="1480.89" r="5.08" fill="#b4e1fa"/><circle cx="199.82" cy="1480.89" r="5.08" fill="#b4e1fa"/><circle cx="215.83" cy="1497.42" r="5.08" fill="#b4e1fa"/><circle cx="119.79" cy="1497.42" r="5.08" fill="#b4e1fa"/><circle cx="151.8" cy="1497.42" r="5.08" fill="#b4e1fa"/><circle cx="183.81" cy="1497.42" r="5.08" fill="#b4e1fa"/><circle cx="231.83" cy="1513.94" r="5.08" fill="#b4e1fa"/><circle cx="103.78" cy="1513.94" r="5.08" fill="#b4e1fa"/><circle cx="135.79" cy="1513.94" r="5.08" fill="#b4e1fa"/><circle cx="167.81" cy="1513.94" r="5.08" fill="#b4e1fa"/><circle cx="199.82" cy="1513.94" r="5.08" fill="#b4e1fa"/><circle cx="215.83" cy="1530.46" r="5.08" fill="#b4e1fa"/><circle cx="119.79" cy="1530.46" r="5.08" fill="#b4e1fa"/><circle cx="151.8" cy="1530.46" r="5.08" fill="#b4e1fa"/><circle cx="183.81" cy="1530.46" r="5.08" fill="#b4e1fa"/><circle cx="231.83" cy="1546.99" r="5.08" fill="#b4e1fa"/><circle cx="103.78" cy="1546.99" r="5.08" fill="#b4e1fa"/><circle cx="135.79" cy="1546.99" r="5.08" fill="#b4e1fa"/><circle cx="167.81" cy="1546.99" r="5.08" fill="#b4e1fa"/><circle cx="199.82" cy="1546.99" r="5.08" fill="#b4e1fa"/><circle cx="215.83" cy="1563.51" r="5.08" fill="#b4e1fa"/><circle cx="119.79" cy="1563.51" r="5.08" fill="#b4e1fa"/><circle cx="151.8" cy="1563.51" r="5.08" fill="#b4e1fa"/><circle cx="183.81" cy="1563.51" r="5.08" fill="#b4e1fa"/><circle cx="231.83" cy="1580.03" r="5.08" fill="#b4e1fa"/><circle cx="103.78" cy="1580.03" r="5.08" fill="#b4e1fa"/><circle cx="135.79" cy="1580.03" r="5.08" fill="#b4e1fa"/><circle cx="167.81" cy="1580.03" r="5.08" fill="#b4e1fa"/><circle cx="199.82" cy="1580.03" r="5.08" fill="#b4e1fa"/><rect x="819.18" y="1591.54" width="122.91" height="21.05" fill="#59221d" stroke="#59221d" stroke-linecap="round" stroke-miterlimit="10" stroke-width="5"/></g></g><g id="DRIVER"><g id="BODY"><path d="M782.24,1102.8H882.6a46.51,46.51,0,0,1,46.51,46.51v46A25.71,25.71,0,0,1,903.4,1221H745.17a0,0,0,0,1,0,0v-81.13A37.07,37.07,0,0,1,782.24,1102.8Z" fill="#98c8db"/><path d="M850.45,1102.8a14.5,14.5,0,0,1-2.59,7,17.29,17.29,0,0,1-14.25,7.11h-9.9L809.27,1221h-5l14.46-104.38c-8.06-1.27-14.54-6.74-16.6-13.82h5.14c2.24,5.31,8.23,9.1,15.06,9.1h11.32a12.27,12.27,0,0,0,10.15-5,9.43,9.43,0,0,0,1.66-4.12Z" fill="#59221d"/></g><g id="HAND"><path d="M892.55,1102.75a36.83,36.83,0,0,1,36.57,36.82V1193c0,35.38-12,67.52-62.68,64.06l-103.31-19.32c7.08-.18,12.79-13.29,12.79-29.45s-5.8-29.45-12.94-29.45l98.51.53v-46.54a30,30,0,0,1,30.25-30Z" fill="#fff"/><ellipse cx="762.98" cy="1208.25" rx="12.94" ry="29.46" fill="#59221d"/><path d="M770.73,1200.11c0,11.78-3.68,21.32-8.22,21.32h-87.7a7,7,0,0,1-7-7,7.07,7.07,0,0,1,1-3.67,7.16,7.16,0,0,1,2.8-2.57L709.85,1189a95.21,95.21,0,0,1,42.89-10.2h9.77C767.05,1178.79,770.73,1188.34,770.73,1200.11Z" fill="#fff"/><path d="M714.86,1199.48l-28.52,11.69a8.43,8.43,0,0,0-5.24,7.81" fill="none" stroke="#a74602" stroke-linecap="round" stroke-miterlimit="10" stroke-width="4"/><path d="M733.76,1202l-22.31,9.14a8.43,8.43,0,0,0-5.24,7.81" fill="none" stroke="#a74602" stroke-linecap="round" stroke-miterlimit="10" stroke-width="4"/></g><g id="NECK"><path d="M844.65,1105.38l0,0a10.4,10.4,0,0,1-.87,1.5,12.27,12.27,0,0,1-10.15,5H822.29a18,18,0,0,1-6.41-1.17,15.26,15.26,0,0,1-8.17-7,16.67,16.67,0,0,1-1-5.81v-2.32l32.17-16.19,5.77,18.11A12.93,12.93,0,0,1,844.65,1105.38Z" fill="#fff"/><path d="M839.26,1082.19a9.07,9.07,0,0,1-1.43,4.88l-22,23.66a15,15,0,0,1-8.64-7.93,20,20,0,0,1-.57-4.83v-2.32l32.17-16.19A9.09,9.09,0,0,1,839.26,1082.19Z" fill="#98c8db"/></g><g id="HEAD"><g id="EAR"><path d="M838.84,1063.29H846a7.13,7.13,0,0,1,7.13,7.13v2.95a7.13,7.13,0,0,1-7.13,7.13h-7.13a0,0,0,0,1,0,0v-17.21A0,0,0,0,1,838.84,1063.29Z" fill="#fff"/><path d="M842.24,1073.09a5.27,5.27,0,0,1,5.27-5.27" fill="none" stroke="#a74602" stroke-linecap="round" stroke-miterlimit="10" stroke-width="2"/></g><path id="HEAD-2" data-name="HEAD" d="M838.84,1062.06v18.46L831,1090a15.32,15.32,0,0,1-11.83,5.62H806.67a8.42,8.42,0,0,1-8-10.73l7.73-27.64Z" fill="#fff"/><path id="BEARD" d="M847.2,1063.29H843a4.18,4.18,0,0,0-4.18,4.19v13.06L831,1090a15.33,15.33,0,0,1-11.84,5.62H806.66a8.42,8.42,0,0,1-8-10.72l2.27-8.13h30.49a3.63,3.63,0,0,0,3.62-3.66l0-2.5a9.48,9.48,0,0,0-2.29-6.1c-1.42-1.66-3.42-3.79-5.7-4.16Z" fill="#a74602"/><g id="FACE"><path d="M805.37,1061l5.85,1.13s-3.89,15.44-.09,15.78" fill="none" stroke="#a74602" stroke-linecap="round" stroke-miterlimit="10" stroke-width="2"/><ellipse cx="819.65" cy="1068.68" rx="1.29" ry="2.26" fill="#a74602"/><ellipse cx="806.05" cy="1068.68" rx="1.29" ry="2.26" fill="#a74602"/><path d="M818.52,1062.6s5,.82,7.69,1.38" fill="none" stroke="#a74602" stroke-linecap="round" stroke-miterlimit="10" stroke-width="2"/></g><path id="CAP" d="M793.08,1055.31a2,2,0,0,1-1.83-2.3,2.21,2.21,0,0,1,2.57-1.64l14.43,2.15c2.57-4.31,8.08-10.77,17.7-9.92,21.26,1.88,21.26,19.69,21.26,19.69Z" fill="#b4e1fa"/></g></g></g><g id="_2_MAN" data-name="2 MAN"><rect id="BOX" x="2637.07" y="1214.25" width="299.72" height="281.51" fill="#b4e1fa"/><g id="SHOES"><path d="M2808.07,1932.45l146.32,2.14-2.27,9.75a35.93,35.93,0,0,1-35,27.77H2773.79Z" fill="#59221d"/><path d="M2946.45,1972.11l.59,10.12a3,3,0,0,1-3,3h-9.83a3,3,0,0,1-2.14-.86,2.88,2.88,0,0,1-.9-2.09,3,3,0,0,0-3-3l-9.71,0a3.08,3.08,0,0,0-2.14.86,2.87,2.87,0,0,0-.89,2.09,3,3,0,0,1-3,3h-9.82a3.07,3.07,0,0,1-2.15-.86,2.84,2.84,0,0,1-.89-2.09,3,3,0,0,0-3-3l-9.71,0a3.07,3.07,0,0,0-2.13.87,2.88,2.88,0,0,0-.9,2.09,3,3,0,0,1-3,3l-9.83,0a3.06,3.06,0,0,1-2.14-.87,2.87,2.87,0,0,1-.9-2.08,3,3,0,0,0-3-2.95h-9.7a3.08,3.08,0,0,0-2.14.86,3,3,0,0,0-.89,2.1,3,3,0,0,1-3,2.95l-9.82,0a3.07,3.07,0,0,1-2.14-.87,2.89,2.89,0,0,1-.9-2.08,3,3,0,0,0-3-2.94h-9.71a3.05,3.05,0,0,0-2.13.87,2.86,2.86,0,0,0-.9,2.08,3,3,0,0,1-3,3h-9.83a3.09,3.09,0,0,1-2.15-.86,2.93,2.93,0,0,1-.89-2.09,3,3,0,0,0-3-3l-9.7,0a3.07,3.07,0,0,0-2.14.86,2.87,2.87,0,0,0-.89,2.09,3,3,0,0,1-3,3h-9.82a3,3,0,0,1-3-3l0-10.4h135.53l1.48-5.63a46.14,46.14,0,0,1,44.53-31.9l-8,37.53Z" fill="#b4e1fa"/><path d="M3262.85,1926.46l12.86-136.34,9.54,3a35.94,35.94,0,0,1,24.92,37.08l-11.38,142.88Z" fill="#59221d"/><path d="M3325.34,1804.49l-.76,9.79a3.08,3.08,0,0,1-1,2.07,2.86,2.86,0,0,1-2.15.73,3,3,0,0,0-3.18,2.78l-.75,9.68a3.13,3.13,0,0,0,.69,2.2,2.87,2.87,0,0,0,2,1,3,3,0,0,1,2.71,3.26l-.76,9.79a3.08,3.08,0,0,1-1,2.07,2.86,2.86,0,0,1-2.15.73,3,3,0,0,0-3.18,2.78l-.76,9.68a3.09,3.09,0,0,0,.7,2.2,2.87,2.87,0,0,0,2,1,3,3,0,0,1,2.7,3.26l-.75,9.79a3.08,3.08,0,0,1-1,2.07,2.93,2.93,0,0,1-2.15.73,3,3,0,0,0-3.18,2.78l-.76,9.68a3.1,3.1,0,0,0,.69,2.2,2.91,2.91,0,0,0,2,1.05,3,3,0,0,1,2.7,3.26l-.76,9.79a3.06,3.06,0,0,1-1,2.06,3,3,0,0,1-2.16.74,3,3,0,0,0-3.16,2.78l-.76,9.68a3.14,3.14,0,0,0,.69,2.2,2.89,2.89,0,0,0,2,1,3,3,0,0,1,2.71,3.26l-.76,9.79a3.08,3.08,0,0,1-1,2.07,2.93,2.93,0,0,1-2.15.73,3,3,0,0,0-3.18,2.78l-.75,9.68a3.14,3.14,0,0,0,.69,2.2,2.89,2.89,0,0,0,2,1,3,3,0,0,1,2.71,3.26l-.76,9.79a3,3,0,0,1-3.18,2.8l-10.37-.82,10.75-135.1L3304,1837a46.13,46.13,0,0,1-28.25-46.92l36.76,11V1801l10.14.22A3,3,0,0,1,3325.34,1804.49Z" fill="#b4e1fa"/></g><g id="OVERALL"><path d="M3141.26,1199.67v190.41H2977.07c-27.54,0-54.12-16.85-53-49l-101.88,138.46v0h0c-6,7.87-31.11-1-56.23-19.84s-40.71-40.56-34.78-48.46l-.09.09,174.19-236.29a56.83,56.83,0,0,1,46.67-23.13h141.61A47.72,47.72,0,0,1,3141.26,1199.67Z" fill="#fff" stroke="#59221d" stroke-linecap="round" stroke-miterlimit="10" stroke-width="5"/><path d="M2808.06,1932.44l146.33,2.15,61.36-257.65c0,100.06,51.46,191.35,161.64,228.16l85.46,21.35,16-135.45a180.91,180.91,0,0,1-133.56-174.61V1368.86l-73.68-120.55,43.34-76a53.12,53.12,0,0,1,11.57-12.16,47.75,47.75,0,0,0-18-9.24,28.56,28.56,0,0,0-14.37,11.14l-36.52,63.39L3018.8,1162a28.42,28.42,0,0,0-23.68-12.72h-40.75a52.92,52.92,0,0,1,43.62,23l47.39,74.25-71.91,124.81c-5.23,9.08-17.28,11.92-25.75,5.74-9.74-7.08-17.51-22.28-20.82-35.51a1.78,1.78,0,0,0-3.48.1ZM3106.49,1387h-87a15.67,15.67,0,0,1-13.61-23.43l53.9-94.56,60,93.9A15.66,15.66,0,0,1,3106.49,1387Z" fill="#98c8db"/><line x1="2919.87" y1="1346.7" x2="2975.31" y2="1264.59" fill="none" stroke="#59221d" stroke-linecap="round" stroke-miterlimit="10" stroke-width="5"/><polyline points="3013.44 1676.94 3047.59 1487.79 3074.2 1487.79" fill="none" stroke="#59221d" stroke-linecap="round" stroke-miterlimit="10" stroke-width="5"/></g><g id="HAND-2" data-name="HAND"><path d="M2800.63,1479.46c-10.8,11.17-20.76,21.89-23.17,23.62-16.15,11.61-42.88,28.77-92.81,28.76-12.77,0-36.9-23.49-48.53-36.49-2.82-3.14-.54-9.45,3.68-9.37,18,.32,44-1.77,49.84-10.46,10.6-15.63-24.67-5.72-23.65-20.86,0,0,50-14.33,68.64-26.63,5.93,9.47,17.09,21,31.31,31.72C2778.25,1469,2790.57,1475.82,2800.63,1479.46Z" fill="#a74602"/><path d="M2800.63,1479.46c-5.85,6-11.44,12-15.74,16.38l-.55-.21c-36.52-13.17-52.51-55.56-55.43-64.25h0a64.37,64.37,0,0,0,5.72-3.34c5.93,9.47,17.09,21,31.31,31.72C2778.25,1469,2790.57,1475.82,2800.63,1479.46Z" fill="#59221d"/><path d="M2711.9,1516.91c-13.06,3.78-22.18,6.31-41.39,6.31" fill="none" stroke="#59221d" stroke-linecap="round" stroke-miterlimit="10" stroke-width="4"/><path d="M2701.77,1506.27a142.74,142.74,0,0,1-44.05,6.31" fill="none" stroke="#59221d" stroke-linecap="round" stroke-miterlimit="10" stroke-width="4"/><path d="M2695.62,1495.63c-13.06,3.78-28.83,6.31-48,6.31" fill="none" stroke="#59221d" stroke-linecap="round" stroke-miterlimit="10" stroke-width="4"/></g><g id="NECK-2" data-name="NECK"><polygon points="3005.15 1149.29 3005.15 1121.53 3046.5 1095.52 3077.64 1149.29 3005.15 1149.29" fill="#a74602"/><path d="M3005.15,1149.29v-27.76l41.35-26h0a16.08,16.08,0,0,1-3.56,20.36Z" fill="#59221d"/></g><g id="HEAD-3" data-name="HEAD"><path d="M3048.68,1095.86a12.91,12.91,0,0,1-12.9,12.89h-4.32a16.25,16.25,0,0,1-16.14,14.32h-10.17a17.25,17.25,0,0,1-17.25-17.25v-2.92h-3.62a2.45,2.45,0,0,1-2.29-3.34l5.91-15.18c0-13.32,12.13-24.12,25.45-24.12l3.34,0a22.42,22.42,0,0,1,21,14.86l3.18,8.87A12.91,12.91,0,0,1,3048.68,1095.86Z" fill="#a74602"/><path d="M3030.86,1097.58a6.64,6.64,0,0,1,6.64-6.65" fill="none" stroke="#59221d" stroke-linecap="round" stroke-miterlimit="10" stroke-width="3"/><path d="M2992.81,1079.76s7.94,0,12.34,2" fill="none" stroke="#59221d" stroke-linecap="round" stroke-miterlimit="10" stroke-width="3"/><ellipse cx="2996.99" cy="1091.22" rx="2.42" ry="3.31" fill="#59221d"/><path d="M3023.89,1090.68a7.71,7.71,0,0,1,7.71-7.71h7.15" fill="none" stroke="#59221d" stroke-linecap="round" stroke-miterlimit="10" stroke-width="3"/></g></g><g id="_1_MAN" data-name="1 MAN"><g id="RIGHT_HAND" data-name="RIGHT HAND"><path d="M2402.09,1521c11.65-6.39,44.86,27,40.25,32.72-6.68,8.34-21.89-5.58-23.48,3.49-1.86,10.66,48.11,57.37,39.67,67.12s-59.8,18.5-81,3.65c-11.54-8.08-34.4-36.7-47.4-56C2330.1,1572,2374.27,1536.22,2402.09,1521Z" fill="#fff" stroke="#59221d" stroke-linecap="round" stroke-miterlimit="10" stroke-width="5"/><path d="M2413.23,1634.83c-4.76-3.33-22.16-20.74-28.76-26.87" fill="none" stroke="#59221d" stroke-linecap="round" stroke-miterlimit="10" stroke-width="5"/><path d="M2435.66,1633.15c-4.76-3.34-28.8-25.67-35.16-32.4" fill="none" stroke="#59221d" stroke-linecap="round" stroke-miterlimit="10" stroke-width="5"/><path d="M2451,1628.66c-4.76-3.34-26.55-28.4-32.92-35.14" fill="none" stroke="#59221d" stroke-linecap="round" stroke-miterlimit="10" stroke-width="5"/><path d="M2422.4,1511.42c-39.58,61.38-110.74,68.59-110.74,68.59l-171.73-312.15a63.36,63.36,0,0,1,25.2-86l6.52-3.57a63.37,63.37,0,0,1,86,25.21Z" fill="#a74602"/></g><g id="OVERALL-2" data-name="OVERALL"><path d="M2251.25,1247.37l-106.91,211.55,93,163.59v333.36a537.35,537.35,0,0,0-72.08-4.66c-36.33,0-70.06,3.32-98,9v-300.9l-69.73-120.21-187.19,404.15h0a422.85,422.85,0,0,0-67.93-5.32c-42.45,0-81.43,5.88-112.06,15.71q-.53-6-.53-11.92a132.8,132.8,0,0,1,15.7-62.65l319.26-659.51c17.92-33,40.84-47.72,78.37-47.72H2204.8C2243.58,1171.86,2268.74,1212.75,2251.25,1247.37Z" fill="#b4e1fa"/><line x1="1997.6" y1="1539.12" x2="2023.25" y2="1485.19" fill="none" stroke="#59221d" stroke-linecap="round" stroke-linejoin="round" stroke-width="5"/><polyline points="1893.79 1365.43 2152 1440.92 2142.48 1461.03 1884.26 1384.49" fill="none" stroke="#59221d" stroke-linecap="round" stroke-linejoin="round" stroke-width="5"/><path d="M1932.37,1399.9a56.19,56.19,0,0,1-69.82,37.91" fill="none" stroke="#59221d" stroke-linecap="round" stroke-linejoin="round" stroke-width="5"/></g><g id="NECK-3" data-name="NECK"><path d="M2083.89,1171.85l52.88-36.59,29.57,35.62v32.18a16.73,16.73,0,0,1-27.18,13Z" fill="#fff" stroke="#59221d" stroke-linecap="round" stroke-miterlimit="10" stroke-width="5"/><polygon points="2104.85 1185.61 2088.36 1171.93 2135.91 1138.14 2155.62 1161.87 2104.85 1185.61" fill="#98c8db"/></g><g id="HEAD-4" data-name="HEAD"><path d="M2178.22,1185.6l-11-.22a23,23,0,0,1-22.49-23.83l.28-7.43h-10a11.57,11.57,0,0,1-11.58-11.58v-6.22a11.57,11.57,0,0,1,11.58-11.58h6.22a11.41,11.41,0,0,1,5.67,1.48,25.6,25.6,0,0,1,24.64-18.17c18.39,0,23.37,9.51,25.07,22.08l4.11,30.3A22.2,22.2,0,0,1,2178.22,1185.6Z" fill="#fff" stroke="#59221d" stroke-linecap="round" stroke-miterlimit="10" stroke-width="5"/><path d="M2150.06,1133.52l2.22,4h0a3.69,3.69,0,0,0,3.72-3.67v-9.37a15.12,15.12,0,0,1,15.22-15h0a27.93,27.93,0,0,1,25.78,17l.1.23v-2.78a21.27,21.27,0,0,0-21.41-21.12h-21.37a21.27,21.27,0,0,0-21.4,20.78l-.05,3.15,5.31,0A13.52,13.52,0,0,1,2150.06,1133.52Z" fill="#59221d"/><path d="M2142.34,1140.84a5.58,5.58,0,0,0-5.57-5.58" fill="none" stroke="#59221d" stroke-linecap="round" stroke-linejoin="round" stroke-width="4"/><path d="M2171.87,1160.87c1.34,3.38,5.55,4.88,9.41,3.35" fill="none" stroke="#59221d" stroke-linecap="round" stroke-linejoin="round" stroke-width="4"/><path d="M2196,1128.37h-8.76a6.07,6.07,0,0,0-6.08,5.8c-.22,5.41-.73,13.51,3.25,19.3" fill="none" stroke="#59221d" stroke-linecap="round" stroke-linejoin="round" stroke-width="4"/><ellipse cx="2188.91" cy="1139.38" rx="2.25" ry="3.89" fill="#59221d"/><ellipse cx="2168.89" cy="1139.38" rx="2.25" ry="3.89" fill="#59221d"/><line x1="2162.53" y1="1128.37" x2="2171.87" y2="1128.37" fill="none" stroke="#59221d" stroke-linecap="round" stroke-linejoin="round" stroke-width="4"/></g><g id="SHOES-2" data-name="SHOES"><path d="M1823.3,1989.75H1638.87a132.81,132.81,0,0,1-8.45-36.09c30.63-9.83,69.61-15.71,112.06-15.71a422.85,422.85,0,0,1,67.93,5.32Z" fill="#59221d"/><path d="M2258.2,1989.75H2067.33v-29.53c27.89-5.69,61.62-9,98-9a537.35,537.35,0,0,1,72.08,4.66v.22Z" fill="#59221d"/></g><g id="BOXES-2" data-name="BOXES"><rect x="2225.19" y="1537.61" width="372.59" height="270.14" fill="#fff" stroke="#b4e1fa" stroke-miterlimit="10" stroke-width="5"/><rect x="2227.75" y="1567.78" width="266.15" height="5.29" fill="#98c8db"/><rect x="2227.75" y="1770.57" width="266.15" height="5.29" fill="#98c8db"/><polygon points="2348.7 1619.37 2227.74 1764.27 2227.74 1619.37 2348.7 1619.37" fill="#98c8db"/><rect x="2493.9" y="1540.38" width="101.62" height="264.59" fill="#98c8db"/><path d="M2493.9,1770.57v5.3h101.24v-5.3Zm0-202.79v5.29h101.24v-5.29Z" fill="#fff"/><rect x="2172.99" y="1807.81" width="165.96" height="179.66" fill="#fff" stroke="#b4e1fa" stroke-miterlimit="10" stroke-width="5"/><circle cx="2291.2" cy="1829.02" r="5.24" fill="#b4e1fa"/><circle cx="2258.17" cy="1829.02" r="5.24" fill="#b4e1fa"/><circle cx="2324.22" cy="1829.02" r="5.24" fill="#b4e1fa"/><circle cx="2225.15" cy="1829.02" r="5.24" fill="#b4e1fa"/><circle cx="2274.69" cy="1846.24" r="5.24" fill="#b4e1fa"/><circle cx="2241.66" cy="1846.24" r="5.24" fill="#b4e1fa"/><circle cx="2307.71" cy="1846.24" r="5.24" fill="#b4e1fa"/><circle cx="2291.2" cy="1863.45" r="5.24" fill="#b4e1fa"/><circle cx="2258.17" cy="1863.45" r="5.24" fill="#b4e1fa"/><circle cx="2324.22" cy="1863.45" r="5.24" fill="#b4e1fa"/><circle cx="2225.15" cy="1863.45" r="5.24" fill="#b4e1fa"/><circle cx="2274.69" cy="1880.67" r="5.24" fill="#b4e1fa"/><circle cx="2241.66" cy="1880.67" r="5.24" fill="#b4e1fa"/><circle cx="2307.71" cy="1880.67" r="5.24" fill="#b4e1fa"/><circle cx="2291.2" cy="1897.88" r="5.24" fill="#b4e1fa"/><circle cx="2258.17" cy="1897.88" r="5.24" fill="#b4e1fa"/><circle cx="2324.22" cy="1897.88" r="5.24" fill="#b4e1fa"/><circle cx="2225.15" cy="1897.88" r="5.24" fill="#b4e1fa"/><circle cx="2274.69" cy="1915.09" r="5.24" fill="#b4e1fa"/><circle cx="2241.66" cy="1915.09" r="5.24" fill="#b4e1fa"/><circle cx="2307.71" cy="1915.09" r="5.24" fill="#b4e1fa"/><circle cx="2291.2" cy="1932.31" r="5.24" fill="#b4e1fa"/><circle cx="2258.17" cy="1932.31" r="5.24" fill="#b4e1fa"/><circle cx="2324.22" cy="1932.31" r="5.24" fill="#b4e1fa"/><circle cx="2225.15" cy="1932.31" r="5.24" fill="#b4e1fa"/><circle cx="2274.69" cy="1949.52" r="5.24" fill="#b4e1fa"/><circle cx="2241.66" cy="1949.52" r="5.24" fill="#b4e1fa"/><circle cx="2307.71" cy="1949.52" r="5.24" fill="#b4e1fa"/><circle cx="2291.2" cy="1966.73" r="5.24" fill="#b4e1fa"/><circle cx="2258.17" cy="1966.73" r="5.24" fill="#b4e1fa"/><circle cx="2324.22" cy="1966.73" r="5.24" fill="#b4e1fa"/><circle cx="2225.15" cy="1966.73" r="5.24" fill="#b4e1fa"/><circle cx="2191.69" cy="1829.02" r="5.24" fill="#b4e1fa"/><circle cx="2208.2" cy="1846.24" r="5.24" fill="#b4e1fa"/><circle cx="2191.69" cy="1863.45" r="5.24" fill="#b4e1fa"/><circle cx="2208.2" cy="1880.67" r="5.24" fill="#b4e1fa"/><circle cx="2191.69" cy="1897.88" r="5.24" fill="#b4e1fa"/><circle cx="2208.2" cy="1915.09" r="5.24" fill="#b4e1fa"/><circle cx="2191.69" cy="1932.31" r="5.24" fill="#b4e1fa"/><circle cx="2208.2" cy="1949.52" r="5.24" fill="#b4e1fa"/><circle cx="2191.69" cy="1966.73" r="5.24" fill="#b4e1fa"/><rect x="2338.95" y="1807.81" width="360.93" height="179.66" fill="#fff" stroke="#b4e1fa" stroke-miterlimit="10" stroke-width="5"/></g><g id="LEFT_HAND" data-name="LEFT HAND"><path d="M2343.52,1622.27c-15.65,13.33-46,37.13-60.91,35.11-58.29-7.91-86.79-32.2-103.79-48.3-2.57-2.43-5.51-5.87-14.4-17.62h0l-2.33-3.1c12.83-2.76,31.35-10.34,50.37-21.32,18.09-10.45,33.11-21.73,42-31a106.29,106.29,0,0,0,14.72,10.57c20.49,12.62,47.51,23.56,47.51,23.56-1.22,17.84-41,2.23-31.15,22.16,5.5,11.08,34,17.43,55,19.9A5.7,5.7,0,0,1,2343.52,1622.27Z" fill="#fff" stroke="#59221d" stroke-linecap="round" stroke-miterlimit="10" stroke-width="5"/><path d="M2253.16,1635.63c14.65,6.48,29.56,11.52,52,14.56" fill="none" stroke="#59221d" stroke-linecap="round" stroke-miterlimit="10" stroke-width="5"/><path d="M2266.68,1624.81a193.08,193.08,0,0,0,54,15" fill="none" stroke="#59221d" stroke-linecap="round" stroke-miterlimit="10" stroke-width="5"/><path d="M2280.2,1614c14.65,6.49,32.66,12,55.08,15" fill="none" stroke="#59221d" stroke-linecap="round" stroke-miterlimit="10" stroke-width="5"/><path d="M2269.14,1546.66c-9.37,8.7-26.77,19.39-47.74,28.67-22.62,10-44.13,15.78-57,16.13h0l-2.33-3.1c12.83-2.76,31.35-10.34,50.37-21.32,18.09-10.45,33.11-21.73,42-31A106.29,106.29,0,0,0,2269.14,1546.66Z" fill="#59221d"/><path d="M1972.14,1268.26a63.81,63.81,0,0,1,25.39-86.61l5.71-3.12a63.81,63.81,0,0,1,86.61,25.38l172.72,315.82c4.4,7.61-18.05,28.78-50.12,47.31s-62.7,27.36-67.08,19.75Z" fill="#a74602"/></g></g><g id="PLANTS"><path d="M4111.54,1175l-500.25-.18s-8.68-62.78,49.95-60.69c51.09,1.82,42-2.4,63.3-35.33s49.41-47.72,105.65-39.26c57.2,8.59,53.21-64.66,123.75-65.41C4037.13,973.23,4111.54,1175,4111.54,1175Z" fill="#f5bbbb"/><g id="TREE"><polygon points="3891.1 1174.99 3998.55 797.51 4111.54 1174.99 3891.1 1174.99" fill="#b4e1fa"/><polygon points="4064.07 1016.39 4001.05 1106.29 4001.05 1174.99 3996.05 1174.99 3996.05 1000.05 3951.15 964.04 3952.63 958.82 3996.05 993.64 3996.05 806.29 3998.55 797.51 4001.05 805.86 4001.05 880.13 4018.04 862.61 4019.68 868.1 4001.05 887.32 4001.05 1097.56 4062.24 1010.29 4064.07 1016.39" fill="#59221d"/></g><g id="BUSH"><path d="M3396,1986.75a143.55,143.55,0,0,1,206.18-84.27,161.45,161.45,0,0,1,314.34-73.2,94,94,0,0,1,18.68-1.86c48,0,86.94,35.67,86.94,79.67s-38.92,79.66-86.94,79.66Z" fill="#b4e1fa"/><line x1="3751.5" y1="1985.99" x2="3751.5" y2="1813.28" fill="none" stroke="#59221d" stroke-linecap="round" stroke-miterlimit="10" stroke-width="5"/><line x1="3788.52" y1="1856.96" x2="3751.5" y2="1915.5" fill="none" stroke="#59221d" stroke-linecap="round" stroke-miterlimit="10" stroke-width="5"/><line x1="3700.86" y1="1926.39" x2="3751.5" y2="1964.51" fill="none" stroke="#59221d" stroke-linecap="round" stroke-miterlimit="10" stroke-width="5"/></g></g><path id="CLOUD" d="M447.87,335.87v-2c12.85-35.15,47.4-60.32,88-60.32a95.58,95.58,0,0,1,35.7,6.86,7.36,7.36,0,0,0,10.14-6.74v-.12a88.07,88.07,0,0,1,5.86-31.68c13.23-34.46,47.42-59,87.52-59s74.27,24.54,87.5,59c.31.78.6,1.57.88,2.37,1.13-.81,2.27-1.61,3.44-2.37a95.73,95.73,0,0,1,104.57,0c24.79,16.31,41.09,43.87,41.09,75.14v.13a5.21,5.21,0,0,0,8.49,3.93c18.65-15.09,43.65-24.32,71.13-24.32,35.61,0,67,15.49,85.88,39.13Z" fill="#c1dee9"/></g></g></svg>