<svg width="708" height="800" viewBox="0 0 708 800" fill="none" xmlns="http://www.w3.org/2000/svg">
<g clip-path="url(#clip0_12580_160613)">
<rect width="708" height="800" fill="#3965EA"/>
<path opacity="0.9" d="M-4.5 304.204C92.5 376.5 183.5 270.5 222.5 284.501C261.5 298.501 188.5 339.704 222.5 363.204C256.5 386.703 320.291 349.802 349.5 368.704C378.709 387.605 338.879 410.306 373 426.703C407.121 443.101 539.114 396.56 493.945 351.924C448.777 307.288 543 254.204 708.5 304.204" stroke="#000091" stroke-width="5" stroke-linecap="round" stroke-dasharray="12 16"/>
<path opacity="0.2" d="M-4.5 313.204C92.5 385.5 183.5 279.5 222.5 293.501C261.5 307.501 188.5 348.704 222.5 372.204C256.5 395.703 320.291 358.802 349.5 377.704C378.709 396.605 338.879 419.306 373 435.703C407.121 452.101 539.114 405.56 493.945 360.924C448.777 316.288 543 263.204 708.5 313.204" stroke="#000091" stroke-width="16" stroke-linecap="round"/>
<g style="mix-blend-mode:hard-light">
<circle cx="493" cy="311" r="12" fill="#006A6F"/>
</g>
<g style="mix-blend-mode:hard-light">
<circle cx="635" cy="288" r="12" fill="#465F9D"/>
</g>
<g style="mix-blend-mode:hard-light">
<circle cx="224" cy="323" r="12" fill="#A558A0"/>
</g>
<g style="mix-blend-mode:hard-light">
<circle cx="79" cy="328" r="12" fill="#3965EA"/>
</g>
<g style="mix-blend-mode:hard-light">
<circle cx="474" cy="413.203" r="12" fill="#465F9D"/>
</g>
<g style="mix-blend-mode:hard-light">
<circle cx="358" cy="413" r="12" fill="#A94546"/>
</g>
<g style="mix-blend-mode:hard-light">
<circle cx="285" cy="370.203" r="12" fill="#3965EA"/>
</g>
</g>
<defs>
<clipPath id="clip0_12580_160613">
<rect width="708" height="800" fill="white"/>
</clipPath>
</defs>
</svg>
