<svg xmlns="http://www.w3.org/2000/svg" viewBox="0 0 100 100">
  <defs>
    <style>
      .a {
        fill: #e8f4fa;
        stroke: #daedf7;
      }

      .a, .d, .e, .f, .g, .h, .p, .q, .r, .s, .t, .u {
        stroke-linecap: round;
        stroke-linejoin: round;
      }

      .b, .f {
        fill: #daedf7;
      }

      .c, .r {
        fill: #fff;
      }

      .d {
        fill: none;
      }

      .d, .e, .f, .g, .h, .p, .q, .r, .s, .t, .u {
        stroke: #45413c;
      }

      .e, .h {
        fill: #ffcebf;
      }

      .e {
        stroke-width: 1.009px;
      }

      .g {
        fill: #ff8a14;
      }

      .i, .m {
        fill: #45413c;
      }

      .j {
        fill: #ffb59e;
      }

      .k {
        fill: #ffef9e;
      }

      .l {
        fill: #fffbe5;
      }

      .m {
        opacity: 0.15;
      }

      .n, .p {
        fill: #bf8256;
      }

      .o {
        fill: #915e3a;
      }

      .q {
        fill: #bdbec0;
      }

      .s {
        fill: #f0f0f0;
      }

      .t {
        fill: #87898c;
      }

      .u {
        fill: #6dd627;
      }
    </style>
  </defs>
  <title>accountant-sit-1-2--work-office-desk-JOB-accountant-PAPER-REAM-FOLDER-BOOKKEEPER-PRINT-CALC-female</title>
  <g>
    <circle class="a" cx="50" cy="50" r="40"/>
    <g>
      <g>
        <path class="b" d="M60.363,42.022H55.545v9.009a10.818,10.818,0,0,1-12.044,0V42.022H38.683a10.84,10.84,0,1,1,21.68,0Z"/>
        <path class="c" d="M49.523,34.193A10.839,10.839,0,0,1,59.93,42.022h.433a10.84,10.84,0,1,0-21.68,0h.432A10.841,10.841,0,0,1,49.523,34.193Z"/>
        <path class="d" d="M60.363,42.022H55.545v9.009a10.818,10.818,0,0,1-12.044,0V42.022H38.683a10.84,10.84,0,1,1,21.68,0Z"/>
        <path class="e" d="M52.478,31.592a1,1,0,0,1-.723-.962l0-4.722H47.293l0,4.724a1,1,0,0,1-.723.96q-.333.1-.657.213V36h7.226V31.805C52.92,31.727,52.7,31.656,52.478,31.592Z"/>
        <path class="f" d="M46.512,52.26l.6-6.625a3.011,3.011,0,0,1,0-4.818,2.609,2.609,0,0,1-1.2-2.409A2.611,2.611,0,0,1,47.114,36l2.409-1.2L51.932,36a2.611,2.611,0,0,1,1.2,2.409,2.609,2.609,0,0,1-1.2,2.409,3.012,3.012,0,0,1,0,4.818l.6,6.625Z"/>
        <line class="d" x1="48.318" y1="52.862" x2="48.318" y2="35.397"/>
        <line class="d" x1="50.727" y1="52.862" x2="50.727" y2="35.397"/>
        <polygon class="g" points="45.909 31.784 45.909 37.204 49.523 34.795 45.909 31.784"/>
        <polygon class="g" points="53.136 31.784 53.136 37.204 49.523 34.795 53.136 31.784"/>
        <path class="h" d="M43.5,46.237a.6.6,0,0,0,.6.6h3.312a2.107,2.107,0,0,1,2.108,2.107h0a2.107,2.107,0,0,1-2.108,2.107H44.1a4.818,4.818,0,0,1-4.818-4.818V42.022H43.5Z"/>
        <path class="h" d="M55.545,46.237a.6.6,0,0,1-.6.6H51.631a2.107,2.107,0,0,0-2.108,2.107h0a2.107,2.107,0,0,0,2.108,2.107h3.312a4.818,4.818,0,0,0,4.818-4.818V42.022H55.545Z"/>
        <g>
          <path class="h" d="M49.523,29.92A7.224,7.224,0,0,0,56.4,24.846h.006c2.29,0,2.43-3.623.362-3.623v-1.45a7.247,7.247,0,0,0-14.494,0v1.45c-2.068,0-1.929,3.623.362,3.623h.006A7.224,7.224,0,0,0,49.523,29.92Z"/>
          <circle class="i" cx="47.165" cy="21.405" r="0.906"/>
          <circle class="i" cx="51.876" cy="21.405" r="0.906"/>
          <circle class="j" cx="45.172" cy="23.398" r="0.725"/>
          <circle class="j" cx="53.869" cy="23.398" r="0.725"/>
          <path class="d" d="M47.711,25.639a3.269,3.269,0,0,0,3.624,0"/>
          <path class="k" d="M46.184,16.2s3.613-1.807,5.42,0l3.614,3.614s1.806,1.806,4.215-.6l-1.2-.6,1.807-1.2s-1.2,0-2.409-1.807-3.012-5.42-7.227-5.42c-6.023,0-6.625,3.613-6.625,3.613Z"/>
          <path class="l" d="M50.4,11.936c4.215,0,6.022,3.614,7.227,5.42a5.42,5.42,0,0,0,.9,1.056l1.511-1.007s-1.2,0-2.409-1.807-3.012-5.42-7.227-5.42c-6.023,0-6.625,3.613-6.625,3.613l.554.554C45.057,13.294,46.707,11.936,50.4,11.936Z"/>
          <path class="d" d="M46.184,16.2s3.613-1.807,5.42,0l3.614,3.614s1.806,1.806,4.215-.6l-1.2-.6,1.807-1.2s-1.2,0-2.409-1.807-3.012-5.42-7.227-5.42c-6.023,0-6.625,3.613-6.625,3.613Z"/>
          <circle class="g" cx="57.627" cy="24.632" r="1.204"/>
          <circle class="g" cx="41.366" cy="24.632" r="1.204"/>
          <path class="k" d="M43.775,13.791s-3.011,0-3.011,3.614c0,3.011,1.512,3.819,1.512,3.819s1.5-3.819,3.908-5.024Z"/>
          <path class="l" d="M40.764,17.405a7.907,7.907,0,0,0,.053.935l.018,0c.475-2.877,3.311-2.962,4.648-2.836l-1.708-1.708S40.764,13.791,40.764,17.405Z"/>
          <path class="d" d="M43.775,13.791s-3.011,0-3.011,3.614c0,3.011,1.512,3.819,1.512,3.819s1.5-3.819,3.908-5.024Z"/>
        </g>
      </g>
      <g>
        <ellipse class="m" cx="50.426" cy="77.792" rx="33.424" ry="1.807"/>
        <path class="n" d="M79.893,55.411H19.744V75.427a1,1,0,0,0,1,1H78.893a1,1,0,0,0,1-1Z"/>
        <rect class="o" x="19.744" y="55.411" width="60.15" height="3.623"/>
        <path class="d" d="M79.893,55.411H19.744V75.427a1,1,0,0,0,1,1H78.893a1,1,0,0,0,1-1Z"/>
        <rect class="p" x="16.844" y="51.062" width="65.948" height="4.349" rx="1" ry="1"/>
        <path class="q" d="M79.169,51.062H65.4V44.54H78.169a1,1,0,0,1,1,1Z"/>
        <path class="r" d="M73.97,40.916H69.624A2.174,2.174,0,0,1,71.8,43.091V44.54c0,1.677-2.055,4.995-.033,10.059h0a12.437,12.437,0,0,1,.407,8.011,1.205,1.205,0,0,0,1.168,1.5h4.04a1.2,1.2,0,0,0,1.169-.912,12.834,12.834,0,0,0-.263-8.595c-1.553-3.882-1.1-5.724-.581-9.378a3.772,3.772,0,0,0-3.734-4.306Z"/>
        <path class="s" d="M71.8,44.54H67.449V43.091a2.175,2.175,0,0,1,2.175-2.175h0A2.174,2.174,0,0,1,71.8,43.091Z"/>
        <path class="t" d="M58.153,51.062H65.4V44.54l-6.662,4a1.2,1.2,0,0,0-.585,1.032Z"/>
        <rect class="r" x="19.019" y="35.629" width="16.667" height="2.898" rx="1" ry="1"/>
        <rect class="r" x="19.019" y="38.528" width="16.667" height="2.898" rx="1" ry="1"/>
        <g>
          <rect class="u" x="21.193" y="41.426" width="15.944" height="4.818" rx="1" ry="1"/>
          <line class="d" x1="34.962" y1="43.835" x2="26.991" y2="43.835"/>
          <line class="d" x1="23.367" y1="43.835" x2="24.091" y2="43.835"/>
        </g>
        <g>
          <rect class="g" x="19.734" y="46.244" width="15.944" height="4.818" rx="1" ry="1"/>
          <line class="d" x1="33.503" y1="48.653" x2="25.532" y2="48.653"/>
          <line class="d" x1="21.908" y1="48.653" x2="22.632" y2="48.653"/>
        </g>
        <path class="r" d="M73.986,74.29A1.2,1.2,0,0,1,75.193,72.9c2.277.03,6.734-.286,9.421-2.925a1.206,1.206,0,0,1,1.9.278A12.4,12.4,0,0,1,87.8,73.533a1.205,1.205,0,0,1-.437,1.21c-1.576,1.225-6.315,4.394-11.988,3.287a1.2,1.2,0,0,1-.96-1C74.255,76.015,74.1,75.043,73.986,74.29Z"/>
        <path class="r" d="M36.552,61.541a1.206,1.206,0,0,1,1.82.076c1.321,1.658,4.182,4.643,8.2,5.518a1.206,1.206,0,0,1,.854,1.648c-1.646,3.882-2.329,3.782-2.341,3.78h0c-.1-.017-7.471-1.3-10.655-7.609a1.2,1.2,0,0,1,.2-1.369Z"/>
      </g>
    </g>
  </g>
</svg>
