<svg xmlns="http://www.w3.org/2000/svg" xmlns:xlink="http://www.w3.org/1999/xlink" version="1.1" viewBox="0 0 100 100" >
    <path d="M36.241,75.842l-22.55-1.206l-4.652-26.12c-0.199-1.124-1.267-1.882-2.4-1.674c-1.125,0.2-1.875,1.274-1.674,2.4    l4.939,27.736c0.168,0.946,0.967,1.652,1.927,1.703l1.546,0.083v13.478c0,1.143,0.927,2.069,2.069,2.069s2.069-0.927,2.069-2.069    V78.985l12.249,0.655v12.861c0,1.143,0.927,2.069,2.069,2.069s2.069-0.927,2.069-2.069V79.861l2.117,0.113    c0.037,0.002,0.075,0.003,0.112,0.003c1.092,0,2.006-0.855,2.064-1.959C38.259,76.877,37.383,75.902,36.241,75.842z"/>
    <path d="M93.045,54.428H82.081c-0.686-2.988-2.871-5.4-5.723-6.41v-8.267c0-0.667-0.321-1.294-0.864-1.683l-4.298-3.079    L75.5,20.282c0.321-1.097-0.308-2.246-1.405-2.567c-1.096-0.322-2.246,0.308-2.567,1.405l-8.538,29.178    c-0.321,1.097,0.308,2.246,1.405,2.567c0.194,0.057,0.39,0.084,0.582,0.084c0.896,0,1.721-0.586,1.985-1.489l3.003-10.261    l2.255,1.615v6.77c-3.714,0.484-6.702,3.249-7.526,6.844h-19.12c-1.143,0-2.069,0.927-2.069,2.069s0.927,2.069,2.069,2.069h8.511    v33.676c0,1.143,0.927,2.069,2.069,2.069s2.069-0.927,2.069-2.069V58.566h19.042v33.676c0,1.143,0.927,2.069,2.069,2.069    s2.069-0.927,2.069-2.069V58.566h11.642c1.143,0,2.069-0.927,2.069-2.069S94.188,54.428,93.045,54.428z"/>
    <circle cx="19.108" cy="22.772" r="8.057"/>
    <path d="M50.188,87.378l-2.491-19.534l-0.087-0.089c-0.304-1.378-1.387-2.461-2.76-2.77l-0.005-0.004l-0.019-0.004    c-0.035-0.006-0.068-0.011-0.103-0.017l-16.605-2.935l-2.654-14.432l21.464,5.526c0.108,0.032,0.215,0.065,0.327,0.086    l0.044,0.012l0.004-0.008c0.206,0.036,0.414,0.065,0.631,0.065c2.09,0,3.784-1.694,3.784-3.783c0-1.744-1.185-3.193-2.786-3.636    l0.005-0.015L17.817,34.758c-0.046-0.021-0.099-0.032-0.148-0.052l-0.499-0.179l-0.021,0.018c-0.465-0.132-0.951-0.226-1.46-0.226    c-2.977,0-5.392,2.414-5.392,5.392c0,0.076,0.02,0.148,0.023,0.223l-0.023,0.02l0.063,0.369c0.025,0.233,0.059,0.468,0.114,0.689    l4.354,26.248c0.512,2.591,2.667,4.565,5.334,4.854l0.074,0.068l19.549,1.587l1.313,14.345l0.044-0.002    c0.215,2.312,2.14,4.131,4.509,4.131c2.513,0,4.551-2.036,4.551-4.551c0-0.105-0.025-0.208-0.031-0.311L50.188,87.378z"/>
</svg>
