<?xml version="1.0" encoding="UTF-8"?>
<svg xmlns="http://www.w3.org/2000/svg" xmlns:xlink="http://www.w3.org/1999/xlink" width="2119pt" height="734.03pt" viewBox="0 0 2119 734.03" version="1.1">
<defs>
<filter id="alpha" filterUnits="objectBoundingBox" x="0%" y="0%" width="100%" height="100%">
  <feColorMatrix type="matrix" in="SourceGraphic" values="0 0 0 0 1 0 0 0 0 1 0 0 0 0 1 0 0 0 1 0"/>
</filter>
<mask id="mask0">
  <g filter="url(#alpha)">
<rect x="0" y="0" width="2119" height="734.03" style="fill:rgb(0%,0%,0%);fill-opacity:0.300003;stroke:none;"/>
  </g>
</mask>
<clipPath id="clip2">
  <path d="M 0 0 L 2119 0 L 2119 734.03125 L 0 734.03125 Z M 0 0 "/>
</clipPath>
<clipPath id="clip1">
  <rect width="2119" height="735"/>
</clipPath>
<g id="surface4" clip-path="url(#clip1)">
<g clip-path="url(#clip2)" clip-rule="nonzero">
<path style="fill:none;stroke-width:394.8;stroke-linecap:butt;stroke-linejoin:miter;stroke:rgb(9.423828%,29.417419%,85.9375%);stroke-opacity:1;stroke-miterlimit:10;" d="M -401.015625 6595.339062 C -498.476563 6158.854687 -452.65625 5707.878125 -271.054688 5316.667187 C -141.875 5038.26875 100.46875 4767.760937 442.421875 4765.3 C 864.0625 4762.292187 1178.789063 5145.45625 1463.515625 5452.448437 C 1810.351563 5826.354687 2233.945313 6146.745312 2710.9375 6362.839062 C 2978.75 6484.167187 3295.898438 6571.784375 3549.375 6464.714062 C 3838.90625 6342.409375 3936.445313 6003.26875 3882.34375 5702.917187 C 3828.203125 5402.565625 3657.65625 5123.1125 3527.851563 4836.784375 C 3043.632813 3768.425 3137.929688 2560.260937 3667.265625 1590.729687 C 3937.265625 1096.2375 4330.078125 645.690625 4876.171875 404.714062 C 5358.867188 191.70625 5933.710938 156.2375 6488.75 237.721875 C 8265 498.464062 9690.351563 1845.690625 10800.585938 3196.979687 C 11910.78125 4548.26875 12933.984375 6044.20625 14505.195313 6929.753125 C 14742.890625 7063.7375 15020.3125 7186.003125 15275.585938 7128.151562 C 15718.515625 7027.760937 15780.898438 6500.729687 15801.289063 6078.854687 C 15825.507813 5578.620312 15901.914063 5084.635937 16029.296875 4605.573437 C 16073.789063 4438.346875 16130.898438 4263.464062 16274.296875 4156.940625 C 16608.59375 3908.58125 17145.585938 4178.815625 17474.882813 4484.83125 C 17804.101563 4790.846875 18156.40625 5174.20625 18605.78125 5172.604687 C 19012.890625 5171.198437 19292.304688 4844.596875 19471.210938 4525.339062 C 19650 4206.08125 19806.992188 3843.542187 20154.609375 3675.846875 C 20512.1875 3503.26875 20988.203125 3592.682812 21358.710938 3802.8 C 21729.101563 4012.95625 22016.914063 4326.471875 22296.796875 4633.503125 " transform="matrix(0.1,0,0,-0.1,0,734.03)"/>
</g>
</g>
</defs>
<g id="surface1">
<path style="fill:none;stroke-width:75.4;stroke-linecap:round;stroke-linejoin:round;stroke:rgb(2.745056%,2.745056%,31.762695%);stroke-opacity:1;stroke-dasharray:75.4,226.2;stroke-miterlimit:10;" d="M 360.585938 7084.128125 C -85 6489.440625 -256.523438 5743.503125 -100.117188 5080.573437 C -44.570313 4845.14375 57.1875 4611.55 257.03125 4462.526562 C 619.0625 4192.604687 1202.148438 4281.471875 1631.210938 4528.932812 C 2060.273438 4776.432812 2383.476563 5150.45625 2738.4375 5484.128125 C 3093.398438 5817.8 3522.695313 6131.471875 4011.757813 6185.651562 C 4061.054688 5837.995312 3839.648438 5490.925 3649.804688 5166.042187 C 3051.132813 4141.471875 2693.203125 2923.425 3127.265625 1911.70625 C 3546.445313 934.635937 4669.492188 330.964062 5848.554688 276.979687 C 7027.617188 222.95625 8237.1875 662.175 9235.039063 1329.83125 C 10232.8125 1997.448437 11040.117188 2880.885937 11751.484375 3802.760937 C 12483.203125 4751.042187 13161.796875 5784.323437 14211.40625 6439.245312 C 14576.015625 6666.667187 15093.59375 6832.409375 15388.984375 6578.385937 C 15518.203125 6467.175 15569.804688 6298.7375 15596.484375 6133.776562 C 15695.195313 5523.815625 15520.195313 4864.635937 15705.3125 4278.073437 C 15797.382813 3986.198437 15999.6875 3708.971875 16318.515625 3620.807812 C 16839.414063 3476.784375 17386.484375 3869.870312 17835.117188 4208.698437 C 18283.789063 4547.526562 18916.09375 4875.026562 19365.898438 4608.854687 C 19813.984375 4343.659375 19733.90625 3671.471875 20127.695313 3344.83125 C 20400 3118.89375 20842.8125 3120.495312 21209.882813 3256.628125 C 21576.992188 3392.721875 21886.601563 3640.76875 22187.1875 3883.620312 " transform="matrix(0.1,0,0,-0.1,0,734.03)"/>
<use xlink:href="#surface4" transform="matrix(1,0,0,1,0,-0.000000000000004718)" mask="url(#mask0)"/>
<path style=" stroke:none;fill-rule:nonzero;fill:rgb(12.156677%,91.014099%,54.492188%);fill-opacity:1;" d="M 118 289.101563 C 118 273.085938 130.984375 260.101563 147 260.101563 C 163.015625 260.101563 176 273.085938 176 289.101563 C 176 305.121094 163.015625 318.101563 147 318.101563 C 130.984375 318.101563 118 305.121094 118 289.101563 "/>
<path style=" stroke:none;fill-rule:nonzero;fill:rgb(95.3125%,65.818787%,8.616638%);fill-opacity:1;" d="M 270 480.101563 C 270 464.085938 282.984375 451.101563 299 451.101563 C 315.015625 451.101563 328 464.085938 328 480.101563 C 328 496.121094 315.015625 509.101563 299 509.101563 C 282.984375 509.101563 270 496.121094 270 480.101563 "/>
<path style=" stroke:none;fill-rule:nonzero;fill:rgb(12.156677%,91.014099%,54.492188%);fill-opacity:1;" d="M 354 641.101563 C 354 625.085938 366.984375 612.101563 383 612.101563 C 399.015625 612.101563 412 625.085938 412 641.101563 C 412 657.121094 399.015625 670.101563 383 670.101563 C 366.984375 670.101563 354 657.121094 354 641.101563 "/>
<path style=" stroke:none;fill-rule:nonzero;fill:rgb(95.3125%,65.818787%,8.616638%);fill-opacity:1;" d="M 1539 231.101563 C 1539 215.085938 1551.980469 202.101563 1568 202.101563 C 1584.019531 202.101563 1597 215.085938 1597 231.101563 C 1597 247.121094 1584.019531 260.101563 1568 260.101563 C 1551.980469 260.101563 1539 247.121094 1539 231.101563 "/>
<path style=" stroke:none;fill-rule:nonzero;fill:rgb(66.992188%,47.459412%,97.264099%);fill-opacity:1;" d="M 1699 338.101563 C 1699 322.085938 1711.980469 309.101563 1728 309.101563 C 1744.019531 309.101563 1757 322.085938 1757 338.101563 C 1757 354.121094 1744.019531 367.101563 1728 367.101563 C 1711.980469 367.101563 1699 354.121094 1699 338.101563 "/>
<path style=" stroke:none;fill-rule:nonzero;fill:rgb(97.264099%,14.501953%,28.24707%);fill-opacity:1;" d="M 1975 367.101563 C 1975 351.085938 1987.980469 338.101563 2004 338.101563 C 2020.019531 338.101563 2033 351.085938 2033 367.101563 C 2033 383.121094 2020.019531 396.101563 2004 396.101563 C 1987.980469 396.101563 1975 383.121094 1975 367.101563 "/>
</g>
</svg>
