<svg width="110" height="124" viewBox="0 0 110 124" fill="none" xmlns="http://www.w3.org/2000/svg">
<path d="M60.2744 0C62.6716 0 64.632 1.9672 64.6347 4.37012C64.6346 6.7702 62.6745 8.7373 60.2773 8.7373H59.7685V11.9043C65.8812 12.7347 71.4929 15.1348 76.1855 18.6963L77.6386 17.0195L76.9814 16.4482C75.7512 15.3806 75.6186 13.4988 76.6835 12.2656C77.7487 11.0352 79.6289 10.903 80.8564 11.9707L86.6777 17.0332C87.9049 18.1008 88.0373 19.9845 86.9726 21.2148C85.9075 22.448 84.0273 22.5804 82.7997 21.5127L82.2656 21.0498L80.7294 22.8232C86.5587 29.1077 90.1287 37.5278 90.1288 46.7861C90.1288 66.2357 74.4019 82 55.0009 82C35.5974 81.9997 19.871 66.2328 19.871 46.7861C19.8712 36.5925 24.1979 27.4168 31.1005 20.9834L29.955 19.3691L29.4902 19.7393C28.2159 20.7489 26.3442 20.531 25.3369 19.251C24.3269 17.9737 24.5472 16.0976 25.8242 15.0879L31.874 10.3018C33.1483 9.29203 35.0199 9.50995 36.0273 10.79C37.0371 12.0674 36.8169 13.9435 35.54 14.9531L35.416 15.2695L36.5283 16.8369C40.2713 14.5113 44.485 12.8756 48.9931 12.0977V8.73438H48.9189C46.5216 8.73438 44.5615 6.77011 44.5615 4.36719C44.5615 1.96703 46.5216 0 48.9189 0H60.2744ZM54.3134 32.9727C53.3997 32.9727 52.6562 33.7151 52.6562 34.6338V44.2041C52.6562 44.3253 52.6696 44.441 52.6943 44.5566C52.6255 44.8932 52.6564 45.2551 52.8105 45.5889L58.4443 57.7002C58.8296 58.5305 59.818 58.8919 60.6464 58.5029C61.4773 58.1166 61.8351 57.1291 61.4501 56.2988L55.9453 44.4629C55.959 44.3776 55.9697 44.2922 55.9697 44.2041V34.6338C55.9697 33.718 55.2297 32.9729 54.3134 32.9727ZM39.9824 37.5361C36.3741 37.5362 33.4404 40.4778 33.4404 44.0918C33.4406 44.9661 34.1481 45.6748 35.0204 45.6748C35.8926 45.6746 36.5993 44.966 36.5995 44.0918C36.5995 42.2242 38.1162 40.7032 39.9794 40.7031C41.8427 40.7031 43.3593 42.2241 43.3593 44.0918C43.3596 44.9661 44.0671 45.6748 44.9394 45.6748C45.8117 45.6748 46.5186 44.9689 46.5244 44.0918C46.5244 40.4778 43.5906 37.5361 39.9824 37.5361ZM69.4628 37.5361C65.8546 37.5362 62.9208 40.4778 62.9208 44.0918C62.9211 44.9661 63.6286 45.6748 64.5009 45.6748C65.3731 45.6746 66.0798 44.966 66.08 44.0918C66.08 42.2242 67.5967 40.7033 69.4599 40.7031C71.3232 40.7031 72.8398 42.2241 72.8398 44.0918C72.84 44.9661 73.5475 45.6748 74.4199 45.6748C75.2922 45.6748 75.9991 44.9689 76.0048 44.0918C76.0048 40.4778 73.0711 37.5361 69.4628 37.5361Z" fill="white"/>
<path d="M26.5523 116.051C24.8646 116.051 23.2703 116.051 21.5826 116.051C21.5826 115.716 21.5826 115.418 21.5826 115.124C21.5782 112.4 21.6048 109.672 21.556 106.948C21.5293 105.297 20.0194 104.41 18.5538 105.116C17.6922 105.532 17.479 106.315 17.479 107.193C17.4746 109.59 17.4746 111.988 17.4746 114.386C17.4746 114.911 17.4746 115.44 17.4746 116.028C15.8269 116.028 14.2281 116.028 12.5316 116.028C12.5183 115.77 12.4916 115.481 12.4916 115.191C12.4872 112.518 12.505 109.844 12.4783 107.165C12.465 105.758 11.8477 105.021 10.6797 104.908C9.37841 104.781 8.43689 105.541 8.4058 106.889C8.35251 109.31 8.37915 111.735 8.37027 114.155C8.37027 114.78 8.37027 115.404 8.37027 116.056C6.66932 116.056 5.07051 116.056 3.42285 116.056C3.42285 110.821 3.42285 105.614 3.42285 100.365C5.06163 100.365 6.66044 100.365 8.29477 100.365C8.33919 100.687 8.37915 100.981 8.43245 101.383C9.67152 100.261 11.0794 99.8497 12.6426 99.9583C14.197 100.067 15.5338 100.619 16.4931 101.981C16.6308 101.881 16.7374 101.831 16.8173 101.745C18.4383 100.031 20.4279 99.6461 22.6263 100.135C24.7492 100.61 26.1659 102.216 26.4235 104.455C26.5389 105.455 26.5345 106.469 26.5389 107.478C26.5523 110.052 26.5434 112.626 26.5434 115.2C26.5523 115.472 26.5523 115.743 26.5523 116.051Z" fill="white"/>
<path d="M50.5969 94.3577C51.8804 94.3577 52.9241 95.4209 52.9241 96.7284V101.619C52.9241 101.71 53.0307 101.75 53.0928 101.687C54.0388 100.769 54.9803 100.239 56.095 100.063C59.7057 99.4882 62.8633 101.302 64.1113 104.813C65.3193 108.215 64.9595 111.468 62.5391 114.219C60.585 116.44 58.0314 116.947 55.269 116.137C54.4696 115.902 53.7679 115.314 52.9951 114.871L52.9019 115.961C52.8974 116.015 52.853 116.056 52.8042 116.056H48.1632C48.1099 116.056 48.061 116.011 48.061 115.952V96.9455C48.061 95.5159 49.1935 94.3577 50.5969 94.3577ZM53.266 107.274C52.702 109.69 54.8826 112.007 57.2631 111.482C58.7464 111.156 59.719 109.93 59.7323 108.256C59.7501 106.229 58.4311 104.867 56.4503 104.858C54.7938 104.858 53.6125 105.786 53.266 107.274Z" fill="white"/>
<path d="M37.3489 116.499C32.6013 116.499 29.0529 112.934 29.0706 108.179C29.0884 103.47 32.6457 99.9316 37.3622 99.9407C42.1275 99.9497 45.7071 103.51 45.6938 108.225C45.676 112.966 42.1142 116.499 37.3489 116.499ZM37.4155 104.854C35.5236 104.836 34.1158 106.234 34.0891 108.161C34.058 110.093 35.4303 111.541 37.3178 111.568C39.2408 111.6 40.6886 110.161 40.6931 108.225C40.6931 106.311 39.2941 104.872 37.4155 104.854Z" fill="white"/>
<path d="M106.577 103.75C105.16 104.61 103.784 105.447 102.411 106.279C100.79 104.338 98.3921 104.533 97.1531 105.877C95.9584 107.166 95.9939 109.387 97.2152 110.623C98.6009 112.025 100.604 111.867 102.402 110.166C103.659 110.93 104.929 111.699 106.2 112.477C106.32 112.55 106.426 112.654 106.533 112.74C105.089 115.577 101.057 117.115 97.4195 116.246C93.8311 115.391 91.3485 112.265 91.2597 108.501C91.1709 104.551 93.4669 101.325 97.1131 100.285C100.768 99.2396 104.823 100.692 106.577 103.75Z" fill="white"/>
<path d="M72.3177 96.8099C72.3354 98.2803 71.203 99.4747 69.7729 99.4928C68.3384 99.5109 67.1793 98.3617 67.1482 96.8913C67.1171 95.4436 68.2629 94.2311 69.693 94.1949C71.0919 94.1587 72.2999 95.3621 72.3177 96.8099Z" fill="white"/>
<path d="M86.3611 99.307C84.9355 99.2935 83.7896 98.0945 83.803 96.6332C83.8163 95.1809 85.0021 93.9865 86.4188 94.0001C87.8311 94.0137 88.9947 95.2352 88.9769 96.6875C88.9591 98.1534 87.7911 99.3206 86.3611 99.307Z" fill="white"/>
<path d="M87.422 116.309H85.3613C84.5086 116.309 83.8069 115.599 83.8069 114.726V103.56C83.8069 102.691 84.5042 101.977 85.3613 101.977H87.422C88.2747 101.977 88.9764 102.687 88.9764 103.56V114.726C88.972 115.595 88.2747 116.309 87.422 116.309Z" fill="white"/>
<path d="M70.7637 116.499H68.703C67.8503 116.499 67.1486 115.789 67.1486 114.915V103.754C67.1486 102.885 67.8459 102.171 68.703 102.171H70.7637C71.6164 102.171 72.3181 102.881 72.3181 103.754V114.92C72.3181 115.789 71.6164 116.499 70.7637 116.499Z" fill="white"/>
<path d="M79.0909 116.499H77.0302C76.1775 116.499 75.4758 115.789 75.4758 114.916V95.9228C75.4758 95.0542 76.173 94.3394 77.0302 94.3394H79.0909C79.9436 94.3394 80.6453 95.0497 80.6453 95.9228V114.916C80.6453 115.789 79.948 116.499 79.0909 116.499Z" fill="white"/>
</svg>
