<?xml version="1.0" encoding="UTF-8"?>
<svg xmlns="http://www.w3.org/2000/svg" xmlns:xlink="http://www.w3.org/1999/xlink" width="221.89pt" height="279.56pt" viewBox="0 0 221.89 279.56" version="1.1">
<defs>
<clipPath id="clip1">
  <path d="M 0 21 L 221.890625 21 L 221.890625 279.558594 L 0 279.558594 Z M 0 21 "/>
</clipPath>
</defs>
<g id="surface1">
<g clip-path="url(#clip1)" clip-rule="nonzero">
<path style=" stroke:none;fill-rule:nonzero;fill:rgb(95.3125%,65.818787%,8.616638%);fill-opacity:1;" d="M 192.203125 93.109375 L 197.050781 87.519531 L 198.738281 88.984375 C 202.617188 92.347656 208.546875 91.929688 211.914063 88.046875 C 215.28125 84.167969 214.859375 78.234375 210.980469 74.871094 L 192.589844 58.917969 C 188.710938 55.550781 182.78125 55.96875 179.414063 59.851563 C 176.046875 63.734375 176.46875 69.664063 180.347656 73.027344 L 182.429688 74.832031 L 177.839844 80.117188 C 163.019531 68.898438 145.296875 61.332031 125.992188 58.714844 L 125.992188 48.726563 L 127.601563 48.726563 C 135.171875 48.726563 141.367188 42.53125 141.367188 34.964844 C 141.367188 27.394531 135.171875 21.203125 127.601563 21.203125 L 91.738281 21.203125 C 84.167969 21.203125 77.976563 27.394531 77.976563 34.964844 C 77.976563 42.53125 84.167969 48.726563 91.738281 48.726563 L 91.976563 48.726563 L 91.976563 59.320313 C 77.742188 61.773438 64.433594 66.925781 52.605469 74.253906 L 49.089844 69.316406 L 49.488281 68.3125 C 53.519531 65.128906 54.210938 59.222656 51.027344 55.191406 C 47.84375 51.160156 41.9375 50.46875 37.90625 53.652344 L 18.800781 68.742188 C 14.769531 71.925781 14.078125 77.832031 17.265625 81.863281 C 20.449219 85.894531 26.351563 86.585938 30.382813 83.402344 L 31.851563 82.242188 L 35.472656 87.328125 C 13.660156 107.589844 0 136.5 0 168.613281 C 0 229.886719 49.671875 279.558594 110.945313 279.558594 C 172.21875 279.558594 221.890625 229.886719 221.890625 168.613281 C 221.890625 139.441406 210.613281 112.914063 192.203125 93.109375 "/>
</g>
<path style=" stroke:none;fill-rule:nonzero;fill:rgb(10.594177%,7.446289%,38.818359%);fill-opacity:1;" d="M 140.933594 139.46875 C 143.6875 139.46875 145.925781 141.703125 145.925781 144.460938 C 145.925781 150.34375 150.714844 155.136719 156.601563 155.136719 C 162.488281 155.136719 167.277344 150.34375 167.277344 144.460938 C 167.277344 141.703125 169.511719 139.46875 172.269531 139.46875 C 175.023438 139.46875 177.261719 141.703125 177.261719 144.460938 C 177.261719 155.847656 167.992188 165.117188 156.601563 165.117188 C 145.210938 165.117188 135.941406 155.847656 135.941406 144.460938 C 135.941406 141.703125 138.175781 139.46875 140.933594 139.46875 "/>
<path style=" stroke:none;fill-rule:nonzero;fill:rgb(10.594177%,7.446289%,38.818359%);fill-opacity:1;" d="M 47.832031 139.46875 C 50.585938 139.46875 52.824219 141.703125 52.824219 144.460938 C 52.824219 150.34375 57.613281 155.136719 63.5 155.136719 C 69.386719 155.136719 74.175781 150.34375 74.175781 144.460938 C 74.175781 141.703125 76.414063 139.46875 79.167969 139.46875 C 81.925781 139.46875 84.160156 141.703125 84.160156 144.460938 C 84.160156 155.847656 74.890625 165.117188 63.5 165.117188 C 52.109375 165.117188 42.839844 155.847656 42.839844 144.460938 C 42.839844 141.703125 45.074219 139.46875 47.832031 139.46875 "/>
<path style=" stroke:none;fill-rule:nonzero;fill:rgb(10.594177%,7.446289%,38.818359%);fill-opacity:1;" d="M 108.777344 125.089844 C 105.886719 125.089844 103.546875 127.433594 103.546875 130.320313 L 103.546875 199.632813 C 103.546875 202.523438 105.886719 204.863281 108.777344 204.863281 C 111.667969 204.863281 114.007813 202.523438 114.007813 199.632813 L 114.007813 130.320313 C 114.007813 127.433594 111.667969 125.089844 108.777344 125.089844 "/>
<path style=" stroke:none;fill-rule:nonzero;fill:rgb(10.594177%,7.446289%,38.818359%);fill-opacity:1;" d="M 158.261719 38.78125 L 175.425781 20.402344 L 158.746094 20.402344 L 158.746094 12.574219 L 186.269531 12.574219 L 186.269531 20.402344 L 169.152344 38.78125 L 186.753906 38.78125 L 186.753906 46.613281 L 158.261719 46.613281 "/>
<path style=" stroke:none;fill-rule:nonzero;fill:rgb(10.594177%,7.446289%,38.818359%);fill-opacity:1;" d="M 192 20.179688 L 205.21875 6.027344 L 192.375 6.027344 L 192.375 -0.00390625 L 213.566406 -0.00390625 L 213.566406 6.027344 L 200.386719 20.179688 L 213.941406 20.179688 L 213.941406 26.207031 L 192 26.207031 "/>
</g>
</svg>
