<?xml version="1.0" encoding="UTF-8"?>
<svg xmlns="http://www.w3.org/2000/svg" xmlns:xlink="http://www.w3.org/1999/xlink" width="220.18pt" height="256.37pt" viewBox="0 0 220.18 256.37" version="1.1">
<defs>
<clipPath id="clip1">
  <path d="M 0 0 L 220.179688 0 L 220.179688 256.371094 L 0 256.371094 Z M 0 0 "/>
</clipPath>
</defs>
<g id="surface1">
<g clip-path="url(#clip1)" clip-rule="nonzero">
<path style=" stroke:none;fill-rule:nonzero;fill:rgb(10.984802%,91.014099%,54.492188%);fill-opacity:1;" d="M 190.726563 71.351563 L 195.539063 65.804688 L 197.210938 67.257813 C 201.0625 70.597656 206.945313 70.179688 210.285156 66.328125 C 213.628906 62.476563 213.210938 56.59375 209.359375 53.25 L 191.113281 37.421875 C 187.261719 34.082031 181.378906 34.5 178.035156 38.347656 C 174.695313 42.199219 175.113281 48.085938 178.964844 51.425781 L 181.027344 53.214844 L 176.476563 58.460938 C 161.769531 47.324219 144.179688 39.820313 125.023438 37.21875 L 125.023438 27.308594 L 126.621094 27.308594 C 134.136719 27.308594 140.28125 21.164063 140.28125 13.652344 C 140.28125 6.140625 134.136719 -0.00390625 126.621094 -0.00390625 L 91.035156 -0.00390625 C 83.523438 -0.00390625 77.375 6.140625 77.375 13.652344 C 77.375 21.164063 83.523438 27.308594 91.035156 27.308594 L 91.269531 27.308594 L 91.269531 37.820313 C 77.144531 40.257813 63.9375 45.367188 52.199219 52.640625 L 48.714844 47.738281 L 49.105469 46.746094 C 53.105469 43.585938 53.792969 37.726563 50.636719 33.726563 C 47.472656 29.726563 41.617188 29.039063 37.613281 32.195313 L 18.660156 47.171875 C 14.65625 50.332031 13.96875 56.191406 17.132813 60.191406 C 20.289063 64.191406 26.148438 64.878906 30.148438 61.71875 L 31.609375 60.566406 L 35.199219 65.613281 C 13.554688 85.71875 0 114.40625 0 146.277344 C 0 207.078125 49.289063 256.371094 110.09375 256.371094 C 170.894531 256.371094 220.183594 207.078125 220.183594 146.277344 C 220.183594 117.328125 208.996094 91.003906 190.726563 71.351563 "/>
</g>
<path style=" stroke:none;fill-rule:nonzero;fill:rgb(10.594177%,7.446289%,38.818359%);fill-opacity:1;" d="M 78.558594 142.804688 C 75.824219 142.804688 73.605469 140.589844 73.605469 137.855469 C 73.605469 132.015625 68.851563 127.257813 63.011719 127.257813 C 57.171875 127.257813 52.414063 132.015625 52.414063 137.855469 C 52.414063 140.589844 50.199219 142.804688 47.464844 142.804688 C 44.726563 142.804688 42.511719 140.589844 42.511719 137.855469 C 42.511719 126.550781 51.707031 117.355469 63.011719 117.355469 C 74.316406 117.355469 83.511719 126.550781 83.511719 137.855469 C 83.511719 140.589844 81.292969 142.804688 78.558594 142.804688 "/>
<path style=" stroke:none;fill-rule:nonzero;fill:rgb(10.594177%,7.446289%,38.818359%);fill-opacity:1;" d="M 170.945313 142.804688 C 168.210938 142.804688 165.992188 140.589844 165.992188 137.855469 C 165.992188 132.015625 161.238281 127.257813 155.398438 127.257813 C 149.554688 127.257813 144.800781 132.015625 144.800781 137.855469 C 144.800781 140.589844 142.585938 142.804688 139.847656 142.804688 C 137.113281 142.804688 134.894531 140.589844 134.894531 137.855469 C 134.894531 126.550781 144.09375 117.355469 155.398438 117.355469 C 166.699219 117.355469 175.898438 126.550781 175.898438 137.855469 C 175.898438 140.589844 173.679688 142.804688 170.945313 142.804688 "/>
<path style=" stroke:none;fill-rule:nonzero;fill:rgb(10.594177%,7.446289%,38.818359%);fill-opacity:1;" d="M 107.941406 143.394531 C 105.074219 143.394531 102.75 141.066406 102.75 138.203125 L 102.75 108.277344 C 102.75 105.414063 105.074219 103.089844 107.941406 103.089844 C 110.808594 103.089844 113.132813 105.414063 113.132813 108.277344 L 113.132813 138.203125 C 113.132813 141.066406 110.808594 143.394531 107.941406 143.394531 "/>
<path style=" stroke:none;fill-rule:nonzero;fill:rgb(10.594177%,7.446289%,38.818359%);fill-opacity:1;" d="M 141.417969 171.511719 C 139.390625 173.539063 136.105469 173.539063 134.074219 171.511719 L 104.53125 141.964844 C 102.503906 139.941406 102.503906 136.652344 104.53125 134.625 C 106.558594 132.597656 109.847656 132.597656 111.875 134.625 L 141.417969 164.167969 C 143.445313 166.199219 143.445313 169.484375 141.417969 171.511719 "/>
</g>
</svg>
