<?xml version="1.0" encoding="UTF-8"?>
<svg xmlns="http://www.w3.org/2000/svg" xmlns:xlink="http://www.w3.org/1999/xlink" width="500pt" height="200pt" viewBox="0 0 500 200" version="1.1">
<g id="surface1">
<rect x="0" y="0" width="500" height="200" style="fill:rgb(18.821716%,51.756287%,100%);fill-opacity:1;stroke:none;"/>
<path style=" stroke:none;fill-rule:nonzero;fill:rgb(100%,100%,100%);fill-opacity:1;" d="M 159.597656 66.042969 L 162.027344 63.242188 L 162.871094 63.976563 C 164.816406 65.660156 167.789063 65.449219 169.476563 63.507813 C 171.164063 61.5625 170.953125 58.589844 169.007813 56.902344 L 159.792969 48.90625 C 157.847656 47.21875 154.875 47.429688 153.1875 49.371094 C 151.5 51.320313 151.710938 54.289063 153.65625 55.976563 L 154.699219 56.882813 L 152.398438 59.53125 C 144.972656 53.90625 136.085938 50.117188 126.410156 48.804688 L 126.410156 43.796875 L 127.21875 43.796875 C 131.011719 43.796875 134.117188 40.691406 134.117188 36.898438 C 134.117188 33.105469 131.011719 30 127.21875 30 L 109.238281 30 C 105.445313 30 102.34375 33.105469 102.34375 36.898438 C 102.34375 40.691406 105.445313 43.796875 109.238281 43.796875 L 109.359375 43.796875 L 109.359375 49.105469 C 102.222656 50.335938 95.554688 52.917969 89.625 56.589844 L 87.863281 54.117188 L 88.058594 53.613281 C 90.082031 52.019531 90.429688 49.058594 88.832031 47.039063 C 87.238281 45.015625 84.277344 44.667969 82.257813 46.265625 L 72.679688 53.828125 C 70.660156 55.425781 70.3125 58.386719 71.910156 60.40625 C 73.507813 62.425781 76.464844 62.773438 78.484375 61.179688 L 79.222656 60.597656 L 81.035156 63.144531 C 70.101563 73.300781 63.257813 87.792969 63.257813 103.890625 C 63.257813 134.601563 88.152344 159.5 118.867188 159.5 C 149.578125 159.5 174.476563 134.601563 174.476563 103.890625 C 174.476563 89.265625 168.824219 75.972656 159.597656 66.042969 "/>
<path style=" stroke:none;fill-rule:nonzero;fill:rgb(10.594177%,7.446289%,38.818359%);fill-opacity:1;" d="M 102.9375 102.136719 C 101.558594 102.136719 100.4375 101.015625 100.4375 99.636719 C 100.4375 96.683594 98.035156 94.285156 95.085938 94.285156 C 92.132813 94.285156 89.734375 96.683594 89.734375 99.636719 C 89.734375 101.015625 88.613281 102.136719 87.230469 102.136719 C 85.851563 102.136719 84.730469 101.015625 84.730469 99.636719 C 84.730469 93.925781 89.375 89.28125 95.085938 89.28125 C 100.796875 89.28125 105.441406 93.925781 105.441406 99.636719 C 105.441406 101.015625 104.320313 102.136719 102.9375 102.136719 "/>
<path style=" stroke:none;fill-rule:nonzero;fill:rgb(10.594177%,7.446289%,38.818359%);fill-opacity:1;" d="M 149.605469 102.136719 C 148.222656 102.136719 147.105469 101.015625 147.105469 99.636719 C 147.105469 96.683594 144.703125 94.285156 141.753906 94.285156 C 138.800781 94.285156 136.398438 96.683594 136.398438 99.636719 C 136.398438 101.015625 135.28125 102.136719 133.898438 102.136719 C 132.515625 102.136719 131.394531 101.015625 131.394531 99.636719 C 131.394531 93.925781 136.039063 89.28125 141.753906 89.28125 C 147.460938 89.28125 152.105469 93.925781 152.105469 99.636719 C 152.105469 101.015625 150.984375 102.136719 149.605469 102.136719 "/>
<path style=" stroke:none;fill-rule:nonzero;fill:rgb(10.594177%,7.446289%,38.818359%);fill-opacity:1;" d="M 129.074219 118.910156 L 120.363281 100.21875 C 120.382813 100.085938 120.402344 99.949219 120.402344 99.808594 L 120.402344 84.695313 C 120.402344 83.246094 119.226563 82.074219 117.78125 82.074219 C 116.332031 82.074219 115.15625 83.246094 115.15625 84.695313 L 115.15625 99.808594 C 115.15625 100.003906 115.179688 100.1875 115.21875 100.367188 C 115.109375 100.898438 115.15625 101.46875 115.402344 101.996094 L 124.320313 121.128906 C 124.933594 122.441406 126.492188 123.007813 127.804688 122.394531 C 129.117188 121.785156 129.6875 120.222656 129.074219 118.910156 "/>
<path style=" stroke:none;fill-rule:nonzero;fill:rgb(100%,100%,100%);fill-opacity:1;" d="M 250.242188 118.625 L 239.054688 118.625 C 239.054688 117.882813 239.054688 117.226563 239.054688 116.570313 C 239.042969 110.546875 239.101563 104.523438 238.996094 98.503906 C 238.929688 94.855469 235.53125 92.890625 232.230469 94.457031 C 230.289063 95.378906 229.8125 97.101563 229.808594 99.046875 C 229.800781 104.347656 229.804688 109.644531 229.804688 114.941406 C 229.804688 116.105469 229.804688 117.269531 229.804688 118.574219 L 218.679688 118.574219 C 218.648438 118.003906 218.589844 117.363281 218.589844 116.726563 C 218.578125 110.8125 218.617188 104.898438 218.5625 98.988281 C 218.535156 95.878906 217.140625 94.25 214.515625 93.996094 C 211.578125 93.714844 209.460938 95.394531 209.390625 98.378906 C 209.269531 103.730469 209.328125 109.085938 209.3125 114.4375 C 209.3125 115.820313 209.3125 117.199219 209.3125 118.644531 L 198.175781 118.644531 L 198.175781 83.964844 L 209.148438 83.964844 C 209.246094 84.679688 209.335938 85.320313 209.460938 86.214844 C 212.25 83.738281 215.421875 82.820313 218.941406 83.066406 C 222.4375 83.308594 225.453125 84.523438 227.609375 87.53125 C 227.917969 87.316406 228.164063 87.199219 228.339844 87.011719 C 231.992188 83.21875 236.476563 82.371094 241.417969 83.453125 C 246.195313 84.5 249.386719 88.058594 249.96875 93 C 250.230469 95.203125 250.21875 97.449219 250.234375 99.675781 C 250.265625 105.363281 250.242188 111.054688 250.242188 116.742188 "/>
<path style=" stroke:none;fill-rule:nonzero;fill:rgb(100%,100%,100%);fill-opacity:1;" d="M 310.390625 99.222656 C 309.121094 104.558594 314.03125 109.679688 319.394531 108.519531 C 322.730469 107.800781 324.925781 105.089844 324.953125 101.394531 C 324.988281 96.910156 322.027344 93.898438 317.558594 93.886719 C 313.839844 93.875 311.175781 95.929688 310.390625 99.222656 M 304.386719 70.675781 C 307.28125 70.675781 309.625 73.019531 309.625 75.914063 L 309.625 86.726563 C 309.625 86.921875 309.863281 87.015625 310.003906 86.878906 C 312.140625 84.847656 314.257813 83.675781 316.769531 83.285156 C 324.898438 82.015625 332.011719 86.027344 334.8125 93.785156 C 337.535156 101.3125 336.726563 108.496094 331.269531 114.582031 C 326.875 119.484375 321.121094 120.609375 314.898438 118.820313 C 313.101563 118.304688 311.523438 117.003906 309.78125 116.023438 L 309.574219 118.429688 C 309.566406 118.546875 309.46875 118.636719 309.351563 118.636719 L 298.898438 118.636719 C 298.773438 118.636719 298.671875 118.535156 298.671875 118.410156 L 298.671875 76.386719 C 298.671875 73.230469 301.230469 70.675781 304.386719 70.675781 "/>
<path style=" stroke:none;fill-rule:nonzero;fill:rgb(100%,100%,100%);fill-opacity:1;" d="M 274.707031 93.871094 C 270.445313 93.832031 267.277344 96.921875 267.214844 101.179688 C 267.148438 105.449219 270.234375 108.648438 274.480469 108.710938 C 278.8125 108.777344 282.074219 105.605469 282.078125 101.324219 C 282.085938 97.09375 278.933594 93.90625 274.707031 93.871094 M 274.550781 119.609375 C 263.859375 119.605469 255.875 111.726563 255.910156 101.21875 C 255.945313 90.8125 263.964844 82.996094 274.578125 83.011719 C 285.304688 83.027344 293.363281 90.894531 293.335938 101.328125 C 293.308594 111.800781 285.285156 119.613281 274.550781 119.609375 "/>
<path style=" stroke:none;fill-rule:nonzero;fill:rgb(100%,100%,100%);fill-opacity:1;" d="M 430.4375 91.425781 C 427.25 93.328125 424.148438 95.175781 421.058594 97.015625 C 417.40625 92.722656 412.007813 93.160156 409.21875 96.125 C 406.527344 98.980469 406.609375 103.882813 409.355469 106.613281 C 412.476563 109.714844 416.984375 109.359375 421.03125 105.597656 C 423.859375 107.285156 426.722656 108.992188 429.582031 110.710938 C 429.851563 110.871094 430.089844 111.097656 430.324219 111.285156 C 427.078125 117.550781 417.992188 120.953125 409.808594 119.039063 C 401.730469 117.148438 396.136719 110.242188 395.941406 101.921875 C 395.734375 93.195313 400.914063 86.058594 409.121094 83.765625 C 417.355469 81.460938 426.488281 84.671875 430.4375 91.425781 "/>
<path style=" stroke:none;fill-rule:nonzero;fill:rgb(100%,100%,100%);fill-opacity:1;" d="M 353.292969 76.09375 C 353.332031 79.347656 350.785156 81.980469 347.566406 82.023438 C 344.339844 82.0625 341.722656 79.523438 341.65625 76.277344 C 341.589844 73.074219 344.164063 70.394531 347.382813 70.3125 C 350.539063 70.234375 353.253906 72.890625 353.292969 76.09375 "/>
<path style=" stroke:none;fill-rule:nonzero;fill:rgb(100%,100%,100%);fill-opacity:1;" d="M 384.917969 81.605469 C 381.710938 81.574219 379.128906 78.921875 379.15625 75.695313 C 379.183594 72.488281 381.859375 69.847656 385.042969 69.878906 C 388.226563 69.914063 390.839844 72.613281 390.800781 75.824219 C 390.761719 79.058594 388.136719 81.640625 384.917969 81.605469 "/>
<path style=" stroke:none;fill-rule:nonzero;fill:rgb(100%,100%,100%);fill-opacity:1;" d="M 387.300781 119.1875 L 382.65625 119.1875 C 380.734375 119.1875 379.160156 117.613281 379.160156 115.691406 L 379.160156 91.015625 C 379.160156 89.089844 380.734375 87.515625 382.65625 87.515625 L 387.300781 87.515625 C 389.226563 87.515625 390.800781 89.089844 390.800781 91.015625 L 390.800781 115.691406 C 390.800781 117.613281 389.226563 119.1875 387.300781 119.1875 "/>
<path style=" stroke:none;fill-rule:nonzero;fill:rgb(100%,100%,100%);fill-opacity:1;" d="M 349.796875 119.609375 L 345.152344 119.609375 C 343.226563 119.609375 341.652344 118.039063 341.652344 116.113281 L 341.652344 91.4375 C 341.652344 89.515625 343.226563 87.941406 345.152344 87.941406 L 349.796875 87.941406 C 351.71875 87.941406 353.292969 89.515625 353.292969 91.4375 L 353.292969 116.113281 C 353.292969 118.039063 351.71875 119.609375 349.796875 119.609375 "/>
<path style=" stroke:none;fill-rule:nonzero;fill:rgb(100%,100%,100%);fill-opacity:1;" d="M 368.550781 119.609375 L 363.902344 119.609375 C 361.980469 119.609375 360.40625 118.039063 360.40625 116.113281 L 360.40625 74.132813 C 360.40625 72.207031 361.980469 70.632813 363.902344 70.632813 L 368.550781 70.632813 C 370.472656 70.632813 372.046875 72.207031 372.046875 74.132813 L 372.046875 116.113281 C 372.046875 118.039063 370.472656 119.609375 368.550781 119.609375 "/>
</g>
</svg>
