<?xml version="1.0" encoding="UTF-8"?>
<svg xmlns="http://www.w3.org/2000/svg" xmlns:xlink="http://www.w3.org/1999/xlink" width="367.18pt" height="129.5pt" viewBox="0 0 367.18 129.5" version="1.1">
<defs>
<clipPath id="clip1">
  <path d="M 0 0 L 112 0 L 112 129.5 L 0 129.5 Z M 0 0 "/>
</clipPath>
<clipPath id="clip2">
  <path d="M 332 53 L 367.179688 53 L 367.179688 90 L 332 90 Z M 332 53 "/>
</clipPath>
</defs>
<g id="surface1">
<g clip-path="url(#clip1)" clip-rule="nonzero">
<path style=" stroke:none;fill-rule:nonzero;fill:rgb(18.821716%,51.756287%,100%);fill-opacity:1;" d="M 96.339844 36.042969 L 98.773438 33.242188 L 99.617188 33.972656 C 101.5625 35.660156 104.535156 35.449219 106.21875 33.503906 C 107.910156 31.558594 107.699219 28.585938 105.753906 26.898438 L 96.535156 18.902344 C 94.589844 17.214844 91.617188 17.425781 89.929688 19.371094 C 88.242188 21.316406 88.453125 24.289063 90.398438 25.976563 L 91.441406 26.882813 L 89.144531 29.53125 C 81.714844 23.90625 72.828125 20.113281 63.152344 18.804688 L 63.152344 13.796875 L 63.960938 13.796875 C 67.753906 13.796875 70.859375 10.691406 70.859375 6.898438 C 70.859375 3.105469 67.753906 0 63.960938 0 L 45.984375 0 C 42.191406 0 39.085938 3.105469 39.085938 6.898438 C 39.085938 10.691406 42.191406 13.796875 45.984375 13.796875 L 46.101563 13.796875 L 46.101563 19.105469 C 38.964844 20.335938 32.296875 22.917969 26.367188 26.589844 L 24.605469 24.113281 L 24.804688 23.613281 C 26.824219 22.015625 27.171875 19.058594 25.578125 17.035156 C 23.980469 15.015625 21.023438 14.667969 19 16.265625 L 9.425781 23.828125 C 7.402344 25.425781 7.054688 28.382813 8.652344 30.40625 C 10.25 32.425781 13.207031 32.773438 15.230469 31.179688 L 15.964844 30.59375 L 17.78125 33.144531 C 6.847656 43.296875 0 57.789063 0 73.890625 C 0 104.601563 24.898438 129.5 55.609375 129.5 C 86.324219 129.5 111.21875 104.601563 111.21875 73.890625 C 111.21875 59.265625 105.566406 45.96875 96.339844 36.042969 "/>
</g>
<path style=" stroke:none;fill-rule:nonzero;fill:rgb(100%,100%,100%);fill-opacity:1;" d="M 39.683594 72.136719 C 38.300781 72.136719 37.179688 71.015625 37.179688 69.636719 C 37.179688 66.683594 34.78125 64.28125 31.828125 64.28125 C 28.878906 64.28125 26.476563 66.683594 26.476563 69.636719 C 26.476563 71.015625 25.355469 72.136719 23.976563 72.136719 C 22.59375 72.136719 21.472656 71.015625 21.472656 69.636719 C 21.472656 63.925781 26.117188 59.28125 31.828125 59.28125 C 37.539063 59.28125 42.183594 63.925781 42.183594 69.636719 C 42.183594 71.015625 41.066406 72.136719 39.683594 72.136719 "/>
<path style=" stroke:none;fill-rule:nonzero;fill:rgb(100%,100%,100%);fill-opacity:1;" d="M 86.347656 72.136719 C 84.96875 72.136719 83.847656 71.015625 83.847656 69.636719 C 83.847656 66.683594 81.445313 64.28125 78.496094 64.28125 C 75.542969 64.28125 73.144531 66.683594 73.144531 69.636719 C 73.144531 71.015625 72.023438 72.136719 70.640625 72.136719 C 69.257813 72.136719 68.140625 71.015625 68.140625 69.636719 C 68.140625 63.925781 72.785156 59.28125 78.496094 59.28125 C 84.207031 59.28125 88.851563 63.925781 88.851563 69.636719 C 88.851563 71.015625 87.730469 72.136719 86.347656 72.136719 "/>
<path style=" stroke:none;fill-rule:nonzero;fill:rgb(100%,100%,100%);fill-opacity:1;" d="M 65.820313 88.910156 L 57.105469 70.21875 C 57.128906 70.085938 57.148438 69.949219 57.148438 69.808594 L 57.148438 54.695313 C 57.148438 53.246094 55.972656 52.074219 54.523438 52.074219 C 53.078125 52.074219 51.902344 53.246094 51.902344 54.695313 L 51.902344 69.808594 C 51.902344 70 51.921875 70.1875 51.964844 70.367188 C 51.855469 70.898438 51.902344 71.46875 52.148438 71.996094 L 61.066406 91.128906 C 61.675781 92.4375 63.238281 93.007813 64.550781 92.394531 C 65.863281 91.785156 66.429688 90.222656 65.820313 88.910156 "/>
<path style=" stroke:none;fill-rule:nonzero;fill:rgb(18.821716%,51.756287%,100%);fill-opacity:1;" d="M 186.988281 88.621094 L 175.796875 88.621094 C 175.796875 87.882813 175.796875 87.226563 175.796875 86.570313 C 175.785156 80.546875 175.84375 74.523438 175.738281 68.503906 C 175.675781 64.855469 172.273438 62.890625 168.976563 64.457031 C 167.03125 65.378906 166.558594 67.101563 166.554688 69.046875 C 166.542969 74.34375 166.546875 79.644531 166.546875 84.941406 C 166.546875 86.105469 166.546875 87.269531 166.546875 88.574219 L 155.421875 88.574219 C 155.394531 88.003906 155.335938 87.363281 155.335938 86.722656 C 155.324219 80.8125 155.359375 74.898438 155.308594 68.988281 C 155.277344 65.878906 153.882813 64.25 151.257813 63.996094 C 148.324219 63.710938 146.203125 65.394531 146.132813 68.378906 C 146.011719 73.730469 146.070313 79.085938 146.058594 84.4375 C 146.054688 85.816406 146.058594 87.199219 146.058594 88.644531 L 134.921875 88.644531 L 134.921875 53.964844 L 145.894531 53.964844 C 145.992188 54.679688 146.078125 55.320313 146.203125 56.214844 C 148.996094 53.734375 152.164063 52.820313 155.6875 53.0625 C 159.183594 53.308594 162.199219 54.523438 164.351563 57.53125 C 164.660156 57.316406 164.90625 57.195313 165.085938 57.011719 C 168.734375 53.21875 173.21875 52.371094 178.160156 53.453125 C 182.941406 54.5 186.128906 58.054688 186.714844 62.996094 C 186.972656 65.203125 186.964844 67.449219 186.976563 69.675781 C 187.007813 75.363281 186.988281 81.054688 186.988281 86.742188 "/>
<path style=" stroke:none;fill-rule:nonzero;fill:rgb(18.821716%,51.756287%,100%);fill-opacity:1;" d="M 247.136719 69.222656 C 245.863281 74.558594 250.773438 79.679688 256.136719 78.519531 C 259.472656 77.796875 261.667969 75.089844 261.695313 71.394531 C 261.734375 66.90625 258.769531 63.898438 254.300781 63.886719 C 250.585938 63.875 247.921875 65.929688 247.136719 69.222656 M 241.128906 40.671875 C 244.023438 40.671875 246.371094 43.019531 246.371094 45.914063 L 246.371094 56.722656 C 246.371094 56.921875 246.605469 57.015625 246.75 56.878906 C 248.882813 54.847656 251 53.675781 253.511719 53.285156 C 261.644531 52.015625 268.753906 56.023438 271.558594 63.785156 C 274.277344 71.3125 273.46875 78.496094 268.015625 84.578125 C 263.617188 89.484375 257.863281 90.609375 251.644531 88.820313 C 249.84375 88.300781 248.269531 87 246.523438 86.023438 L 246.320313 88.429688 C 246.308594 88.546875 246.214844 88.636719 246.09375 88.636719 L 235.644531 88.636719 C 235.519531 88.636719 235.414063 88.535156 235.414063 88.410156 L 235.414063 46.386719 C 235.414063 43.230469 237.972656 40.671875 241.128906 40.671875 "/>
<path style=" stroke:none;fill-rule:nonzero;fill:rgb(18.821716%,51.756287%,100%);fill-opacity:1;" d="M 211.449219 63.867188 C 207.1875 63.832031 204.019531 66.921875 203.957031 71.179688 C 203.890625 75.449219 206.976563 78.644531 211.222656 78.710938 C 215.554688 78.777344 218.816406 75.605469 218.824219 71.320313 C 218.828125 67.09375 215.675781 63.90625 211.449219 63.867188 M 211.296875 89.609375 C 200.605469 89.605469 192.617188 81.726563 192.652344 71.21875 C 192.691406 60.8125 200.707031 52.992188 211.320313 53.011719 C 222.046875 53.027344 230.105469 60.894531 230.078125 71.324219 C 230.050781 81.800781 222.027344 89.613281 211.296875 89.609375 "/>
<g clip-path="url(#clip2)" clip-rule="nonzero">
<path style=" stroke:none;fill-rule:nonzero;fill:rgb(18.821716%,51.756287%,100%);fill-opacity:1;" d="M 367.183594 61.425781 C 363.992188 63.324219 360.890625 65.175781 357.800781 67.015625 C 354.148438 62.722656 348.753906 63.160156 345.960938 66.125 C 343.273438 68.980469 343.351563 73.882813 346.097656 76.613281 C 349.21875 79.714844 353.730469 79.359375 357.777344 75.597656 C 360.601563 77.285156 363.464844 78.992188 366.324219 80.707031 C 366.597656 80.871094 366.832031 81.097656 367.070313 81.285156 C 363.824219 87.550781 354.738281 90.953125 346.550781 89.035156 C 338.476563 87.148438 332.882813 80.242188 332.683594 71.921875 C 332.480469 63.195313 337.65625 56.058594 345.863281 53.765625 C 354.097656 51.460938 363.230469 54.667969 367.183594 61.425781 "/>
</g>
<path style=" stroke:none;fill-rule:nonzero;fill:rgb(18.821716%,51.756287%,100%);fill-opacity:1;" d="M 290.035156 46.09375 C 290.074219 49.34375 287.53125 51.980469 284.3125 52.023438 C 281.082031 52.0625 278.46875 49.523438 278.398438 46.277344 C 278.332031 43.074219 280.910156 40.394531 284.128906 40.3125 C 287.285156 40.234375 290 42.890625 290.035156 46.09375 "/>
<path style=" stroke:none;fill-rule:nonzero;fill:rgb(18.821716%,51.756287%,100%);fill-opacity:1;" d="M 321.660156 51.605469 C 318.457031 51.574219 315.871094 48.921875 315.902344 45.695313 C 315.929688 42.488281 318.605469 39.84375 321.789063 39.878906 C 324.96875 39.914063 327.585938 42.613281 327.546875 45.824219 C 327.507813 49.054688 324.878906 51.636719 321.660156 51.605469 "/>
<path style=" stroke:none;fill-rule:nonzero;fill:rgb(18.821716%,51.756287%,100%);fill-opacity:1;" d="M 324.046875 89.183594 L 319.398438 89.183594 C 317.476563 89.183594 315.902344 87.613281 315.902344 85.6875 L 315.902344 61.011719 C 315.902344 59.089844 317.476563 57.515625 319.398438 57.515625 L 324.046875 57.515625 C 325.96875 57.515625 327.542969 59.089844 327.542969 61.011719 L 327.542969 85.6875 C 327.542969 87.613281 325.96875 89.183594 324.046875 89.183594 "/>
<path style=" stroke:none;fill-rule:nonzero;fill:rgb(18.821716%,51.756287%,100%);fill-opacity:1;" d="M 286.539063 89.609375 L 281.894531 89.609375 C 279.972656 89.609375 278.398438 88.035156 278.398438 86.113281 L 278.398438 61.4375 C 278.398438 59.511719 279.972656 57.941406 281.894531 57.941406 L 286.539063 57.941406 C 288.464844 57.941406 290.039063 59.511719 290.039063 61.4375 L 290.039063 86.113281 C 290.039063 88.035156 288.464844 89.609375 286.539063 89.609375 "/>
<path style=" stroke:none;fill-rule:nonzero;fill:rgb(18.821716%,51.756287%,100%);fill-opacity:1;" d="M 305.292969 89.609375 L 300.648438 89.609375 C 298.726563 89.609375 297.152344 88.035156 297.152344 86.113281 L 297.152344 44.128906 C 297.152344 42.207031 298.726563 40.632813 300.648438 40.632813 L 305.292969 40.632813 C 307.214844 40.632813 308.789063 42.207031 308.789063 44.128906 L 308.789063 86.113281 C 308.789063 88.035156 307.214844 89.609375 305.292969 89.609375 "/>
</g>
</svg>
