<svg width="128" height="72" viewBox="0 0 128 72" fill="none" xmlns="http://www.w3.org/2000/svg">
<g clip-path="url(#clip0_1808_35)">
<path d="M64.2318 44.052C62.9284 44.052 61.6969 44.052 60.3934 44.052C60.3934 43.8024 60.3934 43.5798 60.3934 43.3606C60.39 41.3301 60.4106 39.2962 60.3729 37.2658C60.3523 36.0347 59.186 35.3736 58.054 35.8997C57.3886 36.21 57.2239 36.7936 57.2239 37.4479C57.2205 39.2355 57.2205 41.0232 57.2205 42.8108C57.2205 43.2021 57.2205 43.5967 57.2205 44.0352C55.9479 44.0352 54.713 44.0352 53.4027 44.0352C53.3924 43.8429 53.3718 43.627 53.3718 43.4112C53.3684 41.4178 53.3821 39.4244 53.3615 37.4277C53.3512 36.3787 52.8744 35.8289 51.9723 35.7446C50.9672 35.6501 50.24 36.2168 50.216 37.2219C50.1749 39.0264 50.1954 40.8343 50.1886 42.6388C50.1886 43.1042 50.1886 43.5697 50.1886 44.0554C48.8748 44.0554 47.6399 44.0554 46.3673 44.0554C46.3673 40.153 46.3673 36.2708 46.3673 32.3582C47.6331 32.3582 48.868 32.3582 50.1303 32.3582C50.1646 32.5977 50.1954 32.8169 50.2366 33.1171C51.1936 32.2806 52.281 31.9737 53.4884 32.0546C54.689 32.1356 55.7215 32.5471 56.4624 33.5623C56.5688 33.4881 56.6511 33.451 56.7128 33.3869C57.9649 32.1086 59.5016 31.8219 61.1995 32.1862C62.8392 32.5403 63.9334 33.7377 64.1324 35.4073C64.2215 36.1527 64.2181 36.9082 64.2216 37.6604C64.2318 39.5796 64.225 41.4987 64.225 43.4179C64.2318 43.6203 64.2318 43.8227 64.2318 44.052Z" fill="#3965EA"/>
<path d="M82.803 27.8792C83.7944 27.8792 84.6005 28.6718 84.6005 29.6465V33.2927C84.6005 33.3601 84.6828 33.3905 84.7308 33.3432C85.4614 32.6585 86.1886 32.2639 87.0496 32.1324C89.8384 31.704 92.2773 33.0565 93.2411 35.6739C94.1742 38.2103 93.8963 40.6354 92.0269 42.6862C90.5176 44.3423 88.5452 44.72 86.4116 44.1163C85.7942 43.9409 85.2522 43.5024 84.6553 43.1719L84.5833 43.9847C84.5799 44.0252 84.5456 44.0556 84.5079 44.0556H80.9233C80.8821 44.0556 80.8444 44.0218 80.8444 43.978V29.8084C80.8444 28.7426 81.7191 27.8792 82.803 27.8792ZM84.8646 37.5088C84.429 39.3099 86.1132 41.0368 87.9518 40.6456C89.0975 40.4027 89.8487 39.4887 89.859 38.2407C89.8727 36.7296 88.8539 35.7144 87.324 35.7076C86.0446 35.7076 85.1321 36.3991 84.8646 37.5088Z" fill="#3965EA"/>
<path d="M72.5707 44.3861C68.9038 44.3861 66.1631 41.7282 66.1768 38.1833C66.1905 34.6721 68.9381 32.0345 72.581 32.0413C76.2616 32.048 79.0263 34.7025 79.016 38.217C79.0023 41.7518 76.2513 44.3861 72.5707 44.3861ZM72.6221 35.7042C71.1609 35.6907 70.0735 36.733 70.0529 38.1698C70.0289 39.6101 71.0888 40.6894 72.5467 40.7096C74.0319 40.7332 75.1502 39.6606 75.1536 38.217C75.1536 36.7903 74.0731 35.7177 72.6221 35.7042Z" fill="#3965EA"/>
<path d="M126.041 34.8813C124.947 35.5221 123.883 36.1461 122.823 36.7667C121.571 35.3197 119.719 35.4648 118.762 36.4665C117.839 37.4278 117.867 39.0839 118.81 40.0047C119.88 41.0503 121.427 40.9322 122.816 39.664C123.787 40.2341 124.768 40.8074 125.749 41.3876C125.842 41.4415 125.924 41.5191 126.007 41.5832C124.892 43.698 121.777 44.8448 118.968 44.1972C116.196 43.5597 114.279 41.2291 114.21 38.4228C114.141 35.4783 115.915 33.0734 118.731 32.2976C121.554 31.5185 124.686 32.6012 126.041 34.8813Z" fill="#3965EA"/>
<path d="M99.5801 29.7072C99.5938 30.8034 98.7191 31.6938 97.6146 31.7073C96.5066 31.7208 95.6113 30.8641 95.5873 29.7679C95.5633 28.6886 96.4483 27.7847 97.5528 27.7577C98.6333 27.7307 99.5663 28.6279 99.5801 29.7072Z" fill="#3965EA"/>
<path d="M110.426 31.569C109.325 31.5589 108.44 30.6651 108.45 29.5757C108.461 28.493 109.377 27.6025 110.471 27.6126C111.562 27.6228 112.46 28.5334 112.447 29.6161C112.433 30.709 111.531 31.5792 110.426 31.569Z" fill="#3965EA"/>
<path d="M111.246 44.2444H109.655C108.996 44.2444 108.454 43.7149 108.454 43.0639V34.7396C108.454 34.092 108.993 33.5591 109.655 33.5591H111.246C111.905 33.5591 112.447 34.0886 112.447 34.7396V43.0639C112.443 43.7115 111.905 44.2444 111.246 44.2444Z" fill="#3965EA"/>
<path d="M98.3797 44.3861H96.7881C96.1295 44.3861 95.5875 43.8565 95.5875 43.2056V34.8846C95.5875 34.237 96.1261 33.7041 96.7881 33.7041H98.3797C99.0383 33.7041 99.5803 34.2336 99.5803 34.8846V43.2089C99.5803 43.8565 99.0383 44.3861 98.3797 44.3861Z" fill="#3965EA"/>
<path d="M104.811 44.3862H103.22C102.561 44.3862 102.019 43.8566 102.019 43.2057V29.0462C102.019 28.3986 102.558 27.8657 103.22 27.8657H104.811C105.47 27.8657 106.012 28.3953 106.012 29.0462V43.2057C106.012 43.8566 105.473 44.3862 104.811 44.3862Z" fill="#3965EA"/>
<path d="M33.0858 27.1332L33.8449 26.2679L34.1089 26.494C34.7157 27.0148 35.6449 26.9502 36.1714 26.3486C36.6979 25.7484 36.6326 24.8293 36.0258 24.3085L33.1484 21.839C32.5416 21.3182 31.6124 21.3828 31.0859 21.983C30.5593 22.5846 30.6246 23.5024 31.2328 24.0232L31.5579 24.3017L30.8396 25.12C28.52 23.3826 25.7459 22.2118 22.7242 21.8067V20.2618H22.9759C24.1609 20.2618 25.1296 19.3022 25.1296 18.1314C25.1282 16.9593 24.1596 15.9998 22.9746 15.9998H17.3612C16.1762 15.9998 15.2075 16.9593 15.2075 18.1301C15.2075 19.3022 16.1762 20.2604 17.3612 20.2604H17.3979V21.9009C15.1694 22.2804 13.0865 23.0784 11.2362 24.2129L10.6866 23.4485L10.7478 23.2938C11.3791 22.8012 11.4879 21.8861 10.9886 21.263C10.4907 20.6386 9.56553 20.5323 8.93562 21.0248L5.94525 23.3597C5.31398 23.8523 5.20514 24.7674 5.70445 25.3905C6.20239 26.0149 7.12752 26.1212 7.75743 25.6287L7.98736 25.4483L8.55332 26.2356C5.1412 29.3739 3.0025 33.8499 3.0025 38.8225C3.0025 48.3087 10.7764 55.9998 20.3679 55.9998C29.958 55.9998 37.7319 48.3101 37.7319 38.8225C37.7319 34.3061 35.9673 30.1989 33.0858 27.1332Z" fill="#3965EA"/>
<path d="M15.394 38.28C14.9627 38.28 14.613 37.9342 14.613 37.5076C14.613 36.5965 13.8634 35.855 12.9423 35.855C12.0213 35.855 11.2717 36.5965 11.2717 37.5076C11.2717 37.9342 10.922 38.28 10.4907 38.28C10.0595 38.28 9.70981 37.9342 9.70981 37.5076C9.70981 35.7446 11.1601 34.3101 12.9437 34.3101C14.7273 34.3101 16.1776 35.7446 16.1776 37.5076C16.1749 37.9355 15.8252 38.28 15.394 38.28Z" fill="white"/>
<path d="M29.9662 38.28C29.5349 38.28 29.1853 37.9342 29.1853 37.5076C29.1853 36.5965 28.4357 35.855 27.5146 35.855C26.5936 35.855 25.8439 36.5965 25.8439 37.5076C25.8439 37.9342 25.4943 38.28 25.063 38.28C24.6317 38.28 24.2821 37.9342 24.2821 37.5076C24.2821 35.7446 25.7324 34.3101 27.516 34.3101C29.2996 34.3101 30.7499 35.7446 30.7499 37.5076C30.7471 37.9355 30.3975 38.28 29.9662 38.28Z" fill="white"/>
<path d="M23.5555 43.4626L20.8345 37.6893C20.8413 37.6476 20.8467 37.6059 20.8467 37.5628V32.8944C20.8467 32.4476 20.4807 32.0842 20.0277 32.0842C19.576 32.0842 19.2087 32.4462 19.2087 32.8944V37.5628C19.2087 37.622 19.2155 37.6785 19.2277 37.7351C19.1937 37.8993 19.2087 38.0755 19.2849 38.2384L22.0698 44.1463C22.2603 44.5513 22.7487 44.7276 23.1582 44.5379C23.5691 44.3495 23.7459 43.8677 23.5555 43.4626Z" fill="white"/>
</g>
<defs>
<clipPath id="clip0_1808_35">
<rect width="128" height="40" fill="white" transform="translate(0 15.9998)"/>
</clipPath>
</defs>
</svg>
