<svg width="48" height="57" viewBox="0 0 48 57" fill="none" xmlns="http://www.w3.org/2000/svg">
<path d="M41.5786 15.6119L42.6278 14.3985L42.9926 14.7155C43.8312 15.4458 45.1155 15.3552 45.8432 14.5117C46.5709 13.6701 46.4807 12.3812 45.642 11.6509L41.6651 8.18807C40.8264 7.45777 39.5421 7.54835 38.8144 8.38999C38.0867 9.23352 38.177 10.5205 39.0175 11.2508L39.4669 11.6414L38.4741 12.7888C35.2681 10.3526 31.434 8.71079 27.2577 8.14278V5.9764H27.6056C29.2434 5.9764 30.5822 4.63091 30.5822 2.98915C30.5803 1.34549 29.2415 0 27.6037 0H19.8453C18.2075 0 16.8687 1.34549 16.8687 2.98726C16.8687 4.63091 18.2075 5.97452 19.8453 5.97452H19.8961V8.27488C16.8161 8.80703 13.9372 9.92608 11.38 11.5169L10.6203 10.445L10.7049 10.228C11.5774 9.53734 11.7278 8.25412 11.0377 7.3804C10.3495 6.50479 9.07087 6.35571 8.20026 7.04638L4.06722 10.3205C3.19473 11.0112 3.04431 12.2944 3.7344 13.1681C4.42261 14.0437 5.70126 14.1928 6.57187 13.5021L6.88965 13.2492L7.67188 14.3532C2.95593 18.7539 0 25.0303 0 32.0031C0 45.3052 10.7444 56.0899 24.0009 56.0899C37.2556 56.0899 48 45.3071 48 32.0031C48 25.67 45.5612 19.9107 41.5786 15.6119Z" fill="#3184FF"/>
</svg>
