<?xml version="1.0" encoding="UTF-8"?>
<svg xmlns="http://www.w3.org/2000/svg" xmlns:xlink="http://www.w3.org/1999/xlink" width="255.27pt" height="297.23pt" viewBox="0 0 255.27 297.23" version="1.1">
<g id="surface1">
<g clip-rule="nonzero">
  <path style=" stroke:none;fill-rule:nonzero;fill:rgb(18.821716%,51.756287%,100%);fill-opacity:1;" d="M 221.117188 82.730469 L 226.695313 76.300781 L 228.636719 77.984375 C 233.097656 81.855469 239.921875 81.371094 243.796875 76.90625 C 247.667969 72.441406 247.183594 65.617188 242.71875 61.746094 L 221.5625 43.394531 C 217.101563 39.519531 210.277344 40.003906 206.402344 44.46875 C 202.53125 48.933594 203.015625 55.753906 207.480469 59.628906 L 209.871094 61.703125 L 204.597656 67.785156 C 187.546875 54.875 167.152344 46.171875 144.945313 43.160156 L 144.945313 31.667969 L 146.800781 31.667969 C 155.507813 31.667969 162.632813 24.542969 162.632813 15.835938 C 162.632813 7.128906 155.507813 0.00390625 146.800781 0.00390625 L 105.539063 0.00390625 C 96.832031 0.00390625 89.707031 7.128906 89.707031 15.835938 C 89.707031 24.542969 96.832031 31.667969 105.539063 31.667969 L 105.8125 31.667969 L 105.8125 43.855469 C 89.433594 46.679688 74.125 52.605469 60.519531 61.035156 L 56.476563 55.355469 L 56.929688 54.203125 C 61.570313 50.539063 62.367188 43.746094 58.703125 39.109375 C 55.039063 34.472656 48.246094 33.675781 43.609375 37.335938 L 21.632813 54.699219 C 16.992188 58.359375 16.195313 65.152344 19.859375 69.792969 C 23.523438 74.429688 30.316406 75.226563 34.953125 71.5625 L 36.644531 70.226563 L 40.808594 76.078125 C 15.71875 99.386719 0 132.648438 0 169.59375 C 0 240.085938 57.144531 297.230469 127.636719 297.230469 C 198.125 297.230469 255.269531 240.085938 255.269531 169.59375 C 255.269531 136.03125 242.296875 105.515625 221.117188 82.730469 "/>
</g>
<path style=" stroke:none;fill-rule:nonzero;fill:rgb(100%,100%,100%);fill-opacity:1;" d="M 91.078125 165.570313 C 87.90625 165.570313 85.335938 163 85.335938 159.828125 C 85.335938 153.058594 79.824219 147.546875 73.050781 147.546875 C 66.28125 147.546875 60.769531 153.058594 60.769531 159.828125 C 60.769531 163 58.199219 165.570313 55.027344 165.570313 C 51.855469 165.570313 49.285156 163 49.285156 159.828125 C 49.285156 146.726563 59.949219 136.066406 73.050781 136.066406 C 86.15625 136.066406 96.820313 146.726563 96.820313 159.828125 C 96.820313 163 94.25 165.570313 91.078125 165.570313 "/>
<path style=" stroke:none;fill-rule:nonzero;fill:rgb(100%,100%,100%);fill-opacity:1;" d="M 198.183594 165.570313 C 195.015625 165.570313 192.441406 163 192.441406 159.828125 C 192.441406 153.058594 186.933594 147.546875 180.15625 147.546875 C 173.386719 147.546875 167.875 153.058594 167.875 159.828125 C 167.875 163 165.304688 165.570313 162.132813 165.570313 C 158.960938 165.570313 156.390625 163 156.390625 159.828125 C 156.390625 146.726563 167.054688 136.066406 180.15625 136.066406 C 193.265625 136.066406 203.925781 146.726563 203.925781 159.828125 C 203.925781 163 201.355469 165.570313 198.183594 165.570313 "/>
<path style=" stroke:none;fill-rule:nonzero;fill:rgb(100%,100%,100%);fill-opacity:1;" d="M 151.066406 204.070313 L 131.066406 161.171875 C 131.113281 160.863281 131.160156 160.550781 131.160156 160.230469 L 131.160156 125.542969 C 131.160156 122.21875 128.464844 119.523438 125.140625 119.523438 C 121.816406 119.523438 119.121094 122.21875 119.121094 125.542969 L 119.121094 160.230469 C 119.121094 160.671875 119.175781 161.097656 119.265625 161.507813 C 119.011719 162.730469 119.121094 164.035156 119.6875 165.253906 L 140.152344 209.15625 C 141.558594 212.171875 145.140625 213.472656 148.152344 212.070313 C 151.164063 210.667969 152.46875 207.085938 151.066406 204.070313 "/>
</g>
</svg>
