<svg width="14" height="14" viewBox="0 0 14 14" fill="none" xmlns="http://www.w3.org/2000/svg">
<path fill-rule="evenodd" clip-rule="evenodd" d="M6.66667 0C10.3487 0 13.3333 2.98467 13.3333 6.66667C13.3333 10.3487 10.3487 13.3333 6.66667 13.3333C2.98467 13.3333 0 10.3487 0 6.66667C0 2.98467 2.98467 0 6.66667 0ZM6.66667 1.33333C3.72133 1.33333 1.33333 3.72133 1.33333 6.66667C1.33333 9.612 3.72133 12 6.66667 12C9.612 12 12 9.612 12 6.66667C12 3.72133 9.612 1.33333 6.66667 1.33333ZM9.73067 3.60267C9.86667 3.73867 9.884 3.95333 9.77267 4.10933C8.31933 6.14 7.51933 7.228 7.374 7.374C6.98333 7.764 6.35 7.764 5.95933 7.374C5.56933 6.98333 5.56933 6.35 5.95933 5.95933C6.20867 5.71067 7.296 4.91 9.222 3.558C9.38 3.44733 9.59467 3.466 9.73067 3.60267ZM10.3333 6C10.7013 6 11 6.29867 11 6.66667C11 7.03467 10.7013 7.33333 10.3333 7.33333C9.96533 7.33333 9.66667 7.03467 9.66667 6.66667C9.66667 6.29867 9.96533 6 10.3333 6ZM3 6C3.368 6 3.66667 6.29867 3.66667 6.66667C3.66667 7.03467 3.368 7.33333 3 7.33333C2.632 7.33333 2.33333 7.03467 2.33333 6.66667C2.33333 6.29867 2.632 6 3 6ZM4.54533 3.60267C4.80533 3.86267 4.80533 4.28467 4.54533 4.54533C4.28533 4.80533 3.86267 4.80533 3.60267 4.54533C3.34267 4.28533 3.34267 3.86267 3.60267 3.60267C3.86267 3.34267 4.28467 3.34267 4.54533 3.60267ZM6.66667 2.33333C7.03467 2.33333 7.33333 2.632 7.33333 3C7.33333 3.368 7.03467 3.66667 6.66667 3.66667C6.29867 3.66667 6 3.368 6 3C6 2.632 6.29867 2.33333 6.66667 2.33333Z" fill="currentColor"/>
</svg>
