<svg width="64" height="64" viewBox="0 0 64 64" fill="none" xmlns="http://www.w3.org/2000/svg">
<g clip-path="url(#clip0)">
<path fill-rule="evenodd" clip-rule="evenodd" d="M31.2572 0.143047C31.734 -0.0476822 32.266 -0.0476822 32.7428 0.143047L62.7428 12.143C63.5021 12.4468 64 13.1822 64 14C64 14.8178 63.5021 15.5532 62.7428 15.857L32.7428 27.857C32.266 28.0477 31.734 28.0477 31.2572 27.857L1.25722 15.857C0.497902 15.5532 0 14.8178 0 14C0 13.1822 0.497902 12.4468 1.25722 12.143L31.2572 0.143047ZM7.38516 14L32 23.8459L56.6148 14L32 4.15407L7.38516 14Z" />
<path fill-rule="evenodd" clip-rule="evenodd" d="M0.878742 12.3439C1.42829 11.9718 2.1266 11.8966 2.74278 12.1431L32.7428 24.1431C33.5021 24.4468 34 25.1822 34 26V62C34 62.6637 33.6708 63.2841 33.1213 63.6561C32.5717 64.0282 31.8734 64.1034 31.2572 63.857L1.25722 51.857C0.497902 51.5532 0 50.8178 0 50V14C0 13.3364 0.329198 12.7159 0.878742 12.3439ZM4 16.9541V48.6459L30 59.0459V27.3541L4 16.9541Z" />
<path fill-rule="evenodd" clip-rule="evenodd" d="M63.1213 12.3439C63.6708 12.7159 64 13.3364 64 14V50C64 50.8178 63.5021 51.5532 62.7428 51.857L32.7428 63.857C32.1266 64.1034 31.4283 64.0282 30.8787 63.6561C30.3292 63.2841 30 62.6637 30 62V26C30 25.1822 30.4979 24.4468 31.2572 24.1431L61.2572 12.1431C61.8734 11.8966 62.5717 11.9718 63.1213 12.3439ZM34 27.3541V59.0459L60 48.6459V16.9541L34 27.3541Z" />
<path fill-rule="evenodd" clip-rule="evenodd" d="M16.6417 6.65716C17.052 5.6316 18.2159 5.13277 19.2415 5.54299L49.2415 17.543C50.267 17.9532 50.7659 19.1172 50.3557 20.1427C49.9454 21.1683 48.7815 21.6671 47.7559 21.2569L17.7559 9.2569C16.7304 8.84667 16.2315 7.68273 16.6417 6.65716Z" />
<path fill-rule="evenodd" clip-rule="evenodd" d="M56.857 43.2573C57.2672 44.2828 56.7684 45.4468 55.7428 45.857L50.7428 47.857C49.7173 48.2672 48.5533 47.7684 48.1431 46.7428C47.7329 45.7173 48.2317 44.5533 49.2573 44.1431L54.2573 42.1431C55.2828 41.7329 56.4468 42.2317 56.857 43.2573Z" />
</g>
<defs>
<clipPath id="clip0">
<path d="M0 0H64V64H0V0Z" fill="white"/>
</clipPath>
</defs>
</svg>
