<svg xmlns="http://www.w3.org/2000/svg" viewBox="0 0 100 100">
  <defs>
    <style>
      .a {
        fill: #c7f0ff;
      }

      .b, .j {
        fill: #e8f4fa;
      }

      .c, .o {
        fill: none;
      }

      .c, .e, .f, .j, .k, .q {
        stroke: #45413c;
      }

      .c, .e, .f, .j, .k, .o, .p, .q {
        stroke-linecap: round;
        stroke-linejoin: round;
      }

      .d {
        fill: #45413c;
        opacity: 0.15;
      }

      .e {
        fill: #f0f0f0;
      }

      .f {
        fill: #fff;
      }

      .g {
        fill: #656769;
      }

      .h {
        fill: #daedf7;
      }

      .i, .k {
        fill: #c0dceb;
      }

      .l {
        fill: #00c798;
      }

      .m {
        fill: #009fd9;
      }

      .n {
        fill: #00b8f0;
      }

      .o {
        stroke: #4acfff;
      }

      .p {
        fill: #e5fff9;
        stroke: #00658a;
      }

      .q {
        fill: #adc4d9;
      }
    </style>
  </defs>
  <title>machine-learning-2--robot-developer-working-PROGRAMMING-CODER-SOFTWARE-AI-ML-MACHINE-LEARNING-LAPTOP</title>
  <g>
    <g>
      <path class="a" d="M90,54.676a40,40,0,1,0-76.436,16.5H86.436A39.829,39.829,0,0,0,90,54.676Z"/>
      <path class="b" d="M13.564,71.176a40,40,0,0,0,72.872,0Z"/>
      <g>
        <line class="c" x1="11" y1="71.176" x2="89" y2="71.176"/>
        <line class="c" x1="6.5" y1="71.176" x2="9" y2="71.176"/>
        <line class="c" x1="91" y1="71.176" x2="93.5" y2="71.176"/>
      </g>
    </g>
    <g>
      <ellipse class="d" cx="56.613" cy="79.503" rx="25.87" ry="2.324"/>
      <g>
        <g>
          <path class="e" d="M25.778,71.186H39.812a10.318,10.318,0,0,0,2.7-4.105,2.575,2.575,0,0,0-2.427-3.434H25.51a2.574,2.574,0,0,0-2.428,3.433A10.3,10.3,0,0,0,25.778,71.186Z"/>
          <g>
            <rect class="f" x="34.977" y="47.579" width="19.312" height="5.15" transform="translate(-16.021 78.941) rotate(-73.723)"/>
            <path class="f" d="M43.009,46.79h5.15a3.862,3.862,0,0,0,3.862-3.862V41.64a3.862,3.862,0,0,0-3.862-3.862H45.584a2.575,2.575,0,0,0-2.575,2.575Z"/>
            <rect class="f" x="46.483" y="56.749" width="5.15" height="14.208" transform="translate(-29.047 83.436) rotate(-66.54)"/>
            <g>
              <path class="g" d="M66.175,74.255a.642.642,0,0,1-.315.9A6.759,6.759,0,1,1,68.8,65.065a.645.645,0,0,1-.218.932l-1.707.937a.644.644,0,0,1-.819-.171,3.541,3.541,0,1,0-1.6,5.49.642.642,0,0,1,.783.3Z"/>
              <path class="c" d="M66.175,74.255a.642.642,0,0,1-.315.9A6.759,6.759,0,1,1,68.8,65.065a.645.645,0,0,1-.218.932l-1.707.937a.644.644,0,0,1-.819-.171,3.541,3.541,0,1,0-1.6,5.49.642.642,0,0,1,.783.3Z"/>
            </g>
            <circle class="e" cx="57.087" cy="67.769" r="3.862"/>
            <circle class="f" cx="42.451" cy="60.665" r="3.862"/>
          </g>
          <rect class="h" x="30.135" y="33.519" width="5.15" height="4.259"/>
          <rect class="i" x="30.135" y="33.519" width="5.15" height="1.684"/>
          <rect class="c" x="30.135" y="33.519" width="5.15" height="4.259"/>
          <rect class="f" x="22.41" y="37.778" width="20.599" height="19.312" rx="3.862"/>
          <rect class="h" x="28.848" y="57.09" width="7.725" height="6.557"/>
          <rect class="i" x="28.848" y="57.09" width="7.725" height="2.695"/>
          <rect class="c" x="28.848" y="57.09" width="7.725" height="6.557"/>
          <path class="i" d="M37.86,46.79a2.575,2.575,0,0,1-2.575,2.575h-5.15A2.575,2.575,0,0,1,27.56,46.79V37.778h10.3Z"/>
          <path class="j" d="M37.86,46.79a2.575,2.575,0,0,1-2.575,2.575h-5.15A2.575,2.575,0,0,1,27.56,46.79V37.778h10.3Z"/>
          <g>
            <rect class="f" x="7.159" y="46.545" width="19.312" height="5.15" transform="translate(-34.507 56.966) rotate(-79.795)"/>
            <path class="f" d="M22.41,46.79H17.261A3.863,3.863,0,0,1,13.4,42.928V41.64a3.863,3.863,0,0,1,3.863-3.862h2.575a2.574,2.574,0,0,1,2.574,2.575Z"/>
            <rect class="e" x="19.963" y="55.498" width="5.15" height="14.208" transform="translate(-43.997 62.219) rotate(-69.871)"/>
            <g>
              <path class="g" d="M40.231,71.991a.645.645,0,0,1-.263.921,6.759,6.759,0,1,1,2.346-10.248.645.645,0,0,1-.164.944L40.5,64.642a.642.642,0,0,1-.828-.123A3.541,3.541,0,1,0,38.4,70.093a.642.642,0,0,1,.8.249Z"/>
              <path class="k" d="M40.231,71.991a.645.645,0,0,1-.263.921,6.759,6.759,0,1,1,2.346-10.248.645.645,0,0,1-.164.944L40.5,64.642a.642.642,0,0,1-.828-.123A3.541,3.541,0,1,0,38.4,70.093a.642.642,0,0,1,.8.249Z"/>
            </g>
            <circle class="f" cx="30.781" cy="66.045" r="3.862"/>
            <circle class="f" cx="15.757" cy="59.803" r="3.862"/>
          </g>
          <g>
            <path class="f" d="M25.827,33.519H19.318a4,4,0,0,1-4-4V9.324a4,4,0,0,1,4-4h6.509Z"/>
            <g>
              <rect class="l" x="20.268" y="5.325" width="31.483" height="28.194" rx="4.4"/>
              <rect class="m" x="20.268" y="5.325" width="31.483" height="28.194" rx="4.4"/>
              <path class="n" d="M50.672,6.837a4.392,4.392,0,0,0-3.32-1.512H24.669a4.4,4.4,0,0,0-4.4,4.4v19.4a4.4,4.4,0,0,0,3.768,4.354Z"/>
              <rect class="c" x="20.268" y="5.325" width="31.483" height="28.194" rx="4.4"/>
              <path class="o" d="M24.668,30.768a1.652,1.652,0,0,1-1.65-1.65V9.724a1.652,1.652,0,0,1,1.65-1.65H47.352A1.652,1.652,0,0,1,49,9.725V29.119a1.652,1.652,0,0,1-1.65,1.65H24.668Z"/>
            </g>
            <path class="p" d="M33.08,22.731a1.377,1.377,0,0,1-1.375-1.375c0-.929-.312-1.92-1.188-1.92s-1.188.991-1.188,1.92a1.375,1.375,0,0,1-2.75,0c0-3.209,2.041-4.67,3.938-4.67s3.938,1.461,3.938,4.67A1.376,1.376,0,0,1,33.08,22.731Z"/>
            <path class="p" d="M44.334,22.731a1.376,1.376,0,0,1-1.375-1.375c0-.929-.313-1.92-1.188-1.92s-1.188.991-1.188,1.92a1.375,1.375,0,0,1-2.75,0c0-3.209,2.041-4.67,3.938-4.67s3.938,1.461,3.938,4.67A1.377,1.377,0,0,1,44.334,22.731Z"/>
          </g>
        </g>
        <g>
          <path class="j" d="M49.176,74.7H45.618l7.6-23.559a1.59,1.59,0,0,1,1.513-1.1h2.4Z"/>
          <path class="i" d="M80.2,74.7H49.176l7.955-24.662h28.84a1.592,1.592,0,0,1,1.515,2.079Z"/>
          <path class="h" d="M57.131,50.038h28.84a1.592,1.592,0,0,1,1.515,2.079l-.956,2.965H55.505Z"/>
          <path class="q" d="M80.2,74.7H47.585v3.978H77.02A3.183,3.183,0,0,0,80.2,75.5Z"/>
          <path class="j" d="M47.585,74.7h-14.4a.8.8,0,0,0-.8.8,3.182,3.182,0,0,0,3.182,3.183H47.585Z"/>
          <g>
            <path class="e" d="M71.2,61.491A1.765,1.765,0,0,1,72.042,60a1.829,1.829,0,0,0-1.429-.774c-.609-.062-1.187.358-1.5.358s-.785-.349-1.29-.341a1.916,1.916,0,0,0-1.618.981,4.07,4.07,0,0,0,.5,3.938c.328.474.72,1.008,1.234.989.5-.021.682-.321,1.28-.321s.766.321,1.29.31.87-.483,1.2-.959a4.264,4.264,0,0,0,.541-1.112A1.723,1.723,0,0,1,71.2,61.491Z"/>
            <line class="c" x1="69.859" y1="57.198" x2="70.577" y2="56.481"/>
          </g>
          <path class="c" d="M80.2,74.7H49.176l7.955-24.662h28.84a1.592,1.592,0,0,1,1.515,2.079Z"/>
        </g>
      </g>
    </g>
  </g>
</svg>
