<svg width="64" height="64" viewBox="0 0 64 64" fill="none" xmlns="http://www.w3.org/2000/svg">
<path fill-rule="evenodd" clip-rule="evenodd" d="M6.34315 10.3431C7.84344 8.84286 9.87827 8 12 8C14.1217 8 16.1566 8.84286 17.6569 10.3431C19.1571 11.8434 20 13.8783 20 16C20 18.1217 19.1571 20.1566 17.6569 21.6569C16.1566 23.1571 14.1217 24 12 24C9.87827 24 7.84344 23.1571 6.34315 21.6569C4.84285 20.1566 4 18.1217 4 16C4 13.8783 4.84285 11.8434 6.34315 10.3431ZM12 12C10.9391 12 9.92172 12.4214 9.17157 13.1716C8.42143 13.9217 8 14.9391 8 16C8 17.0609 8.42143 18.0783 9.17157 18.8284C9.92172 19.5786 10.9391 20 12 20C13.0609 20 14.0783 19.5786 14.8284 18.8284C15.5786 18.0783 16 17.0609 16 16C16 14.9391 15.5786 13.9217 14.8284 13.1716C14.0783 12.4214 13.0609 12 12 12Z" />
<path fill-rule="evenodd" clip-rule="evenodd" d="M3.51472 27.5147C5.76516 25.2643 8.8174 24 12 24C13.1046 24 14 24.8954 14 26C14 27.1046 13.1046 28 12 28C9.87827 28 7.84344 28.8429 6.34315 30.3431C4.84285 31.8434 4 33.8783 4 36V40H6C7.00865 40 7.85945 40.7511 7.98456 41.7519L9.76556 56H16C17.1046 56 18 56.8954 18 58C18 59.1046 17.1046 60 16 60H8C6.99135 60 6.14055 59.2489 6.01544 58.2481L4.23444 44H2C0.89543 44 0 43.1046 0 42V36C0 32.8174 1.26428 29.7652 3.51472 27.5147Z" />
<path fill-rule="evenodd" clip-rule="evenodd" d="M46.3431 10.3431C47.8434 8.84286 49.8783 8 52 8C54.1217 8 56.1566 8.84286 57.6569 10.3431C59.1571 11.8434 60 13.8783 60 16C60 18.1217 59.1571 20.1566 57.6569 21.6569C56.1566 23.1571 54.1217 24 52 24C49.8783 24 47.8434 23.1571 46.3431 21.6569C44.8429 20.1566 44 18.1217 44 16C44 13.8783 44.8429 11.8434 46.3431 10.3431ZM52 12C50.9391 12 49.9217 12.4214 49.1716 13.1716C48.4214 13.9217 48 14.9391 48 16C48 17.0609 48.4214 18.0783 49.1716 18.8284C49.9217 19.5786 50.9391 20 52 20C53.0609 20 54.0783 19.5786 54.8284 18.8284C55.5786 18.0783 56 17.0609 56 16C56 14.9391 55.5786 13.9217 54.8284 13.1716C54.0783 12.4214 53.0609 12 52 12Z" />
<path fill-rule="evenodd" clip-rule="evenodd" d="M50 26C50 24.8954 50.8954 24 52 24C55.1826 24 58.2348 25.2643 60.4853 27.5147C62.7357 29.7652 64 32.8174 64 36V42C64 43.1046 63.1046 44 62 44H59.7656L57.9846 58.2481C57.8594 59.2489 57.0086 60 56 60H48C46.8954 60 46 59.1046 46 58C46 56.8954 46.8954 56 48 56H54.2344L56.0154 41.7519C56.1406 40.7511 56.9914 40 58 40H60V36C60 33.8783 59.1571 31.8434 57.6569 30.3431C56.1566 28.8429 54.1217 28 52 28C50.8954 28 50 27.1046 50 26Z" />
<path fill-rule="evenodd" clip-rule="evenodd" d="M24.9289 2.92893C26.8043 1.05357 29.3478 0 32 0C34.6522 0 37.1957 1.05357 39.0711 2.92893C40.9464 4.8043 42 7.34784 42 10C42 12.6522 40.9464 15.1957 39.0711 17.0711C37.1957 18.9464 34.6522 20 32 20C29.3478 20 26.8043 18.9464 24.9289 17.0711C23.0536 15.1957 22 12.6522 22 10C22 7.34784 23.0536 4.8043 24.9289 2.92893ZM32 4C30.4087 4 28.8826 4.63214 27.7574 5.75736C26.6321 6.88258 26 8.4087 26 10C26 11.5913 26.6321 13.1174 27.7574 14.2426C28.8826 15.3679 30.4087 16 32 16C33.5913 16 35.1174 15.3679 36.2426 14.2426C37.3679 13.1174 38 11.5913 38 10C38 8.4087 37.3679 6.88258 36.2426 5.75736C35.1174 4.63214 33.5913 4 32 4Z" />
<path fill-rule="evenodd" clip-rule="evenodd" d="M20.6863 24.6863C23.6869 21.6857 27.7565 20 32 20C36.2435 20 40.3131 21.6857 43.3137 24.6863C46.3143 27.6869 48 31.7565 48 36V42C48 43.1046 47.1046 44 46 44H41.81L39.9901 62.199C39.8878 63.2214 39.0275 64 38 64H26C24.9725 64 24.1122 63.2214 24.0099 62.199L22.19 44H18C16.8954 44 16 43.1046 16 42V36C16 31.7565 17.6857 27.6869 20.6863 24.6863ZM32 24C28.8174 24 25.7652 25.2643 23.5147 27.5147C21.2643 29.7652 20 32.8174 20 36V40H24C25.0275 40 25.8878 40.7786 25.9901 41.801L27.81 60H36.19L38.0099 41.801C38.1122 40.7786 38.9725 40 40 40H44V36C44 32.8174 42.7357 29.7652 40.4853 27.5147C38.2348 25.2643 35.1826 24 32 24Z" />
</svg>
