<svg width="20" height="21" viewBox="-1 -1 22 23" fill="none" xmlns="http://www.w3.org/2000/svg">
<path d="M15.6947 18.7895L17.6842 20.4474V21H2.21053V20.4474L4.2 18.7895H2.21053C1.62426 18.7895 1.062 18.5566 0.647448 18.142C0.232894 17.7275 0 17.1652 0 16.5789V4.42105C0 3.24852 0.465788 2.124 1.2949 1.2949C2.124 0.465788 3.24852 0 4.42105 0H15.4737C16.6462 0 17.7707 0.465788 18.5998 1.2949C19.4289 2.124 19.8947 3.24852 19.8947 4.42105V16.5789C19.8947 17.1652 19.6618 17.7275 19.2473 18.142C18.8327 18.5566 18.2705 18.7895 17.6842 18.7895H15.6947ZM2.21053 4.42105V8.8421H17.6842V4.42105H2.21053ZM9.94737 16.5789C10.5336 16.5789 11.0959 16.3461 11.5104 15.9315C11.925 15.5169 12.1579 14.9547 12.1579 14.3684C12.1579 13.7822 11.925 13.2199 11.5104 12.8053C11.0959 12.3908 10.5336 12.1579 9.94737 12.1579C9.3611 12.1579 8.79884 12.3908 8.38429 12.8053C7.96974 13.2199 7.73684 13.7822 7.73684 14.3684C7.73684 14.9547 7.96974 15.5169 8.38429 15.9315C8.79884 16.3461 9.3611 16.5789 9.94737 16.5789Z" fill="white"/>
</svg>
