<svg width="64" height="64" viewBox="0 0 64 64" fill="none" xmlns="http://www.w3.org/2000/svg">
<path fill-rule="evenodd" clip-rule="evenodd" d="M52.2426 47.7574C51.1174 46.6321 49.5913 46 48 46C46.4087 46 44.8826 46.6321 43.7574 47.7574C42.6321 48.8826 42 50.4087 42 52C42 53.5913 42.6321 55.1174 43.7574 56.2426C44.8826 57.3679 46.4087 58 48 58C49.5913 58 51.1174 57.3679 52.2426 56.2426C53.3679 55.1174 54 53.5913 54 52C54 50.4087 53.3679 48.8826 52.2426 47.7574ZM48 50C48.5304 50 49.0391 50.2107 49.4142 50.5858C49.7893 50.9609 50 51.4696 50 52C50 52.5304 49.7893 53.0391 49.4142 53.4142C49.0391 53.7893 48.5304 54 48 54C47.4696 54 46.9609 53.7893 46.5858 53.4142C46.2107 53.0391 46 52.5304 46 52C46 51.4696 46.2107 50.9609 46.5858 50.5858C46.9609 50.2107 47.4696 50 48 50Z" />
<path fill-rule="evenodd" clip-rule="evenodd" d="M18.2426 47.7574C17.1174 46.6321 15.5913 46 14 46C12.4087 46 10.8826 46.6321 9.75736 47.7574C8.63215 48.8826 8 50.4087 8 52C8 53.5913 8.63215 55.1174 9.75736 56.2426C10.8826 57.3679 12.4087 58 14 58C15.5913 58 17.1174 57.3679 18.2426 56.2426C19.3679 55.1174 20 53.5913 20 52C20 50.4087 19.3679 48.8826 18.2426 47.7574ZM14 50C14.5304 50 15.0391 50.2107 15.4142 50.5858C15.7893 50.9609 16 51.4696 16 52C16 52.5304 15.7893 53.0391 15.4142 53.4142C15.0391 53.7893 14.5304 54 14 54C13.4696 54 12.9609 53.7893 12.5858 53.4142C12.2107 53.0391 12 52.5304 12 52C12 51.4696 12.2107 50.9609 12.5858 50.5858C12.9609 50.2107 13.4696 50 14 50Z" />
<path fill-rule="evenodd" clip-rule="evenodd" d="M38 40C38 38.8954 37.1046 38 36 38H2C0.895428 38 0 38.8954 0 40V48C0 49.5913 0.632145 51.1174 1.75736 52.2426C2.88258 53.3679 4.4087 54 6 54H10C11.1046 54 12 53.1046 12 52C12 50.8954 11.1046 50 10 50H6C5.46957 50 4.96086 49.7893 4.58578 49.4142C4.21071 49.0391 4 48.5304 4 48V42H36C37.1046 42 38 41.1046 38 40Z" />
<path fill-rule="evenodd" clip-rule="evenodd" d="M38 52C38 50.8954 37.1046 50 36 50H18C16.8954 50 16 50.8954 16 52C16 53.1046 16.8954 54 18 54H36C37.1046 54 38 53.1046 38 52Z" />
<path fill-rule="evenodd" clip-rule="evenodd" d="M64 44C64 42.8954 63.1046 42 62 42H56.7813C55.6768 42 54.7813 42.8954 54.7813 44C54.7813 45.1046 55.6768 46 56.7813 46H62C63.1046 46 64 45.1046 64 44Z" />
<path fill-rule="evenodd" clip-rule="evenodd" d="M51.9799 15.7172C51.8391 14.7319 50.9953 14 50 14H36C34.8954 14 34 14.8954 34 16V52C34 53.1046 34.8954 54 36 54H44C45.1046 54 46 53.1046 46 52C46 50.8954 45.1046 50 44 50H38V18H48.2654L50.0201 30.2828C50.1213 30.991 50.5929 31.5912 51.2571 31.8569L58.7424 34.8516C59.1134 34.9999 59.4317 35.2561 59.6558 35.5869C59.8798 35.9176 59.9997 36.3078 60 36.7073V48C60 48.5304 59.7893 49.0391 59.4142 49.4142C59.0391 49.7893 58.5304 50 58 50H52C50.8954 50 50 50.8954 50 52C50 53.1046 50.8954 54 52 54H58C59.5913 54 61.1174 53.3679 62.2426 52.2426C63.3679 51.1174 64 49.5913 64 48V36.7067C63.9994 35.508 63.6398 34.3359 62.9675 33.3435C62.2952 32.3511 61.3411 31.5829 60.2282 31.1378C60.2282 31.1377 60.2283 31.1378 60.2282 31.1378L53.8164 28.5726L51.9799 15.7172Z" />
<path fill-rule="evenodd" clip-rule="evenodd" d="M54 30C54 28.8954 53.1046 28 52 28H36C34.8954 28 34 28.8954 34 30C34 31.1046 34.8954 32 36 32H52C53.1046 32 54 31.1046 54 30Z" />
<path fill-rule="evenodd" clip-rule="evenodd" d="M38 8C38 6.89543 37.1046 6 36 6H4.66666C3.42899 6 2.242 6.49166 1.36683 7.36683C0.491661 8.24201 0 9.42899 0 10.6667V40C0 41.1046 0.895428 42 2 42H36C37.1046 42 38 41.1046 38 40V8ZM34 10V38H4V10.6667C4 10.4899 4.07024 10.3203 4.19526 10.1953C4.32028 10.0702 4.48985 10 4.66666 10H34Z" />
<path fill-rule="evenodd" clip-rule="evenodd" d="M51.3333 10C51.5101 10 51.6797 10.0702 51.8047 10.1953C51.9298 10.3203 52 10.4899 52 10.6667V14H38V10H51.3333ZM54.6332 7.36683C53.758 6.49167 52.571 6 51.3333 6H36C34.8954 6 34 6.89543 34 8V16C34 17.1046 34.8954 18 36 18H54C55.1046 18 56 17.1046 56 16V10.6667C56 9.42899 55.5083 8.242 54.6332 7.36683Z" />
</svg>
