<?xml version="1.0" encoding="UTF-8"?>
<svg xmlns="http://www.w3.org/2000/svg" xmlns:xlink="http://www.w3.org/1999/xlink" width="246.14pt" height="157.79pt" viewBox="0 0 246.14 157.79" version="1.1">
<g id="surface1">
<g clip-rule="nonzero">
<path style=" stroke:none;fill-rule:nonzero;" d="M 51.332031 147.171875 C 60 147.316406 67.488281 140.273438 67.679688 131.785156 C 67.890625 122.621094 60.839844 115.011719 51.898438 114.757813 C 42.867188 114.5 35.347656 121.753906 35.230469 130.839844 C 35.117188 139.769531 42.265625 147.023438 51.332031 147.171875 M 72.601563 0.0117188 C 92.492188 0.0117188 112.382813 0.03125 132.269531 -0.00390625 C 137.15625 -0.0117188 141.457031 1.199219 143.78125 5.847656 C 144.761719 7.816406 145.363281 10.203125 145.367188 12.398438 C 145.460938 51.476563 145.4375 90.550781 145.433594 129.625 C 145.433594 132.832031 144.554688 133.632813 141.054688 133.632813 C 121.011719 133.644531 100.96875 133.671875 80.925781 133.597656 C 78.894531 133.589844 78.136719 134.058594 77.703125 136.207031 C 75.191406 148.652344 64.390625 158.234375 50.699219 157.773438 C 38.207031 157.355469 27.394531 148.320313 25.195313 135.738281 C 24.890625 133.988281 24.15625 133.574219 22.507813 133.605469 C 18.472656 133.679688 14.425781 133.707031 10.398438 133.484375 C 4.832031 133.175781 0.671875 128.988281 0.0898438 123.398438 C 0.0117188 122.644531 0.00390625 121.878906 0.00390625 121.117188 C 0 85.011719 -0.00390625 48.90625 0.00390625 12.804688 C 0.0078125 6.296875 2.542969 2.34375 7.976563 0.671875 C 9.617188 0.167969 11.425781 0.0390625 13.15625 0.0351563 C 32.972656 -0.00390625 52.785156 0.0117188 72.601563 0.0117188 "/>
</g>
<g clip-rule="nonzero">
<path style=" stroke:none;fill-rule:nonzero;" d="M 198.105469 147.179688 C 206.796875 147.289063 214.1875 140.238281 214.320313 131.707031 C 214.464844 122.433594 207.488281 114.953125 198.511719 114.757813 C 189.46875 114.5625 182.007813 121.824219 181.917969 130.90625 C 181.828125 139.804688 189.054688 147.066406 198.105469 147.179688 M 171.34375 133.792969 C 167.125 133.792969 162.945313 133.808594 158.765625 133.785156 C 155.8125 133.769531 154.890625 132.910156 154.886719 129.988281 C 154.871094 99.375 154.867188 68.761719 154.886719 38.148438 C 154.886719 35.195313 155.804688 34.300781 158.730469 34.300781 C 171.605469 34.285156 184.484375 34.371094 197.359375 34.269531 C 203.234375 34.21875 207.765625 36.585938 211.445313 40.992188 C 221.738281 53.332031 232.058594 65.648438 242.382813 77.960938 C 244.71875 80.746094 246.085938 83.914063 246.09375 87.554688 C 246.132813 98.976563 246.191406 110.402344 246.074219 121.820313 C 246 129.269531 241.210938 133.78125 233.753906 133.792969 C 231.542969 133.796875 229.328125 133.867188 227.125 133.769531 C 225.539063 133.699219 224.828125 134.007813 224.480469 135.863281 C 222.238281 147.890625 212.207031 156.992188 200.714844 157.683594 C 187.789063 158.457031 176.691406 151.296875 172.824219 139.621094 C 172.230469 137.824219 171.882813 135.945313 171.34375 133.792969 "/>
</g>
</g>
</svg>
