<svg width="64" height="64" viewBox="0 0 64 64" fill="none" xmlns="http://www.w3.org/2000/svg">
<path fill-rule="evenodd" clip-rule="evenodd" d="M24.9289 2.92893C26.8043 1.05357 29.3478 0 32 0C34.6522 0 37.1957 1.05357 39.0711 2.92893C40.9464 4.8043 42 7.34784 42 10C42 12.6522 40.9464 15.1957 39.0711 17.0711C37.1957 18.9464 34.6522 20 32 20C29.3478 20 26.8043 18.9464 24.9289 17.0711C23.0536 15.1957 22 12.6522 22 10C22 7.34784 23.0536 4.8043 24.9289 2.92893ZM32 4C30.4087 4 28.8826 4.63214 27.7574 5.75736C26.6321 6.88258 26 8.4087 26 10C26 11.5913 26.6321 13.1174 27.7574 14.2426C28.8826 15.3679 30.4087 16 32 16C33.5913 16 35.1174 15.3679 36.2426 14.2426C37.3679 13.1174 38 11.5913 38 10C38 8.4087 37.3679 6.88258 36.2426 5.75736C35.1174 4.63214 33.5913 4 32 4Z" />
<path fill-rule="evenodd" clip-rule="evenodd" d="M20.6863 24.6863C23.6869 21.6857 27.7565 20 32 20C36.2435 20 40.3131 21.6857 43.3137 24.6863C46.3143 27.6869 48 31.7565 48 36V42C48 43.1046 47.1046 44 46 44H41.81L39.9901 62.199C39.8878 63.2214 39.0275 64 38 64H26C24.9725 64 24.1122 63.2214 24.0099 62.199L22.19 44H18C16.8954 44 16 43.1046 16 42V36C16 31.7565 17.6857 27.6869 20.6863 24.6863ZM32 24C28.8174 24 25.7652 25.2643 23.5147 27.5147C21.2643 29.7652 20 32.8174 20 36V40H24C25.0275 40 25.8878 40.7786 25.9901 41.801L27.81 60H36.19L38.0099 41.801C38.1122 40.7786 38.9725 40 40 40H44V36C44 32.8174 42.7357 29.7652 40.4853 27.5147C38.2348 25.2643 35.1826 24 32 24Z" />
</svg>
