<svg width="64" height="64" viewBox="0 0 64 64" fill="none" xmlns="http://www.w3.org/2000/svg">
<path fill-rule="evenodd" clip-rule="evenodd" d="M44.4418 0.379891C47.9418 0.0135026 51.4703 0.720757 54.5587 2.40768C55.1116 2.70971 55.4899 3.25463 55.5796 3.87827C55.6693 4.5019 55.4598 5.13133 55.0144 5.57691L46.7573 13.8365V17.2429H50.1637L58.4266 8.98252C58.8723 8.53738 59.5016 8.32821 60.125 8.418C60.7485 8.50778 61.2932 8.88604 61.5952 9.43884C63.2821 12.5272 63.9894 16.0558 63.623 19.5557C63.2566 23.0556 61.8339 26.3612 59.5439 29.0333C57.254 31.7053 54.2052 33.6173 50.8026 34.5152C47.8183 35.3027 44.6858 35.2775 41.7273 34.4536L15.0144 61.1768C13.3978 62.7935 11.2049 63.702 8.91862 63.702C6.63235 63.702 4.43972 62.7938 2.82308 61.1771C1.20644 59.5605 0.298218 57.3679 0.298218 55.0816C0.298218 52.7953 1.20644 50.6027 2.82308 48.986L29.5439 22.2755C28.7201 19.3171 28.6948 16.1846 29.4823 13.2002C30.3802 9.79768 32.2922 6.74887 34.9643 4.45892C37.6363 2.16897 40.9419 0.74628 44.4418 0.379891ZM50.0853 4.8498C48.4014 4.34389 46.6251 4.17319 44.8583 4.35815C42.1658 4.64002 39.6228 5.73449 37.5672 7.49615C35.5116 9.25782 34.0407 11.6033 33.3499 14.2209C32.6592 16.8385 32.7812 19.6043 33.6999 22.1509C33.9631 22.8802 33.7809 23.6959 33.2326 24.2441L5.6515 51.8145C5.65141 51.8145 5.65159 51.8144 5.6515 51.8145C4.78518 52.6809 4.29822 53.8563 4.29822 55.0816C4.29822 56.307 4.78501 57.4822 5.6515 58.3487C6.518 59.2152 7.69322 59.702 8.91862 59.702C10.1439 59.702 11.319 59.2153 12.1855 58.349C12.1856 58.3489 12.1854 58.3491 12.1855 58.349L39.7588 30.765C40.307 30.2166 41.1227 30.0345 41.852 30.2976C44.3986 31.2163 47.1644 31.3384 49.782 30.6476C52.3996 29.9569 54.745 28.4859 56.5067 26.4303C58.2684 24.3747 59.3628 21.8317 59.6447 19.1392C59.8297 17.3724 59.659 15.5961 59.1531 13.9123L52.406 20.6573C52.0309 21.0323 51.5223 21.2429 50.992 21.2429H44.7573C43.6527 21.2429 42.7573 20.3475 42.7573 19.2429V13.0082C42.7573 12.4779 42.9679 11.9693 43.3429 11.5942L50.0853 4.8498Z" />
</svg>
