<?xml version="1.0" encoding="UTF-8"?>
<svg xmlns="http://www.w3.org/2000/svg" xmlns:xlink="http://www.w3.org/1999/xlink" width="221.89pt" height="258.36pt" viewBox="0 0 221.89 258.36" version="1.1">
<defs>
<clipPath id="clip1">
  <path d="M 0 0 L 221.890625 0 L 221.890625 258.359375 L 0 258.359375 Z M 0 0 "/>
</clipPath>
</defs>
<g id="surface1">
<g clip-path="url(#clip1)" clip-rule="nonzero">
<path style=" stroke:none;fill-rule:nonzero;fill:rgb(66.601563%,47.459412%,97.264099%);fill-opacity:1;" d="M 192.203125 71.910156 L 197.050781 66.320313 L 198.738281 67.78125 C 202.617188 71.148438 208.546875 70.726563 211.914063 66.847656 C 215.28125 62.96875 214.859375 57.035156 210.980469 53.671875 L 192.59375 37.71875 C 188.710938 34.347656 182.78125 34.769531 179.414063 38.652344 C 176.046875 42.53125 176.46875 48.464844 180.347656 51.828125 L 182.429688 53.632813 L 177.84375 58.917969 C 163.023438 47.695313 145.296875 40.132813 125.992188 37.515625 L 125.992188 27.527344 L 127.601563 27.527344 C 135.171875 27.527344 141.367188 21.332031 141.367188 13.765625 C 141.367188 6.195313 135.171875 0.00390625 127.601563 0.00390625 L 91.738281 0.00390625 C 84.167969 0.00390625 77.976563 6.195313 77.976563 13.765625 C 77.976563 21.332031 84.167969 27.527344 91.738281 27.527344 L 91.976563 27.527344 L 91.976563 38.117188 C 77.738281 40.574219 64.433594 45.722656 52.605469 53.054688 L 49.09375 48.113281 L 49.484375 47.113281 C 53.519531 43.929688 54.210938 38.023438 51.027344 33.992188 C 47.84375 29.960938 41.9375 29.269531 37.90625 32.453125 L 18.800781 47.542969 C 14.769531 50.726563 14.078125 56.632813 17.265625 60.664063 C 20.449219 64.695313 26.351563 65.386719 30.382813 62.203125 L 31.851563 61.042969 L 35.472656 66.128906 C 13.660156 86.386719 0 115.300781 0 147.414063 C 0 208.6875 49.671875 258.359375 110.945313 258.359375 C 172.21875 258.359375 221.890625 208.6875 221.890625 147.414063 C 221.890625 118.242188 210.613281 91.714844 192.203125 71.910156 "/>
</g>
<path style=" stroke:none;fill-rule:nonzero;fill:rgb(10.594177%,7.446289%,38.818359%);fill-opacity:1;" d="M 114.007813 109.121094 C 114.007813 106.234375 111.664063 103.890625 108.777344 103.890625 C 105.886719 103.890625 103.546875 106.234375 103.546875 109.121094 L 103.546875 138.859375 L 78.867188 170.742188 C 77.097656 173.027344 77.519531 176.3125 79.804688 178.082031 C 82.089844 179.851563 85.375 179.433594 87.144531 177.148438 L 112.914063 143.851563 C 113.820313 142.679688 114.144531 141.253906 113.949219 139.894531 C 113.972656 139.691406 114.007813 139.488281 114.007813 139.277344 "/>
<path style=" stroke:none;fill-rule:nonzero;fill:rgb(10.594177%,7.446289%,38.818359%);fill-opacity:1;" d="M 61.375 129.179688 C 61.375 123.644531 65.863281 119.15625 71.402344 119.15625 C 76.941406 119.15625 81.429688 123.644531 81.429688 129.179688 C 81.429688 134.71875 76.941406 139.207031 71.402344 139.207031 C 65.863281 139.207031 61.375 134.71875 61.375 129.179688 "/>
<path style=" stroke:none;fill-rule:nonzero;fill:rgb(10.594177%,7.446289%,38.818359%);fill-opacity:1;" d="M 138.074219 129.179688 C 138.074219 123.644531 142.5625 119.15625 148.097656 119.15625 C 153.636719 119.15625 158.125 123.644531 158.125 129.179688 C 158.125 134.71875 153.636719 139.207031 148.097656 139.207031 C 142.5625 139.207031 138.074219 134.71875 138.074219 129.179688 "/>
</g>
</svg>
