<svg xmlns="http://www.w3.org/2000/svg" viewBox="0 0 100 100">
  <defs>
    <style>
      .a {
        fill: #c7f0ff;
      }

      .b {
        fill: #adc4d9;
      }

      .c, .d, .p {
        fill: none;
      }

      .ab, .c, .e, .f, .g, .h, .k, .s, .v, .w, .y {
        stroke: #45413c;
      }

      .ab, .c, .d, .e, .f, .g, .h, .k, .p, .s, .v, .w, .y {
        stroke-linecap: round;
      }

      .ab, .c, .e, .f, .g, .h, .k, .p, .s, .v, .w, .y {
        stroke-linejoin: round;
      }

      .d {
        stroke: #e0e0e0;
        stroke-miterlimit: 10;
      }

      .e {
        fill: #e04122;
      }

      .f, .l {
        fill: #c0dceb;
      }

      .g {
        fill: #525252;
      }

      .h, .m {
        fill: #daedf7;
      }

      .i {
        fill: #fff48c;
      }

      .j {
        fill: #fffacf;
      }

      .k, .u {
        fill: #656769;
      }

      .n {
        fill: #00b8f0;
      }

      .o {
        fill: #4acfff;
      }

      .p {
        stroke: #ff8a14;
      }

      .q, .y {
        fill: #ff8a14;
      }

      .r, .z {
        fill: #45413c;
      }

      .r {
        opacity: 0.15;
      }

      .s {
        fill: #b89558;
      }

      .t {
        fill: #87898c;
      }

      .v {
        fill: #fff;
      }

      .w {
        fill: #d18660;
      }

      .x {
        fill: #ffaa54;
      }

      .aa {
        fill: #bd704a;
      }

      .ab, .ac {
        fill: #724f3d;
      }

      .ad {
        fill: #a86c4d;
      }
    </style>
  </defs>
  <title>truck-and-driver-3--transportation-truck-driver-TRUCKER-MOTORIST-COMMERCIAL-TRANSPORT-male</title>
  <g>
    <g>
      <g>
        <path class="a" d="M90,50A40,40,0,1,0,13.564,66.5H86.436A39.829,39.829,0,0,0,90,50Z"/>
        <path class="b" d="M13.564,66.5a40,40,0,0,0,72.872,0Z"/>
      </g>
      <g>
        <line class="c" x1="11" y1="66.5" x2="89" y2="66.5"/>
        <line class="c" x1="6.5" y1="66.5" x2="9" y2="66.5"/>
        <line class="c" x1="91" y1="66.5" x2="93.5" y2="66.5"/>
      </g>
      <g>
        <line class="d" x1="64" y1="77" x2="71.157" y2="77"/>
        <line class="d" x1="59.825" y1="77" x2="61.614" y2="77"/>
        <line class="d" x1="56.843" y1="77" x2="57.44" y2="77"/>
      </g>
      <g>
        <line class="d" x1="34.157" y1="73.5" x2="41.313" y2="73.5"/>
        <line class="d" x1="29.982" y1="73.5" x2="31.771" y2="73.5"/>
        <line class="d" x1="27" y1="73.5" x2="27.596" y2="73.5"/>
      </g>
      <g>
        <line class="d" x1="45.343" y1="84.5" x2="52.5" y2="84.5"/>
        <line class="d" x1="41.169" y1="84.5" x2="42.958" y2="84.5"/>
        <line class="d" x1="38.187" y1="84.5" x2="38.783" y2="84.5"/>
      </g>
    </g>
    <g>
      <line class="d" x1="64" y1="77" x2="71.157" y2="77"/>
      <line class="d" x1="59.825" y1="77" x2="61.614" y2="77"/>
      <line class="d" x1="56.843" y1="77" x2="57.44" y2="77"/>
    </g>
    <g>
      <line class="d" x1="34.157" y1="73.5" x2="41.313" y2="73.5"/>
      <line class="d" x1="29.982" y1="73.5" x2="31.771" y2="73.5"/>
      <line class="d" x1="27" y1="73.5" x2="27.596" y2="73.5"/>
    </g>
    <g>
      <line class="d" x1="45.343" y1="84.5" x2="52.5" y2="84.5"/>
      <line class="d" x1="41.169" y1="84.5" x2="42.958" y2="84.5"/>
      <line class="d" x1="38.187" y1="84.5" x2="38.783" y2="84.5"/>
    </g>
    <g>
      <g>
        <path class="e" d="M77.358,59.813h-22v-22a3.473,3.473,0,0,1,3.473-3.473H73.885a3.473,3.473,0,0,1,3.473,3.473Z"/>
        <path class="f" d="M55.363,33.187H53.627a.579.579,0,0,0-.579.579V59.813h2.315Z"/>
        <path class="c" d="M57.1,41.291H51.89a1.158,1.158,0,0,0-1.158,1.157v5.788a2.316,2.316,0,0,0,2.316,2.316H57.1"/>
        <path class="f" d="M50.732,48.236h0a1.157,1.157,0,0,0,1.158-1.157V43.606a1.158,1.158,0,0,0-1.158-1.158h0a1.158,1.158,0,0,0-1.157,1.158v3.473A1.157,1.157,0,0,0,50.732,48.236Z"/>
        <path class="f" d="M54.5,28.557h0a.868.868,0,0,1,.868.868v3.762H53.627V29.425A.868.868,0,0,1,54.5,28.557Z"/>
        <path class="f" d="M77.358,33.187h1.736a.579.579,0,0,1,.579.579V59.813H77.358Z"/>
        <path class="c" d="M75.621,41.291h5.21a1.157,1.157,0,0,1,1.157,1.157v5.788a2.315,2.315,0,0,1-2.315,2.316H75.621"/>
        <path class="f" d="M81.988,48.236h0a1.157,1.157,0,0,1-1.157-1.157V43.606a1.158,1.158,0,0,1,1.157-1.158h0a1.158,1.158,0,0,1,1.158,1.158v3.473A1.157,1.157,0,0,1,81.988,48.236Z"/>
        <rect class="g" x="52.469" y="60.97" width="4.631" height="8.103" rx="0.579"/>
        <rect class="g" x="75.621" y="60.97" width="4.631" height="8.103" rx="0.579"/>
        <path class="h" d="M79.673,59.813H53.048v3.473a1.157,1.157,0,0,0,1.157,1.157h24.31a1.157,1.157,0,0,0,1.158-1.157Z"/>
        <polygon class="e" points="55.652 48.236 55.363 59.813 77.358 59.813 77.068 48.236 55.652 48.236"/>
        <g>
          <rect class="i" x="53.048" y="55.182" width="6.946" height="4.631" rx="1.158"/>
          <rect class="i" x="72.727" y="55.182" width="6.946" height="4.631" rx="1.158"/>
          <path class="j" d="M53.965,59.764l4.581-4.582H54.205a1.158,1.158,0,0,0-1.157,1.158v2.315A1.141,1.141,0,0,0,53.965,59.764Z"/>
          <path class="j" d="M73.644,59.764l4.582-4.582H73.885a1.159,1.159,0,0,0-1.158,1.158v2.315A1.141,1.141,0,0,0,73.644,59.764Z"/>
          <g>
            <rect class="c" x="53.048" y="55.182" width="6.946" height="4.631" rx="1.158"/>
            <rect class="c" x="72.727" y="55.182" width="6.946" height="4.631" rx="1.158"/>
          </g>
        </g>
        <path class="h" d="M71.1,48.236H61.617a2.315,2.315,0,0,0-2.312,2.2l-.469,9.377H73.885l-.469-9.377A2.315,2.315,0,0,0,71.1,48.236Z"/>
        <g>
          <path class="k" d="M70.312,57.5h-7.9a1.156,1.156,0,0,1-1.153-1.253l.385-4.631A1.158,1.158,0,0,1,62.8,50.552h7.131a1.157,1.157,0,0,1,1.153,1.061l.386,4.631A1.157,1.157,0,0,1,70.312,57.5Z"/>
          <line class="c" x1="61.537" y1="52.867" x2="71.184" y2="52.867"/>
          <line class="c" x1="61.344" y1="55.182" x2="71.377" y2="55.182"/>
        </g>
        <path class="f" d="M78.226,28.557h0a.868.868,0,0,0-.868.868v3.762h1.736V29.425A.868.868,0,0,0,78.226,28.557Z"/>
        <path class="l" d="M76.9,41.291l-.031-1.245a3.474,3.474,0,0,0-3.472-3.386H59.329a3.474,3.474,0,0,0-3.472,3.386l-.031,1.245Z"/>
        <path class="m" d="M59.329,38.975H73.392a3.461,3.461,0,0,1,3.258,2.316H76.9l-.031-1.245a3.474,3.474,0,0,0-3.472-3.386H59.329a3.474,3.474,0,0,0-3.472,3.386l-.031,1.245h.245A3.46,3.46,0,0,1,59.329,38.975Z"/>
        <path class="c" d="M76.9,41.291l-.031-1.245a3.474,3.474,0,0,0-3.472-3.386H59.329a3.474,3.474,0,0,0-3.472,3.386l-.031,1.245Z"/>
        <polygon class="n" points="77.068 48.236 76.895 41.291 55.826 41.291 55.652 48.236 77.068 48.236"/>
        <polygon class="o" points="69.833 41.291 55.826 41.291 55.652 48.236 62.888 48.236 69.833 41.291"/>
        <polygon class="c" points="77.068 48.236 76.895 41.291 55.826 41.291 55.652 48.236 77.068 48.236"/>
        <g>
          <path class="f" d="M73.033,67.916H59.688a2.314,2.314,0,0,1-2.071-1.28l-1.1-2.193H76.2l-1.1,2.193A2.314,2.314,0,0,1,73.033,67.916Z"/>
          <line class="p" x1="59.993" y1="66.18" x2="61.151" y2="66.18"/>
          <line class="p" x1="62.888" y1="66.18" x2="64.045" y2="66.18"/>
          <line class="p" x1="72.727" y1="66.18" x2="71.57" y2="66.18"/>
          <line class="p" x1="69.833" y1="66.18" x2="68.676" y2="66.18"/>
        </g>
        <path class="k" d="M68.884,62.707H63.837a1.159,1.159,0,0,1-1.136-.931l-.392-1.963h8.1l-.393,1.963A1.158,1.158,0,0,1,68.884,62.707Z"/>
        <circle class="q" cx="59.415" cy="38.397" r="1.158"/>
        <circle class="q" cx="62.888" cy="38.397" r="1.158"/>
        <circle class="q" cx="73.306" cy="38.397" r="1.158"/>
        <circle class="q" cx="69.833" cy="38.397" r="1.158"/>
      </g>
      <g>
        <g>
          <ellipse class="r" cx="32.21" cy="85.599" rx="17.306" ry="1.997"/>
          <path class="s" d="M28.522,84.933A1.327,1.327,0,0,0,29.717,83a3.994,3.994,0,0,0-3.5-2.063h-.666A3.994,3.994,0,0,0,22.057,83a1.327,1.327,0,0,0,1.2,1.931Z"/>
          <path class="s" d="M35.9,84.933A1.327,1.327,0,0,1,34.7,83a3.992,3.992,0,0,1,3.5-2.063h.665A3.993,3.993,0,0,1,42.361,83a1.327,1.327,0,0,1-1.194,1.931Z"/>
          <path class="t" d="M23.558,60.305V81.474a3.971,3.971,0,0,1,2-.535h.666a3.989,3.989,0,0,1,3.395,1.891l.459-14.465a2.136,2.136,0,0,1,4.27,0L34.8,82.83a3.991,3.991,0,0,1,3.4-1.891h.665a3.981,3.981,0,0,1,2,.535V60.305Z"/>
          <rect class="u" x="23.558" y="60.305" width="17.304" height="5.325"/>
          <path class="c" d="M23.558,60.305V81.474a3.971,3.971,0,0,1,2-.535h.666a3.989,3.989,0,0,1,3.395,1.891l.459-14.465a2.136,2.136,0,0,1,4.27,0L34.8,82.83a3.991,3.991,0,0,1,3.4-1.891h.665a3.981,3.981,0,0,1,2,.535V60.305Z"/>
          <g>
            <path class="v" d="M27.741,36.461l1.806,3.209s0,16.418-.626,21.966H35.5c-.625-5.548-.625-21.966-.625-21.966l1.8-3.209h0l.007-.012a13.365,13.365,0,0,0-8.953,0l0,.012Z"/>
            <path class="w" d="M35.7,36.145a1,1,0,0,1-.746-.969l0-3.6h-5.49l0,3.608a1,1,0,0,1-.745.966q-.274.072-.542.156s.039,4.034,4.033,4.034S36.243,36.3,36.243,36.3Q35.975,36.217,35.7,36.145Z"/>
          </g>
          <g>
            <path class="q" d="M27.741,36.461h0A13.331,13.331,0,0,0,18.9,48.989v5.325A12.688,12.688,0,0,0,23.557,64.3l3.328-2.662a4.312,4.312,0,0,1-.911-.71,2.061,2.061,0,0,1,.91-.621c1.331,0,.176.655,1.419,2.99S29.547,39.67,29.547,39.67Z"/>
            <path class="x" d="M29.545,40.6c0-.595,0-.933,0-.933l-1.806-3.209h0A13.331,13.331,0,0,0,18.9,48.989v4.567A13.318,13.318,0,0,1,29.545,40.6Z"/>
            <path class="c" d="M27.741,36.461h0A13.331,13.331,0,0,0,18.9,48.989v5.325A12.688,12.688,0,0,0,23.557,64.3l3.328-2.662a4.312,4.312,0,0,1-.911-.71,2.061,2.061,0,0,1,.91-.621c1.331,0,.176.655,1.419,2.99S29.547,39.67,29.547,39.67Z"/>
            <path class="y" d="M27.741,36.461h0A13.182,13.182,0,0,0,23.431,39l1.392,2.187a1.33,1.33,0,0,0,1.861.393l2.863-1.908Z"/>
            <path class="c" d="M23.556,46.992v7.486a10.016,10.016,0,0,0,2.417,6.447"/>
            <path class="q" d="M36.677,36.461h0a13.326,13.326,0,0,1,8.842,12.529v5.325A12.682,12.682,0,0,1,40.861,64.3l-3.328-2.662a4.287,4.287,0,0,0,.911-.71,2.061,2.061,0,0,0-.91-.621c-1.331,0-.175.655-1.419,2.99S34.872,39.67,34.872,39.67Z"/>
            <path class="x" d="M34.874,40.6c0-.595,0-.933,0-.933l1.8-3.209h0a13.326,13.326,0,0,1,8.842,12.529v4.567A13.317,13.317,0,0,0,34.874,40.6Z"/>
            <path class="c" d="M36.677,36.461h0a13.326,13.326,0,0,1,8.842,12.529v5.325A12.682,12.682,0,0,1,40.861,64.3l-3.328-2.662a4.287,4.287,0,0,0,.911-.71,2.061,2.061,0,0,0-.91-.621c-1.331,0-.175.655-1.419,2.99S34.872,39.67,34.872,39.67Z"/>
            <path class="y" d="M36.677,36.461h0A13.182,13.182,0,0,1,40.987,39L39.6,41.185a1.331,1.331,0,0,1-1.862.393L34.872,39.67Z"/>
            <path class="c" d="M40.862,46.992v7.486a10.016,10.016,0,0,1-2.417,6.447"/>
            <path class="c" d="M40.862,51.651h-2a1.331,1.331,0,0,1-1.331-1.331V48.989a1.331,1.331,0,0,1,1.331-1.331h2Z"/>
          </g>
        </g>
        <g>
          <g>
            <path class="w" d="M41.529,26.689a1.64,1.64,0,0,0-1.331-1.6V24.026a7.988,7.988,0,1,0-15.975,0v1.066a1.63,1.63,0,0,0,.168,3.227,7.988,7.988,0,0,0,15.639,0A1.647,1.647,0,0,0,41.529,26.689Z"/>
            <path class="z" d="M29.215,24.026a1,1,0,1,0,1,1,1,1,0,0,0-1-1Z"/>
            <path class="z" d="M35.206,24.026a1,1,0,1,0,1,1,1,1,0,0,0-1-1Z"/>
            <circle class="aa" cx="27.884" cy="27.687" r="0.998"/>
            <circle class="aa" cx="36.537" cy="27.687" r="0.998"/>
          </g>
          <g>
            <path class="ab" d="M29.814,32.546a11.45,11.45,0,0,0-2.474.564.384.384,0,0,1-.475-.5c.432-1.153,1.428-3.257,2.949-3.257a1.6,1.6,0,1,1,0,3.2Z"/>
            <path class="ab" d="M34.607,32.546a11.45,11.45,0,0,1,2.474.564.384.384,0,0,0,.475-.5c-.432-1.153-1.428-3.257-2.949-3.257a1.6,1.6,0,1,0,0,3.2Z"/>
          </g>
          <path class="ab" d="M32.21,16.038a7.987,7.987,0,0,0-7.987,7.988v.731a2.225,2.225,0,0,0,2.194-2.214,1.58,1.58,0,0,1,1.853-1.3,20,20,0,0,0,7.881,0A1.58,1.58,0,0,1,38,22.543,2.225,2.225,0,0,0,40.2,24.757v-.731A7.988,7.988,0,0,0,32.21,16.038Z"/>
          <path class="ac" d="M40.415,16.84a.4.4,0,0,0-.537-.24,2.008,2.008,0,0,1-1.677-.192s-3.994-2-5.991-2-5.99,2-5.99,2a2.008,2.008,0,0,1-1.677.192.4.4,0,0,0-.537.24c-.359,1.036.337,2.17,1.041,3.668.346.735.894,1.753,1.286,2.467.033-.137.06-.281.084-.432a1.58,1.58,0,0,1,1.853-1.3,20,20,0,0,0,7.881,0A1.58,1.58,0,0,1,38,22.543c.024.149.05.29.082.424.37-.666.926-1.69,1.288-2.459C40.078,19.01,40.774,17.876,40.415,16.84Z"/>
          <path class="ad" d="M24.543,18.971a2.007,2.007,0,0,0,1.677-.191s3.994-2,5.99-2,5.991,2,5.991,2a2.007,2.007,0,0,0,1.677.191.4.4,0,0,1,.224,0,2.93,2.93,0,0,0,.313-2.134.4.4,0,0,0-.537-.24,2.008,2.008,0,0,1-1.677-.192s-3.994-2-5.991-2-5.99,2-5.99,2a2.008,2.008,0,0,1-1.677.192.4.4,0,0,0-.537.24,2.93,2.93,0,0,0,.313,2.134A.4.4,0,0,1,24.543,18.971Z"/>
          <path class="c" d="M40.415,16.84a.4.4,0,0,0-.537-.24,2.008,2.008,0,0,1-1.677-.192s-3.994-2-5.991-2-5.99,2-5.99,2a2.008,2.008,0,0,1-1.677.192.4.4,0,0,0-.537.24c-.359,1.036.337,2.17,1.041,3.668.346.735.894,1.753,1.286,2.467.033-.137.06-.281.084-.432a1.58,1.58,0,0,1,1.853-1.3,20,20,0,0,0,7.881,0A1.58,1.58,0,0,1,38,22.543c.024.149.05.29.082.424.37-.666.926-1.69,1.288-2.459C40.078,19.01,40.774,17.876,40.415,16.84Z"/>
        </g>
      </g>
    </g>
  </g>
</svg>
