<?xml version="1.0" encoding="UTF-8"?>
<svg xmlns="http://www.w3.org/2000/svg" xmlns:xlink="http://www.w3.org/1999/xlink" width="189.57pt" height="153.62pt" viewBox="0 0 189.57 153.62" version="1.1">
<g id="surface1">
<g clip-rule="nonzero">
<path style="stroke:none;fill-rule:nonzero;" d="M 163.96875 86.46875 C 155.359375 90.777344 140.234375 101.714844 131.664063 106.105469 C 129.972656 106.972656 128.621094 107.007813 126.914063 106.132813 C 118.347656 101.734375 109.722656 97.460938 101.113281 93.152344 C 100.105469 92.648438 97.558594 92.457031 94.890625 92.585938 C 92.101563 92.46875 89.46875 92.65625 88.5 93.136719 C 79.695313 97.53125 70.882813 101.910156 62.101563 106.355469 C 60.832031 106.996094 59.808594 107.03125 58.527344 106.375 C 49.703125 101.902344 33.175781 87.457031 24.324219 83.039063 C 22.058594 81.910156 21.027344 82.554688 21.027344 85.089844 C 21.019531 93.71875 21.050781 102.347656 20.992188 110.976563 C 20.984375 112.53125 21.554688 113.355469 22.9375 114.042969 C 42.21875 123.652344 69.140625 143.351563 88.398438 152.996094 C 89.429688 153.515625 92.125 153.710938 94.957031 153.578125 C 97.59375 153.707031 100.074219 153.542969 100.984375 153.089844 C 120.339844 143.394531 146.183594 127.019531 165.558594 117.359375 C 166.886719 116.695313 167.414063 115.875 167.40625 114.394531 C 167.351563 105.765625 167.382813 97.136719 167.375 88.507813 C 167.371094 85.882813 166.355469 85.273438 163.96875 86.46875 "/>
</g>
<g clip-rule="nonzero">
<path style="stroke:none;fill-rule:nonzero;" d="M 188.042969 33.1875 C 168.996094 23.601563 141.902344 10.167969 122.828125 0.636719 C 122.316406 0.382813 121.757813 0.214844 121.199219 0.00390625 C 120.660156 0.226563 120.160156 0.398438 119.691406 0.632813 C 112.125 4.40625 104.550781 8.167969 97.015625 12.007813 C 96.320313 12.363281 95.460938 13.246094 95.46875 13.878906 C 95.472656 14.519531 96.328125 15.402344 97.027344 15.753906 C 114.976563 24.761719 139.933594 37.132813 158.78125 46.472656 C 139.65625 55.90625 112.410156 66.078125 93.617188 75.535156 C 93.40625 75.640625 93.191406 75.816406 92.992188 76.011719 C 92.859375 75.457031 92.273438 74.785156 91.738281 74.515625 C 72.914063 65.042969 50.449219 55.605469 31.4375 46.226563 C 43.667969 40.085938 55.914063 33.976563 68.160156 27.867188 C 73.632813 25.132813 86.808594 18.285156 92.257813 15.511719 C 92.980469 15.144531 93.535156 14.457031 94.550781 13.589844 C 93.503906 12.753906 92.921875 12.101563 92.195313 11.730469 C 84.742188 7.964844 77.253906 4.273438 69.8125 0.484375 C 68.46875 -0.199219 67.382813 -0.128906 66.074219 0.53125 C 47.210938 10.007813 20.625 23.582031 1.769531 33.074219 C 1.007813 33.457031 0.0234375 34.308594 0 34.976563 C -0.0234375 35.605469 0.953125 36.519531 1.699219 36.898438 C 8.90625 40.578125 16.164063 44.148438 23.375 47.816406 C 17.078125 50.914063 10.789063 54.039063 4.535156 57.226563 C 3.894531 57.550781 3.183594 58.40625 3.140625 59.058594 C 3.105469 59.582031 3.921875 60.386719 4.542969 60.703125 C 23.730469 70.355469 42.941406 79.960938 62.152344 89.570313 C 62.570313 89.777344 63.023438 89.921875 63.4375 90.085938 C 63.863281 89.929688 64.222656 89.832031 64.546875 89.667969 C 72.347656 85.773438 83.9375 81.890625 91.707031 77.933594 C 91.890625 77.839844 92.078125 77.695313 92.261719 77.527344 C 92.367188 78.058594 93.03125 78.746094 93.585938 79.027344 C 101.308594 82.957031 114.066406 86.042969 121.851563 89.855469 C 122.496094 90.171875 127.351563 90.175781 127.992188 89.855469 C 147.269531 80.269531 166.523438 70.632813 185.757813 60.957031 C 186.371094 60.648438 187.167969 59.8125 187.117188 59.292969 C 187.054688 58.632813 186.339844 57.800781 185.6875 57.46875 C 179.222656 54.175781 172.726563 50.949219 166.230469 47.710938 C 173.53125 44.140625 180.796875 40.507813 188.039063 36.824219 C 188.710938 36.480469 189.609375 35.644531 189.570313 35.101563 C 189.515625 34.414063 188.734375 33.535156 188.042969 33.1875 "/>
</g>
</g>
</svg>
