<?xml version="1.0" encoding="utf-8"?>
<!-- Generator: Adobe Illustrator 28.0.0, SVG Export Plug-In . SVG Version: 6.00 Build 0)  -->
<svg version="1.1" id="Calque_1" xmlns="http://www.w3.org/2000/svg" xmlns:xlink="http://www.w3.org/1999/xlink" x="0px" y="0px"
	 viewBox="0 0 256 82" style="enable-background:new 0 0 256 82;" xml:space="preserve">
<style type="text/css">
	.st0{fill:#36A460;}
</style>
<g id="Chronodrive_Logo_Lime">
	<path id="c" class="st0" d="M32.4,29.8c-5.8-0.3-10.7,4.3-11,10.1s4.3,10.7,10.1,11c0.3,0,0.6,0,0.9,0c3.8,0.1,7.4-1.9,9.4-5.1
		v-0.1l0.1-0.1c0.4-0.9,0.8-1.8,1.1-2.7c0.1-0.1,0.1-0.2,0-0.4c-0.1-0.1-0.2-0.1-0.3-0.1H38c-0.4,0-0.8,0.3-1,0.7l-0.1,0.1
		c-0.2,0.3-0.4,0.7-0.7,1c-0.9,1.1-2.4,1.8-3.8,1.8c-2.9,0-5.1-2.3-5.1-5.5s2.2-5.6,5.1-5.6c1,0,2,0.3,2.9,0.9l0,0l0.2,0.2
		c0.2,0.2,0.4,0.4,0.6,0.6c0.2,0.3,0.5,0.7,0.7,1l0.1,0.1c0.2,0.4,0.6,0.6,1,0.7h4.8c0.1,0,0.2,0,0.3-0.1c0.1-0.1,0.1-0.2,0-0.4
		c-0.3-1-0.7-2-1.2-2.9C39.7,31.6,36.2,29.7,32.4,29.8"/>
	<path id="h" class="st0" d="M54.5,35.1c2.4,0,3.8,1.3,3.8,3.6v11.1c0,0.3,0.3,0.6,0.6,0.6h4.5c0.3,0,0.6-0.3,0.6-0.6V38.7
		c0-5.3-3.6-8.9-8.9-8.9c-1.3,0-2.6,0.3-3.8,0.9l-0.9,0.5v-8.9c0-0.4-0.3-0.6-0.7-0.6h-4.5c-0.4,0-0.6,0.3-0.6,0.6v27.6
		c0,0.3,0.3,0.6,0.6,0.6h4.5c0.4,0,0.6-0.3,0.6-0.6c0,0,0,0,0,0V38.7C50.5,36.5,52.1,35.1,54.5,35.1"/>
	<path id="r-fst" class="st0" d="M76.1,29.8c-5.8,0-9.6,3.6-9.6,9v11c0,0.3,0.3,0.6,0.6,0.6h4.5c0.3,0,0.6-0.3,0.6-0.6v-11
		c0-2.4,1.7-3.9,4.3-3.9c0.3,0,0.6,0,0.9,0h0.2c0.1,0,0.3,0,0.4-0.1c0.1-0.1,0.1-0.3,0.1-0.4v-3.9c0-0.5-0.6-0.6-0.7-0.6l0,0
		C77,29.8,76.6,29.8,76.1,29.8"/>
	<path id="o-fst" class="st0" d="M89.3,45.8c-2.9,0-5.1-2.3-5.1-5.5s2.2-5.6,5.1-5.6s5.1,2.4,5.1,5.6S92.2,45.8,89.3,45.8
		 M89.3,29.8c-5.8,0.2-10.4,5.1-10.1,10.9c0.2,5.8,5.1,10.4,10.9,10.1c5.6-0.2,10.1-4.8,10.1-10.5c0-5.9-4.8-10.6-10.7-10.6
		C89.5,29.8,89.4,29.8,89.3,29.8"/>
	<path id="n" class="st0" d="M111.9,35.1c2.5,0,3.8,1.3,3.8,3.6v11.1c0,0.4,0.3,0.7,0.7,0.7l0,0h4.5c0.4,0,0.6-0.3,0.6-0.7v-11
		c0-5.5-3.8-9-9.7-9c-5.7,0-9.8,3.8-9.8,9v11c0,0.4,0.3,0.6,0.7,0.6h4.5c0.4,0,0.7-0.3,0.7-0.6v0V38.7
		C107.9,36.5,109.5,35.1,111.9,35.1"/>
	<path id="o-sec" class="st0" d="M134.3,45.8c-2.9,0-5.1-2.3-5.1-5.5s2.2-5.6,5.1-5.6s5.1,2.4,5.1,5.6S137.2,45.8,134.3,45.8
		 M134.3,29.8c-5.8,0.2-10.4,5.1-10.1,10.9c0.2,5.8,5.1,10.4,10.9,10.1c5.6-0.2,10.1-4.8,10.1-10.5c0-5.9-4.8-10.6-10.7-10.6
		C134.5,29.8,134.4,29.8,134.3,29.8"/>
	<path id="d" class="st0" d="M157.9,45.8c-2.9,0-5.1-2.3-5.1-5.5s2.2-5.6,5.1-5.6s5.1,2.4,5.1,5.6S160.9,45.8,157.9,45.8
		 M157.9,29.8c-5.8,0.2-10.4,5.1-10.2,10.9c0.2,5.8,5.1,10.4,10.9,10.2c5.7-0.2,10.2-4.8,10.2-10.5V22.1c0-0.3-0.3-0.6-0.6-0.6h-4.5
		c-0.3,0-0.6,0.3-0.6,0.6V31l-0.2-0.1C161.2,30.2,159.6,29.8,157.9,29.8"/>
	<path id="r-sec" class="st0" d="M180.4,29.8c-5.8,0-9.6,3.6-9.6,9v11c0,0.3,0.3,0.6,0.6,0.6h4.5c0.3,0,0.6-0.3,0.6-0.6v-11
		c0-2.4,1.7-3.9,4.3-3.9c0.3,0,0.6,0,0.9,0h0.2c0.3,0,0.4-0.4,0.4-0.6v-3.9c0-0.5-0.6-0.6-0.7-0.6l0,0
		C181.3,29.8,180.8,29.8,180.4,29.8"/>
	<path id="i-br" class="st0" d="M185,30.2c-0.3,0-0.6,0.3-0.6,0.6v18.9c0,0.3,0.3,0.6,0.6,0.6h4.5c0.3,0,0.6-0.3,0.6-0.6V30.9
		c0-0.3-0.3-0.6-0.6-0.6H185z"/>
	<path id="i-do" class="st0" d="M187.2,21c-1.7,0-3.1,1.4-3.1,3.2c0,1.7,1.4,3.1,3.2,3.1c1.7,0,3.1-1.4,3.1-3.2c0,0,0,0,0,0
		C190.4,22.4,189,21,187.2,21"/>
	<path id="v" class="st0" d="M192.1,30.2c-0.1,0-0.3,0.1-0.4,0.2c-0.1,0.1-0.1,0.2,0,0.3l0.1,0.2l7.6,18.6c0.2,0.6,0.5,0.8,1,0.8h5
		c0.2,0,0.6-0.1,0.9-0.8l0,0l7.6-18.8c0-0.1,0-0.2,0-0.3c-0.1-0.1-0.2-0.2-0.4-0.2h-4.8c-0.5,0-0.9,0.4-1,0.8l0,0l-4.9,13.5
		L198,31.1c-0.1-0.4-0.5-0.8-0.9-0.8L192.1,30.2z"/>
	<path id="e" class="st0" d="M219,37.8c0.7-2,2.5-3.3,4.6-3.3l0,0c2.1,0,3.9,1.3,4.6,3.3H219z M223.6,29.8
		c-5.8-0.3-10.7,4.3-11,10.1c-0.3,5.8,4.3,10.7,10.1,11c0.3,0,0.6,0,0.9,0c4.1,0.1,7.8-2.1,9.8-5.7c0.1-0.2,0.1-0.2,0-0.3
		c-0.1-0.1-0.2-0.2-0.4-0.2h-5.2c-0.6,0-1.2,0.2-1.7,0.5l0,0c-0.2,0.1-0.4,0.2-0.6,0.2h-0.1c-0.6,0.2-1.2,0.3-1.8,0.3
		c-2.5,0-4.6-1.7-5-4.2h15.3c0.4,0,0.6-0.3,0.6-0.6v-0.2c0-0.2,0-0.3,0-0.5c0-5.9-4.8-10.6-10.7-10.6
		C223.7,29.7,223.6,29.7,223.6,29.8"/>
	<path id="und" class="st0" d="M230.9,55.2H25.1c-0.3,0-0.6,0.3-0.6,0.6v4.5c0,0.3,0.3,0.6,0.6,0.6c0,0,0,0,0,0h205.7
		c0.3,0,0.6-0.3,0.6-0.6v-4.5C231.5,55.5,231.2,55.2,230.9,55.2"/>
</g>
</svg>
