<?xml version="1.0" encoding="UTF-8"?>
<svg xmlns="http://www.w3.org/2000/svg" xmlns:xlink="http://www.w3.org/1999/xlink" width="400pt" height="400pt" viewBox="-100 0 600 600" version="1.1">
<g id="surface1">
<rect x="-100" y="0" width="600" height="600" style="fill:rgb(18.821716%,51.756287%,100%);fill-opacity:1;stroke:none;"/>
<path style=" stroke:none;fill-rule:nonzero;fill:rgb(100%,100%,100%);fill-opacity:1;" d="M 293.480469 134.113281 L 299.0625 127.683594 L 301 129.363281 C 305.464844 133.238281 312.285156 132.753906 316.160156 128.289063 C 320.03125 123.824219 319.550781 117.003906 315.085938 113.128906 L 293.929688 94.777344 C 289.464844 90.902344 282.644531 91.386719 278.769531 95.851563 C 274.898438 100.316406 275.378906 107.136719 279.84375 111.011719 L 282.238281 113.085938 L 276.960938 119.167969 C 259.910156 106.257813 239.519531 97.554688 217.3125 94.542969 L 217.3125 83.050781 L 219.164063 83.050781 C 227.875 83.050781 234.996094 75.925781 234.996094 67.21875 C 234.996094 58.511719 227.875 51.386719 219.164063 51.386719 L 177.90625 51.386719 C 169.195313 51.386719 162.070313 58.511719 162.070313 67.21875 C 162.070313 75.925781 169.195313 83.050781 177.90625 83.050781 L 178.179688 83.050781 L 178.179688 95.238281 C 161.800781 98.0625 146.492188 103.988281 132.882813 112.417969 L 128.839844 106.738281 L 129.296875 105.585938 C 133.933594 101.921875 134.730469 95.128906 131.066406 90.492188 C 127.402344 85.851563 120.613281 85.054688 115.972656 88.71875 L 93.996094 106.078125 C 89.359375 109.742188 88.5625 116.535156 92.226563 121.175781 C 95.890625 125.8125 102.679688 126.609375 107.320313 122.945313 L 109.007813 121.609375 L 113.171875 127.460938 C 88.082031 150.769531 72.363281 184.03125 72.363281 220.976563 C 72.363281 291.46875 129.507813 348.613281 200 348.613281 C 270.492188 348.613281 327.636719 291.46875 327.636719 220.976563 C 327.636719 187.414063 314.660156 156.898438 293.480469 134.113281 "/>
<path style=" stroke:none;fill-rule:nonzero;fill:rgb(10.594177%,7.446289%,38.818359%);fill-opacity:1;" d="M 163.441406 216.953125 C 160.273438 216.953125 157.699219 214.382813 157.699219 211.210938 C 157.699219 204.441406 152.191406 198.929688 145.417969 198.929688 C 138.644531 198.929688 133.132813 204.441406 133.132813 211.210938 C 133.132813 214.382813 130.5625 216.953125 127.394531 216.953125 C 124.222656 216.953125 121.652344 214.382813 121.652344 211.210938 C 121.652344 198.109375 132.3125 187.449219 145.417969 187.449219 C 158.523438 187.449219 169.183594 198.109375 169.183594 211.210938 C 169.183594 214.382813 166.613281 216.953125 163.441406 216.953125 "/>
<path style=" stroke:none;fill-rule:nonzero;fill:rgb(10.594177%,7.446289%,38.818359%);fill-opacity:1;" d="M 270.550781 216.953125 C 267.378906 216.953125 264.808594 214.382813 264.808594 211.210938 C 264.808594 204.441406 259.296875 198.929688 252.523438 198.929688 C 245.75 198.929688 240.238281 204.441406 240.238281 211.210938 C 240.238281 214.382813 237.667969 216.953125 234.496094 216.953125 C 231.328125 216.953125 228.757813 214.382813 228.757813 211.210938 C 228.757813 198.109375 239.417969 187.449219 252.523438 187.449219 C 265.628906 187.449219 276.292969 198.109375 276.292969 211.210938 C 276.292969 214.382813 273.722656 216.953125 270.550781 216.953125 "/>
<path style=" stroke:none;fill-rule:nonzero;fill:rgb(10.594177%,7.446289%,38.818359%);fill-opacity:1;" d="M 223.429688 255.453125 L 203.433594 212.554688 C 203.480469 212.246094 203.527344 211.933594 203.527344 211.613281 L 203.527344 176.925781 C 203.527344 173.601563 200.832031 170.90625 197.507813 170.90625 C 194.183594 170.90625 191.488281 173.601563 191.488281 176.925781 L 191.488281 211.613281 C 191.488281 212.054688 191.539063 212.480469 191.628906 212.890625 C 191.378906 214.113281 191.484375 215.417969 192.054688 216.636719 L 212.519531 260.539063 C 213.925781 263.554688 217.503906 264.855469 220.519531 263.453125 C 223.53125 262.050781 224.835938 258.46875 223.429688 255.453125 "/>
<g transform="translate(-235 350) scale(1.4 1.4) ">
<path style=" stroke:none;fill-rule:nonzero;fill:rgb(100%,100%,100%);fill-opacity:1;" d="M 250.242188 118.625 L 239.054688 118.625 C 239.054688 117.882813 239.054688 117.226563 239.054688 116.570313 C 239.042969 110.546875 239.101563 104.523438 238.996094 98.503906 C 238.929688 94.855469 235.53125 92.890625 232.230469 94.457031 C 230.289063 95.378906 229.8125 97.101563 229.808594 99.046875 C 229.800781 104.347656 229.804688 109.644531 229.804688 114.941406 C 229.804688 116.105469 229.804688 117.269531 229.804688 118.574219 L 218.679688 118.574219 C 218.648438 118.003906 218.589844 117.363281 218.589844 116.726563 C 218.578125 110.8125 218.617188 104.898438 218.5625 98.988281 C 218.535156 95.878906 217.140625 94.25 214.515625 93.996094 C 211.578125 93.714844 209.460938 95.394531 209.390625 98.378906 C 209.269531 103.730469 209.328125 109.085938 209.3125 114.4375 C 209.3125 115.820313 209.3125 117.199219 209.3125 118.644531 L 198.175781 118.644531 L 198.175781 83.964844 L 209.148438 83.964844 C 209.246094 84.679688 209.335938 85.320313 209.460938 86.214844 C 212.25 83.738281 215.421875 82.820313 218.941406 83.066406 C 222.4375 83.308594 225.453125 84.523438 227.609375 87.53125 C 227.917969 87.316406 228.164063 87.199219 228.339844 87.011719 C 231.992188 83.21875 236.476563 82.371094 241.417969 83.453125 C 246.195313 84.5 249.386719 88.058594 249.96875 93 C 250.230469 95.203125 250.21875 97.449219 250.234375 99.675781 C 250.265625 105.363281 250.242188 111.054688 250.242188 116.742188 "/>
<path style=" stroke:none;fill-rule:nonzero;fill:rgb(100%,100%,100%);fill-opacity:1;" d="M 310.390625 99.222656 C 309.121094 104.558594 314.03125 109.679688 319.394531 108.519531 C 322.730469 107.800781 324.925781 105.089844 324.953125 101.394531 C 324.988281 96.910156 322.027344 93.898438 317.558594 93.886719 C 313.839844 93.875 311.175781 95.929688 310.390625 99.222656 M 304.386719 70.675781 C 307.28125 70.675781 309.625 73.019531 309.625 75.914063 L 309.625 86.726563 C 309.625 86.921875 309.863281 87.015625 310.003906 86.878906 C 312.140625 84.847656 314.257813 83.675781 316.769531 83.285156 C 324.898438 82.015625 332.011719 86.027344 334.8125 93.785156 C 337.535156 101.3125 336.726563 108.496094 331.269531 114.582031 C 326.875 119.484375 321.121094 120.609375 314.898438 118.820313 C 313.101563 118.304688 311.523438 117.003906 309.78125 116.023438 L 309.574219 118.429688 C 309.566406 118.546875 309.46875 118.636719 309.351563 118.636719 L 298.898438 118.636719 C 298.773438 118.636719 298.671875 118.535156 298.671875 118.410156 L 298.671875 76.386719 C 298.671875 73.230469 301.230469 70.675781 304.386719 70.675781 "/>
<path style=" stroke:none;fill-rule:nonzero;fill:rgb(100%,100%,100%);fill-opacity:1;" d="M 274.707031 93.871094 C 270.445313 93.832031 267.277344 96.921875 267.214844 101.179688 C 267.148438 105.449219 270.234375 108.648438 274.480469 108.710938 C 278.8125 108.777344 282.074219 105.605469 282.078125 101.324219 C 282.085938 97.09375 278.933594 93.90625 274.707031 93.871094 M 274.550781 119.609375 C 263.859375 119.605469 255.875 111.726563 255.910156 101.21875 C 255.945313 90.8125 263.964844 82.996094 274.578125 83.011719 C 285.304688 83.027344 293.363281 90.894531 293.335938 101.328125 C 293.308594 111.800781 285.285156 119.613281 274.550781 119.609375 "/>
<path style=" stroke:none;fill-rule:nonzero;fill:rgb(100%,100%,100%);fill-opacity:1;" d="M 430.4375 91.425781 C 427.25 93.328125 424.148438 95.175781 421.058594 97.015625 C 417.40625 92.722656 412.007813 93.160156 409.21875 96.125 C 406.527344 98.980469 406.609375 103.882813 409.355469 106.613281 C 412.476563 109.714844 416.984375 109.359375 421.03125 105.597656 C 423.859375 107.285156 426.722656 108.992188 429.582031 110.710938 C 429.851563 110.871094 430.089844 111.097656 430.324219 111.285156 C 427.078125 117.550781 417.992188 120.953125 409.808594 119.039063 C 401.730469 117.148438 396.136719 110.242188 395.941406 101.921875 C 395.734375 93.195313 400.914063 86.058594 409.121094 83.765625 C 417.355469 81.460938 426.488281 84.671875 430.4375 91.425781 "/>
<path style=" stroke:none;fill-rule:nonzero;fill:rgb(100%,100%,100%);fill-opacity:1;" d="M 353.292969 76.09375 C 353.332031 79.347656 350.785156 81.980469 347.566406 82.023438 C 344.339844 82.0625 341.722656 79.523438 341.65625 76.277344 C 341.589844 73.074219 344.164063 70.394531 347.382813 70.3125 C 350.539063 70.234375 353.253906 72.890625 353.292969 76.09375 "/>
<path style=" stroke:none;fill-rule:nonzero;fill:rgb(100%,100%,100%);fill-opacity:1;" d="M 384.917969 81.605469 C 381.710938 81.574219 379.128906 78.921875 379.15625 75.695313 C 379.183594 72.488281 381.859375 69.847656 385.042969 69.878906 C 388.226563 69.914063 390.839844 72.613281 390.800781 75.824219 C 390.761719 79.058594 388.136719 81.640625 384.917969 81.605469 "/>
<path style=" stroke:none;fill-rule:nonzero;fill:rgb(100%,100%,100%);fill-opacity:1;" d="M 387.300781 119.1875 L 382.65625 119.1875 C 380.734375 119.1875 379.160156 117.613281 379.160156 115.691406 L 379.160156 91.015625 C 379.160156 89.089844 380.734375 87.515625 382.65625 87.515625 L 387.300781 87.515625 C 389.226563 87.515625 390.800781 89.089844 390.800781 91.015625 L 390.800781 115.691406 C 390.800781 117.613281 389.226563 119.1875 387.300781 119.1875 "/>
<path style=" stroke:none;fill-rule:nonzero;fill:rgb(100%,100%,100%);fill-opacity:1;" d="M 349.796875 119.609375 L 345.152344 119.609375 C 343.226563 119.609375 341.652344 118.039063 341.652344 116.113281 L 341.652344 91.4375 C 341.652344 89.515625 343.226563 87.941406 345.152344 87.941406 L 349.796875 87.941406 C 351.71875 87.941406 353.292969 89.515625 353.292969 91.4375 L 353.292969 116.113281 C 353.292969 118.039063 351.71875 119.609375 349.796875 119.609375 "/>
<path style=" stroke:none;fill-rule:nonzero;fill:rgb(100%,100%,100%);fill-opacity:1;" d="M 368.550781 119.609375 L 363.902344 119.609375 C 361.980469 119.609375 360.40625 118.039063 360.40625 116.113281 L 360.40625 74.132813 C 360.40625 72.207031 361.980469 70.632813 363.902344 70.632813 L 368.550781 70.632813 C 370.472656 70.632813 372.046875 72.207031 372.046875 74.132813 L 372.046875 116.113281 C 372.046875 118.039063 370.472656 119.609375 368.550781 119.609375 "/>
</g>
</g>
</svg>
