<?xml version="1.0" encoding="UTF-8"?>
<svg xmlns="http://www.w3.org/2000/svg" xmlns:xlink="http://www.w3.org/1999/xlink" width="400pt" height="400pt" viewBox="0 0 400 400" version="1.1">
<g id="surface1">
<rect x="0" y="0" width="400" height="400" style="fill:rgb(18.821716%,51.756287%,100%);fill-opacity:1;stroke:none;"/>
<path style=" stroke:none;fill-rule:nonzero;fill:rgb(100%,100%,100%);fill-opacity:1;" d="M 293.480469 134.113281 L 299.0625 127.683594 L 301 129.363281 C 305.464844 133.238281 312.285156 132.753906 316.160156 128.289063 C 320.03125 123.824219 319.550781 117.003906 315.085938 113.128906 L 293.929688 94.777344 C 289.464844 90.902344 282.644531 91.386719 278.769531 95.851563 C 274.898438 100.316406 275.378906 107.136719 279.84375 111.011719 L 282.238281 113.085938 L 276.960938 119.167969 C 259.910156 106.257813 239.519531 97.554688 217.3125 94.542969 L 217.3125 83.050781 L 219.164063 83.050781 C 227.875 83.050781 234.996094 75.925781 234.996094 67.21875 C 234.996094 58.511719 227.875 51.386719 219.164063 51.386719 L 177.90625 51.386719 C 169.195313 51.386719 162.070313 58.511719 162.070313 67.21875 C 162.070313 75.925781 169.195313 83.050781 177.90625 83.050781 L 178.179688 83.050781 L 178.179688 95.238281 C 161.800781 98.0625 146.492188 103.988281 132.882813 112.417969 L 128.839844 106.738281 L 129.296875 105.585938 C 133.933594 101.921875 134.730469 95.128906 131.066406 90.492188 C 127.402344 85.851563 120.613281 85.054688 115.972656 88.71875 L 93.996094 106.078125 C 89.359375 109.742188 88.5625 116.535156 92.226563 121.175781 C 95.890625 125.8125 102.679688 126.609375 107.320313 122.945313 L 109.007813 121.609375 L 113.171875 127.460938 C 88.082031 150.769531 72.363281 184.03125 72.363281 220.976563 C 72.363281 291.46875 129.507813 348.613281 200 348.613281 C 270.492188 348.613281 327.636719 291.46875 327.636719 220.976563 C 327.636719 187.414063 314.660156 156.898438 293.480469 134.113281 "/>
<path style=" stroke:none;fill-rule:nonzero;fill:rgb(10.594177%,7.446289%,38.818359%);fill-opacity:1;" d="M 163.441406 216.953125 C 160.273438 216.953125 157.699219 214.382813 157.699219 211.210938 C 157.699219 204.441406 152.191406 198.929688 145.417969 198.929688 C 138.644531 198.929688 133.132813 204.441406 133.132813 211.210938 C 133.132813 214.382813 130.5625 216.953125 127.394531 216.953125 C 124.222656 216.953125 121.652344 214.382813 121.652344 211.210938 C 121.652344 198.109375 132.3125 187.449219 145.417969 187.449219 C 158.523438 187.449219 169.183594 198.109375 169.183594 211.210938 C 169.183594 214.382813 166.613281 216.953125 163.441406 216.953125 "/>
<path style=" stroke:none;fill-rule:nonzero;fill:rgb(10.594177%,7.446289%,38.818359%);fill-opacity:1;" d="M 270.550781 216.953125 C 267.378906 216.953125 264.808594 214.382813 264.808594 211.210938 C 264.808594 204.441406 259.296875 198.929688 252.523438 198.929688 C 245.75 198.929688 240.238281 204.441406 240.238281 211.210938 C 240.238281 214.382813 237.667969 216.953125 234.496094 216.953125 C 231.328125 216.953125 228.757813 214.382813 228.757813 211.210938 C 228.757813 198.109375 239.417969 187.449219 252.523438 187.449219 C 265.628906 187.449219 276.292969 198.109375 276.292969 211.210938 C 276.292969 214.382813 273.722656 216.953125 270.550781 216.953125 "/>
<path style=" stroke:none;fill-rule:nonzero;fill:rgb(10.594177%,7.446289%,38.818359%);fill-opacity:1;" d="M 223.429688 255.453125 L 203.433594 212.554688 C 203.480469 212.246094 203.527344 211.933594 203.527344 211.613281 L 203.527344 176.925781 C 203.527344 173.601563 200.832031 170.90625 197.507813 170.90625 C 194.183594 170.90625 191.488281 173.601563 191.488281 176.925781 L 191.488281 211.613281 C 191.488281 212.054688 191.539063 212.480469 191.628906 212.890625 C 191.378906 214.113281 191.484375 215.417969 192.054688 216.636719 L 212.519531 260.539063 C 213.925781 263.554688 217.503906 264.855469 220.519531 263.453125 C 223.53125 262.050781 224.835938 258.46875 223.429688 255.453125 "/>
</g>
</svg>
