<svg version="1.1" id="Calque_1" xmlns="http://www.w3.org/2000/svg" x="0px" y="0px"
	 viewBox="40 40 210 200" style="enable-background:new 0 0 287.8 283.5;">
<style type="text/css">
	.st1{fill:#000091;}
	.st2{fill:#E1000F;}
	.st3{fill:#9D9D9C;}
</style>
<path id="Devise_Républicaine_9_" d="M114.4,232.4c0.6,0,1.1,0.4,0.8,1.6l-2.7,0.6C113,233.3,113.8,232.4,114.4,232.4 M115.9,236.8
	h-0.5c-0.7,0.8-1.4,1.5-2.2,1.5c-0.8,0-1.1-0.4-1.1-1.5c0-0.4,0-0.8,0.1-1.2l4.4-1.5c0.9-2-0.2-2.9-1.4-2.9c-2.1,0-4.5,3.5-4.5,6.6
	c0,1.4,0.7,2.1,1.7,2.1C113.7,239.9,114.9,238.7,115.9,236.8 M115.1,230.4l3.1-2.9v-0.3h-1.7l-1.9,3.2H115.1z M105.5,232.4h1.5
	l-2.3,6.4c-0.2,0.5,0.1,1.1,0.6,1.1c1.3,0,3.5-1.3,4.2-3.1h-0.4c-0.6,0.6-1.7,1.5-2.7,1.6l2.1-6h2.2l0.3-0.9h-2.1l0.8-2.3h-0.8
	l-1.5,2.3l-1.8,0.3V232.4z M103.5,232.1c0.2-0.6-0.2-0.9-0.5-0.9c-1.3,0-2.8,1.1-3.4,2.8h0.4c0.4-0.6,1.1-1.2,1.8-1.4l-2.4,6.4
	c-0.2,0.6,0.2,0.9,0.5,0.9c1.2,0,2.6-1.2,3.2-2.8h-0.4c-0.4,0.6-1.1,1.2-1.8,1.4L103.5,232.1z M104,228.9c0.6,0,1.1-0.5,1.1-1.1
	c0-0.6-0.5-1.1-1.1-1.1c-0.6,0-1.1,0.5-1.1,1.1C102.9,228.5,103.4,228.9,104,228.9 M89.9,238.7c-0.3,0.7,0,1.2,0.7,1.2
	c0.4,0,0.6-0.1,0.8-0.6l1.7-4.5c0.8-1,2.4-2,3-2c0.5,0,0.4,0.4,0.1,1l-2.6,5c-0.3,0.5,0.1,1.1,0.6,1.1c1.3,0,2.8-1.1,3.4-2.8h-0.4
	c-0.4,0.6-1.1,1.2-1.8,1.4l2.2-4.5c0.3-0.6,0.4-1.1,0.4-1.5c0-0.7-0.4-1.2-1.2-1.2c-1.1,0-2.2,1.2-3.5,2.8v-1.2c0-0.8-0.3-1.6-1-1.6
	c-0.5,0-0.9,0.4-1.4,1v0.2c0.8,0,1.2,1.2,0.6,2.5L89.9,238.7z M89.9,233.2c0.3-1,0.1-1.9-0.7-1.9c-0.9,0-1.2,0.7-2.1,2.8v-1.2
	c0-0.8-0.3-1.6-1-1.6c-0.9,0-1.7,1.4-2.3,2.8h0.4c0.4-0.6,0.8-1,1.1-1c0.4,0,0.6,0.6,0,1.9l-1.7,3.8c-0.3,0.7,0,1.2,0.7,1.2
	c0.4,0,0.6-0.1,0.8-0.6l1.7-4.5c0.5-0.6,0.9-1.1,1.5-1.7H89.9z M80.1,232.4c0.6,0,1.1,0.4,0.8,1.6l-2.7,0.6
	C78.6,233.3,79.4,232.4,80.1,232.4 M81.6,236.8h-0.5c-0.7,0.8-1.4,1.5-2.2,1.5c-0.8,0-1.1-0.4-1.1-1.5c0-0.4,0-0.8,0.1-1.2l4.4-1.5
	c0.9-2-0.2-2.9-1.4-2.9c-2.1,0-4.5,3.5-4.5,6.6c0,1.4,0.7,2.1,1.7,2.1C79.3,239.9,80.6,238.7,81.6,236.8 M71.2,232.4h1.5l-2.3,6.4
	c-0.2,0.5,0.1,1.1,0.6,1.1c1.3,0,3.5-1.3,4.2-3.1h-0.4c-0.6,0.6-1.7,1.5-2.7,1.6l2.1-6h2.2l0.3-0.9h-2.1l0.8-2.3h-0.8l-1.5,2.3
	l-1.8,0.3V232.4z M63.1,237.4c0-2,2.2-4.6,3.4-4.6c0.3,0,0.5,0,0.8,0.1l-1.3,3.4c-0.7,0.9-1.9,2-2.4,2
	C63.3,238.3,63.1,238,63.1,237.4 M69.8,230.8l-0.7,0l-0.8,0.7h-0.2c-3.6,0-6.8,4.1-6.8,7.1c0,0.8,0.5,1.3,1.3,1.3
	c0.9,0,1.9-1.3,2.9-2.8l0,0.5c-0.1,1.5,0.3,2.3,1.1,2.3c0.9,0,1.7-1.4,2.3-2.8h-0.4c-0.4,0.6-0.8,1-1.1,1c-0.3,0-0.6-0.6,0-1.9
	L69.8,230.8z M62.1,233.2c0.3-1,0.1-1.9-0.7-1.9c-0.9,0-1.2,0.7-2.1,2.8v-1.2c0-0.8-0.3-1.6-1-1.6c-0.9,0-1.7,1.4-2.3,2.8h0.4
	c0.4-0.6,0.8-1,1.1-1c0.4,0,0.6,0.6,0,1.9l-1.7,3.8c-0.3,0.7,0,1.2,0.7,1.2c0.4,0,0.6-0.1,0.8-0.6l1.7-4.5c0.5-0.6,0.9-1.1,1.5-1.7
	H62.1z M49.9,239.6l0.2-0.5c-2.1-0.4-2.4-0.4-1.5-2.7l0.9-2.4h2.3c1.1,0,1.1,0.4,0.9,1.6h0.6l1.4-3.8H54c-0.5,0.9-0.9,1.6-2.1,1.6
	h-2.3l1.2-3.4c0.4-1.1,0.6-1.3,2-1.3h1c1.5,0,1.7,0.4,1.7,1.9h0.6l0.5-2.6h-8.8l-0.2,0.5c1.7,0.4,1.9,0.5,1.1,2.7l-1.9,5.2
	c-0.8,2.2-1.1,2.4-3.1,2.7l-0.1,0.5H49.9z M93,212.4c0.6,0,1.1,0.4,0.8,1.6l-2.7,0.6C91.6,213.4,92.4,212.4,93,212.4 M94.6,216.9H94
	c-0.7,0.8-1.4,1.5-2.2,1.5c-0.8,0-1.1-0.4-1.1-1.5c0-0.4,0-0.8,0.1-1.2l4.4-1.5c0.9-2-0.2-2.9-1.4-2.9c-2.1,0-4.5,3.5-4.5,6.6
	c0,1.4,0.7,2.1,1.7,2.1C92.3,219.9,93.5,218.8,94.6,216.9 M93.7,210.5l3.1-2.9v-0.3h-1.7l-1.9,3.2H93.7z M84.1,212.5h1.5l-2.3,6.4
	c-0.2,0.5,0.1,1.1,0.6,1.1c1.3,0,3.5-1.3,4.2-3.1h-0.4c-0.6,0.6-1.7,1.5-2.7,1.6l2.1-6h2.2l0.3-0.9h-2.1l0.8-2.3h-0.8l-1.5,2.3
	l-1.8,0.3V212.5z M82.2,212.2c0.2-0.6-0.2-0.9-0.5-0.9c-1.3,0-2.8,1.1-3.4,2.8h0.4c0.4-0.6,1.1-1.2,1.8-1.4L78,219
	c-0.2,0.6,0.2,0.9,0.5,0.9c1.2,0,2.6-1.2,3.2-2.8h-0.4c-0.4,0.6-1.1,1.2-1.8,1.4L82.2,212.2z M82.6,209c0.6,0,1.1-0.5,1.1-1.1
	c0-0.6-0.5-1.1-1.1-1.1c-0.6,0-1.1,0.5-1.1,1.1C81.6,208.5,82,209,82.6,209 M74.1,218.5l4.5-11.7l-0.1-0.2l-2.8,0.3v0.3l0.5,0.4
	c0.5,0.4,0.3,0.8-0.1,1.9l-3.5,9.2c-0.3,0.5,0.1,1.1,0.6,1.1c1.3,0,2.6-1.1,3.2-2.8H76C75.6,217.8,74.8,218.4,74.1,218.5
	 M65.7,217.5c0-2,2.2-4.6,3.4-4.6c0.3,0,0.5,0,0.8,0.1l-1.3,3.4c-0.7,0.9-1.9,2-2.4,2C65.8,218.3,65.7,218,65.7,217.5 M72.4,210.9
	l-0.7,0l-0.8,0.7h-0.2c-3.6,0-6.8,4.1-6.8,7.1c0,0.8,0.5,1.3,1.3,1.3c0.9,0,1.9-1.3,2.9-2.8l0,0.5c-0.1,1.5,0.3,2.3,1.1,2.3
	c0.9,0,1.7-1.4,2.3-2.8h-0.4c-0.4,0.6-0.8,1-1.1,1c-0.3,0-0.6-0.6,0-1.9L72.4,210.9z M56.1,221.5c0-0.8,0.8-1.4,2-1.8
	c0.4,0.2,1,0.4,1.7,0.7c1.2,0.4,1.7,0.6,1.7,0.9c0,0.8-1.3,1.4-3.1,1.4C56.9,222.6,56.1,222.3,56.1,221.5 M59.4,216.3
	c-0.5,0-0.7-0.4-0.7-1c0-1.4,0.8-3.5,2-3.5c0.5,0,0.7,0.4,0.7,1C61.4,214.2,60.6,216.3,59.4,216.3 M62.9,220.7c0-1-0.9-1.4-2.4-1.8
	c-1.3-0.4-1.9-0.5-1.9-0.9c0-0.3,0.3-0.7,0.8-1c2.1-0.1,3.4-2,3.4-3.6c0-0.3-0.1-0.6-0.2-0.9h1.8l0.3-0.9H62
	c-0.3-0.2-0.7-0.3-1.1-0.3c-2.2,0-3.7,1.9-3.7,3.5c0,1.2,0.8,1.9,1.7,2.1c-1,0.5-1.6,1-1.6,1.6c0,0.4,0.1,0.6,0.4,0.9
	c-2.4,0.7-3.3,1.5-3.3,2.6c0,1.1,1.5,1.6,3.2,1.6C60.5,223.6,62.9,222,62.9,220.7 M51.7,213.9c1.1,0,1.1,0.4,0.9,1.6h0.6l1.4-3.8
	h-0.6c-0.5,0.9-0.9,1.6-2.1,1.6h-2.3l1.2-3.2c0.4-1.1,0.6-1.3,2-1.3h1c1.5,0,1.7,0.4,1.7,1.9h0.6l0.5-2.6h-8.8l-0.2,0.5
	c1.7,0.4,1.9,0.5,1.1,2.7l-1.9,5.2c-0.8,2.2-1.1,2.4-3.1,2.7l-0.1,0.5h9.8l1.8-2.8h-0.7c-1.1,1.1-2.5,2.1-4.5,2.1
	c-2.6,0-2.4-0.1-1.5-2.5l0.9-2.5H51.7z M53,207.2l3.1-2.1v-0.3h-1.9l-1.7,2.5H53z M92,192.5c0.6,0,1.1,0.4,0.8,1.6l-2.7,0.6
	C90.6,193.4,91.4,192.5,92,192.5 M93.5,196.9H93c-0.7,0.8-1.4,1.5-2.2,1.5c-0.8,0-1.1-0.4-1.1-1.5c0-0.4,0-0.8,0.1-1.2l4.4-1.5
	c0.9-2-0.2-2.9-1.4-2.9c-2.1,0-4.5,3.5-4.5,6.6c0,1.4,0.7,2.1,1.7,2.1C91.3,200,92.5,198.8,93.5,196.9 M92.6,190.5l3.1-2.9v-0.3
	h-1.7l-1.9,3.2H92.6z M83.5,192.5h1.2l-2.3,6.4c-0.2,0.5,0.1,1.1,0.6,1.1c1.3,0,3.5-1.3,4.2-3.1h-0.4c-0.6,0.6-1.7,1.5-2.7,1.6
	l2.1-6h2.2l0.3-0.9h-2.1l0.8-2.3h-0.8l-1.5,2.3l-1.5,0.3V192.5z M82.4,193.3c0.3-1,0.1-1.9-0.7-1.9c-0.9,0-1.2,0.7-2.1,2.8v-1.2
	c0-0.8-0.3-1.6-1-1.6c-0.9,0-1.7,1.4-2.3,2.8h0.4c0.4-0.6,0.8-1,1.1-1c0.4,0,0.6,0.6,0,1.9l-1.7,3.8c-0.3,0.7,0,1.2,0.7,1.2
	c0.4,0,0.6-0.1,0.8-0.6l1.7-4.5c0.5-0.6,0.9-1.1,1.5-1.7H82.4z M72.6,192.5c0.6,0,1.1,0.4,0.8,1.6l-2.7,0.6
	C71.1,193.4,71.9,192.5,72.6,192.5 M74.1,196.9h-0.5c-0.7,0.8-1.4,1.5-2.2,1.5c-0.8,0-1.1-0.4-1.1-1.5c0-0.4,0-0.8,0.1-1.2l4.4-1.5
	c0.9-2-0.2-2.9-1.4-2.9c-2.1,0-4.5,3.5-4.5,6.6c0,1.4,0.7,2.1,1.7,2.1C71.8,200,73,198.8,74.1,196.9 M63.2,198.7
	c-0.4,0-1.1-0.4-1.1-0.7c0-0.1,0.2-0.6,0.4-1.2l0.7-1.9c0.8-0.9,1.9-1.9,2.6-1.9c0.4,0,0.7,0.3,0.7,0.8
	C66.6,195.5,65,198.7,63.2,198.7 M68.3,193.1c0-1.3-0.5-1.8-1.4-1.8c-1.1,0-2.2,1.2-3.2,2.6l2.7-7l-0.1-0.2l-2.8,0.3v0.3l0.5,0.4
	c0.5,0.4,0.3,0.8-0.1,1.9l-2.9,7.4c-0.2,0.5-0.5,1.2-0.5,1.4c0,0.8,1,1.5,2,1.5C64.6,200,68.3,196.1,68.3,193.1 M59.6,192.2
	c0.2-0.6-0.2-0.9-0.5-0.9c-1.3,0-2.8,1.1-3.4,2.8h0.4c0.4-0.6,1.1-1.2,1.8-1.4l-2.4,6.4c-0.2,0.6,0.2,0.9,0.5,0.9
	c1.2,0,2.6-1.2,3.2-2.8h-0.4c-0.4,0.6-1.1,1.2-1.8,1.4L59.6,192.2z M60,189c0.6,0,1.1-0.5,1.1-1.1c0-0.6-0.5-1.1-1.1-1.1
	c-0.6,0-1.1,0.5-1.1,1.1C59,188.6,59.4,189,60,189 M53.6,188h-5.8l-0.2,0.5c1.7,0.4,1.9,0.5,1.1,2.7l-1.9,5.2
	c-0.8,2.2-1.1,2.4-3.1,2.7l-0.1,0.5h8.8l1.9-3.4h-0.7c-1.1,1.2-2.4,2.7-4.3,2.7c-1.5,0-1.7-0.3-0.9-2.5l1.9-5.2
	c0.8-2.2,1.1-2.4,3.1-2.7L53.6,188z"/>
<g>
	<path d="M45.7,108.3V87.1h5.4l5.1,8.7l5.1-8.7h5.4v21.2h-4.3V93.2l-4.7,7.8h-3L50,93.2v15.1H45.7z"/>
	<path d="M72.7,108.3V87.1H77v21.2H72.7z"/>
	<path d="M82.9,108.3V87.1h5.5l9.5,15.1V87.1h4.3v21.2h-5.5l-9.5-15.2v15.2H82.9z"/>
	<path d="M108.1,108.3V87.1h4.3v21.2H108.1z"/>
	<path d="M116.4,105.4l3.1-2.9c0.6,0.8,1.3,1.4,2.2,1.9c0.8,0.5,1.7,0.7,2.5,0.7c0.8,0,1.5-0.2,2-0.7c0.5-0.4,0.7-1,0.7-1.8
		c0-0.9-0.5-1.7-1.5-2.2c-1-0.5-2.1-1-3.3-1.6c-1.2-0.6-2.3-1.3-3.3-2.2c-1-0.9-1.5-2.2-1.5-4c0-0.8,0.2-1.6,0.5-2.4
		c0.3-0.8,0.8-1.4,1.4-2c0.6-0.6,1.3-1,2.1-1.3c0.8-0.3,1.7-0.5,2.8-0.5c1.6,0,3,0.3,4.2,1c1.2,0.7,2.3,1.5,3.2,2.6l-3.1,2.8
		c-0.6-0.8-1.3-1.4-2-1.9c-0.7-0.5-1.4-0.7-2.3-0.7c-0.7,0-1.3,0.2-1.8,0.6s-0.7,0.9-0.7,1.6c0,0.9,0.5,1.7,1.5,2.2
		c1,0.5,2.1,1,3.3,1.6c1.2,0.6,2.3,1.3,3.3,2.3c1,0.9,1.5,2.3,1.5,4c0,1-0.2,1.9-0.6,2.7c-0.4,0.8-0.9,1.5-1.5,2
		c-0.6,0.5-1.4,1-2.2,1.3c-0.8,0.3-1.8,0.4-2.7,0.4c-1.8,0-3.3-0.3-4.6-0.9C118.4,107.3,117.3,106.5,116.4,105.4z"/>
	<path d="M133.4,91v-3.9h17.3V91h-6.5v17.3H140V91H133.4z"/>
	<path d="M154.6,108.3V87.1h12.3v3.7h-8v4.9h6.8v3.7h-6.8v5.3h8v3.7H154.6z M158.8,85.3l-3.9-4.1h4.4l3.4,4.1H158.8z"/>
	<path d="M171.9,108.3V87.1h6.5c2.3,0,4.2,0.6,5.5,1.7c1.3,1.1,2,2.7,2,4.6c0,1.3-0.3,2.4-0.9,3.3c-0.6,0.9-1.4,1.7-2.5,2.2l6.6,9.4
		H184l-5.6-8.6h-2.2v8.6H171.9z M178.6,90.8h-2.4v5.3h2.4c0.9,0,1.6-0.2,2.1-0.7c0.5-0.5,0.8-1.1,0.8-2c0-0.8-0.3-1.4-0.8-1.9
		C180.2,91,179.5,90.8,178.6,90.8z"/>
	<path d="M191.8,108.3V87.1h12.3v3.7h-8v4.9h6.8v3.7h-6.8v5.3h8v3.7H191.8z"/>
	<path d="M55.2,136.8c1.2,0,2.3-0.3,3.2-0.8c0.9-0.5,1.7-1.2,2.3-2.1l3.4,2.6c-1,1.3-2.2,2.4-3.7,3.1c-1.5,0.8-3.3,1.2-5.2,1.2
		c-1.7,0-3.2-0.3-4.6-0.9s-2.6-1.4-3.6-2.4c-1-1-1.8-2.2-2.3-3.6c-0.5-1.4-0.8-2.8-0.8-4.3c0-1.5,0.3-2.9,0.8-4.3
		c0.5-1.4,1.3-2.5,2.3-3.6c1-1,2.2-1.8,3.6-2.4c1.4-0.6,2.9-0.9,4.6-0.9c1.9,0,3.6,0.4,5.2,1.2c1.5,0.8,2.8,1.8,3.7,3.1l-3.4,2.6
		c-0.6-0.9-1.4-1.6-2.3-2.1c-0.9-0.5-2-0.8-3.2-0.8c-1,0-1.9,0.2-2.8,0.6c-0.8,0.4-1.6,0.9-2.2,1.5c-0.6,0.6-1.1,1.4-1.4,2.3
		c-0.3,0.9-0.5,1.8-0.5,2.8c0,1,0.2,2,0.5,2.8c0.3,0.9,0.8,1.6,1.4,2.3c0.6,0.6,1.3,1.1,2.2,1.5C53.3,136.7,54.2,136.8,55.2,136.8z"
		/>
	<path d="M67.8,140.3v-21.2h4.3v8.4h10.7v-8.4h4.3v21.2h-4.3v-8.8H72.1v8.8H67.8z"/>
	<path d="M90.3,140.3l8-21.2h5.6l8,21.2h-4.6l-2-5.5h-8.5l-2,5.5H90.3z M98.2,131.1h5.8l-2.9-7.9L98.2,131.1z"/>
	<path d="M115.2,140.3v-21.2h6.5c2.3,0,4.2,0.6,5.5,1.7c1.3,1.1,2,2.7,2,4.6c0,1.3-0.3,2.4-0.9,3.3c-0.6,0.9-1.4,1.7-2.5,2.2
		l6.6,9.4h-5.1l-5.6-8.6h-2.2v8.6H115.2z M121.9,122.8h-2.4v5.3h2.4c0.9,0,1.6-0.2,2.1-0.7c0.5-0.5,0.8-1.1,0.8-2
		c0-0.8-0.3-1.4-0.8-1.9C123.6,123,122.8,122.8,121.9,122.8z"/>
	<path d="M144.7,136.8c1,0,1.9-0.2,2.8-0.5c0.8-0.3,1.6-0.8,2.2-1.3v-3.6h-5.4v-3.9h9.7v9c-1,1.3-2.3,2.4-3.9,3.1s-3.4,1.2-5.3,1.2
		c-1.7,0-3.3-0.3-4.7-0.9c-1.4-0.6-2.6-1.4-3.6-2.4c-1-1-1.8-2.2-2.4-3.6c-0.6-1.4-0.8-2.8-0.8-4.3c0-1.5,0.3-2.9,0.8-4.3
		c0.5-1.4,1.3-2.5,2.3-3.6c1-1,2.2-1.8,3.6-2.4c1.4-0.6,2.9-0.9,4.6-0.9c1.9,0,3.6,0.4,5.2,1.2c1.5,0.8,2.8,1.8,3.7,3.1l-3.4,2.6
		c-0.6-0.9-1.4-1.6-2.3-2.1c-0.9-0.5-2-0.8-3.2-0.8c-1,0-1.9,0.2-2.8,0.6c-0.8,0.4-1.6,0.9-2.2,1.5c-0.6,0.6-1.1,1.4-1.4,2.3
		c-0.3,0.9-0.5,1.8-0.5,2.8c0,1,0.2,2,0.5,2.8c0.4,0.9,0.8,1.6,1.5,2.3c0.6,0.6,1.4,1.1,2.3,1.5
		C142.7,136.7,143.6,136.8,144.7,136.8z"/>
	<path d="M158.7,140.3v-21.2H171v3.7h-8v4.9h6.8v3.7H163v5.3h8v3.7H158.7z M166.7,117.3h-3.9l3.4-4.1h4.4L166.7,117.3z"/>
	<path d="M183.8,140.3v-21.2h8.3c1.7,0,3.2,0.3,4.6,0.8c1.4,0.6,2.6,1.3,3.6,2.3c1,1,1.7,2.1,2.3,3.4c0.5,1.3,0.8,2.6,0.8,4.1
		c0,1.4-0.3,2.8-0.8,4.1c-0.5,1.3-1.3,2.4-2.3,3.4c-1,1-2.2,1.7-3.6,2.3c-1.4,0.6-2.9,0.8-4.6,0.8H183.8z M192.2,123h-4.1v13.4h4.1
		c1,0,1.9-0.2,2.7-0.5c0.8-0.3,1.5-0.8,2.1-1.4s1.1-1.3,1.4-2.1c0.3-0.8,0.5-1.7,0.5-2.6c0-0.9-0.2-1.8-0.5-2.6
		c-0.3-0.8-0.8-1.5-1.4-2.1c-0.6-0.6-1.3-1.1-2.1-1.4C194.1,123.2,193.2,123,192.2,123z"/>
	<path d="M207.5,140.3v-21.2h12.3v3.7h-8v4.9h6.8v3.7h-6.8v5.3h8v3.7H207.5z"/>
	<path d="M223,137.3l3.1-2.9c0.6,0.8,1.3,1.4,2.2,1.9c0.8,0.5,1.7,0.7,2.5,0.7c0.8,0,1.5-0.2,2-0.7c0.5-0.4,0.7-1,0.7-1.8
		c0-0.9-0.5-1.7-1.5-2.2c-1-0.5-2.1-1-3.3-1.6c-1.2-0.6-2.3-1.3-3.3-2.2c-1-0.9-1.5-2.2-1.5-4c0-0.8,0.2-1.6,0.5-2.4
		c0.3-0.8,0.8-1.4,1.4-2c0.6-0.6,1.3-1,2.1-1.3c0.8-0.3,1.7-0.5,2.8-0.5c1.6,0,3,0.3,4.2,1c1.2,0.7,2.3,1.5,3.2,2.6l-3.1,2.8
		c-0.6-0.8-1.3-1.4-2-1.9c-0.7-0.5-1.4-0.7-2.3-0.7c-0.7,0-1.3,0.2-1.8,0.6c-0.4,0.4-0.7,0.9-0.7,1.6c0,0.9,0.5,1.7,1.5,2.2
		c1,0.5,2.1,1,3.3,1.6c1.2,0.6,2.3,1.3,3.3,2.3c1,0.9,1.5,2.3,1.5,4c0,1-0.2,1.9-0.6,2.7c-0.4,0.8-0.9,1.5-1.5,2
		c-0.6,0.5-1.4,1-2.2,1.3c-0.8,0.3-1.8,0.4-2.7,0.4c-1.8,0-3.3-0.3-4.6-0.9C225,139.3,223.9,138.4,223,137.3z"/>
	<path d="M43.6,155v-3.9h17.3v3.9h-6.5v17.3h-4.3V155H43.6z"/>
	<path d="M64.7,172.2v-21.2h6.5c2.3,0,4.2,0.6,5.5,1.7c1.3,1.1,2,2.7,2,4.6c0,1.3-0.3,2.4-0.9,3.3c-0.6,0.9-1.4,1.7-2.5,2.2l6.6,9.4
		h-5.1l-5.6-8.6H69v8.6H64.7z M71.4,154.7H69v5.3h2.4c0.9,0,1.6-0.2,2.1-0.7c0.5-0.5,0.8-1.1,0.8-2c0-0.8-0.3-1.4-0.8-1.9
		C73,155,72.3,154.7,71.4,154.7z"/>
	<path d="M82.9,172.2l8-21.2h5.6l8,21.2h-4.6l-2-5.5h-8.5l-2,5.5H82.9z M90.8,163.1h5.8l-2.9-7.9L90.8,163.1z"/>
	<path d="M107.8,172.2v-21.2h5.5l9.5,15.1v-15.1h4.3v21.2h-5.5l-9.5-15.2v15.2H107.8z"/>
	<path d="M131,169.3l3.1-2.9c0.6,0.8,1.3,1.4,2.2,1.9c0.8,0.5,1.7,0.7,2.5,0.7c0.8,0,1.5-0.2,2-0.7c0.5-0.4,0.7-1,0.7-1.8
		c0-0.9-0.5-1.7-1.5-2.2c-1-0.5-2.1-1-3.3-1.6c-1.2-0.6-2.3-1.3-3.3-2.2c-1-0.9-1.5-2.2-1.5-4c0-0.8,0.2-1.6,0.5-2.4
		c0.3-0.8,0.8-1.4,1.4-2c0.6-0.6,1.3-1,2.1-1.3c0.8-0.3,1.7-0.5,2.8-0.5c1.6,0,3,0.3,4.2,1c1.2,0.7,2.3,1.5,3.2,2.6l-3.1,2.8
		c-0.6-0.8-1.3-1.4-2-1.9c-0.7-0.5-1.4-0.7-2.3-0.7c-0.7,0-1.3,0.2-1.8,0.6c-0.4,0.4-0.7,0.9-0.7,1.6c0,0.9,0.5,1.7,1.5,2.2
		c1,0.5,2.1,1,3.3,1.6c1.2,0.6,2.3,1.3,3.3,2.3c1,0.9,1.5,2.3,1.5,4c0,1-0.2,1.9-0.6,2.7c-0.4,0.8-0.9,1.5-1.5,2
		c-0.6,0.5-1.4,1-2.2,1.3c-0.8,0.3-1.8,0.4-2.7,0.4c-1.8,0-3.3-0.3-4.6-0.9C133.1,171.3,132,170.4,131,169.3z"/>
	<path d="M150.4,172.2v-21.2h7c2.3,0,4.1,0.6,5.5,1.7s2,2.7,2,4.6c0,1.9-0.7,3.5-2,4.6c-1.3,1.1-3.2,1.7-5.5,1.7h-2.7v8.6H150.4z
		 M157.6,154.7h-2.9v5.3h2.9c0.9,0,1.6-0.2,2.1-0.7c0.5-0.5,0.8-1.1,0.8-2c0-0.8-0.3-1.4-0.8-1.9C159.2,155,158.5,154.7,157.6,154.7
		z"/>
	<path d="M178.3,150.5c1.7,0,3.2,0.3,4.5,0.9c1.4,0.6,2.6,1.4,3.6,2.4c1,1,1.8,2.2,2.3,3.6c0.5,1.4,0.8,2.8,0.8,4.3
		c0,1.5-0.3,2.9-0.8,4.3c-0.5,1.4-1.3,2.5-2.3,3.6c-1,1-2.2,1.8-3.6,2.4s-2.9,0.9-4.5,0.9c-1.7,0-3.2-0.3-4.6-0.9
		c-1.4-0.6-2.6-1.4-3.6-2.4c-1-1-1.8-2.2-2.3-3.6c-0.5-1.4-0.8-2.8-0.8-4.3c0-1.5,0.3-2.9,0.8-4.3c0.5-1.4,1.3-2.5,2.3-3.6
		c1-1,2.2-1.8,3.6-2.4C175.1,150.8,176.7,150.5,178.3,150.5z M178.3,168.8c1,0,1.9-0.2,2.7-0.6c0.8-0.4,1.6-0.9,2.1-1.5
		c0.6-0.6,1.1-1.4,1.4-2.3c0.3-0.9,0.5-1.8,0.5-2.8c0-1-0.2-1.9-0.5-2.8c-0.3-0.9-0.8-1.6-1.4-2.3c-0.6-0.6-1.3-1.1-2.1-1.5
		c-0.8-0.4-1.7-0.6-2.7-0.6c-1,0-1.9,0.2-2.8,0.6c-0.8,0.4-1.6,0.9-2.2,1.5c-0.6,0.6-1.1,1.4-1.4,2.3c-0.3,0.9-0.5,1.8-0.5,2.8
		c0,1,0.2,2,0.5,2.8c0.3,0.9,0.8,1.6,1.4,2.3c0.6,0.6,1.3,1.1,2.2,1.5C176.4,168.6,177.3,168.8,178.3,168.8z"/>
	<path d="M193.6,172.2v-21.2h6.5c2.3,0,4.2,0.6,5.5,1.7c1.4,1.1,2,2.7,2,4.6c0,1.3-0.3,2.4-0.9,3.3c-0.6,0.9-1.4,1.7-2.5,2.2
		l6.6,9.4h-5.1l-5.6-8.6h-2.2v8.6H193.6z M200.3,154.7h-2.4v5.3h2.4c0.9,0,1.6-0.2,2.1-0.7c0.5-0.5,0.8-1.1,0.8-2
		c0-0.8-0.3-1.4-0.8-1.9C202,155,201.3,154.7,200.3,154.7z"/>
	<path d="M210.4,155v-3.9h17.4v3.9h-6.5v17.3H217V155H210.4z"/>
	<path d="M229.2,169.3l3.1-2.9c0.6,0.8,1.3,1.4,2.2,1.9c0.8,0.5,1.7,0.7,2.5,0.7c0.8,0,1.5-0.2,2-0.7c0.5-0.4,0.7-1,0.7-1.8
		c0-0.9-0.5-1.7-1.5-2.2c-1-0.5-2.1-1-3.3-1.6c-1.2-0.6-2.3-1.3-3.3-2.2c-1-0.9-1.5-2.2-1.5-4c0-0.8,0.2-1.6,0.5-2.4
		c0.3-0.8,0.8-1.4,1.4-2s1.3-1,2.1-1.3c0.8-0.3,1.7-0.5,2.8-0.5c1.6,0,3,0.3,4.2,1c1.2,0.7,2.3,1.5,3.2,2.6l-3.1,2.8
		c-0.6-0.8-1.3-1.4-2-1.9c-0.7-0.5-1.4-0.7-2.3-0.7c-0.7,0-1.3,0.2-1.8,0.6c-0.4,0.4-0.7,0.9-0.7,1.6c0,0.9,0.5,1.7,1.5,2.2
		c1,0.5,2.1,1,3.3,1.6c1.2,0.6,2.3,1.3,3.3,2.3c1,0.9,1.5,2.3,1.5,4c0,1-0.2,1.9-0.6,2.7c-0.4,0.8-0.9,1.5-1.5,2
		c-0.6,0.5-1.4,1-2.2,1.3c-0.8,0.3-1.8,0.4-2.7,0.4c-1.8,0-3.3-0.3-4.6-0.9C231.2,171.3,230.1,170.4,229.2,169.3z"/>
</g>
	<rect x="50" y="43.6" width="60" height="28.5" fill="white" />
<path fill="#000091" d="M76.6,69.2c0.3-0.3,0.6-0.6,0.9-1h0c0.6-0.7,1.2-1.3,1.8-1.9c0.2-0.2,0.4-0.3,0.6-0.5c0.1-0.1,0.1-0.2,0.1-0.2
	c-0.3,0.1-0.4,0.3-0.7,0.4c-0.1,0-0.1-0.1-0.1-0.1c0.2-0.1,0.4-0.3,0.6-0.4c0,0,0,0,0,0c-0.1,0-0.1-0.1-0.1-0.1
	c-0.7-0.1-1.3,0.4-1.8,0.8c-0.1,0.1-0.2-0.1-0.3-0.1c-0.8,0.3-1.4,1-2.3,1.3c0-0.1,0-0.1,0-0.1c-0.3,0.1-0.6,0.3-1,0.4
	c-0.5,0.1-0.9,0.1-1.4,0.1c-0.7,0.1-1.3,0.2-2,0.4c0,0,0,0-0.1,0c-0.4,0.1-0.7,0.2-1,0.4c0,0,0,0,0,0c0,0-0.1,0.1-0.1,0.1
	c-0.1,0.1-0.2,0.2-0.4,0.3c-0.3,0.2-0.6,0.5-0.9,0.7c0,0-0.1,0-0.1,0c-0.3,0.3-0.6,0.6-0.9,0.8c0,0-0.1,0-0.2,0c0,0,0,0,0,0
	c0,0,0,0,0-0.1c0-0.1,0.1-0.2,0.1-0.2c0.1-0.1,0.1-0.2,0.2-0.3c0.1-0.1,0.2-0.2,0.2-0.3c0,0,0-0.1,0-0.1c0,0,0,0-0.1,0
	c0.3-0.3,0.6-0.5,0.9-0.7c0,0,0,0,0,0c0,0-0.1,0-0.1-0.1c0,0,0.1-0.1,0.1-0.1c0,0,0,0,0,0c0,0,0,0,0,0c-0.1,0.1-0.2,0.1-0.3,0.2
	c-0.1,0.1-0.2,0.4-0.4,0.4c0,0-0.1,0-0.1,0c0,0,0,0-0.1,0c0,0,0,0,0,0c0,0,0,0,0,0c0,0,0,0,0,0c0,0,0,0,0,0c0,0,0,0,0,0c0,0,0,0,0,0
	c0,0,0,0,0-0.1c0,0,0,0,0,0c0,0,0-0.1,0.1-0.1c0,0,0,0,0-0.1c0,0,0-0.1,0.1-0.1c0,0,0-0.1,0-0.1c0.1-0.1,0.2-0.2,0.4-0.3h0
	c0.2-0.1,0.4-0.2,0.6-0.4c0,0,0.1-0.1,0.1-0.1c-0.3,0.1-0.6,0.2-0.9,0.4c0,0-0.1,0-0.1,0c0,0-0.1,0-0.1,0c0,0,0,0,0,0
	c0.1-0.1,0.2-0.2,0.3-0.3c0.1,0,0.1,0,0.1,0.1c1.8-1.4,4.2-1,6.2-1.8c0.2-0.1,0.3-0.2,0.5-0.3c0.3-0.1,0.5-0.4,0.8-0.5
	c0.4-0.3,0.8-0.7,0.9-1.3c0-0.1-0.1-0.1-0.1-0.1c-0.7,0.8-1.5,1.4-2.4,1.8c-1.2,0.6-2.4,0.5-3.6,0.7c0.1-0.1,0.2-0.1,0.3-0.1
	c0-0.2,0.1-0.2,0.2-0.3c0.1,0,0.1,0,0.2,0c0.1,0,0.1-0.1,0.1-0.1c0.1,0,0.3-0.1,0.2-0.1c-0.2-0.2-0.5,0.2-0.8,0
	c0.1-0.1,0.1-0.3,0.2-0.3c0.1,0,0.2,0,0.2,0c0-0.1,0.1-0.2,0.1-0.2c0.8-0.5,1.6-0.9,2.4-1.3c-0.2,0-0.3,0.2-0.4,0.1
	c0.1,0,0-0.2,0.1-0.2c0.6-0.2,1.1-0.5,1.7-0.7c-0.2,0-0.4,0.2-0.6,0c0.1-0.1,0.2-0.2,0.3-0.2c0-0.1,0-0.1,0-0.2s0.1-0.1,0.1-0.1
	c-0.1,0-0.1-0.1-0.1-0.1c0.1-0.1,0.2-0.1,0.3-0.2c-0.1,0-0.2,0-0.2-0.1c0.2-0.2,0.4-0.3,0.7-0.3C76.1,62,76,62.1,76,62
	c0-0.1,0.1-0.1,0.1-0.1c-0.1,0-0.1,0-0.1,0c-0.1-0.1-0.1-0.2-0.1-0.2c0.3-0.4,0.3-0.9,0.5-1.3c-0.1,0-0.1,0-0.1-0.1
	c-0.5,0.6-1.4,0.8-2.3,1c-0.1,0-0.2,0-0.3,0c-0.3,0.1-0.7,0.1-0.9-0.1c-0.2-0.1-0.3-0.3-0.5-0.4c-0.4-0.3-0.9-0.5-1.4-0.7
	c-1.4-0.4-2.8-0.7-4.2-0.6c0.6-0.3,1.3-0.4,1.9-0.5c0.9-0.3,1.8-0.6,2.8-0.5c-0.2-0.1-0.4,0-0.5,0c-0.8-0.1-1.5,0.2-2.4,0.3
	c-0.5,0.1-1,0.3-1.6,0.4c-0.3,0.1-0.5,0.4-0.9,0.4c0,0,0-0.1,0-0.2c0.5-0.7,1.2-1.3,2.1-1.4c1-0.2,1.9,0,2.9,0.1
	c0.7,0.1,1.4,0.2,2.1,0.4c0.3,0,0.3,0.4,0.6,0.5c0.3,0.1,0.7,0,1,0.2c0-0.1-0.1-0.2,0-0.3c0.2-0.2,0.5,0.1,0.7-0.1
	c0.4-0.3-0.4-0.8-0.6-1.2c0-0.1,0.1-0.1,0.1-0.1c0.4,0.4,0.8,0.8,1.3,1.1c0.3,0.1,0.9,0.3,0.8-0.1c-0.3-0.6-0.8-1.1-1.3-1.6
	c0-0.1,0-0.2,0-0.2c-0.1,0-0.1-0.1-0.2-0.1c0-0.1,0-0.2,0-0.2c-0.2-0.1-0.2-0.3-0.3-0.5c-0.2-0.3-0.1-0.7-0.2-1
	c-0.1-0.3-0.2-0.6-0.2-0.9c-0.2-0.9-0.4-1.8-0.5-2.6c-0.1-1,0.6-1.9,1.1-2.8c0.4-0.7,0.8-1.3,1.5-1.8c0.2-0.7,0.6-1.2,1-1.8
	c0.4-0.5,1.2-0.9,1.7-1.1c0.8-0.3,1.5-0.6,1.5-0.6H43.6v29h26.7c1-0.8,2.1-1.1,3.5-1.8C74.5,70.4,76,69.7,76.6,69.2z M68.1,65.3
	c-0.1,0-0.3,0.1-0.3-0.1c0.1-0.3,0.4-0.3,0.7-0.4c0.1-0.1,0.3-0.2,0.4-0.1c0.1,0.2,0.3,0.1,0.4,0.2C69,65.3,68.5,65.1,68.1,65.3z
	 M59.7,64c0,0-0.1-0.1-0.1-0.1c0.7-0.9,1.3-1.8,1.8-2.8c0.7-0.4,1.3-0.9,1.9-1.5c0.9-1,1.9-1.9,3.1-2.4c0.4-0.2,1-0.1,1.4,0.1
	c-0.2,0.2-0.4,0.2-0.7,0.3c-0.1,0-0.1,0-0.2-0.1c0.1-0.1,0.1-0.1,0.1-0.2c-0.5,0.6-1.3,0.9-1.8,1.6c-0.3,0.5-0.5,1.3-1.3,1.4
	c-0.2,0.1,0.1-0.2-0.1-0.1C62.3,61.3,61.1,62.6,59.7,64z M64.3,60.4c-0.1,0.1-0.1,0.1-0.2,0.2c-0.1,0.1-0.1,0.2-0.2,0.2
	c-0.1,0-0.1,0-0.1-0.1c0.1-0.2,0.2-0.4,0.4-0.5C64.3,60.3,64.3,60.4,64.3,60.4z M66.8,68.6c0,0.1-0.1,0.1-0.1,0.2
	c0.1,0,0.1,0,0.1,0.1c-0.1,0.1-0.2,0.2-0.4,0.3c0,0,0,0-0.1,0c-0.1,0.1-0.1,0.1-0.2,0.2c-0.1,0.1-0.4,0-0.3-0.1
	c0.1-0.1,0.3-0.3,0.4-0.4c0.1-0.1,0.2-0.1,0.2-0.2c0,0,0.1-0.1,0.1-0.1C66.6,68.6,66.9,68.5,66.8,68.6z M65.9,68.2
	C65.9,68.2,65.9,68.2,65.9,68.2c-0.2,0.2-0.4,0.3-0.6,0.4c-0.2,0.1-0.5,0.2-0.7,0.4c0,0,0,0,0,0c0,0-0.1,0-0.1,0
	c-0.2,0.1-0.4,0.3-0.6,0.4c0,0-0.1,0-0.1,0.1l0,0l0,0c0,0-0.1,0.1-0.1,0.1c0,0,0,0,0,0l0,0c0,0-0.1,0.1-0.1,0.1c0,0,0,0.1-0.1,0.1
	c0,0-0.1,0-0.1,0c0,0,0,0,0,0c0,0-0.1,0-0.1,0c0,0-0.1,0-0.1,0c0,0,0,0,0,0c0,0,0,0,0,0C63,69.8,63,69.9,62.9,70
	c-0.1,0.1-0.2,0.2-0.3,0.3c0,0,0,0,0,0c0,0,0,0,0,0c0,0,0,0,0,0c0,0,0,0,0,0c0,0,0,0,0,0c0,0,0,0,0,0.1c0,0,0,0,0,0c0,0,0,0,0,0
	c0,0,0,0,0,0c0,0,0,0,0,0c0,0,0-0.1,0-0.1v0c0,0,0,0,0,0c0.1-0.1,0.1-0.1,0.2-0.2c0,0,0,0,0,0c0,0,0,0,0.1-0.1c0,0,0.1-0.1,0.1-0.1
	c0,0,0,0,0,0c0.1-0.1,0.1-0.2,0.2-0.2c0,0,0,0,0,0c0,0,0,0,0,0c0,0,0.1-0.1,0.1-0.1c0,0,0-0.1,0.1-0.1c0,0,0,0,0,0c0,0,0,0,0,0
	c0,0,0,0,0,0c0,0,0-0.1,0.1-0.1c0,0,0,0,0,0c0,0,0,0,0,0c0,0,0,0,0-0.1l0,0c0,0,0,0,0,0c0,0,0-0.1,0-0.1c0,0,0,0,0,0
	c0.1-0.1,0.1-0.2,0.2-0.3c0,0,0,0,0,0c-0.1,0.1-0.1,0.1-0.2,0.2c-0.1,0-0.2,0-0.1-0.1c0,0,0.1-0.1,0.1-0.1c0,0,0,0,0,0
	c0.1-0.1,0.2-0.2,0.3-0.3c0.1,0,0.1-0.1,0.2-0.1c0,0,0,0,0,0c0-0.1,0.1-0.1,0.1-0.1c0,0,0,0,0,0c0.5-0.5,1.4-0.5,2.1-0.8
	c0.3-0.1,0.6,0.1,0.9,0c0.2,0,0.3,0,0.5,0.1C66.8,67.6,66.3,67.9,65.9,68.2z M67,64.4c-0.1-0.1,0.2,0,0.2-0.1c-0.2,0-0.3,0-0.4,0
	c-0.1,0-0.1-0.1-0.1-0.1c-0.3,0.1-0.6,0.2-0.9,0.2c-0.4,0.1-0.7,0.4-1.2,0.5c-0.6,0.2-1.1,0.7-1.8,0.9c-0.1,0-0.1-0.1-0.1-0.1
	c0.1-0.2,0.3-0.2,0.4-0.4c0-0.1,0-0.1-0.1-0.1c0.4-0.6,1-0.9,1.6-1.4c0-0.1,0-0.1,0-0.2c0.2-0.2,0.4-0.3,0.5-0.6
	c0.1-0.2,0.3-0.4,0.5-0.5c-0.1-0.1-0.2-0.1-0.2-0.2c-0.2,0-0.4,0.1-0.7-0.1c0.1-0.1,0.2-0.2,0.3-0.2c0,0-0.1,0-0.1-0.1
	c-0.1-0.1,0.1-0.2,0.3-0.3c0.2-0.1,0.5-0.1,0.7-0.2c-0.4-0.1-0.8,0.1-1.2-0.1c0.3-0.7,0.7-1.3,1.4-1.6c0.1,0,0.2,0,0.2,0.1
	c0,0.3-0.2,0.5-0.4,0.5c0.4,0.1,0.9,0.1,1.3,0.3c-0.1,0.1-0.2,0.1-0.2,0.1c0.3,0.2,0.6,0.1,0.9,0.3c-0.2,0.2-0.3,0-0.5,0
	c1.7,0.5,3.5,0.9,4.9,2c-1.2,0.6-2.5,0.9-3.8,1.2c-0.2,0-0.3,0-0.4-0.1c0,0.1,0,0.2-0.1,0.2c-0.2,0-0.4,0-0.5,0.1
	C67.5,64.5,67.1,64.5,67,64.4z"/>
<path fill="#E1000F" d="M92.1,43.6c0,0,0.1,0,0.3,0.1c0.3,0.1,0.6,0.3,0.8,0.4c0.4,0.2,0.8,0.5,1,0.9c0.1,0.2,0.3,0.5,0.2,0.7
	c-0.1,0.3-0.2,0.7-0.4,0.8c-0.3,0.2-0.8,0.2-1.2,0.1c-0.2,0-0.4-0.1-0.7-0.1c0.8,0.3,1.6,0.7,2.1,1.5c0.1,0.1,0.3,0.2,0.5,0.2
	c0.1,0,0.1,0.1,0.1,0.2c-0.1,0.1-0.2,0.2-0.2,0.3c0.1,0,0.1,0,0.2,0c0.3-0.1,0.2-0.7,0.6-0.5c0.3,0.2,0.4,0.5,0.2,0.8
	c-0.2,0.2-0.4,0.4-0.7,0.5c-0.1,0.1-0.1,0.3,0,0.4c0.2,0.2,0.2,0.4,0.3,0.7c0.2,0.4,0.2,0.8,0.4,1.2c0.2,0.8,0.4,1.6,0.4,2.5
	c0,0.4-0.2,0.8-0.1,1.3c0.1,0.4,0.4,0.8,0.6,1.2c0.2,0.3,0.4,0.5,0.6,0.9c0.3,0.5,0.9,1.1,0.7,1.8c-0.2,0.4-0.8,0.3-1.2,0.5
	c-0.3,0.3-0.1,0.7,0.1,1c0.3,0.5-0.3,0.8-0.7,1c0.1,0.2,0.3,0.1,0.4,0.2c0.1,0.3,0.3,0.4,0.2,0.7c-0.2,0.3-0.9,0.5-0.5,1
	c0.2,0.4,0.1,0.8-0.1,1.2c-0.2,0.5-0.6,0.7-1,0.8c-0.3,0.1-0.7,0.1-1,0.1c-0.1-0.1-0.2-0.1-0.3-0.1c-0.9-0.1-1.9-0.4-2.8-0.4
	c-0.3,0.1-0.5,0.1-0.8,0.2c-0.2,0.2-0.5,0.4-0.7,0.6c0,0,0,0,0,0c0,0-0.1,0.1-0.1,0.1c0,0,0,0.1-0.1,0.1c0,0,0,0,0,0.1
	c-0.2,0.2-0.3,0.4-0.4,0.6c0,0,0,0,0,0c0,0,0,0.1,0,0.1c-0.2,0.3-0.3,0.7-0.4,1c-0.4,1.3-0.2,2.3,0.1,2.6c0.1,0.1,1.8,0.6,3,1.1
	c0.6,0.3,1,0.4,1.3,0.7h30.7v-29H92.1z"/>
<path fill="#9D9D9C" d="M94,54.2c0.2,0.1,0.5,0.1,0.5,0.2c-0.1,0.4-0.8,0.5-1.1,1h-0.2c-0.2,0.1-0.1,0.4-0.3,0.4
	c-0.2-0.1-0.3,0-0.5,0.1c0.2,0.2,0.5,0.4,0.8,0.3c0.1,0,0.2,0.1,0.2,0.2c0,0,0.1,0,0.1-0.1c0.1,0,0.1,0,0.1,0.1v0.2
	c-0.2,0.2-0.4,0.1-0.7,0.2c0.4,0.1,0.9,0.1,1.3,0c0.3-0.1,0-0.7,0.2-0.9c-0.1,0,0-0.2-0.1-0.2c0.1-0.1,0.2-0.3,0.3-0.3
	c0.1,0,0.3-0.1,0.3-0.2c0-0.1-0.2-0.2-0.2-0.3c0.3-0.2,0.6-0.5,0.5-0.9c-0.1-0.2-0.5-0.2-0.8-0.3c-0.3-0.1-0.6,0-0.9,0.1
	c-0.3,0-0.6,0.2-0.8,0.2c-0.4,0.1-0.7,0.3-1,0.5c0.4-0.2,0.8-0.2,1.2-0.3C93.4,54.2,93.7,54.1,94,54.2z"/>
</svg>
