<?xml version="1.0" encoding="UTF-8" standalone="no"?>
<svg
   xmlns:dc="http://purl.org/dc/elements/1.1/"
   xmlns:cc="http://creativecommons.org/ns#"
   xmlns:rdf="http://www.w3.org/1999/02/22-rdf-syntax-ns#"
   xmlns:svg="http://www.w3.org/2000/svg"
   xmlns="http://www.w3.org/2000/svg"
   viewBox="0 0 100.14667 46.400002"
   height="46.400002"
   width="100.14667"
   xml:space="preserve"
   id="svg2"
   version="1.1"><metadata
     id="metadata8"><rdf:RDF><cc:Work
         rdf:about=""><dc:format>image/svg+xml</dc:format><dc:type
           rdf:resource="http://purl.org/dc/dcmitype/StillImage" /></cc:Work></rdf:RDF></metadata><defs
     id="defs6" /><g
     transform="matrix(1.3333333,0,0,-1.3333333,0,46.4)"
     id="g10"><g
       transform="scale(0.1)"
       id="g12"><path
         id="path14"
         style="fill:#a02127;fill-opacity:1;fill-rule:nonzero;stroke:none"
         d="m 300.484,191.91 c -6.757,3.895 -12.289,13.445 -12.289,21.235 v 59.835 c 0,7.793 5.532,11 12.289,7.125 l 51.762,-29.691 c 6.758,-3.894 12.289,-13.441 12.289,-21.23 v -59.832 c 0,-7.801 -5.531,-11 -12.301,-7.125 l -51.75,29.683" /><path
         id="path16"
         style="fill:#ed1c24;fill-opacity:1;fill-rule:nonzero;stroke:none"
         d="m 461.648,213.285 c 0.016,-7.805 -5.48,-17.363 -12.226,-21.262 L 397.59,162.102 c -6.754,-3.903 -12.289,-0.707 -12.313,7.089 l -0.062,59.664 c -0.02,7.797 5.484,17.36 12.242,21.27 l 51.82,29.906 c 6.75,3.903 12.289,0.715 12.313,-7.078 l 0.058,-59.668" /><path
         id="path18"
         style="fill:#d32027;fill-opacity:1;fill-rule:nonzero;stroke:none"
         d="m 374.961,280.484 c -9.16,0 -16.586,7.434 -16.586,16.594 0,9.16 7.426,16.59 16.586,16.59 9.172,0 16.602,-7.43 16.602,-16.59 0,-9.16 -7.43,-16.594 -16.602,-16.594 z m 67.352,32.762 -55.211,31.879 c -6.754,3.898 -17.789,3.879 -24.532,-0.031 l -54.972,-31.949 c -6.739,-3.911 -6.727,-10.309 0.019,-14.2 l 55.211,-31.882 c 6.754,-3.899 17.793,-3.891 24.531,0.031 l 54.969,31.941 c 6.738,3.918 6.738,10.309 -0.015,14.211" /><path
         id="path20"
         style="fill:#040606;fill-opacity:1;fill-rule:nonzero;stroke:none"
         d="m 58.9336,102.855 h 13.7695 c -0.4297,8.54 -3.7422,15.477 -9.9336,20.821 -6.6211,4.91 -15.4765,7.367 -26.582,7.367 -10.25,0 -18.5703,-2.457 -24.9766,-7.367 -6.19918,-5.344 -9.28902,-12.071 -9.28902,-20.184 0,-6.41 2.1289,-11.5272 6.41015,-15.3709 3.83597,-3.8477 11.41017,-7.1563 22.73827,-9.9258 1.918,-0.6367 4.8008,-1.2773 8.6367,-1.918 8.9727,-1.9335 13.4649,-4.8125 13.4649,-8.6523 0,-2.5586 -1.2813,-4.6016 -3.8477,-6.0898 -2.7851,-1.4883 -6.0859,-2.2383 -9.9336,-2.2383 -5.3398,0 -9.5976,1.0664 -12.8125,3.207 -2.9883,2.125 -4.5898,5.332 -4.8008,9.6016 H 0 v -0.961 C 0,61.7461 3.09375,54.5938 9.28906,49.6875 15.2617,44.7734 24.3438,42.3281 36.5117,42.3281 c 12.8125,0 22.4219,2.336 28.8281,7.0352 6.8282,5.1328 10.254,12.3828 10.254,21.7812 0,6.4141 -2.043,11.5313 -6.0938,15.3828 -4.2695,3.6172 -11.8477,6.8282 -22.7422,9.6094 l -6.0781,1.2774 c -11.1094,2.3398 -16.6602,5.2229 -16.6602,8.6409 0,2.562 0.961,4.492 2.8828,5.769 2.1368,1.278 5.3399,1.918 9.6094,1.918 0.1211,0 0.2188,-0.019 0.3321,-0.019 1.414,0.062 8.664,0.062 12.4335,-5.039 0.1329,-0.129 0.2227,-0.219 0.3633,-0.391 2.1289,-3.629 5.2305,-5.438 9.293,-5.438" /><path
         id="path22"
         style="fill:#040606;fill-opacity:1;fill-rule:nonzero;stroke:none"
         d="m 159.754,82.9961 v 3.5195 c 0,14.1014 -3.418,25.0934 -10.25,32.9964 -7.043,7.687 -16.969,11.527 -29.781,11.527 -12.168,0 -21.68,-3.949 -28.5121,-11.851 -6.6211,-7.692 -9.9257,-18.36 -9.9257,-32.0317 0,-14.2969 3.4179,-25.2969 10.25,-32.9766 6.832,-7.9102 16.3358,-11.8633 28.5118,-11.8633 10.027,0 18.355,2.4609 24.973,7.3711 6.613,4.6914 11.105,11.5313 13.453,20.5 h -16.012 c -2.566,0 -4.539,-0.543 -5.926,-1.6016 -0.324,-0.2461 -0.594,-0.4765 -0.851,-0.6953 -1.02,-1.0234 -1.45,-1.9414 -1.45,-1.9414 -2.011,-2.5429 -5.082,-3.8125 -7.738,-4.4531 -0.086,-0.0195 -0.16,-0.0391 -0.246,-0.0586 -2.797,-0.6367 -5.086,-0.582 -5.086,-0.582 -2.824,0 -5.133,0.5156 -7.101,1.3086 -0.02,0.0117 -0.04,0.0234 -0.059,0.0234 -10.762,4.4219 -10.07,18.582 -10.07,18.582 h 55.5 c 0.211,0.418 0.32,1.168 0.32,2.2266 M 136.695,95.168 h -32.672 c 0.211,5.547 1.809,9.82 4.813,12.809 2.977,2.992 6.82,4.492 11.527,4.492 5.121,0 9.071,-1.5 11.852,-4.492 2.558,-2.778 4.047,-7.051 4.48,-12.809" /><path
         id="path24"
         style="fill:#040606;fill-opacity:1;fill-rule:nonzero;stroke:none"
         d="m 243.84,82.9961 v 3.5195 c 0,14.1014 -3.426,25.0934 -10.25,32.9964 -7.039,7.687 -16.973,11.527 -29.781,11.527 -12.172,0 -21.68,-3.949 -28.508,-11.851 -6.621,-7.692 -9.934,-18.36 -9.934,-32.0317 0,-14.2969 3.422,-25.2969 10.25,-32.9766 6.828,-7.9102 16.344,-11.8633 28.512,-11.8633 10.027,0 18.355,2.4609 24.98,7.3711 6.61,4.6914 11.098,11.5313 13.45,20.5 h -16.008 c -2.574,0 -4.543,-0.543 -5.934,-1.6016 -0.316,-0.2461 -0.586,-0.4765 -0.851,-0.6953 -1.02,-1.0234 -1.45,-1.9414 -1.45,-1.9414 -2.007,-2.5429 -5.078,-3.8125 -7.738,-4.4531 -0.078,-0.0195 -0.164,-0.0391 -0.238,-0.0586 -2.801,-0.6367 -5.09,-0.582 -5.09,-0.582 -2.82,0 -5.133,0.5156 -7.102,1.3086 -0.023,0.0117 -0.043,0.0234 -0.062,0.0234 -10.758,4.4219 -10.066,18.582 -10.066,18.582 h 55.496 c 0.211,0.418 0.324,1.168 0.324,2.2266 M 220.777,95.168 h -32.672 c 0.211,5.547 1.813,9.82 4.809,12.809 2.996,2.992 6.824,4.492 11.535,4.492 5.117,0 9.067,-1.5 11.852,-4.492 2.558,-2.778 4.047,-7.051 4.476,-12.809" /><path
         id="path26"
         style="fill:#040606;fill-opacity:1;fill-rule:nonzero;stroke:none"
         d="m 695.648,82.9961 v 3.5195 c 0,14.1014 -3.414,25.0934 -10.246,32.9964 -7.043,7.687 -16.968,11.527 -29.781,11.527 -12.168,0 -21.68,-3.949 -28.512,-11.851 -6.617,-7.692 -9.925,-18.36 -9.925,-32.0317 0,-14.2969 3.418,-25.2969 10.25,-32.9766 6.832,-7.9102 16.328,-11.8633 28.507,-11.8633 10.032,0 18.364,2.4609 24.985,7.3711 6.605,4.6914 11.097,11.5313 13.445,20.5 h -16.012 c -2.558,0 -4.535,-0.543 -5.925,-1.6016 -0.325,-0.2461 -0.59,-0.4765 -0.84,-0.6953 -1.031,-1.0234 -1.461,-1.9414 -1.461,-1.9414 -2.012,-2.5429 -5.082,-3.8125 -7.738,-4.4531 -0.082,-0.0195 -0.161,-0.0391 -0.243,-0.0586 -2.8,-0.6367 -5.101,-0.582 -5.101,-0.582 -2.809,0 -5.121,0.5156 -7.09,1.3086 -0.02,0.0117 -0.039,0.0234 -0.059,0.0234 -10.761,4.4219 -10.074,18.582 -10.074,18.582 h 55.504 c 0.211,0.418 0.316,1.168 0.316,2.2266 M 672.594,95.168 h -32.672 c 0.211,5.547 1.808,9.82 4.812,12.809 2.977,2.992 6.821,4.492 11.516,4.492 5.133,0 9.082,-1.5 11.859,-4.492 2.563,-2.778 4.055,-7.051 4.485,-12.809" /><path
         id="path28"
         style="fill:#040606;fill-opacity:1;fill-rule:nonzero;stroke:none"
         d="m 307.914,49.0508 v 5.4375 c -3.836,-5.9805 -9.016,-9.711 -15.523,-11.211 -6.528,-1.4882 -12.977,-0.9609 -19.383,1.6055 -6.41,2.5664 -11.914,7.3164 -16.492,14.2578 -4.602,6.9258 -6.891,16.0586 -6.891,27.3789 0,13.2383 3.043,23.9725 9.133,32.1915 6.078,8.215 16.988,13.738 30.437,13.469 10.762,-0.207 16.153,-0.821 24.914,-6.371 8.95,-5.59 14.446,-18.903 14.446,-33.8481 V 46.8086 c 0,-14.9492 -5.516,-26.2773 -14.266,-31.7266 -8.762,-5.45309 -15.98,-7.03122 -26.23,-7.03122 -19.649,0 -31.825,9.18752 -36.508,27.54692 h 23.379 c 1.707,-2.9883 4.32,-5.2852 7.847,-6.8868 3.52,-1.6054 7.039,-2.0234 10.571,-1.2812 3.519,0.7461 6.718,2.8281 9.597,6.2422 2.891,3.4179 4.539,8.5469 4.969,15.3789 m -36.508,36.8281 c 0,-14.7305 4.258,-22.9023 12.809,-24.5 8.539,-1.6016 14.844,0.3711 18.902,5.9297 1.918,2.3437 3.301,6.0312 4.16,11.0391 0.848,5.0195 0.899,9.9804 0.161,14.9023 -0.75,4.9063 -2.508,9.285 -5.293,13.129 -2.77,3.84 -6.829,5.758 -12.168,5.758 -7.262,0 -12.168,-2.664 -14.731,-7.996 -2.558,-5.3441 -3.84,-11.434 -3.84,-18.2621" /><path
         id="path30"
         style="fill:#040606;fill-opacity:1;fill-rule:nonzero;stroke:none"
         d="M 411.941,43.9258 H 389.84 v 54.4453 c 0,5.1209 -1.547,8.8629 -4.641,11.2109 -3.097,2.34 -6.57,3.52 -10.41,3.52 -3.84,0 -7.258,-1.18 -10.246,-3.52 -2.992,-2.348 -4.484,-6.09 -4.484,-11.2109 V 43.9258 h -22.422 v 49.9531 c 0,14.5231 3.797,24.2341 11.375,29.1521 7.578,4.91 15.949,7.582 25.14,8.012 4.907,0 9.707,-0.543 14.411,-1.602 4.695,-1.078 8.968,-3.207 12.804,-6.41 3.203,2.774 7.004,4.75 11.371,5.934 4.383,1.164 8.922,1.859 13.621,2.078 9.387,0 18.032,-2.461 25.942,-7.371 7.89,-4.91 11.851,-14.84 11.851,-29.7931 V 43.9258 h -11.211 c -3.199,0 -5.82,1.0039 -7.851,3.0351 -2.031,2.0313 -3.039,4.6524 -3.039,7.8516 v 43.5586 c 0,5.1209 -1.551,8.8629 -4.653,11.2109 -3.089,2.34 -6.558,3.52 -10.402,3.52 -3.848,0 -7.316,-1.18 -10.418,-3.52 -3.086,-2.348 -4.637,-6.09 -4.637,-11.2109 V 93.8789 43.9258" /><path
         id="path32"
         style="fill:#040606;fill-opacity:1;fill-rule:nonzero;stroke:none"
         d="M 548.641,129.117 V 79.1563 c 0,-15.1602 -3.953,-25.1016 -11.852,-29.7891 -7.902,-4.7031 -16.555,-7.0508 -25.941,-7.0508 -9.192,0.4297 -17.571,2.9883 -25.137,7.6914 -7.586,4.6914 -11.375,14.4102 -11.375,29.1485 V 129.117 H 496.75 V 74.6641 c 0,-5.1133 1.496,-8.8555 4.484,-11.1953 2.993,-2.3633 6.414,-3.5313 10.25,-3.5313 3.844,0 7.313,1.168 10.411,3.5313 3.089,2.3398 4.644,6.082 4.644,11.1953 V 118.23 c 0,2.989 1.008,5.547 3.047,7.684 2.023,2.137 4.641,3.203 7.844,3.203 h 11.211" /><path
         id="path34"
         style="fill:#040606;fill-opacity:1;fill-rule:nonzero;stroke:none"
         d="m 557.219,154.102 h 11.531 c 2.988,0 5.547,-1.024 7.691,-3.043 2.129,-2.028 3.2,-4.539 3.2,-7.532 V 43.918 h -22.422 v 110.184" /><path
         id="path36"
         style="fill:#040606;fill-opacity:1;fill-rule:nonzero;stroke:none"
         d="m 588.547,154.102 h 11.527 c 2.989,0 5.551,-1.024 7.692,-3.043 2.129,-2.028 3.199,-4.539 3.199,-7.532 V 43.918 h -22.418 v 110.184" /><path
         id="path38"
         style="fill:#040606;fill-opacity:1;fill-rule:nonzero;stroke:none"
         d="m 703.078,43.9258 v 41.3164 c 0,8.3203 1.227,15.3088 3.676,20.9808 2.461,5.648 5.82,10.191 10.094,13.609 4.054,3.199 8.808,5.551 14.257,7.039 5.438,1.492 11.047,2.254 16.813,2.254 h 1.594 1.601 v -22.746 h -7.355 c -6.203,0 -10.781,-1.496 -13.781,-4.484 -2.993,-2.9927 -4.485,-7.6841 -4.485,-14.0942 v -43.875 h -22.414" /><path
         id="path40"
         style="fill:#656a6c;fill-opacity:1;fill-rule:nonzero;stroke:none"
         d="m 393.672,22.4492 c -0.18,0.8516 -0.477,1.6133 -0.887,2.2617 -0.422,0.6485 -0.972,1.1797 -1.633,1.5899 -0.668,0.4023 -1.507,0.6015 -2.519,0.6015 -1.02,0 -1.867,-0.1992 -2.567,-0.6015 -0.695,-0.4102 -1.25,-0.9492 -1.671,-1.6094 -0.418,-0.6719 -0.731,-1.4297 -0.922,-2.2812 -0.18,-0.8594 -0.278,-1.75 -0.278,-2.6797 0,-0.8711 0.098,-1.7383 0.309,-2.5977 0.199,-0.8867 0.531,-1.6523 0.98,-2.3359 0.45,-0.6797 1.008,-1.2266 1.688,-1.6446 0.68,-0.4218 1.5,-0.6328 2.461,-0.6328 1.012,0 1.859,0.1993 2.539,0.6094 0.68,0.3984 1.223,0.9414 1.633,1.6289 0.398,0.6836 0.687,1.4531 0.867,2.3203 0.172,0.875 0.262,1.7735 0.262,2.6992 0,0.9336 -0.09,1.8243 -0.262,2.6719 m 0.262,-11.0976 c -0.731,-1.2227 -1.672,-2.1016 -2.848,-2.63285 -1.172,-0.53516 -2.492,-0.8125 -3.981,-0.8125 -1.679,0 -3.148,0.33203 -4.433,0.98438 -1.27,0.64843 -2.32,1.52737 -3.149,2.64847 -0.82,1.1211 -1.453,2.3984 -1.871,3.8398 -0.418,1.4609 -0.629,2.9609 -0.629,4.5313 0,1.5 0.211,2.957 0.629,4.3593 0.418,1.4141 1.051,2.6524 1.871,3.7227 0.829,1.0703 1.86,1.9297 3.11,2.5859 1.238,0.6485 2.691,0.9844 4.34,0.9844 1.34,0 2.601,-0.293 3.808,-0.8633 1.203,-0.5586 2.157,-1.3906 2.852,-2.4883 h 0.078 v 11.3008 h 6.172 V 8.48047 h -5.86 v 2.87113 z m 17.898,22.375 4.18,6.1718 h 6.832 l -6.699,-6.1718 z m 6.723,-8.0352 c -0.742,0.8125 -1.86,1.2109 -3.364,1.2109 -0.988,0 -1.804,-0.1601 -2.457,-0.5039 -0.648,-0.3281 -1.179,-0.7382 -1.57,-1.2304 -0.391,-0.4961 -0.66,-1.0196 -0.82,-1.5664 -0.16,-0.5508 -0.258,-1.0391 -0.289,-1.4805 h 10.05 c -0.3,1.5664 -0.812,2.7617 -1.55,3.5703 m -6.981,-11.8203 c 0.934,-0.8984 2.27,-1.3516 4.008,-1.3516 1.238,0 2.309,0.3086 3.215,0.9297 0.894,0.6211 1.449,1.2813 1.648,1.9805 h 5.442 c -0.871,-2.6992 -2.215,-4.6211 -4,-5.77736 -1.801,-1.16406 -3.973,-1.74609 -6.524,-1.74609 -1.769,0 -3.371,0.28516 -4.781,0.85156 -1.418,0.5625 -2.629,1.37109 -3.609,2.41409 -0.989,1.039 -1.746,2.289 -2.282,3.7383 -0.535,1.4492 -0.808,3.0429 -0.808,4.7812 0,1.6797 0.281,3.25 0.832,4.6875 0.551,1.4492 1.332,2.7109 2.348,3.7578 1.007,1.0664 2.218,1.9063 3.632,2.5 1.403,0.6094 2.957,0.9258 4.668,0.9258 1.91,0 3.578,-0.375 4.989,-1.1094 1.421,-0.7422 2.593,-1.7343 3.503,-2.9843 0.918,-1.25 1.583,-2.6719 1.981,-4.2579 0.41,-1.5937 0.547,-3.2617 0.437,-5 h -16.218 c 0.09,-2 0.601,-3.4531 1.519,-4.3398 m 24.781,17.0781 v -3.0508 h 0.086 c 0.813,1.1641 1.782,2.0625 2.934,2.6993 1.148,0.6406 2.457,0.9648 3.938,0.9648 1.41,0 2.71,-0.2812 3.89,-0.832 1.172,-0.5508 2.063,-1.5196 2.672,-2.9102 0.656,0.9805 1.566,1.8516 2.719,2.6094 1.14,0.75 2.492,1.1328 4.062,1.1328 1.188,0 2.285,-0.1523 3.297,-0.4414 1.02,-0.293 1.891,-0.7539 2.613,-1.3906 0.715,-0.6407 1.289,-1.4688 1.688,-2.5 0.41,-1.0313 0.609,-2.2696 0.609,-3.7227 V 8.48047 h -6.172 V 21.2109 c 0,0.7618 -0.027,1.4571 -0.086,2.1289 -0.05,0.6719 -0.21,1.2383 -0.468,1.7422 -0.266,0.4883 -0.653,0.8789 -1.153,1.1641 -0.519,0.293 -1.203,0.4453 -2.07,0.4453 -0.871,0 -1.566,-0.1719 -2.109,-0.5039 -0.543,-0.3398 -0.953,-0.7695 -1.262,-1.3047 -0.297,-0.543 -0.508,-1.1445 -0.609,-1.8242 -0.098,-0.6758 -0.153,-1.3672 -0.153,-2.0703 V 8.48047 h -6.168 V 21.082 c 0,0.668 -0.015,1.3282 -0.05,1.9766 -0.02,0.6523 -0.137,1.25 -0.36,1.8008 -0.219,0.5469 -0.578,0.9883 -1.086,1.3281 -0.512,0.332 -1.265,0.5039 -2.242,0.5039 -0.293,0 -0.668,-0.0742 -1.152,-0.1992 -0.481,-0.1328 -0.938,-0.3711 -1.387,-0.7422 -0.453,-0.3594 -0.84,-0.8789 -1.152,-1.5586 -0.317,-0.6836 -0.481,-1.5703 -0.481,-2.6719 V 8.48047 h -6.172 V 30.9492 Z m 40.676,2.7774 4.18,6.1718 h 6.82 l -6.687,-6.1718 z m 6.727,-8.0352 c -0.742,0.8125 -1.863,1.2109 -3.375,1.2109 -0.988,0 -1.797,-0.1601 -2.445,-0.5039 -0.665,-0.3281 -1.184,-0.7382 -1.575,-1.2304 -0.39,-0.4961 -0.668,-1.0196 -0.832,-1.5664 -0.16,-0.5508 -0.246,-1.0391 -0.277,-1.4805 h 10.039 c -0.285,1.5664 -0.801,2.7617 -1.535,3.5703 m -6.985,-11.8203 c 0.934,-0.8984 2.262,-1.3516 4,-1.3516 1.25,0 2.321,0.3086 3.223,0.9297 0.887,0.6211 1.449,1.2813 1.649,1.9805 h 5.429 c -0.859,-2.6992 -2.203,-4.6211 -3.988,-5.77736 -1.801,-1.16406 -3.984,-1.74609 -6.523,-1.74609 -1.766,0 -3.372,0.28516 -4.782,0.85156 -1.429,0.5625 -2.625,1.37109 -3.605,2.41409 -0.992,1.039 -1.75,2.289 -2.293,3.7383 -0.531,1.4492 -0.801,3.0429 -0.801,4.7812 0,1.6797 0.27,3.25 0.832,4.6875 0.551,1.4492 1.332,2.7109 2.34,3.7578 1.019,1.0664 2.23,1.9063 3.633,2.5 1.41,0.6094 2.957,0.9258 4.676,0.9258 1.91,0 3.57,-0.375 4.992,-1.1094 1.418,-0.7422 2.59,-1.7343 3.5,-2.9843 0.906,-1.25 1.57,-2.6719 1.98,-4.2579 0.399,-1.5937 0.547,-3.2617 0.442,-5 h -16.223 c 0.09,-2 0.601,-3.4531 1.519,-4.3398 m 24.649,17.0781 v -3.1289 h 0.133 c 0.781,1.2969 1.8,2.25 3.043,2.8399 1.25,0.5976 2.515,0.9023 3.828,0.9023 1.648,0 2.996,-0.2305 4.058,-0.6797 1.063,-0.4531 1.891,-1.0703 2.5,-1.8633 0.598,-0.8086 1.028,-1.7812 1.282,-2.9179 0.25,-1.1407 0.367,-2.4141 0.367,-3.8047 V 8.48047 h -6.168 V 21.1719 c 0,1.8476 -0.293,3.2304 -0.867,4.1484 -0.582,0.9063 -1.614,1.3711 -3.094,1.3711 -1.68,0 -2.899,-0.5039 -3.652,-1.5039 -0.747,-0.9961 -1.125,-2.6445 -1.125,-4.9258 V 8.48047 h -6.172 V 30.9492 Z m 21.164,-3.3086 c 0.637,0.961 1.449,1.7266 2.437,2.3086 0.981,0.5821 2.09,0.9922 3.332,1.2383 1.219,0.2422 2.458,0.375 3.708,0.375 1.132,0 2.281,-0.082 3.429,-0.2422 1.164,-0.1601 2.223,-0.4805 3.18,-0.9414 0.953,-0.457 1.746,-1.1094 2.34,-1.9297 0.609,-0.8281 0.922,-1.9179 0.922,-3.2812 V 13.4688 c 0,-1.0079 0.05,-1.9766 0.171,-2.9102 0.11,-0.92579 0.317,-1.6211 0.61,-2.07813 h -6.258 c -0.121,0.33984 -0.211,0.69922 -0.285,1.05859 -0.067,0.35938 -0.125,0.73044 -0.149,1.11324 -0.988,-1.01949 -2.152,-1.73433 -3.476,-2.13277 -1.336,-0.41015 -2.703,-0.61328 -4.094,-0.61328 -1.07,0 -2.07,0.13281 -3,0.39453 -0.922,0.26172 -1.742,0.66797 -2.43,1.21875 -0.687,0.55077 -1.242,1.24217 -1.628,2.08987 -0.391,0.8281 -0.594,1.832 -0.594,2.9883 0,1.2851 0.234,2.3359 0.676,3.164 0.449,0.8203 1.031,1.4805 1.746,1.9688 0.711,0.4883 1.519,0.8593 2.433,1.1093 0.907,0.254 1.828,0.4415 2.758,0.5899 0.93,0.1406 1.84,0.2617 2.738,0.3516 0.891,0.0859 1.692,0.207 2.395,0.3906 0.687,0.1719 1.25,0.4179 1.648,0.7578 0.407,0.332 0.586,0.8164 0.559,1.4492 0,0.6719 -0.098,1.1992 -0.316,1.5899 -0.223,0.3906 -0.516,0.6875 -0.875,0.9101 -0.36,0.2188 -0.778,0.3594 -1.262,0.4414 -0.477,0.0703 -0.996,0.1094 -1.547,0.1094 -1.211,0 -2.168,-0.2695 -2.859,-0.7891 -0.7,-0.5195 -1.102,-1.3867 -1.223,-2.6015 h -6.168 c 0.09,1.4531 0.449,2.6523 1.082,3.6015 m 12.199,-8.7109 c -0.398,-0.1289 -0.82,-0.2422 -1.262,-0.3281 -0.453,-0.0938 -0.918,-0.1602 -1.418,-0.211 -0.492,-0.0625 -0.98,-0.1406 -1.468,-0.2187 -0.477,-0.0938 -0.934,-0.211 -1.371,-0.3516 -0.45,-0.1406 -0.852,-0.3437 -1.184,-0.5898 -0.328,-0.2422 -0.598,-0.5508 -0.797,-0.9297 -0.199,-0.3789 -0.301,-0.8594 -0.301,-1.4414 0,-0.5508 0.102,-1.0078 0.301,-1.3906 0.199,-0.3711 0.481,-0.668 0.817,-0.8868 0.351,-0.2226 0.761,-0.3711 1.218,-0.4492 0.465,-0.0937 0.946,-0.1445 1.442,-0.1445 1.211,0 2.164,0.2109 2.824,0.6133 0.668,0.4101 1.156,0.8867 1.48,1.4609 0.317,0.5703 0.504,1.1367 0.59,1.7148 0.067,0.5821 0.098,1.043 0.098,1.3946 v 2.3008 c -0.262,-0.2305 -0.582,-0.4102 -0.969,-0.543 m 25.137,-4.6289 c 0.672,0.3515 1.223,0.8086 1.652,1.3906 0.438,0.5781 0.762,1.2422 0.981,1.9766 0.218,0.7422 0.328,1.5234 0.328,2.3281 0,0.9258 -0.09,1.8047 -0.27,2.625 -0.172,0.8281 -0.461,1.5586 -0.859,2.1992 -0.41,0.6406 -0.941,1.1406 -1.609,1.5195 -0.672,0.3829 -1.512,0.5625 -2.524,0.5625 -0.867,0 -1.617,-0.1718 -2.238,-0.5234 -0.629,-0.3398 -1.149,-0.8086 -1.567,-1.4101 -0.414,-0.5899 -0.722,-1.2813 -0.91,-2.0391 -0.191,-0.7695 -0.285,-1.5703 -0.285,-2.418 0,-0.8125 0.086,-1.6133 0.242,-2.414 0.16,-0.7852 0.43,-1.5079 0.828,-2.1485 0.383,-0.6367 0.907,-1.1601 1.543,-1.5625 0.629,-0.4062 1.434,-0.6054 2.387,-0.6054 0.871,0 1.633,0.1679 2.301,0.5195 m 8.465,-7.48049 c -0.25,-1.16015 -0.782,-2.23047 -1.594,-3.22656 -0.809,-1.00391 -1.988,-1.85156 -3.52,-2.55469 -1.539,-0.687497 -3.589,-1.04296625 -6.168,-1.04296625 -1.113,0 -2.23,0.14453125 -3.371,0.41015625 -1.148,0.285156 -2.191,0.71484 -3.132,1.29688 -0.95,0.57421 -1.719,1.3164 -2.348,2.22656 -0.621,0.92187 -0.981,2.01172 -1.063,3.28125 h 6.133 c 0.289,-1.14844 0.852,-1.95703 1.692,-2.41406 0.839,-0.44922 1.804,-0.66797 2.91,-0.66797 1.738,0 3.008,0.52343 3.801,1.5625 0.796,1.05078 1.179,2.36718 1.156,3.96093 v 2.94926 h -0.09 c -0.668,-1.1836 -1.609,-2.0625 -2.852,-2.63285 -1.23,-0.55859 -2.527,-0.83984 -3.886,-0.83984 -1.68,0 -3.129,0.30468 -4.352,0.89059 -1.211,0.5899 -2.211,1.4102 -2.992,2.4297 -0.785,1.0313 -1.356,2.2305 -1.719,3.6133 -0.359,1.375 -0.547,2.8281 -0.547,4.3672 0,1.4492 0.223,2.8398 0.641,4.1914 0.422,1.3477 1.031,2.5391 1.848,3.5703 0.808,1.0313 1.808,1.8516 3.011,2.4453 1.211,0.6094 2.586,0.9258 4.149,0.9258 1.48,0 2.777,-0.2812 3.902,-0.832 1.109,-0.5508 2.035,-1.4805 2.797,-2.7774 h 0.09 v 2.9961 h 5.875 V 9.91016 c 0,-0.89844 -0.133,-1.92969 -0.371,-3.08985 m 19.34,18.87109 c -0.743,0.8125 -1.864,1.2109 -3.375,1.2109 -0.989,0 -1.805,-0.1601 -2.457,-0.5039 -0.649,-0.3281 -1.172,-0.7382 -1.563,-1.2304 -0.391,-0.4961 -0.668,-1.0196 -0.828,-1.5664 -0.16,-0.5508 -0.25,-1.0391 -0.277,-1.4805 h 10.039 c -0.289,1.5664 -0.813,2.7617 -1.539,3.5703 m -6.985,-11.8203 c 0.934,-0.8984 2.262,-1.3516 4,-1.3516 1.242,0 2.321,0.3086 3.223,0.9297 0.89,0.6211 1.441,1.2813 1.648,1.9805 h 5.434 c -0.871,-2.6992 -2.203,-4.6211 -4,-5.77736 -1.793,-1.16406 -3.973,-1.74609 -6.524,-1.74609 -1.769,0 -3.359,0.28516 -4.781,0.85156 -1.418,0.5625 -2.617,1.37109 -3.609,2.41409 -0.981,1.039 -1.738,2.289 -2.278,3.7383 -0.542,1.4492 -0.8,3.0429 -0.8,4.7812 0,1.6797 0.269,3.25 0.816,4.6875 0.555,1.4492 1.344,2.7109 2.352,3.7578 1.011,1.0664 2.218,1.9063 3.632,2.5 1.403,0.6094 2.958,0.9258 4.668,0.9258 1.911,0 3.579,-0.375 5,-1.1094 1.418,-0.7422 2.59,-1.7343 3.5,-2.9843 0.911,-1.25 1.575,-2.6719 1.985,-4.2579 0.398,-1.5937 0.547,-3.2617 0.43,-5 h -16.211 c 0.078,-2 0.589,-3.4531 1.515,-4.3398 m 24.781,17.0781 v -3.0508 h 0.079 c 0.808,1.1641 1.793,2.0625 2.933,2.6993 1.149,0.6406 2.457,0.9648 3.938,0.9648 1.422,0 2.722,-0.2812 3.89,-0.832 1.172,-0.5508 2.071,-1.5196 2.672,-2.9102 0.668,0.9805 1.582,1.8516 2.719,2.6094 1.152,0.75 2.5,1.1328 4.059,1.1328 1.191,0 2.289,-0.1523 3.308,-0.4414 1.012,-0.293 1.883,-0.7539 2.613,-1.3906 0.719,-0.6407 1.282,-1.4688 1.692,-2.5 0.398,-1.0313 0.609,-2.2696 0.609,-3.7227 V 8.48047 h -6.172 V 21.2109 c 0,0.7618 -0.031,1.4571 -0.09,2.1289 -0.058,0.6719 -0.218,1.2383 -0.476,1.7422 -0.266,0.4883 -0.641,0.8789 -1.152,1.1641 -0.508,0.293 -1.204,0.4453 -2.063,0.4453 -0.867,0 -1.574,-0.1719 -2.109,-0.5039 -0.539,-0.3398 -0.961,-0.7695 -1.258,-1.3047 -0.309,-0.543 -0.508,-1.1445 -0.61,-1.8242 -0.097,-0.6758 -0.152,-1.3672 -0.152,-2.0703 V 8.48047 h -6.18 V 21.082 c 0,0.668 -0.007,1.3282 -0.039,1.9766 -0.031,0.6523 -0.148,1.25 -0.371,1.8008 -0.218,0.5469 -0.578,0.9883 -1.078,1.3281 -0.512,0.332 -1.262,0.5039 -2.238,0.5039 -0.293,0 -0.68,-0.0742 -1.152,-0.1992 -0.481,-0.1328 -0.95,-0.3711 -1.399,-0.7422 -0.453,-0.3594 -0.828,-0.8789 -1.152,-1.5586 -0.321,-0.6836 -0.481,-1.5703 -0.481,-2.6719 V 8.48047 h -6.172 V 30.9492 Z m 47.395,-5.2578 c -0.742,0.8125 -1.863,1.2109 -3.375,1.2109 -0.977,0 -1.797,-0.1601 -2.445,-0.5039 -0.653,-0.3281 -1.184,-0.7382 -1.567,-1.2304 -0.386,-0.4961 -0.668,-1.0196 -0.828,-1.5664 -0.16,-0.5508 -0.25,-1.0391 -0.277,-1.4805 h 10.039 c -0.289,1.5664 -0.813,2.7617 -1.547,3.5703 m -6.977,-11.8203 c 0.934,-0.8984 2.262,-1.3516 3.993,-1.3516 1.25,0 2.32,0.3086 3.222,0.9297 0.899,0.6211 1.449,1.2813 1.66,1.9805 h 5.43 c -0.871,-2.6992 -2.215,-4.6211 -4,-5.77736 -1.801,-1.16406 -3.973,-1.74609 -6.523,-1.74609 -1.77,0 -3.36,0.28516 -4.782,0.85156 -1.418,0.5625 -2.625,1.37109 -3.605,2.41409 -0.984,1.039 -1.75,2.289 -2.281,3.7383 -0.543,1.4492 -0.813,3.0429 -0.813,4.7812 0,1.6797 0.281,3.25 0.832,4.6875 0.551,1.4492 1.332,2.7109 2.348,3.7578 1.012,1.0664 2.223,1.9063 3.633,2.5 1.402,0.6094 2.961,0.9258 4.668,0.9258 1.91,0 3.578,-0.375 5,-1.1094 1.422,-0.7422 2.582,-1.7343 3.5,-2.9843 0.91,-1.25 1.574,-2.6719 1.972,-4.2579 0.407,-1.5937 0.547,-3.2617 0.442,-5 h -16.211 c 0.078,-2 0.59,-3.4531 1.515,-4.3398 m 24.641,17.0781 v -3.1289 h 0.133 c 0.781,1.2969 1.801,2.25 3.051,2.8399 1.242,0.5976 2.507,0.9023 3.82,0.9023 1.648,0 2.996,-0.2305 4.07,-0.6797 1.051,-0.4531 1.891,-1.0703 2.485,-1.8633 0.613,-0.8086 1.043,-1.7812 1.297,-2.9179 0.238,-1.1407 0.363,-2.4141 0.363,-3.8047 V 8.48047 h -6.176 V 21.1719 c 0,1.8476 -0.281,3.2304 -0.859,4.1484 -0.59,0.9063 -1.614,1.3711 -3.09,1.3711 -1.692,0 -2.903,-0.5039 -3.664,-1.5039 -0.746,-0.9961 -1.117,-2.6445 -1.117,-4.9258 V 8.48047 h -6.172 V 30.9492 Z m 32.691,0 v -4.1289 h -4.515 V 15.6914 c 0,-1.0391 0.164,-1.7422 0.515,-2.0898 0.352,-0.3399 1.04,-0.5235 2.082,-0.5235 0.348,0 0.688,0.0196 1,0.0508 0.317,0.0313 0.629,0.0703 0.918,0.1328 V 8.48047 c -0.527,-0.08984 -1.097,-0.15234 -1.738,-0.17969 -0.64,-0.03125 -1.262,-0.03906 -1.871,-0.03906 -0.961,0 -1.859,0.05469 -2.719,0.1875 -0.851,0.13281 -1.601,0.39062 -2.261,0.76172 -0.649,0.3789 -1.161,0.91796 -1.539,1.60546 -0.379,0.7031 -0.571,1.6133 -0.571,2.7461 v 13.2578 h -3.73 v 4.1289 h 3.73 v 6.7305 h 6.184 v -6.7305 z m 8.579,-16.8867 c 0.285,-0.4805 0.632,-0.8711 1.074,-1.1719 0.429,-0.3086 0.929,-0.5312 1.5,-0.6797 0.558,-0.1445 1.144,-0.2226 1.758,-0.2226 0.429,0 0.89,0.0625 1.363,0.164 0.476,0.0977 0.918,0.2579 1.308,0.4688 0.387,0.2187 0.719,0.5156 0.981,0.8672 0.258,0.3711 0.391,0.8203 0.391,1.3711 0,0.9297 -0.622,1.6328 -1.852,2.0898 -1.23,0.4727 -2.949,0.9297 -5.152,1.3906 -0.899,0.2071 -1.778,0.4415 -2.629,0.7227 -0.852,0.2656 -1.61,0.6367 -2.281,1.0781 -0.668,0.4492 -1.2,1.0196 -1.61,1.6992 -0.398,0.6797 -0.609,1.5079 -0.609,2.5 0,1.4493 0.289,2.6407 0.851,3.5586 0.571,0.9336 1.309,1.6602 2.243,2.2032 0.925,0.5351 1.964,0.9062 3.128,1.125 1.157,0.2226 2.336,0.3359 3.559,0.3359 1.223,0 2.398,-0.125 3.539,-0.3516 1.149,-0.2304 2.168,-0.6211 3.07,-1.1679 0.903,-0.5625 1.649,-1.2969 2.239,-2.2032 0.59,-0.9062 0.953,-2.0703 1.058,-3.4609 h -5.859 c -0.086,1.1914 -0.535,2 -1.348,2.4219 -0.808,0.418 -1.769,0.6289 -2.871,0.6289 -0.351,0 -0.73,-0.0195 -1.129,-0.0703 -0.406,-0.0391 -0.777,-0.1406 -1.109,-0.2813 -0.328,-0.1445 -0.621,-0.3554 -0.852,-0.6289 -0.23,-0.2773 -0.34,-0.6484 -0.34,-1.1094 0,-0.5507 0.2,-1 0.598,-1.3476 0.41,-0.3516 0.945,-0.6289 1.594,-0.8399 0.648,-0.2226 1.398,-0.4218 2.238,-0.5898 0.844,-0.1797 1.692,-0.3633 2.563,-0.5742 0.894,-0.1992 1.781,-0.4492 2.629,-0.7422 0.851,-0.2773 1.617,-0.668 2.281,-1.1445 0.668,-0.4688 1.207,-1.0703 1.605,-1.7852 0.41,-0.707 0.614,-1.5859 0.614,-2.625 0,-1.4805 -0.301,-2.7187 -0.891,-3.7187 -0.602,-0.9922 -1.371,-1.8047 -2.328,-2.41411 -0.953,-0.60937 -2.051,-1.03125 -3.274,-1.28125 -1.238,-0.24609 -2.488,-0.37109 -3.757,-0.37109 -1.309,0 -2.59,0.13281 -3.829,0.39453 -1.25,0.26172 -2.363,0.70313 -3.332,1.3125 -0.968,0.59372 -1.769,1.40622 -2.39,2.40622 -0.621,1 -0.957,2.25 -1.024,3.7578 h 5.875 c 0,-0.6679 0.137,-1.2382 0.407,-1.7148" /></g></g></svg>