<svg width="156" height="156" viewBox="0 0 156 156" fill="none" xmlns="http://www.w3.org/2000/svg">
<path fill-rule="evenodd" clip-rule="evenodd" d="M9.94501 90.8031C8.77501 90.8031 7.99501 90.0231 7.99501 88.8531C7.99501 87.6831 8.77501 86.9031 9.94501 86.9031C11.115 86.9031 11.895 87.6831 11.895 88.8531C11.895 90.0231 11.115 90.8031 9.94501 90.8031Z" fill="#ECECFE"/>
<path fill-rule="evenodd" clip-rule="evenodd" d="M80.145 11.4381C78.975 11.4381 78.195 10.6581 78.195 9.48809C78.195 8.31809 78.975 7.53809 80.145 7.53809C81.315 7.53809 82.095 8.31809 82.095 9.48809C82.095 10.6581 81.315 11.4381 80.145 11.4381Z" fill="#ECECFE"/>
<path fill-rule="evenodd" clip-rule="evenodd" d="M138.255 54.338C137.085 54.338 136.305 53.558 136.305 52.388C136.305 51.218 137.085 50.438 138.255 50.438C139.425 50.438 140.205 51.218 140.205 52.388C140.205 53.558 139.425 54.338 138.255 54.338Z" fill="#ECECFE"/>
<path fill-rule="evenodd" clip-rule="evenodd" d="M57.915 143.063C56.745 143.063 55.965 142.283 55.965 141.113C55.965 139.943 56.745 139.163 57.915 139.163C59.085 139.163 59.865 139.943 59.865 141.113C59.865 142.088 59.085 143.063 57.915 143.063Z" fill="#ECECFE"/>
<path d="M34.3358 77.8035C33.2592 79.5091 32.7144 81.2272 32.441 82.5267C32.3049 83.1733 32.2382 83.7062 32.2056 84.0675C32.1893 84.2477 32.1817 84.3842 32.1781 84.4694C32.1763 84.512 32.1755 84.5417 32.1752 84.5576L32.175 84.5668L32.175 84.5704C32.1708 85.6438 31.2994 86.5126 30.225 86.5126C29.148 86.5126 28.275 85.6396 28.275 84.5626V51.4126C28.275 50.3357 29.148 49.4626 30.225 49.4626C31.302 49.4626 32.175 50.3357 32.175 51.4126V74.1298V76.7632L34.3358 77.8035Z" fill="#E1000F"/>
<path fill-rule="evenodd" clip-rule="evenodd" d="M112.426 49.4865C113.49 49.6526 114.218 50.6499 114.052 51.714L112.125 51.4132C114.052 51.714 114.052 51.7133 114.052 51.714L114.051 51.7169L114.049 51.7282L114.046 51.7491L114.035 51.8106C114.026 51.8603 114.014 51.9271 113.997 52.0101C113.963 52.1761 113.911 52.407 113.836 52.695C113.687 53.2708 113.445 54.0762 113.066 55.0482C112.306 56.9923 110.995 59.6077 108.772 62.3823C108.099 63.2229 106.871 63.3584 106.031 62.685C105.19 62.0117 105.055 60.7845 105.728 59.944C107.67 57.5203 108.796 55.2607 109.433 53.6294C109.751 52.8137 109.947 52.1563 110.061 51.7162C110.118 51.4963 110.155 51.3309 110.176 51.2277C110.187 51.1761 110.193 51.1401 110.197 51.1205L110.199 51.1111C110.199 51.1087 110.199 51.1063 110.2 51.104C110.37 50.0445 111.365 49.3208 112.426 49.4865ZM32.175 84.5655L32.175 84.5675L32.175 84.5704L32.1752 84.5597C32.1755 84.5444 32.1763 84.5152 32.1781 84.4732C32.1818 84.3891 32.1897 84.2539 32.2065 84.0749C32.2401 83.7162 32.3091 83.1861 32.4499 82.5424C32.7327 81.2496 33.2969 79.5363 34.4147 77.833C36.5739 74.5428 41.0438 70.9132 50.7 70.9132C56.2283 70.9132 60.3232 71.1539 63.9018 71.3962C64.3405 71.4259 64.7726 71.4558 65.1997 71.4852C68.2462 71.6956 71.0347 71.8882 74.1 71.8882C75.177 71.8882 76.05 71.0151 76.05 69.9382C76.05 68.8612 75.177 67.9882 74.1 67.9882C71.1782 67.9882 68.5304 67.8056 65.4728 67.5947C65.0456 67.5653 64.6104 67.5353 64.1654 67.5051C60.5455 67.26 56.3529 67.0132 50.7 67.0132C39.8812 67.0132 34.1136 71.1836 31.1541 75.6933C29.7125 77.89 28.997 80.0767 28.64 81.709C28.4608 82.5277 28.3698 83.2164 28.3235 83.7108C28.3003 83.9584 28.2882 84.1583 28.2818 84.3027C28.2787 84.375 28.277 84.4334 28.276 84.4771L28.2752 84.5316L28.275 84.5503L28.275 84.5574L28.275 84.5605C28.275 84.5619 28.275 84.5632 30.225 84.5632H28.275C28.275 85.6401 29.148 86.5132 30.225 86.5132C31.2991 86.5132 32.1704 85.6435 32.175 84.5704C32.175 84.5684 32.175 84.5675 32.175 84.5655Z" fill="#E1000F"/>
<path d="M97.6516 109.934C97.301 110.953 97.8423 112.062 98.8606 112.413C102.929 113.814 107.374 111.646 108.775 107.577C110.176 103.509 108.008 99.0638 103.939 97.663C99.8712 96.2622 95.4257 98.4304 94.0249 102.499C93.6743 103.517 94.2156 104.627 95.2338 104.977C96.2521 105.328 97.3618 104.787 97.7125 103.768L97.8172 103.497C98.614 101.642 100.73 100.683 102.67 101.351C104.701 102.05 105.787 104.276 105.088 106.308C104.388 108.34 102.162 109.425 100.13 108.726C99.112 108.375 98.0023 108.916 97.6516 109.934Z" fill="#E1000F"/>
<path fill-rule="evenodd" clip-rule="evenodd" d="M30.225 94.3131C24.3017 94.3131 19.5 99.1148 19.5 105.038C19.5 110.961 24.3017 115.763 30.225 115.763C36.1483 115.763 40.95 110.961 40.95 105.038C40.95 99.1148 36.1483 94.3131 30.225 94.3131ZM15.6 105.038C15.6 96.9609 22.1478 90.4131 30.225 90.4131C38.3022 90.4131 44.85 96.9609 44.85 105.038C44.85 113.115 38.3022 119.663 30.225 119.663C22.1478 119.663 15.6 113.115 15.6 105.038Z" fill="#000091"/>
<path fill-rule="evenodd" clip-rule="evenodd" d="M30.225 20.213C24.3017 20.213 19.5 25.0147 19.5 30.938C19.5 36.8612 24.3017 41.663 30.225 41.663C36.1483 41.663 40.95 36.8612 40.95 30.938C40.95 25.0147 36.1483 20.213 30.225 20.213ZM15.6 30.938C15.6 22.8608 22.1478 16.313 30.225 16.313C38.3022 16.313 44.85 22.8608 44.85 30.938C44.85 39.0152 38.3022 45.563 30.225 45.563C22.1478 45.563 15.6 39.0152 15.6 30.938Z" fill="#000091"/>
<path fill-rule="evenodd" clip-rule="evenodd" d="M112.125 20.213C106.202 20.213 101.4 25.0147 101.4 30.938C101.4 36.8612 106.202 41.663 112.125 41.663C118.048 41.663 122.85 36.8612 122.85 30.938C122.85 25.0147 118.048 20.213 112.125 20.213ZM97.5 30.938C97.5 22.8608 104.048 16.313 112.125 16.313C120.202 16.313 126.75 22.8608 126.75 30.938C126.75 39.0151 120.202 45.563 112.125 45.563C104.048 45.563 97.5 39.0151 97.5 30.938Z" fill="#000091"/>
<path fill-rule="evenodd" clip-rule="evenodd" d="M101.4 69.9381C82.0148 69.9381 66.3 85.6529 66.3 105.038C66.3 111.76 68.1876 118.035 71.4606 123.369C74.093 127.659 77.6222 131.34 81.7866 134.151C82.6792 134.754 82.9144 135.966 82.3118 136.859C81.7092 137.751 80.4971 137.986 79.6045 137.384C74.9795 134.262 71.0607 130.174 68.1365 125.408C64.4977 119.478 62.4 112.5 62.4 105.038C62.4 83.499 79.8609 66.0381 101.4 66.0381C122.939 66.0381 140.4 83.499 140.4 105.038C140.4 106.115 139.527 106.988 138.45 106.988C137.373 106.988 136.5 106.115 136.5 105.038C136.5 85.6529 120.785 69.9381 101.4 69.9381Z" fill="#000091"/>
<path d="M74.1051 103.088L74.1063 102.008L74.1375 101.7C74.3485 100.407 75.4071 99.4243 76.6992 99.2991L76.9794 99.2856L78.502 99.2864L78.7533 99.2801C79.778 99.2157 80.6882 98.5925 81.1565 97.5984L81.5968 96.5466L81.7757 96.1445C82.2296 95.1683 82.0711 94.0046 81.3809 93.1627L81.1795 92.9414L79.9455 91.6939L79.7326 91.4245C79.0081 90.3687 79.0724 88.9619 79.8751 87.972L80.0734 87.7513L84.2593 83.5772L84.3876 83.4707C85.2162 82.7829 86.4456 82.897 87.1335 83.7257C87.7684 84.4906 87.72 85.597 87.057 86.3037L86.8785 86.4716L86.8836 86.4565L83.5485 89.7947L83.932 90.1784C85.8522 92.0816 86.4459 94.9414 85.4823 97.3937L85.1774 98.0918L84.9056 98.7344C84.0381 101.135 81.8947 102.828 79.3399 103.138L78.9332 103.175L78.5596 103.186L78.0007 103.187V106.892L78.5499 106.891C81.0846 106.886 83.4018 108.303 84.5659 110.563L84.74 110.927L84.8701 111.25C84.9586 111.482 85.0525 111.713 85.1471 111.934L85.2891 112.256C86.3566 114.553 86.0439 117.241 84.4802 119.259L84.2081 119.589L83.9397 119.873L83.5387 120.275L86.8708 123.607C87.5738 124.31 87.6279 125.416 87.0331 126.181L86.8708 126.365C86.1679 127.068 85.0618 127.122 84.2968 126.527L84.1131 126.365L79.9397 122.179L79.7264 121.91C79.0005 120.855 79.0627 119.449 79.8648 118.457L80.063 118.235L81.1397 117.159L81.3215 116.967C82.0544 116.131 82.228 114.923 81.7456 113.885C81.6242 113.618 81.5055 113.342 81.3962 113.072L81.1496 112.448C80.7444 111.535 79.8493 110.901 78.8333 110.804L78.5535 110.791L76.8226 110.784L76.5148 110.753C75.221 110.542 74.2387 109.483 74.1135 108.191L74.0999 107.911L74.1009 106.988L74.1051 103.088Z" fill="#000091"/>
<path d="M106.926 121.872C104.666 123.036 103.248 125.353 103.253 127.888L103.255 128.438H99.5496L99.548 127.878L99.5378 127.505L99.5005 127.098C99.1908 124.543 97.4977 122.4 95.0968 121.532L94.4542 121.261L94.1207 121.112L93.9076 121.032C92.9755 120.741 91.953 121.188 91.547 122.102C91.1098 123.087 91.5532 124.239 92.5374 124.676L92.909 124.841L93.9608 125.281C94.9549 125.75 95.5781 126.66 95.6425 127.685L95.6488 127.936L95.648 129.459L95.6615 129.739C95.7867 131.031 96.7691 132.089 98.0628 132.3L98.3707 132.332L104.273 132.338L104.554 132.325C105.846 132.199 106.904 131.217 107.115 129.923L107.147 129.615L107.153 127.885L107.166 127.605C107.264 126.589 107.897 125.694 108.811 125.288L109.436 125.041C109.706 124.932 109.984 124.812 110.254 124.689C111.288 124.212 112.492 124.385 113.331 125.119L113.524 125.301L114.601 126.378L114.821 126.575C115.807 127.375 117.211 127.443 118.264 126.725L118.534 126.513L122.729 122.317L122.927 122.097C123.728 121.108 123.792 119.702 123.068 118.646L122.855 118.376L121.621 117.129L121.42 116.908C120.729 116.066 120.571 114.902 121.025 113.926C121.156 113.636 121.277 113.356 121.389 113.082L121.539 112.704L121.653 112.434C122.113 111.473 123.026 110.852 124.038 110.795L124.286 110.79L125.821 110.791L126.101 110.777C127.393 110.652 128.452 109.669 128.663 108.376L128.694 108.068L128.7 102.165L128.687 101.885C128.562 100.593 127.579 99.5341 126.286 99.3231L125.978 99.2919L124.247 99.2855L123.967 99.2724C122.951 99.1747 122.056 98.5412 121.651 97.6279L121.404 97.004C121.295 96.7345 121.176 96.4579 121.055 96.1909C120.572 95.1529 120.746 93.9449 121.479 93.1089L121.661 92.9174L122.74 91.8378L122.938 91.6174C123.739 90.629 123.805 89.2237 123.083 88.169L122.87 87.8995L118.695 83.7115L118.474 83.5132C117.484 82.7105 116.077 82.6462 115.021 83.3706L114.752 83.5836L113.497 84.8248L113.277 85.0241C112.438 85.7075 111.278 85.8645 110.296 85.4115L109.9 85.2352L108.862 84.8015C107.854 84.3329 107.226 83.4215 107.159 82.3896L107.152 82.1365L107.153 80.6175L107.139 80.3373C107.014 79.0452 106.032 77.9866 104.738 77.7756L104.43 77.7444L98.5275 77.738L98.2473 77.7516C96.9552 77.8768 95.8966 78.8591 95.6856 80.1529L95.6543 80.4607L95.648 82.1916L95.6348 82.4714C95.5372 83.4874 94.9037 84.3825 93.9904 84.7877L93.3655 85.0347C93.0951 85.1444 92.8174 85.2637 92.5469 85.3866C91.5665 85.8324 91.1331 86.9885 91.5788 87.9688C92.0245 88.9492 93.1806 89.3827 94.161 88.9369C94.4927 88.7861 94.8399 88.6412 95.1888 88.5082L95.5117 88.3781L95.8755 88.204C98.1354 87.0399 99.5526 84.7227 99.548 82.188L99.5496 81.638H103.255L103.253 82.1977L103.264 82.5767L103.3 82.9658C103.609 85.5396 105.318 87.6934 107.738 88.5532L108.352 88.8148L108.687 88.964L109.052 89.1194C111.508 90.0776 114.354 89.4891 116.256 87.5813L116.653 87.1858L119.266 89.7988L118.861 90.2033L118.592 90.4873L118.32 90.8171C116.757 92.8348 116.444 95.5233 117.511 97.8197L117.794 98.4799L118.06 99.1493L118.234 99.513C119.399 101.773 121.716 103.19 124.251 103.186L124.802 103.186V106.891H124.241L123.882 106.898L123.496 106.931C120.939 107.22 118.776 108.91 117.896 111.314L117.771 111.626L117.633 111.954L117.481 112.296L117.324 112.663C116.355 115.129 116.948 117.989 118.868 119.892L119.254 120.279L116.641 122.902L116.235 122.498L115.948 122.228L115.618 121.956C113.601 120.397 110.922 120.084 108.629 121.144L108.131 121.361L107.289 121.698L106.926 121.872Z" fill="#000091"/>
</svg>
