<svg width="154" height="154" viewBox="0 0 154 154" fill="none" xmlns="http://www.w3.org/2000/svg">
<path fill-rule="evenodd" clip-rule="evenodd" d="M11.55 65.1881C12.6087 65.1881 13.475 64.3219 13.475 63.2631C13.475 62.2044 12.6087 61.3381 11.55 61.3381C10.4912 61.3381 9.625 62.2044 9.625 63.2631C9.625 64.3219 10.4912 65.1881 11.55 65.1881Z" fill="#ECECFE"/>
<path fill-rule="evenodd" clip-rule="evenodd" d="M88.55 11.288C89.6087 11.288 90.475 10.4217 90.475 9.36299C90.475 8.30424 89.6087 7.43799 88.55 7.43799C87.4912 7.43799 86.625 8.30424 86.625 9.36299C86.625 10.4217 87.4912 11.288 88.55 11.288Z" fill="#ECECFE"/>
<path fill-rule="evenodd" clip-rule="evenodd" d="M127.05 119.088C128.109 119.088 128.975 118.222 128.975 117.163C128.975 116.104 128.109 115.238 127.05 115.238C125.991 115.238 125.125 116.104 125.125 117.163C125.125 118.222 125.991 119.088 127.05 119.088Z" fill="#ECECFE"/>
<path fill-rule="evenodd" clip-rule="evenodd" d="M142.45 57.4879C143.509 57.4879 144.375 56.6217 144.375 55.5629C144.375 54.5042 143.509 53.6379 142.45 53.6379C141.391 53.6379 140.525 54.5042 140.525 55.5629C140.525 56.6217 141.391 57.4879 142.45 57.4879Z" fill="#ECECFE"/>
<path fill-rule="evenodd" clip-rule="evenodd" d="M69.3 140.263C70.3587 140.263 71.225 139.397 71.225 138.338C71.225 137.279 70.3587 136.413 69.3 136.413C68.2412 136.413 67.375 137.279 67.375 138.338C67.375 139.397 68.2412 140.263 69.3 140.263Z" fill="#ECECFE"/>
<path fill-rule="evenodd" clip-rule="evenodd" d="M77 50.3468C65.6672 50.3468 56.4852 59.5288 56.4852 70.8616C56.4852 71.6079 56.532 72.3805 56.6117 73.1303C56.6144 73.1556 56.6166 73.1808 56.6183 73.2059C57.7781 83.4214 66.4608 91.3764 77 91.3764C88.3328 91.3764 97.5147 82.1944 97.5147 70.8616C97.5147 59.5288 88.3328 50.3468 77 50.3468ZM52.7761 73.4685C52.778 73.4996 52.7807 73.5308 52.7841 73.5621C54.1266 85.7376 64.4524 95.2264 77 95.2264C90.4591 95.2264 101.365 84.3207 101.365 70.8616C101.365 57.4025 90.4591 46.4968 77 46.4968C63.5409 46.4968 52.6352 57.4025 52.6352 70.8616C52.6352 71.7395 52.6885 72.6251 52.7761 73.4685Z" fill="#E1000F"/>
<path fill-rule="evenodd" clip-rule="evenodd" d="M77.0001 95.2265C59.4858 95.2265 45.274 109.422 45.274 126.953C45.274 128.016 44.4122 128.878 43.349 128.878C42.2859 128.878 41.424 128.016 41.424 126.953C41.424 107.295 57.3608 91.3765 77.0001 91.3765C96.64 91.3765 112.576 107.313 112.576 126.953C112.576 128.016 111.714 128.878 110.651 128.878C109.588 128.878 108.726 128.016 108.726 126.953C108.726 109.439 94.5137 95.2265 77.0001 95.2265Z" fill="#E1000F"/>
<path d="M110.484 41.4766C112.61 41.4766 114.334 39.7529 114.334 37.6266C114.334 35.5003 112.61 33.7766 110.484 33.7766C108.357 33.7766 106.634 35.5003 106.634 37.6266C106.634 39.7529 108.357 41.4766 110.484 41.4766Z" fill="#E1000F"/>
<path fill-rule="evenodd" clip-rule="evenodd" d="M123.286 65.7435C124.349 65.7521 125.204 66.6209 125.195 67.684L125.058 84.6126C125.049 85.6757 124.18 86.5305 123.117 86.5219C122.054 86.5133 121.199 85.6445 121.208 84.5813L121.345 67.6528C121.354 66.5897 122.223 65.7348 123.286 65.7435Z" fill="#000091"/>
<path fill-rule="evenodd" clip-rule="evenodd" d="M28.0615 23.4042C28.4255 23.0391 28.9207 22.8352 29.4362 22.8382L123.591 23.3876C124.102 23.3906 124.591 23.5967 124.95 23.9605C125.309 24.3244 125.508 24.8161 125.504 25.3272L125.247 59.2014C125.239 60.2646 124.37 61.1198 123.307 61.1118C122.244 61.1037 121.389 60.2353 121.397 59.1722L121.64 27.2263L31.3679 26.6995L31.8993 84.5791C31.9091 85.6422 31.0552 86.512 29.9921 86.5217C28.929 86.5315 28.0592 85.6776 28.0495 84.6145L27.5001 24.7808C27.4953 24.2653 27.6976 23.7694 28.0615 23.4042Z" fill="#000091"/>
<path fill-rule="evenodd" clip-rule="evenodd" d="M28.5951 83.2537C28.9575 82.8816 29.4549 82.6716 29.9743 82.6716H46.9029C47.966 82.6716 48.8279 83.5335 48.8279 84.5966C48.8279 85.6598 47.966 86.5216 46.9029 86.5216H30.7868L18.036 99.6174H36.7732C37.8363 99.6174 38.6982 100.479 38.6982 101.542C38.6982 102.606 37.8363 103.467 36.7732 103.467H13.475C12.7011 103.467 12.0024 103.004 11.7015 102.291C11.4005 101.578 11.5559 100.754 12.0958 100.199L28.5951 83.2537Z" fill="#000091"/>
<path d="M38.4901 101.543C38.4901 102.491 37.7214 103.259 36.7732 103.259C35.825 103.259 35.0563 102.491 35.0563 101.543C35.0563 100.594 35.825 99.8257 36.7732 99.8257C37.7214 99.8257 38.4901 100.594 38.4901 101.543Z" fill="#000091"/>
<path d="M38.4901 101.543C38.4901 102.491 37.7214 103.259 36.7732 103.259C35.825 103.259 35.0563 102.491 35.0563 101.543C35.0563 100.594 35.825 99.8257 36.7732 99.8257C37.7214 99.8257 38.4901 100.594 38.4901 101.543Z" fill="#000091"/>
<path d="M38.4901 101.543C38.4901 102.491 37.7214 103.259 36.7732 103.259C35.825 103.259 35.0563 102.491 35.0563 101.543C35.0563 100.594 35.825 99.8257 36.7732 99.8257C37.7214 99.8257 38.4901 100.594 38.4901 101.543Z" fill="#000091"/>
<path d="M38.4901 101.543C38.4901 102.491 37.7214 103.259 36.7732 103.259C35.825 103.259 35.0563 102.491 35.0563 101.543C35.0563 100.594 35.825 99.8257 36.7732 99.8257C37.7214 99.8257 38.4901 100.594 38.4901 101.543Z" fill="#000091"/>
<path d="M38.4901 101.543C38.4901 102.491 37.7214 103.259 36.7732 103.259C35.825 103.259 35.0563 102.491 35.0563 101.543C35.0563 100.594 35.825 99.8257 36.7732 99.8257C37.7214 99.8257 38.4901 100.594 38.4901 101.543Z" fill="#000091"/>
<path fill-rule="evenodd" clip-rule="evenodd" d="M43.3125 101.542C43.3125 100.479 44.1743 99.6174 45.2375 99.6174H47.3492C48.4124 99.6174 49.2742 100.479 49.2742 101.542C49.2742 102.606 48.4124 103.467 47.3492 103.467H45.2375C44.1743 103.467 43.3125 102.606 43.3125 101.542Z" fill="#000091"/>
<path fill-rule="evenodd" clip-rule="evenodd" d="M104.279 84.5966C104.279 83.5335 105.141 82.6716 106.204 82.6716H123.133C123.635 82.6716 124.117 82.8676 124.476 83.2179L141.868 100.164C142.429 100.71 142.603 101.542 142.308 102.267C142.013 102.993 141.308 103.467 140.525 103.467H106.651C105.588 103.467 104.726 102.606 104.726 101.542C104.726 100.479 105.588 99.6174 106.651 99.6174H135.791L122.35 86.5216H106.204C105.141 86.5216 104.279 85.6598 104.279 84.5966Z" fill="#000091"/>
<path fill-rule="evenodd" clip-rule="evenodd" d="M36.96 33.7768C36.96 32.7137 37.8219 31.8518 38.885 31.8518H89.705C90.7682 31.8518 91.63 32.7137 91.63 33.7768C91.63 34.84 90.7682 35.7018 89.705 35.7018H38.885C37.8219 35.7018 36.96 34.84 36.96 33.7768Z" fill="#000091"/>
<path fill-rule="evenodd" clip-rule="evenodd" d="M36.96 42.2583C36.96 41.1951 37.8219 40.3333 38.885 40.3333H55.8307C56.8939 40.3333 57.7557 41.1951 57.7557 42.2583C57.7557 43.3214 56.8939 44.1833 55.8307 44.1833H38.885C37.8219 44.1833 36.96 43.3214 36.96 42.2583Z" fill="#000091"/>
<path fill-rule="evenodd" clip-rule="evenodd" d="M36.96 50.7224C36.96 49.6592 37.8219 48.7974 38.885 48.7974H47.3493C48.4124 48.7974 49.2743 49.6592 49.2743 50.7224C49.2743 51.7855 48.4124 52.6474 47.3493 52.6474H38.885C37.8219 52.6474 36.96 51.7855 36.96 50.7224Z" fill="#000091"/>
</svg>
